<?xml version="1.0" encoding="UTF-8"?>
<svg width="334px" height="74px" viewBox="0 0 334 74" version="1.1" xmlns="http://www.w3.org/2000/svg" xmlns:xlink="http://www.w3.org/1999/xlink">
    <!-- Generator: Sketch 40.3 (33839) - http://www.bohemiancoding.com/sketch -->
    <title>Group</title>
    <desc>Created with Sketch.</desc>
    <defs>
        <rect id="path-1" x="0" y="0" width="60" height="36" rx="3"></rect>
        <mask id="mask-2" maskContentUnits="userSpaceOnUse" maskUnits="objectBoundingBox" x="0" y="0" width="60" height="36" fill="white">
            <use xlink:href="#path-1"></use>
        </mask>
        <rect id="path-3" x="0" y="0" width="33" height="7" rx="2"></rect>
        <mask id="mask-4" maskContentUnits="userSpaceOnUse" maskUnits="objectBoundingBox" x="0" y="0" width="33" height="7" fill="white">
            <use xlink:href="#path-3"></use>
        </mask>
        <rect id="path-5" x="0" y="0" width="60" height="36" rx="3"></rect>
        <mask id="mask-6" maskContentUnits="userSpaceOnUse" maskUnits="objectBoundingBox" x="0" y="0" width="60" height="36" fill="white">
            <use xlink:href="#path-5"></use>
        </mask>
        <rect id="path-7" x="0" y="0" width="17" height="7" rx="2"></rect>
        <mask id="mask-8" maskContentUnits="userSpaceOnUse" maskUnits="objectBoundingBox" x="0" y="0" width="17" height="7" fill="white">
            <use xlink:href="#path-7"></use>
        </mask>
        <rect id="path-9" x="0" y="0" width="60" height="36" rx="3"></rect>
        <mask id="mask-10" maskContentUnits="userSpaceOnUse" maskUnits="objectBoundingBox" x="0" y="0" width="60" height="36" fill="white">
            <use xlink:href="#path-9"></use>
        </mask>
        <rect id="path-11" x="0" y="0" width="18" height="4" rx="2"></rect>
        <mask id="mask-12" maskContentUnits="userSpaceOnUse" maskUnits="objectBoundingBox" x="0" y="0" width="18" height="4" fill="white">
            <use xlink:href="#path-11"></use>
        </mask>
        <rect id="path-13" x="0" y="0" width="60" height="36" rx="3"></rect>
        <mask id="mask-14" maskContentUnits="userSpaceOnUse" maskUnits="objectBoundingBox" x="0" y="0" width="60" height="36" fill="white">
            <use xlink:href="#path-13"></use>
        </mask>
        <rect id="path-15" x="0" y="0" width="18" height="4" rx="2"></rect>
        <mask id="mask-16" maskContentUnits="userSpaceOnUse" maskUnits="objectBoundingBox" x="0" y="0" width="18" height="4" fill="white">
            <use xlink:href="#path-15"></use>
        </mask>
        <rect id="path-17" x="3" y="4" width="12" height="10" rx="1"></rect>
        <filter x="-50%" y="-50%" width="200%" height="200%" filterUnits="objectBoundingBox" id="filter-18">
            <feOffset dx="0" dy="2" in="SourceAlpha" result="shadowOffsetOuter1"></feOffset>
            <feGaussianBlur stdDeviation="2" in="shadowOffsetOuter1" result="shadowBlurOuter1"></feGaussianBlur>
            <feColorMatrix values="0 0 0 0 0.22745098   0 0 0 0 0.243137255   0 0 0 0 0.250980392  0 0 0 0.5 0" type="matrix" in="shadowBlurOuter1"></feColorMatrix>
        </filter>
    </defs>
    <g id="Sprite" stroke="none" stroke-width="1" fill="none" fill-rule="evenodd">
        <g id="SPRITE">
            <g id="Group">
                <g id="optin/variations/one">
                    <g id="variation_01">
                        <use id="Frame" stroke="#85929E" mask="url(#mask-2)" stroke-width="4" xlink:href="#path-1"></use>
                        <path d="M13,12 L17,17 L9,17 L13,12 Z M10,11 C10.5522847,11 11,10.5522847 11,10 C11,9.44771525 10.5522847,9 10,9 C9.44771525,9 9,9.44771525 9,10 C9,10.5522847 9.44771525,11 10,11 Z M7,6.99406028 L7,6.99406028 L7,19.0059397 C7,19.0017887 6.99821242,19 6.99406028,19 L19.0059397,19 C19.0017887,19 19,19.0017876 19,19.0059397 L19,6.99406028 C19,6.99821134 19.0017876,7 19.0059397,7 L6.99406028,7 C6.99821134,7 7,6.99821242 7,6.99406028 L7,6.99406028 Z M5,6.99406028 C5,5.8927712 5.89451376,5 6.99406028,5 L19.0059397,5 C20.1072288,5 21,5.89451376 21,6.99406028 L21,19.0059397 C21,20.1072288 20.1054862,21 19.0059397,21 L6.99406028,21 C5.8927712,21 5,20.1054862 5,19.0059397 L5,6.99406028 L5,6.99406028 Z" id="Image" fill="#85929E"></path>
                        <path d="M23,7 C23,6.44771525 23.4523621,6 23.9927864,6 L54.0072136,6 C54.5555144,6 55,6.44386482 55,7 C55,7.55228475 54.5476379,8 54.0072136,8 L23.9927864,8 C23.4444856,8 23,7.55613518 23,7 Z M23,11 C23,10.4477153 23.4523621,10 23.9927864,10 L54.0072136,10 C54.5555144,10 55,10.4438648 55,11 C55,11.5522847 54.5476379,12 54.0072136,12 L23.9927864,12 C23.4444856,12 23,11.5561352 23,11 Z M23,15 C23,14.4477153 23.4523621,14 23.9927864,14 L54.0072136,14 C54.5555144,14 55,14.4438648 55,15 C55,15.5522847 54.5476379,16 54.0072136,16 L23.9927864,16 C23.4444856,16 23,15.5561352 23,15 Z M23,19 C23,18.4477153 23.4446309,18 24.0008717,18 L37.9991283,18 C38.5518945,18 39,18.4438648 39,19 C39,19.5522847 38.5553691,20 37.9991283,20 L24.0008717,20 C23.4481055,20 23,19.5561352 23,19 Z" id="Content" fill-opacity="0.400000006" fill="#85929E"></path>
                        <g id="Optin" transform="translate(5.000000, 24.000000)">
                            <use id="Rectangle-420" stroke="#2ECC71" mask="url(#mask-4)" stroke-width="2" xlink:href="#path-3"></use>
                            <rect id="Rectangle-420-Copy" fill="#2ECC71" x="36" y="0" width="14" height="7" rx="2"></rect>
                        </g>
                    </g>
                </g>
                <g id="optin/variations/two" transform="translate(93.000000, 0.000000)">
                    <g id="variation_02">
                        <rect id="Rectangle-740" fill-opacity="0.5" fill="#CED3D8" x="38" y="2" width="21" height="32"></rect>
                        <use id="Frame" stroke="#85929E" mask="url(#mask-6)" stroke-width="4" xlink:href="#path-5"></use>
                        <path d="M46.754386,19.1929825 L45,17 L41,22 L47,22 L55,22 L50,14 L46.754386,19.1929825 Z M42,16 C42.5522847,16 43,15.5522847 43,15 C43,14.4477153 42.5522847,14 42,14 C41.4477153,14 41,14.4477153 41,15 C41,15.5522847 41.4477153,16 42,16 Z" id="Image" fill="#85929E"></path>
                        <path d="M5,7 C5,6.44771525 5.43981314,6 5.99653482,6 L32.0034652,6 C32.5538362,6 33,6.44386482 33,7 C33,7.55228475 32.5601869,8 32.0034652,8 L5.99653482,8 C5.44616384,8 5,7.55613518 5,7 Z M5,11 C5,10.4477153 5.43981314,10 5.99653482,10 L32.0034652,10 C32.5538362,10 33,10.4438648 33,11 C33,11.5522847 32.5601869,12 32.0034652,12 L5.99653482,12 C5.44616384,12 5,11.5561352 5,11 Z M5,15 C5,14.4477153 5.43981314,14 5.99653482,14 L32.0034652,14 C32.5538362,14 33,14.4438648 33,15 C33,15.5522847 32.5601869,16 32.0034652,16 L5.99653482,16 C5.44616384,16 5,15.5561352 5,15 Z M5,19 C5,18.4477153 5.44463086,18 6.00087166,18 L19.9991283,18 C20.5518945,18 21,18.4438648 21,19 C21,19.5522847 20.5553691,20 19.9991283,20 L6.00087166,20 C5.4481055,20 5,19.5561352 5,19 Z" id="Content" fill-opacity="0.400000006" fill="#85929E"></path>
                        <g id="Optin" transform="translate(5.000000, 24.000000)">
                            <use id="Rectangle-420" stroke="#2ECC71" mask="url(#mask-8)" stroke-width="2" xlink:href="#path-7"></use>
                            <rect id="Rectangle-420-Copy" fill="#2ECC71" x="19" y="0" width="10" height="7" rx="2"></rect>
                        </g>
                    </g>
                </g>
                <g id="optin/variations/three" transform="translate(183.000000, 0.000000)">
                    <g id="variation_03">
                        <use id="Frame" stroke="#85929E" mask="url(#mask-10)" stroke-width="4" xlink:href="#path-9"></use>
                        <rect id="Rectangle-740-Copy" fill-opacity="0.5" fill="#CED3D8" x="34" y="2" width="24" height="32"></rect>
                        <path d="M18,12 L22,17 L14,17 L18,12 Z M15,11 C15.5522847,11 16,10.5522847 16,10 C16,9.44771525 15.5522847,9 15,9 C14.4477153,9 14,9.44771525 14,10 C14,10.5522847 14.4477153,11 15,11 Z M7.00494194,6.99406028 L7.00494194,6.99406028 L7.00494194,19.0059397 C7.00494194,19.0017887 7.00166707,19 6.99406028,19 L29,19 C28.9923952,19 28.9891183,19.0017876 28.9891183,19.0059397 L28.9891183,6.99406028 C28.9891183,6.99821134 28.9923932,7 29,7 L6.99406028,7 C7.00166509,7 7.00494194,6.99821242 7.00494194,6.99406028 L7.00494194,6.99406028 Z M6.99406028,5 L29.0059397,5 C30.1072288,5 31,5.89451376 31,6.99406028 L31,19.0059397 C31,20.1072288 30.1054862,21 29.0059397,21 L6.99406028,21 C5.8927712,21 5,20.1054862 5,19.0059397 L5,6.99406028 C5,5.8927712 5.89451376,5 6.99406028,5 Z" id="Image" fill="#85929E"></path>
                        <path d="M5,26 C5,25.4477153 5.45127869,25 6.00329963,25 L29.9967004,25 C30.5508075,25 31,25.4438648 31,26 C31,26.5522847 30.5487213,27 29.9967004,27 L6.00329963,27 C5.44919255,27 5,26.5561352 5,26 Z M5,30 C5,29.4477153 5.45530558,29 5.99180311,29 L24.0081969,29 C24.5559546,29 25,29.4438648 25,30 C25,30.5522847 24.5446944,31 24.0081969,31 L5.99180311,31 C5.44404538,31 5,30.5561352 5,30 Z" id="Content" fill-opacity="0.400000006" fill="#85929E"></path>
                        <g id="Optin" transform="translate(37.000000, 13.500000)">
                            <use id="Rectangle-420-Copy-2" stroke="#2ECC71" mask="url(#mask-12)" stroke-width="2" xlink:href="#path-11"></use>
                            <rect id="Rectangle-420-Copy" fill="#2ECC71" x="0" y="5" width="18" height="4" rx="2"></rect>
                        </g>
                    </g>
                </g>
                <g id="optin/variations/four" transform="translate(274.000000, 0.000000)">
                    <g id="variation_04">
                        <use id="Frame" stroke="#85929E" mask="url(#mask-14)" stroke-width="4" xlink:href="#path-13"></use>
                        <rect id="Rectangle-740-Copy" fill-opacity="0.5" fill="#CED3D8" x="34" y="2" width="24" height="32"></rect>
                        <path d="M46,11 L50,16 L42,16 L46,11 Z M43,11 C43.5522847,11 44,10.5522847 44,10 C44,9.44771525 43.5522847,9 43,9 C42.4477153,9 42,9.44771525 42,10 C42,10.5522847 42.4477153,11 43,11 Z M40,6.99406028 L40,6.99406028 L40,18 C40,17.9961966 39.9982124,17.9945577 39.9940603,17.9945577 L52.0059397,17.9945577 C52.0017887,17.9945577 52,17.9961956 52,18 L52,6.99406028 C52,6.99786371 52.0017876,6.99950258 52.0059397,6.99950258 L39.9940603,6.99950258 C39.9982113,6.99950258 40,6.9978647 40,6.99406028 L40,6.99406028 Z M39.9940603,5 L52.0059397,5 C53.1072288,5 54,5.83860665 54,6.86943151 L54,18.1305685 C54,19.163027 53.1054862,20 52.0059397,20 L39.9940603,20 C38.8927712,20 38,19.1613934 38,18.1305685 L38,6.86943151 C38,5.836973 38.8945138,5 39.9940603,5 Z" id="Image-Copy" fill="#85929E"></path>
                        <path d="M5,20 C5,19.4477153 5.45127869,19 6.00329963,19 L29.9967004,19 C30.5508075,19 31,19.4438648 31,20 C31,20.5522847 30.5487213,21 29.9967004,21 L6.00329963,21 C5.44919255,21 5,20.5561352 5,20 Z M5,16 C5,15.4477153 5.45127869,15 6.00329963,15 L29.9967004,15 C30.5508075,15 31,15.4438648 31,16 C31,16.5522847 30.5487213,17 29.9967004,17 L6.00329963,17 C5.44919255,17 5,16.5561352 5,16 Z M5,12 C5,11.4477153 5.45127869,11 6.00329963,11 L29.9967004,11 C30.5508075,11 31,11.4438648 31,12 C31,12.5522847 30.5487213,13 29.9967004,13 L6.00329963,13 C5.44919255,13 5,12.5561352 5,12 Z M5,24 C5,23.4477153 5.45530558,23 5.99180311,23 L24.0081969,23 C24.5559546,23 25,23.4438648 25,24 C25,24.5522847 24.5446944,25 24.0081969,25 L5.99180311,25 C5.44404538,25 5,24.5561352 5,24 Z" id="Content" fill-opacity="0.400000006" fill="#85929E"></path>
                        <g id="Optin" transform="translate(37.000000, 22.000000)">
                            <use id="Rectangle-420-Copy-2" stroke="#2ECC71" mask="url(#mask-16)" stroke-width="2" xlink:href="#path-15"></use>
                            <rect id="Rectangle-420-Copy" fill="#2ECC71" x="0" y="5" width="18" height="4" rx="2"></rect>
                        </g>
                    </g>
                </g>
                <g id="optin/display-types/pop-up" transform="translate(0.000000, 54.000000)">
                    <g id="icn.popup">
                        <rect id="Frame-Copy" fill="#5A6773" x="0" y="0" width="18" height="18" rx="3"></rect>
                        <g id="Rectangle-420-Copy-4">
                            <use fill="black" fill-opacity="1" filter="url(#filter-18)" xlink:href="#path-17"></use>
                            <use fill="#2ECC71" fill-rule="evenodd" xlink:href="#path-17"></use>
                        </g>
                        <path d="M10,8 L11,8 L11,9 L10,9 L10,8 Z M11,7 L12,7 L12,8 L11,8 L11,7 Z M10,6 L11,6 L11,7 L10,7 L10,6 Z M12,8 L13,8 L13,9 L12,9 L12,8 Z M12,6 L13,6 L13,7 L12,7 L12,6 Z" id="Path-Copy-5" fill="#F2F2F2"></path>
                    </g>
                </g>
                <g id="optin/display-types/slide-in" transform="translate(28.000000, 54.000000)">
                    <g id="icn.slidein">
                        <rect id="Frame-Copy" fill="#5A6773" x="0" y="0" width="18" height="18" rx="3"></rect>
                        <rect id="Rectangle-420-Copy-4" fill="#2ECC71" x="5" y="9" width="13" height="9" rx="1"></rect>
                        <path d="M13,13 L14,13 L14,14 L13,14 L13,13 Z M14,12 L15,12 L15,13 L14,13 L14,12 Z M13,11 L14,11 L14,12 L13,12 L13,11 Z M15,13 L16,13 L16,14 L15,14 L15,13 Z M15,11 L16,11 L16,12 L15,12 L15,11 Z" id="Path-Copy-4" fill="#F2F2F2"></path>
                    </g>
                </g>
                <g id="optin/display-types/shortcode" transform="translate(56.000000, 54.000000)">
                    <g id="icn.shortcode">
                        <rect id="Frame-Copy" fill="#5A6773" x="0" y="0" width="18" height="18" rx="3"></rect>
                        <rect id="Rectangle-2" fill="#2ECC71" x="0" y="6" width="18" height="6"></rect>
                    </g>
                </g>
                <g id="optin/display-types/widget" transform="translate(84.000000, 54.000000)">
                    <g id="icn.widget">
                        <rect id="Frame-Copy" fill="#5A6773" x="0" y="0" width="10" height="13" rx="3"></rect>
                        <rect id="Frame-Copy" fill="#4FBA6F" x="0" y="14" width="10" height="4" rx="2"></rect>
                        <rect id="Frame-Copy" fill="#AAB3BB" x="11" y="0" width="7" height="18" rx="3"></rect>
                    </g>
                </g>
                <g id="optin/display-types/after-content" transform="translate(112.000000, 54.000000)">
                    <g id="icn.afterContent">
                        <rect id="Frame-Copy" fill="#5A6773" x="0" y="0" width="18" height="10" rx="3"></rect>
                        <rect id="Rectangle-420-Copy-4" fill="#2ECC71" x="0" y="11" width="18" height="7" rx="3"></rect>
                    </g>
                </g>
                <g id="optin/display-types/page" transform="translate(140.000000, 54.000000)">
                    <g id="icn.page">
                        <path d="M0,3.00032973 C0,1.34329338 1.34881592,1.06499263e-15 3.00579834,8.82147283e-16 L11,0 L18,7 L18,10 L0,10 L0,3.00032973 Z" id="Frame-Copy" fill="#5A6773"></path>
                        <path d="M11,0 L18,7 L14.0092545,7 C12.3472891,7 11,5.65032959 11,3.99074554 L11,0 Z" id="Rectangle" fill="#AAB3BB"></path>
                        <rect id="Rectangle-420-Copy-4" fill="#2ECC71" x="0" y="11" width="18" height="7" rx="3"></rect>
                    </g>
                </g>
                <path d="M192,69 C198,69 201,63 201,63 C201,63 198,57 192,57 C186,57 183,63 183,63 C183,63 186,69 192,69 Z M192,66 C193.656854,66 195,64.6568542 195,63 C195,61.3431458 193.656854,60 192,60 C190.343146,60 189,61.3431458 189,63 C189,64.6568542 190.343146,66 192,66 Z" id="Combined-Shape" fill="#888888"></path>
                <path d="M234,69 C240,69 243,63 243,63 C243,63 240,57 234,57 C228,57 225,63 225,63 C225,63 228,69 234,69 Z M234,66 C235.656854,66 237,64.6568542 237,63 C237,61.3431458 235.656854,60 234,60 C232.343146,60 231,61.3431458 231,63 C231,64.6568542 232.343146,66 234,66 Z" id="Combined-Shape" fill="#666666"></path>
            </g>
        </g>
    </g>
</svg>