<?xml version="1.0" encoding="UTF-8"?>
<svg width="297px" height="420px" viewBox="0 0 297 420" version="1.1" xmlns="http://www.w3.org/2000/svg" xmlns:xlink="http://www.w3.org/1999/xlink">
    <!-- Generator: Sketch 40.3 (33839) - http://www.bohemiancoding.com/sketch -->
    <title>wph-dashboard</title>
    <desc>Created with Sketch.</desc>
    <defs></defs>
    <g id="Sprite" stroke="none" stroke-width="1" fill="none" fill-rule="evenodd">
        <g id="wph-dashboard">
            <path d="M41,9 L41,5.99539757 C41,5.4556644 40.5522847,5 40,5 C39.4438648,5 39,5.44565467 39,5.99539757 L39,9 L35.9953976,9 C35.4556644,9 35,9.44771525 35,10 C35,10.5561352 35.4456547,11 35.9953976,11 L39,11 L39,14.0046024 C39,14.5443356 39.4477153,15 40,15 C40.5561352,15 41,14.5543453 41,14.0046024 L41,11 L44.0046024,11 C44.5443356,11 45,10.5522847 45,10 C45,9.44386482 44.5543453,9 44.0046024,9 L41,9 Z M28,10 L2.61591696,10 L2.56747405,10.1461187 C1.16262976,10.194825 0,11.3637747 0,12.7762557 L0,36.5449011 C0,38.0060883 1.25951557,39.2237443 2.66435986,39.2237443 L39.3356401,39.2237443 C40.7404844,39.2237443 42,38.0060883 42,36.5449011 L42,21.8340831 C41.3495831,21.9432024 40.6814244,22 40,22 C39.5793694,22 39.1637936,21.9783581 38.7543253,21.9361269 L38.7543253,32.7458143 L28.1453287,24.6118721 L33.8000756,20.2763646 C33.0224428,19.8061964 32.3024798,19.2502534 31.6532986,18.6216479 C28.0870925,21.3221888 24.5314355,24.029753 20.9757785,26.7549467 C15.0657439,22.2252664 9.15570934,17.7442922 3.24567474,13.2633181 L28.4490502,13.2633181 C28.1565078,12.2257487 28,11.1311515 28,10 Z M38.7543253,35.9604262 L25.9653979,26.2678843 L22.5743945,28.8980213 L19.3287197,28.8980213 L15.9861592,26.3165906 L3.24567474,35.9604262 L38.7543253,35.9604262 Z M13.8062284,24.6118721 L3.24567474,16.47793 L3.24567474,32.7458143 L13.8062284,24.6118721 Z M40,20 C45.5228475,20 50,15.5228475 50,10 C50,4.4771525 45.5228475,0 40,0 C34.4771525,0 30,4.4771525 30,10 C30,15.5228475 34.4771525,20 40,20 Z" id="Combined-Shape" fill="#666666"></path>
            <path d="M7.4510913,106.646726 C7.4510913,106.646726 11.1766369,108.043806 20.4905011,108.043806 C29.8043652,108.043806 33.5299108,106.646726 33.5299108,106.646726 L33.5299108,124.272947 C33.5299108,124.826064 33.210026,125.579331 32.7788032,125.923395 C32.7788032,125.923395 30.2700584,129 20.4905011,129 C10.7109437,129 8.19075115,125.914898 8.19075115,125.914898 C7.78224829,125.561191 7.4510913,124.832364 7.4510913,124.272947 L7.4510913,106.646726 Z M23.9036351,119.373724 L25.1474331,115.64233 L26.3912312,119.373724 L30.1226253,120.617522 L26.3912312,121.86132 L25.1474331,125.592714 L23.9036351,121.86132 L20.172241,120.617522 L23.9036351,119.373724 Z M20.4905011,105.71534 C31.8070923,105.71534 40.9810021,103.213364 40.9810021,100.127021 C40.9810021,97.0406782 31.8070923,94.5387028 20.4905011,94.5387028 C9.17390981,94.5387028 0,97.0406782 0,100.127021 C0,103.213364 9.17390981,105.71534 20.4905011,105.71534 Z M20.4905011,102.92118 C29.7495303,102.92118 37.2554565,101.461695 37.2554565,99.661328 C37.2554565,97.8609612 29.7495303,96.4014756 20.4905011,96.4014756 C11.2314719,96.4014756 3.72554565,97.8609612 3.72554565,99.661328 C3.72554565,101.461695 11.2314719,102.92118 20.4905011,102.92118 Z M5.39233015,87.8230095 L6.51970488,84.4408853 L7.64707962,87.8230095 L11.0292038,88.9503843 L7.64707962,90.077759 L6.51970488,93.4598832 L5.39233015,90.077759 L2.01020595,88.9503843 L5.39233015,87.8230095 Z M23.5175069,90.1146173 L24.2160467,88.0189979 L24.9145865,90.1146173 L27.010206,90.8131571 L24.9145865,91.5116969 L24.2160467,93.6073163 L23.5175069,91.5116969 L21.4218875,90.8131571 L23.5175069,90.1146173 Z M17.2306486,98.7299416 L17.6963418,97.332862 L18.162035,98.7299416 L19.5591147,99.1956348 L18.162035,99.661328 L17.6963418,101.058408 L17.2306486,99.661328 L15.833569,99.1956348 L17.2306486,98.7299416 Z M32.1328312,92.2102367 L32.5985244,90.8131571 L33.0642176,92.2102367 L34.4612972,92.6759299 L33.0642176,93.1416231 L32.5985244,94.5387028 L32.1328312,93.1416231 L30.7357516,92.6759299 L32.1328312,92.2102367 Z M15.2256497,85.7150806 C15.0470038,84.701929 15.717846,83.736784 16.7382547,83.5568584 L42.4176804,79.0288828 C43.431715,78.8500811 44.3973282,79.5193918 44.5772196,80.5396069 C44.7558656,81.5527584 44.0850234,82.5179034 43.0646146,82.697829 L17.385189,87.2258046 C16.3711543,87.4046063 15.4055411,86.7352956 15.2256497,85.7150806 Z M16.1428863,85.553347 C16.0535633,85.0467713 16.3827935,84.5652903 16.9010762,84.4739031 L21.4818852,83.6661829 C21.9899449,83.5765983 22.4735965,83.9111046 22.5635422,84.4212121 C22.6528652,84.9277879 22.3236349,85.4092688 21.8053523,85.500656 L17.2245433,86.3083762 C16.7164836,86.3979609 16.232832,86.0634545 16.1428863,85.553347 Z" id="Combined-Shape" fill="#5C5C5C"></path>
            <path d="M17.7205882,190.029412 L13.6764706,190.029412 L13.6764706,192.235294 L17.7205882,192.235294 L17.7205882,196.279412 L19.9264706,196.279412 L19.9264706,192.235294 L23.9705882,192.235294 L23.9705882,190.029412 L19.9264706,190.029412 L19.9264706,185.985294 L17.7205882,185.985294 L17.7205882,190.029412 Z M25,214.652174 C25,214.652174 1.76643267,201.520158 0.094741171,183.046637 C0.0322045199,182.539861 0,182.023692 0,181.5 C0,181.422489 0.000705486268,181.345143 0.0021103879,181.267968 C0.000705963624,181.164307 0,181.060491 0,180.956522 C0,180.793999 0.0134995817,180.639223 0.0400551106,180.491977 C0.553330054,174.05979 5.93577637,169 12.5,169 C19.4035594,169 25,174.596441 25,181.5 C25,174.596441 30.5964406,169 37.5,169 C44.1373448,169 49.5664373,174.173144 49.9752799,180.707434 C49.9916885,180.783532 50,180.866439 50,180.956522 C50,181.060491 49.999294,181.164307 49.9978896,181.267968 C49.9992945,181.345143 50,181.422489 50,181.5 C50,182.023692 49.9677955,182.539861 49.9052588,183.046637 C48.2335673,201.520158 25,214.652174 25,214.652174 Z M28.0882353,188.53443 L28.0882353,186.325992 C29.1127735,186.280457 29.8299394,186.212155 30.2397547,186.121085 C30.8924234,185.976891 31.4236575,185.688507 31.8334727,185.255924 C32.1142721,184.959946 32.3267657,184.565315 32.4709599,184.072019 C32.5544408,183.776042 32.5961807,183.555959 32.5961807,183.411765 L35.2941176,183.411765 L35.2941176,197.586748 L31.9700771,197.586748 L31.9700771,188.53443 L28.0882353,188.53443 Z" id="Combined-Shape" fill="#5C5C5C"></path>
            <path d="M19,287 L19,298.846154 L10,303 L10,305 L36,305 L36,303 L27,298.846154 L27,287 L32,287 L32,284.001099 C32.1845129,283.862506 32.3657257,283.719757 32.5434994,283.57299 C40.5781085,279.021128 46,270.393739 46,260.5 C46,259.996598 45.9859635,259.496475 45.9582605,259 L43.9753966,259 L38,259 L38,255.993398 C38,255.444946 37.5531114,255 37.0018463,255 L8.99815369,255 C8.44736519,255 8,255.444759 8,255.993398 L8,259 L2.02460342,259 L0.0417395163,259 C0.0140365168,259.496475 0,259.996598 0,260.5 C0,270.393739 5.42189147,279.021128 13.4564975,283.572989 C13.6342743,283.719757 13.8154871,283.862506 14,284.001099 L14,287 L19,287 Z M8.30175289,275.008355 C5.29546556,271.448324 3.37449697,266.942086 3.04920683,262 L8,262 L8,273 L8.03280455,273 C8.07775638,273.682947 8.16841594,274.353409 8.30175289,275.008355 Z M37.6982471,275.008355 C40.7045344,271.448324 42.625503,266.942086 42.9507932,262 L38,262 L38,273 L37.9671954,273 C37.9222436,273.682947 37.8315841,274.353409 37.6982471,275.008355 Z M31.5714285,266.2867 C31.570501,272.357645 23,277 23,277 C23,277 14.429499,272.357645 14.4285715,266.2867 C14.4285714,263.91878 16.3473511,262 18.7142857,262 C21.0812204,262 23,263.91878 23,266.285714 L31.5714285,266.2867 Z M31.5714286,266.285714 L23,266.285714 C23,263.91878 24.9187796,262 27.2857143,262 C29.6526489,262 31.5714286,263.91878 31.5714286,266.285714 L31.5714286,266.285714 Z" id="Combined-Shape" fill="#5C5C5C"></path>
        </g>
    </g>
</svg>