<?xml version="1.0" encoding="utf-8"?>
<!-- Generator: Adobe Illustrator 16.0.0, SVG Export Plug-In . SVG Version: 6.00 Build 0)  -->
<!DOCTYPE svg PUBLIC "-//W3C//DTD SVG 1.1//EN" "http://www.w3.org/Graphics/SVG/1.1/DTD/svg11.dtd">
<svg version="1.1" xmlns="http://www.w3.org/2000/svg" xmlns:xlink="http://www.w3.org/1999/xlink" x="0px" y="0px" width="485px"
	 height="803px" viewBox="-445.496 770.5 485 803" enable-background="new -445.496 770.5 485 803" xml:space="preserve">
<g id="bg" display="none">
	<rect x="-445.496" y="770.5" display="inline" fill="#606060" width="1201" height="2480"/>
</g>
<g id="Icons">
	<g>
		<polygon fill="#4F3F2C" points="-192.896,1007.667 -195.143,1012.958 -197.389,1007.667 -199.39,1007.667 -201.642,1012.975 
			-203.893,1007.667 -207.893,1007.667 -203.649,1017.662 -203.633,1017.662 -201.628,1017.662 -199.387,1012.377 
			-197.143,1017.662 -197.133,1017.645 -197.141,1017.662 -195.137,1017.662 -190.898,1007.667 		"/>
		<path fill="#4F3F2C" d="M-214.062,1007.335c-3.037,0-5.498,2.386-5.498,5.33c0,2.943,2.461,5.329,5.498,5.329
			c1.833,0,3.453-0.871,4.454-2.209l-1.046-0.732c-0.52,0.579-1.268,0.944-2.104,0.944c-1.534,0-2.78-1.218-2.83-2.738h6.986
			c0.021-0.195,0.034-0.393,0.034-0.593C-208.566,1009.721-211.028,1007.335-214.062,1007.335z M-215.589,1011.594
			c0-1.679,0.667-2.594,1.487-2.594c0.825,0,1.493,0.916,1.493,2.594H-215.589z"/>
		<path fill="#4F3F2C" d="M-186.084,1007.335c-3.034,0-5.495,2.386-5.495,5.33c0,2.943,2.461,5.329,5.495,5.329
			c1.836,0,3.457-0.871,4.455-2.209l-1.044-0.732c-0.519,0.579-1.268,0.944-2.106,0.944c-1.53,0-2.774-1.218-2.825-2.738h6.983
			c0.022-0.195,0.036-0.393,0.036-0.593C-180.585,1009.721-183.047,1007.335-186.084,1007.335z M-187.609,1011.594
			c0-1.679,0.666-2.594,1.49-2.594c0.823,0,1.49,0.916,1.49,2.594H-187.609z"/>
		<path fill="#4F3F2C" d="M-235.84,1011.534c-1.461-0.387-3.391-0.624-3.391-1.37c0-0.549,0.718-0.754,1.49-0.828
			c1.239-0.12,2.542,0.089,3.496,0.826l1.236-0.814c-0.793-1.179-2.614-2.004-4.732-2.004c-2.85,0-5.155,1.49-5.155,3.324
			c0,1.416,1.305,2.492,3.301,3.104c1.488,0.458,3.347,0.637,3.347,1.338c0,0.551-0.654,0.795-1.492,0.878
			c-1.364,0.135-2.783-0.214-3.537-0.8l-1.402,0.931c0.895,1.106,2.77,1.868,4.939,1.868c3.035,0,5.496-1.49,5.496-3.329
			C-232.244,1013.224-233.76,1012.083-235.84,1011.534z"/>
		<path fill="#4F3F2C" d="M-224.389,1007.333c-1.215,0-2.298,0.565-2.997,1.447V1003h-3.836v14.658h3.836v-6.33
			c0-0.828,0.669-1.499,1.497-1.499c0.829,0,1.5,0.671,1.5,1.499v6.33h3.83v-6.494
			C-220.559,1009.047-222.275,1007.333-224.389,1007.333z"/>
		<path fill="#4F3F2C" d="M-172.731,1007.338c-1.154,0-2.212,0.488-3.024,1.292v-5.622h-3.832v14.657h2.567l0.693-1.631
			c0.852,1.198,2.146,1.965,3.596,1.965c2.562,0,4.637-2.387,4.637-5.331C-168.095,1009.725-170.17,1007.338-172.731,1007.338z
			 M-173.754,1015.5c-1.106,0-2.002-1.263-2.002-2.823c0-1.559,0.896-2.823,2.002-2.823c1.099,0,1.994,1.265,1.994,2.823
			C-171.76,1014.237-172.655,1015.5-173.754,1015.5z"/>
	</g>
	<polyline fill="none" stroke="#5D504D" stroke-linecap="round" stroke-linejoin="round" stroke-miterlimit="10" points="
		-360.996,859.584 -369.996,850.5 -360.996,841.416 	"/>
	<polyline fill="none" stroke="#5D504D" stroke-linecap="round" stroke-linejoin="round" stroke-miterlimit="10" points="
		-209.995,841.416 -200.995,850.5 -209.995,859.584 	"/>
	<path fill="#4F3F2C" d="M-357.496,1167.038c-0.59,0.26-1.223,0.438-1.887,0.516c0.68-0.406,1.199-1.049,1.443-1.816
		c-0.633,0.377-1.336,0.65-2.084,0.797c-0.6-0.639-1.451-1.035-2.395-1.035c-1.814,0-3.283,1.469-3.283,3.281
		c0,0.258,0.027,0.508,0.084,0.748c-2.727-0.137-5.146-1.443-6.766-3.43c-0.283,0.484-0.445,1.049-0.445,1.65
		c0,1.139,0.578,2.145,1.461,2.732c-0.539-0.016-1.045-0.166-1.486-0.41c-0.002,0.014-0.002,0.027-0.002,0.041
		c0,1.59,1.133,2.918,2.633,3.219c-0.273,0.076-0.564,0.115-0.863,0.115c-0.211,0-0.418-0.021-0.617-0.059
		c0.416,1.305,1.629,2.252,3.066,2.279c-1.125,0.881-2.539,1.404-4.078,1.404c-0.266,0-0.525-0.014-0.781-0.045
		c1.451,0.932,3.178,1.475,5.031,1.475c6.039,0,9.34-5.002,9.34-9.34c0-0.143-0.004-0.283-0.01-0.426
		C-358.492,1168.274-357.936,1167.694-357.496,1167.038z"/>
	<path fill="#4F3F2C" d="M-201.051,1166.782h-2.539c-0.301,0-0.637,0.395-0.637,0.923v1.834h3.176v2.613h-3.176V1180h-2.996v-7.848
		h-2.717v-2.613h2.717V1168c0-2.205,1.531-4,3.633-4h2.539V1166.782z"/>
	<g id="Lozenge">
		<g>
			<path fill="#4F3F2C" d="M-37.166,1168.601c0,0-0.166-1.172-0.676-1.688c-0.646-0.676-1.371-0.68-1.703-0.719
				c-2.379-0.172-5.947-0.172-5.947-0.172H-45.5c0,0-3.568,0-5.947,0.172c-0.332,0.039-1.057,0.043-1.703,0.719
				c-0.51,0.517-0.676,1.688-0.676,1.688s-0.17,1.376-0.17,2.751v1.29c0,1.376,0.17,2.752,0.17,2.752s0.166,1.171,0.676,1.687
				c0.646,0.678,1.496,0.656,1.873,0.727c1.361,0.131,5.781,0.172,5.781,0.172s3.572-0.006,5.951-0.178
				c0.332-0.039,1.057-0.043,1.703-0.721c0.51-0.516,0.676-1.687,0.676-1.687s0.17-1.376,0.17-2.752v-1.29
				C-36.996,1169.977-37.166,1168.601-37.166,1168.601z M-47.252,1174.205v-4.777l4.594,2.396L-47.252,1174.205z"/>
		</g>
	</g>
	<polyline fill="none" stroke="#5D504D" stroke-linecap="round" stroke-linejoin="round" stroke-miterlimit="10" points="
		-360.996,1008.523 -365.496,1012.476 -369.996,1008.523 	"/>
	<g>
		<path id="Triangle_1_" fill="#FFFFFF" d="M-49.168,855.111l9.605-4.977l-9.605-5.011V855.111z"/>
		<path id="The_Sharpness_1_" opacity="0.12" fill-rule="evenodd" clip-rule="evenodd" d="M-49.168,845.124l8.424,5.624l1.182-0.613
			L-49.168,845.124z"/>
		<g id="Lozenge_4_">
			<g>
				<path fill="#E65C41" d="M-28.078,843.393c0,0-0.348-2.449-1.414-3.528c-1.352-1.416-2.867-1.423-3.561-1.506
					C-38.027,838-45.488,838-45.488,838h-0.016c0,0-7.461,0-12.436,0.359c-0.695,0.083-2.209,0.09-3.562,1.506
					c-1.065,1.079-1.412,3.528-1.412,3.528s-0.355,2.876-0.355,5.753v2.696c0,2.877,0.355,5.753,0.355,5.753s0.347,2.45,1.412,3.528
					c1.353,1.416,3.128,1.371,3.919,1.52c2.844,0.272,12.086,0.357,12.086,0.357s7.469-0.012,12.443-0.371
					c0.693-0.083,2.209-0.09,3.561-1.506c1.066-1.078,1.414-3.528,1.414-3.528s0.354-2.876,0.354-5.753v-2.696
					C-27.725,846.27-28.078,843.393-28.078,843.393z M-49.166,855.111l-0.002-9.987l9.605,5.011L-49.166,855.111z"/>
			</g>
		</g>
	</g>
	<path fill="none" stroke="#FFFFFF" stroke-miterlimit="10" d="M-45.49,990.5c-0.098,0-0.193,0-0.293,0
		c-11.047,0.162-19.871,9.242-19.711,20.287c0.156,10.941,9.078,19.713,19.99,19.713c0.096,0,0.195,0,0.295-0.006
		c11.047-0.158,19.871-9.236,19.711-20.281C-25.654,999.265-34.576,990.5-45.49,990.5z"/>
	<g>
		<path fill="#FFFFFF" d="M-51.488,1003v15l11.984-7.501L-51.488,1003z"/>
	</g>
</g>
<g id="Guides" display="none">
</g>
</svg>
