<?xml version="1.0" encoding="utf-8"?>
<!-- Generator: Adobe Illustrator 16.0.0, SVG Export Plug-In . SVG Version: 6.00 Build 0)  -->
<!DOCTYPE svg PUBLIC "-//W3C//DTD SVG 1.1//EN" "http://www.w3.org/Graphics/SVG/1.1/DTD/svg11.dtd">
<svg version="1.1" id="Layer_1" xmlns="http://www.w3.org/2000/svg" xmlns:xlink="http://www.w3.org/1999/xlink" x="0px" y="0px"
	 width="485px" height="922px" viewBox="0 0 485 922" enable-background="new 0 0 485 922" xml:space="preserve">
<g id="bg" display="none">
	<rect x="-445.496" y="770.5" display="inline" fill="#606060" width="1201" height="2480"/>
</g>
<rect x="73.25" y="34.654" opacity="0.25" fill="#EB212E" enable-background="new    " width="1" height="1"/>
<path fill="#A9A39D" d="M233.751,199.154c19.851,0,36,16.148,36,35.999s-16.149,35.999-36,35.999c-19.853,0-36-16.148-36-35.999
	S213.899,199.154,233.751,199.154 M233.751,195.154c-22.092,0-40,17.908-40,39.999s17.908,39.999,40,39.999
	c22.091,0,40-17.908,40-39.999S255.842,195.154,233.751,195.154L233.751,195.154z"/>
<g>
	<path fill="#A9A39D" d="M244.659,236.428c-0.046-5.055,4.139-7.514,4.329-7.628c-2.368-3.453-6.041-3.929-7.329-3.964
		c-3.087-0.322-6.076,1.849-7.648,1.849c-1.602,0-4.021-1.815-6.629-1.764c-3.354,0.055-6.494,1.995-8.217,5.013
		c-3.552,6.148-0.901,15.188,2.502,20.162c1.701,2.434,3.69,5.152,6.295,5.055c2.549-0.105,3.501-1.623,6.576-1.623
		c3.047,0,3.938,1.623,6.597,1.562c2.733-0.047,4.457-2.443,6.098-4.9c1.971-2.793,2.762-5.543,2.791-5.684
		C249.96,244.486,244.712,242.486,244.659,236.428z"/>
	<path fill="#A9A39D" d="M239.643,221.565c1.371-1.713,2.31-4.044,2.049-6.41c-1.983,0.088-4.465,1.371-5.894,3.047
		c-1.264,1.479-2.394,3.899-2.103,6.176C235.926,224.543,238.212,223.254,239.643,221.565z"/>
</g>
<path fill="#A9A39D" d="M73.75,199.153c19.85,0,36,16.149,36,36s-16.15,36.001-36,36.001c-19.853,0-36-16.15-36-36.001
	C37.75,215.302,53.898,199.153,73.75,199.153 M73.75,195.153c-22.092,0-40,17.909-40,40s17.908,40.001,40,40.001
	c22.09,0,40-17.91,40-40.001S95.84,195.153,73.75,195.153L73.75,195.153z"/>
<path fill="#A9A39D" d="M66.184,223.363c0-1.419-0.869-3.21-4.506-3.21c-1.498,0-5.609,0-5.609,0l-1.584,7.368c0,0,3.023,0,5.832,0
	C64.883,227.522,66.184,225.364,66.184,223.363L66.184,223.363z"/>
<path fill="#A9A39D" d="M81.276,223.363c0-1.419-0.864-3.21-4.506-3.21c-1.49,0-5.6,0-5.6,0l-1.592,7.368c0,0,3.022,0,5.834,0
	C79.979,227.522,81.276,225.364,81.276,223.363L81.276,223.363z"/>
<path fill="#A9A39D" d="M64.161,234.448c0-1.418-0.869-3.2-4.509-3.2c-1.489,0-5.603,0-5.603,0l-1.594,7.356c0,0,3.027,0,5.845,0
	C62.858,238.605,64.161,236.448,64.161,234.448L64.161,234.448z"/>
<path fill="#A9A39D" d="M79.252,234.448c0-1.418-0.866-3.2-4.501-3.2c-1.499,0-5.608,0-5.608,0l-1.59,7.356c0,0,3.027,0,5.834,0
	C77.952,238.605,79.252,236.448,79.252,234.448L79.252,234.448z"/>
<path fill="#A9A39D" d="M95.043,229.953c0-1.417-0.863-3.21-4.502-3.21c-1.499,0-5.604,0-5.604,0l-1.596,7.37c0,0,3.027,0,5.836,0
	C93.745,234.113,95.043,231.955,95.043,229.953L95.043,229.953z"/>
<path fill="#A9A39D" d="M92.87,241.499c0-1.414-0.867-3.207-4.507-3.207c-1.491,0-5.604,0-5.604,0l-1.588,7.365c0,0,3.029,0,5.838,0
	C91.57,245.657,92.87,243.501,92.87,241.499L92.87,241.499z"/>
<path fill="#A9A39D" d="M77.08,245.991c0-1.414-0.861-3.209-4.496-3.209c-1.5,0-5.609,0-5.609,0l-1.592,7.371c0,0,3.033,0,5.848,0
	C75.788,250.154,77.08,247.999,77.08,245.991L77.08,245.991z"/>
<path fill="#A9A39D" d="M393.751,199.153c19.851,0,36,16.149,36,36.001c0,19.85-16.149,36-36,36c-19.854,0-36.002-16.15-36.002-36
	C357.749,215.303,373.898,199.153,393.751,199.153 M393.751,195.153c-22.092,0-40.002,17.911-40.002,40.001
	c0,22.092,17.91,40,40.002,40c22.093,0,40-17.908,40-40C433.751,213.064,415.844,195.153,393.751,195.153L393.751,195.153z"/>
<path fill="#A9A39D" d="M383.268,226.721h-1.451v9.824h0.022v10.307c0,0.785,0.64,1.426,1.429,1.426h3.049v6.34
	c0,1.4,1.135,2.537,2.537,2.537c1.399,0,2.539-1.137,2.539-2.537v-6.34h4.72v6.34c0,1.4,1.14,2.537,2.537,2.537
	c1.403,0,2.538-1.137,2.538-2.537v-6.34h3.05c0.787,0,1.426-0.641,1.426-1.426v-10.307h0.022v-9.824h-1.448H383.268L383.268,226.721
	z"/>
<path fill="#A9A39D" d="M409.494,225.908c-1.4,0-2.539,1.137-2.539,2.541v11.406c0,1.399,1.139,2.537,2.539,2.537
	c1.398,0,2.537-1.139,2.537-2.537v-11.406C412.031,227.045,410.895,225.908,409.494,225.908z"/>
<path fill="#A9A39D" d="M378.008,225.908c-1.402,0-2.539,1.137-2.539,2.541v11.406c0,1.399,1.137,2.537,2.539,2.537
	c1.401,0,2.536-1.139,2.536-2.537v-11.406C380.544,227.045,379.409,225.908,378.008,225.908z"/>
<path fill="#A9A39D" d="M399.505,216.371l2.041-2.883c0.043-0.059-0.019-0.174-0.136-0.258c-0.116-0.082-0.246-0.104-0.291-0.043
	l-2.104,2.977c-1.427-0.559-3.156-0.903-5.265-0.912c-2.118-0.006-3.858,0.33-5.287,0.879l-2.086-2.941
	c-0.041-0.061-0.172-0.039-0.286,0.043c-0.119,0.084-0.181,0.199-0.138,0.258l2.019,2.85c-5.881,2.602-6.056,8.979-6.056,8.979
	h23.668C405.585,225.316,405.346,218.992,399.505,216.371z M388.557,221.586c-0.787,0-1.424-0.639-1.424-1.424
	c0-0.789,0.637-1.428,1.424-1.428s1.426,0.639,1.426,1.428C389.98,220.947,389.344,221.586,388.557,221.586z M398.946,221.586
	c-0.789,0-1.428-0.639-1.428-1.424c0-0.789,0.639-1.428,1.428-1.428c0.784,0,1.422,0.639,1.422,1.428
	C400.367,220.947,399.73,221.586,398.946,221.586z"/>
<path fill="#A9A39D" d="M233.751,377.152c9.925,0,18,8.073,18,18c0,9.926-8.075,18-18,18c-9.926,0-18-8.074-18-18
	S223.825,377.152,233.751,377.152 M233.751,375.152c-11.047,0-20,8.955-20,20s8.953,20,20,20c11.045,0,20-8.955,20-20
	S244.796,375.152,233.751,375.152L233.751,375.152z"/>
<g>
	<path fill="#A9A39D" d="M239.205,395.79c-0.021-2.525,2.069-3.756,2.166-3.812c-1.187-1.728-3.021-1.963-3.666-1.979
		c-1.543-0.161-3.037,0.923-3.824,0.923c-0.801,0-2.01-0.905-3.314-0.882c-1.676,0.027-3.246,0.998-4.106,2.507
		c-1.775,3.075-0.451,7.595,1.25,10.082c0.852,1.218,1.846,2.575,3.147,2.526c1.273-0.054,1.75-0.812,3.287-0.812
		c1.523,0,1.972,0.812,3.299,0.782c1.366-0.021,2.229-1.223,3.05-2.45c0.982-1.396,1.379-2.771,1.396-2.843
		C241.855,399.819,239.232,398.819,239.205,395.79z"/>
	<path fill="#A9A39D" d="M236.697,388.358c0.687-0.854,1.154-2.021,1.023-3.205c-0.992,0.045-2.232,0.688-2.946,1.521
		c-0.633,0.739-1.196,1.948-1.051,3.089C234.838,389.847,235.982,389.202,236.697,388.358z"/>
</g>
<path fill="#A9A39D" d="M73.749,377.152c9.926,0,18,8.073,18,18c0,9.926-8.074,18-18,18c-9.924,0-17.999-8.074-17.999-18
	S63.826,377.152,73.749,377.152 M73.749,375.152c-11.045,0-19.999,8.955-19.999,20s8.954,20,19.999,20s20-8.955,20-20
	S84.794,375.152,73.749,375.152L73.749,375.152z"/>
<path fill="#A9A39D" d="M69.968,389.259c0-0.711-0.435-1.604-2.253-1.604c-0.75,0-2.805,0-2.805,0l-0.791,3.685c0,0,1.512,0,2.914,0
	C69.317,391.337,69.968,390.259,69.968,389.259L69.968,389.259z"/>
<path fill="#A9A39D" d="M77.514,389.259c0-0.711-0.434-1.604-2.254-1.604c-0.744,0-2.799,0-2.799,0l-0.797,3.685
	c0,0,1.513,0,2.918,0C76.865,391.337,77.514,390.259,77.514,389.259L77.514,389.259z"/>
<path fill="#A9A39D" d="M68.956,394.8c0-0.709-0.436-1.601-2.255-1.601c-0.744,0-2.802,0-2.802,0l-0.797,3.679c0,0,1.517,0,2.924,0
	C68.305,396.878,68.956,395.8,68.956,394.8L68.956,394.8z"/>
<path fill="#A9A39D" d="M76.502,394.8c0-0.709-0.435-1.601-2.25-1.601c-0.75,0-2.806,0-2.806,0l-0.795,3.679c0,0,1.515,0,2.917,0
	C75.851,396.878,76.502,395.8,76.502,394.8L76.502,394.8z"/>
<path fill="#A9A39D" d="M84.396,392.553c0-0.709-0.431-1.604-2.25-1.604c-0.75,0-2.803,0-2.803,0l-0.797,3.687c0,0,1.514,0,2.918,0
	C83.748,394.634,84.396,393.553,84.396,392.553L84.396,392.553z"/>
<path fill="#A9A39D" d="M83.31,398.324c0-0.707-0.434-1.604-2.254-1.604c-0.746,0-2.802,0-2.802,0l-0.794,3.685c0,0,1.514,0,2.918,0
	C82.66,400.404,83.31,399.326,83.31,398.324L83.31,398.324z"/>
<path fill="#A9A39D" d="M75.416,400.57c0-0.707-0.432-1.604-2.248-1.604c-0.75,0-2.806,0-2.806,0l-0.796,3.687c0,0,1.518,0,2.925,0
	C74.769,402.652,75.416,401.574,75.416,400.57L75.416,400.57z"/>
<path fill="#A9A39D" d="M393.749,377.152c9.927,0,18.002,8.073,18.002,18c0,9.926-8.075,18-18.002,18c-9.924,0-18-8.074-18-18
	S383.825,377.152,393.749,377.152 M393.749,375.152c-11.045,0-20,8.955-20,20c0,11.047,8.955,20,20,20
	c11.047,0,20.002-8.953,20.002-20C413.751,384.107,404.796,375.152,393.749,375.152L393.749,375.152z"/>
<path fill="#A9A39D" d="M388.508,390.935h-0.727v4.912h0.013v5.15c0,0.395,0.318,0.714,0.714,0.714h1.522v3.17
	c0,0.7,0.566,1.271,1.271,1.271c0.701,0,1.27-0.567,1.27-1.271v-3.17h2.359v3.17c0,0.7,0.569,1.271,1.271,1.271
	c0.703,0,1.271-0.567,1.271-1.271v-3.17h1.524c0.394,0,0.713-0.319,0.713-0.714v-5.15h0.013v-4.912h-0.726H388.508z"/>
<path fill="#A9A39D" d="M401.621,390.528c-0.7,0-1.271,0.567-1.271,1.271v5.702c0,0.7,0.568,1.271,1.271,1.271
	c0.703,0,1.271-0.568,1.271-1.271V391.8C402.893,391.097,402.323,390.528,401.621,390.528z"/>
<path fill="#A9A39D" d="M385.878,390.528c-0.7,0-1.271,0.567-1.271,1.271v5.702c0,0.7,0.567,1.271,1.271,1.271
	s1.271-0.568,1.271-1.271V391.8C387.146,391.097,386.579,390.528,385.878,390.528z"/>
<path fill="#A9A39D" d="M396.626,385.76l1.021-1.439c0.021-0.028-0.009-0.088-0.067-0.129c-0.058-0.041-0.122-0.053-0.146-0.021
	l-1.053,1.485c-0.713-0.278-1.578-0.451-2.633-0.455c-1.06-0.004-1.929,0.164-2.644,0.438l-1.043-1.471
	c-0.021-0.029-0.086-0.021-0.146,0.021c-0.061,0.041-0.088,0.1-0.066,0.129l1.01,1.424c-2.94,1.3-3.026,4.488-3.026,4.488h11.833
	C399.666,390.231,399.546,387.071,396.626,385.76z M391.15,388.368c-0.394,0-0.711-0.318-0.711-0.713
	c0-0.396,0.317-0.713,0.711-0.713c0.396,0,0.713,0.316,0.713,0.713C391.864,388.05,391.546,388.368,391.15,388.368z
	 M396.348,388.368c-0.394,0-0.713-0.318-0.713-0.713c0-0.396,0.319-0.713,0.713-0.713s0.713,0.316,0.713,0.713
	C397.059,388.05,396.739,388.368,396.348,388.368z"/>
<path fill="#24684B" d="M74.69,72.039v3.114h-2.113l-1,13.126h3.113c7.248,0,13.125-5.877,13.125-13.126v-3.114H74.69z"/>
<path fill="#6EC9E2" d="M74.69,60.154v0.771h-3.113l1,14.229h2.113h15C89.69,66.869,82.975,60.154,74.69,60.154z"/>
<path fill="#2A8A5E" d="M59.69,75.154c0,2.757,0.747,5.338,2.045,7.558c1.11,3.045-1.428,3.576-3.606,3.611
	c-1.688,0.027,3.689,4.378,7.578,0.844c2.505,1.877,5.614,2.988,8.983,2.988V75.154v-15C66.406,60.154,59.69,66.869,59.69,75.154z
	 M69.83,77.785c-1.381,0-2.5-1.119-2.5-2.5s1.119-2.5,2.5-2.5s2.5,1.119,2.5,2.5S71.211,77.785,69.83,77.785z"/>
<path fill="#FFFFFF" d="M191.683,67.201c1.381,1.173,2.07,2.976,2.07,5.405s-0.709,4.208-2.125,5.334
	c-1.418,1.126-3.58,1.688-6.49,1.688h-4.494v5.49h-4.393V65.44h8.83C188.104,65.442,190.304,66.028,191.683,67.201z M188.46,74.942
	c0.524-0.59,0.789-1.454,0.789-2.59c0-1.134-0.345-1.942-1.027-2.421c-0.686-0.479-1.752-0.718-3.195-0.718h-4.383v6.615h4.832
	C186.94,75.829,187.934,75.534,188.46,74.942z"/>
<path fill="#FFFFFF" d="M196.046,85.12V73.888c0-2.909,0.74-5.119,2.225-6.631c1.48-1.512,3.545-2.267,6.193-2.267
	c2.645,0,4.705,0.746,6.178,2.238c1.476,1.491,2.211,3.655,2.211,6.489v11.399h-4.42V80.5h-7.996v4.618L196.046,85.12L196.046,85.12
	z M200.436,73.746v2.872h7.996v-2.729c0-1.576-0.356-2.803-1.07-3.676c-0.715-0.872-1.692-1.309-2.94-1.309
	s-2.226,0.418-2.928,1.252C200.79,70.992,200.436,72.189,200.436,73.746z"/>
<path fill="#FFFFFF" d="M231.599,71.973c0,3.151-1.248,5.188-3.744,6.107l4.982,7.039h-5.404l-4.363-6.278h-3.041v6.278h-4.391
	V65.441h7.459c3.062,0,5.242,0.517,6.547,1.548C230.948,68.022,231.599,69.683,231.599,71.973z M226.306,74.31
	c0.545-0.487,0.816-1.264,0.816-2.322c0-1.061-0.281-1.787-0.845-2.182c-0.562-0.396-1.547-0.593-2.955-0.593h-3.295v5.826h3.211
	C224.739,75.041,225.763,74.798,226.306,74.31z"/>
<path fill="#FFFFFF" d="M250.656,71.973c0,3.151-1.247,5.188-3.743,6.107l4.98,7.039h-5.402l-4.363-6.278h-3.041v6.278h-4.392
	V65.441h7.459c3.06,0,5.24,0.517,6.546,1.548C250.005,68.022,250.656,69.683,250.656,71.973z M245.366,74.31
	c0.543-0.487,0.812-1.264,0.812-2.322c0-1.061-0.281-1.787-0.845-2.182c-0.564-0.396-1.547-0.593-2.955-0.593h-3.295v5.826h3.209
	C243.798,75.041,244.818,74.798,245.366,74.31z"/>
<path fill="#FFFFFF" d="M270.109,82.403c-1.988,1.943-4.438,2.914-7.348,2.914s-5.359-0.971-7.349-2.914
	c-1.988-1.941-2.983-4.357-2.983-7.249c0-2.891,0.995-5.307,2.983-7.249c1.986-1.942,4.438-2.913,7.349-2.913
	c2.907,0,5.356,0.971,7.348,2.913c1.988,1.942,2.983,4.358,2.983,7.249C273.096,78.045,272.1,80.461,270.109,82.403z
	 M268.618,75.168c0-1.756-0.562-3.251-1.688-4.489c-1.125-1.238-2.511-1.857-4.152-1.857c-1.643,0-3.023,0.62-4.15,1.857
	c-1.127,1.238-1.688,2.733-1.688,4.489c0,1.754,0.562,3.246,1.688,4.479c1.127,1.229,2.511,1.844,4.15,1.844
	c1.644,0,3.027-0.615,4.152-1.844C268.057,78.414,268.618,76.922,268.618,75.168z"/>
<path fill="#FFFFFF" d="M284.327,85.12h-4.421V69.298c-0.75,0.206-1.517,0.492-2.296,0.858c-0.777,0.366-1.375,0.681-1.785,0.943
	l-0.594,0.422l-2.31-3.352c0.994-0.899,2.351-1.656,4.067-2.266c1.718-0.611,3.421-0.915,5.108-0.915
	c1.688,0,3.39,0.304,5.096,0.915c1.707,0.608,3.061,1.365,4.055,2.266l-2.309,3.352c-1.391-1.015-2.928-1.755-4.616-2.226
	L284.327,85.12L284.327,85.12z"/>
<path fill="#2A8A5E" d="M351.682,67.201c1.381,1.173,2.07,2.976,2.07,5.405s-0.709,4.208-2.125,5.334
	c-1.418,1.126-3.58,1.688-6.49,1.688h-4.494v5.49h-4.393V65.44h8.83C348.104,65.442,350.303,66.028,351.682,67.201z M348.459,74.942
	c0.524-0.59,0.789-1.454,0.789-2.59c0-1.134-0.345-1.942-1.027-2.421c-0.686-0.479-1.752-0.718-3.195-0.718h-4.383v6.615h4.832
	C346.939,75.829,347.934,75.534,348.459,74.942z"/>
<path fill="#2A8A5E" d="M356.045,85.12V73.888c0-2.909,0.74-5.119,2.225-6.631c1.48-1.512,3.545-2.267,6.193-2.267
	c2.645,0,4.705,0.746,6.178,2.238c1.478,1.491,2.211,3.655,2.211,6.489v11.399h-4.42V80.5h-7.996v4.618L356.045,85.12L356.045,85.12
	z M360.436,73.746v2.872h7.996v-2.729c0-1.576-0.355-2.803-1.07-3.676c-0.715-0.872-1.691-1.309-2.939-1.309
	s-2.227,0.418-2.928,1.252C360.789,70.992,360.436,72.189,360.436,73.746z"/>
<path fill="#2A8A5E" d="M391.598,71.973c0,3.151-1.248,5.188-3.744,6.107l4.982,7.039h-5.404l-4.361-6.278h-3.041v6.278h-4.393
	V65.441h7.459c3.062,0,5.242,0.517,6.547,1.548C390.947,68.022,391.598,69.683,391.598,71.973z M386.305,74.31
	c0.545-0.487,0.816-1.264,0.816-2.322c0-1.061-0.281-1.787-0.845-2.182c-0.562-0.396-1.547-0.593-2.955-0.593h-3.295v5.826h3.211
	C384.738,75.041,385.762,74.798,386.305,74.31z"/>
<path fill="#2A8A5E" d="M410.656,71.973c0,3.151-1.248,5.188-3.744,6.107l4.981,7.039h-5.403l-4.362-6.278h-3.041v6.278h-4.392
	V65.441h7.459c3.06,0,5.24,0.517,6.545,1.548C410.004,68.022,410.656,69.683,410.656,71.973z M405.365,74.31
	c0.543-0.487,0.813-1.264,0.813-2.322c0-1.061-0.28-1.787-0.846-2.182c-0.562-0.396-1.547-0.593-2.954-0.593h-3.296v5.826h3.209
	C403.797,75.041,404.818,74.798,405.365,74.31z"/>
<path fill="#2A8A5E" d="M430.109,82.403c-1.99,1.943-4.438,2.914-7.349,2.914s-5.358-0.971-7.35-2.914
	c-1.986-1.941-2.982-4.357-2.982-7.249c0-2.891,0.996-5.307,2.982-7.249c1.987-1.942,4.438-2.913,7.35-2.913
	c2.907,0,5.355,0.971,7.349,2.913c1.987,1.942,2.983,4.358,2.983,7.249C433.093,78.045,432.098,80.461,430.109,82.403z
	 M428.616,75.168c0-1.756-0.562-3.251-1.688-4.489c-1.125-1.238-2.51-1.857-4.151-1.857c-1.641,0-3.023,0.62-4.15,1.857
	c-1.128,1.238-1.688,2.733-1.688,4.489c0,1.754,0.562,3.246,1.688,4.479c1.127,1.229,2.511,1.844,4.15,1.844
	c1.644,0,3.026-0.615,4.151-1.844C428.055,78.414,428.616,76.922,428.616,75.168z"/>
<path fill="#2A8A5E" d="M444.325,85.12h-4.42V69.298c-0.75,0.206-1.517,0.492-2.295,0.858c-0.779,0.366-1.375,0.681-1.787,0.943
	l-0.592,0.422l-2.311-3.352c0.993-0.899,2.352-1.656,4.067-2.266c1.717-0.611,3.42-0.915,5.107-0.915
	c1.688,0,3.391,0.304,5.098,0.915c1.707,0.608,3.059,1.365,4.053,2.266l-2.309,3.352c-1.391-1.015-2.928-1.755-4.615-2.226
	L444.325,85.12L444.325,85.12z"/>
<path fill="#A9A39D" d="M76.239,520.153h-0.301c-19.227,0-34.813,15.588-34.813,34.815c0,5.853,1.461,11.355,4.014,16.197
	c0,0,0.193,0.396,0.229,0.464c5.934,10.782-1.646,12.532-8.074,12.634c-4.65,0.078,11.01,12.59,21.326,0.902
	c5.127,2.963,10.979,4.615,17.319,4.615h0.302c19.229,0,34.811-15.59,34.811-34.812C111.05,535.741,95.468,520.153,76.239,520.153z
	 M82.04,561.444c-8.015,8.014-16.123,10.073-18.297,7.896c-1.886-1.886-5.181-4.183-0.892-7.632
	c4.289-3.445,5.488-1.752,7.437,0.193c1.356,1.358,4.797-1.479,7.766-4.447c2.969-2.968,5.807-6.405,4.447-7.767
	c-1.945-1.944-3.642-3.146-0.191-7.435c3.447-4.288,5.744-0.995,7.629,0.89C92.114,545.323,90.054,553.431,82.04,561.444z"/>
<g>
	<path fill="#2A8A5E" d="M236.24,520.153h-0.301c-19.228,0-34.813,15.588-34.813,34.815c0,5.851,1.461,11.354,4.014,16.197
		c0,0,0.193,0.396,0.229,0.462c5.934,10.782-1.646,12.534-8.074,12.636c-4.65,0.076,11.01,12.59,21.326,0.902l0,0
		c5.127,2.963,10.979,4.615,17.318,4.615h0.303c19.229,0,34.812-15.592,34.812-34.812
		C271.051,535.741,255.469,520.153,236.24,520.153z"/>
</g>
<g>
	<path fill="#24684B" d="M237.514,553.903v13.125c7.25,0,13.125-5.877,13.125-13.125H237.514z"/>
	<path fill="#6EC9E2" d="M237.514,538.903v15h15C252.514,545.62,245.799,538.903,237.514,538.903z"/>
	<path fill="#FFFFFF" d="M222.514,553.903c0,2.758,0.748,5.338,2.045,7.558c1.111,3.046-1.428,3.575-3.606,3.61
		c-1.688,0.026,3.688,4.379,7.577,0.845c2.505,1.877,5.615,2.987,8.983,2.987v-15v-15
		C229.23,538.903,222.514,545.62,222.514,553.903z M232.654,556.536c-1.381,0-2.5-1.118-2.5-2.5c0-1.381,1.119-2.5,2.5-2.5
		c1.382,0,2.5,1.119,2.5,2.5C235.154,555.418,234.035,556.536,232.654,556.536z"/>
</g>
<path fill="#FFFFFF" d="M237.775,714.207l-6.157-6.159c-0.523-0.521-1.373-0.521-1.896,0c-0.522,0.522-0.522,1.37,0,1.896
	l5.211,5.211l-5.211,5.211c-0.522,0.522-0.522,1.373,0,1.896c0.521,0.521,1.371,0.521,1.896,0l6.157-6.158
	C238.301,715.578,238.301,714.73,237.775,714.207z"/>
<path fill="#FFFFFF" d="M69.723,716.1l6.16,6.16c0.521,0.523,1.371,0.523,1.893,0c0.525-0.521,0.525-1.371,0-1.896l-5.211-5.211
	l5.211-5.211c0.525-0.525,0.525-1.373,0-1.896c-0.521-0.521-1.371-0.521-1.893,0l-6.16,6.157
	C69.199,714.729,69.199,715.578,69.723,716.1z"/>
<g id="Guides" display="none">
</g>
<path fill="#FFFFFF" d="M237.703,800.676c9.925,0,18,8.073,18,18c0,9.926-8.075,18-18,18c-9.927,0-18-8.074-18-18
	C219.703,808.749,227.777,800.676,237.703,800.676 M237.703,798.676c-11.048,0-20,8.955-20,20s8.952,20,20,20
	c11.045,0,20-8.955,20-20S248.748,798.676,237.703,798.676L237.703,798.676z"/>
<path fill="#FFFFFF" d="M243.156,819.312c-0.021-2.526,2.069-3.757,2.166-3.812c-1.187-1.729-3.021-1.964-3.666-1.979
	c-1.543-0.162-3.036,0.922-3.823,0.922c-0.802,0-2.011-0.905-3.314-0.881c-1.676,0.026-3.246,0.997-4.106,2.506
	c-1.775,3.075-0.451,7.595,1.25,10.082c0.852,1.218,1.846,2.575,3.147,2.526c1.273-0.054,1.75-0.812,3.287-0.812
	c1.523,0,1.972,0.812,3.3,0.783c1.366-0.021,2.229-1.224,3.048-2.451c0.984-1.396,1.381-2.771,1.396-2.842
	C245.809,823.343,243.186,822.343,243.156,819.312z"/>
<path fill="#FFFFFF" d="M240.649,811.882c0.687-0.854,1.154-2.021,1.023-3.205c-0.992,0.045-2.232,0.688-2.945,1.521
	c-0.633,0.739-1.197,1.948-1.051,3.089C238.79,813.369,239.935,812.725,240.649,811.882z"/>
<path fill="#FFFFFF" d="M77.701,800.676c9.926,0,18,8.073,18,18c0,9.926-8.074,18-18,18c-9.925,0-17.999-8.074-17.999-18
	C59.702,808.749,67.778,800.676,77.701,800.676 M77.701,798.676c-11.046,0-19.999,8.955-19.999,20s8.953,20,19.999,20
	c11.045,0,20-8.955,20-20S88.746,798.676,77.701,798.676L77.701,798.676z"/>
<path fill="#FFFFFF" d="M73.92,812.78c0-0.711-0.436-1.604-2.253-1.604c-0.75,0-2.806,0-2.806,0l-0.791,3.685c0,0,1.513,0,2.914,0
	C73.269,814.858,73.92,813.78,73.92,812.78L73.92,812.78z"/>
<path fill="#FFFFFF" d="M81.466,812.78c0-0.711-0.434-1.604-2.254-1.604c-0.744,0-2.799,0-2.799,0l-0.797,3.685c0,0,1.513,0,2.918,0
	C80.817,814.858,81.466,813.78,81.466,812.78L81.466,812.78z"/>
<path fill="#FFFFFF" d="M72.908,818.321c0-0.709-0.436-1.601-2.256-1.601c-0.743,0-2.801,0-2.801,0l-0.797,3.679
	c0,0,1.516,0,2.924,0C72.257,820.399,72.908,819.321,72.908,818.321L72.908,818.321z"/>
<path fill="#FFFFFF" d="M80.454,818.321c0-0.709-0.435-1.601-2.25-1.601c-0.75,0-2.806,0-2.806,0l-0.795,3.679c0,0,1.515,0,2.917,0
	C79.803,820.399,80.454,819.321,80.454,818.321L80.454,818.321z"/>
<path fill="#FFFFFF" d="M88.348,816.075c0-0.709-0.431-1.604-2.25-1.604c-0.75,0-2.803,0-2.803,0l-0.797,3.687c0,0,1.514,0,2.918,0
	C87.7,818.155,88.348,817.075,88.348,816.075L88.348,816.075z"/>
<path fill="#FFFFFF" d="M87.262,821.847c0-0.707-0.434-1.604-2.254-1.604c-0.746,0-2.802,0-2.802,0l-0.794,3.685
	c0,0,1.514,0,2.918,0C86.612,823.927,87.262,822.849,87.262,821.847L87.262,821.847z"/>
<path fill="#FFFFFF" d="M79.368,824.094c0-0.707-0.432-1.604-2.248-1.604c-0.75,0-2.806,0-2.806,0l-0.796,3.687c0,0,1.518,0,2.924,0
	C78.721,826.176,79.368,825.097,79.368,824.094L79.368,824.094z"/>
<path fill="#FFFFFF" d="M397.7,800.676c9.928,0,18.002,8.073,18.002,18c0,9.926-8.074,18-18.002,18c-9.924,0-17.999-8.074-17.999-18
	C379.701,808.749,387.777,800.676,397.7,800.676 M397.7,798.676c-11.045,0-19.999,8.955-19.999,20c0,11.047,8.954,20,19.999,20
	c11.047,0,20.002-8.953,20.002-20C417.702,807.631,408.747,798.676,397.7,798.676L397.7,798.676z"/>
<path fill="#FFFFFF" d="M392.46,814.457h-0.727v4.912h0.013v5.15c0,0.395,0.319,0.714,0.714,0.714h1.523v3.17
	c0,0.7,0.564,1.271,1.27,1.271c0.701,0,1.271-0.568,1.271-1.271v-3.17h2.358v3.17c0,0.7,0.568,1.271,1.271,1.271
	s1.271-0.568,1.271-1.271v-3.17h1.524c0.394,0,0.713-0.319,0.713-0.714v-5.15h0.013v-4.912h-0.726H392.46z"/>
<path fill="#FFFFFF" d="M405.573,814.052c-0.701,0-1.271,0.567-1.271,1.271v5.702c0,0.7,0.567,1.271,1.271,1.271
	s1.271-0.568,1.271-1.271v-5.702C406.845,814.619,406.275,814.052,405.573,814.052z"/>
<path fill="#FFFFFF" d="M389.83,814.052c-0.7,0-1.271,0.567-1.271,1.271v5.702c0,0.7,0.568,1.271,1.271,1.271
	s1.271-0.568,1.271-1.271v-5.702C391.1,814.619,390.531,814.052,389.83,814.052z"/>
<path fill="#FFFFFF" d="M400.577,809.282l1.021-1.439c0.021-0.029-0.008-0.088-0.066-0.129c-0.058-0.041-0.123-0.053-0.146-0.021
	l-1.053,1.485c-0.714-0.278-1.578-0.451-2.634-0.455c-1.06-0.004-1.929,0.164-2.644,0.438l-1.043-1.472
	c-0.021-0.028-0.086-0.021-0.146,0.021c-0.061,0.041-0.09,0.101-0.067,0.13l1.01,1.424c-2.939,1.299-3.025,4.487-3.025,4.487h11.833
	C403.618,813.755,403.497,810.594,400.577,809.282z M395.104,811.891c-0.394,0-0.711-0.318-0.711-0.713
	c0-0.396,0.317-0.713,0.711-0.713c0.396,0,0.713,0.316,0.713,0.713C395.816,811.571,395.498,811.891,395.104,811.891z
	 M400.3,811.891c-0.395,0-0.713-0.318-0.713-0.713c0-0.396,0.318-0.713,0.713-0.713c0.394,0,0.713,0.316,0.713,0.713
	C401.011,811.571,400.691,811.891,400.3,811.891z"/>
<path fill="#FFFFFF" d="M407.5,565.918l-4.111-4.115c0.645-0.953,1.02-2.102,1.02-3.34c0-3.293-2.664-5.963-5.953-5.963
	c-3.291,0-5.955,2.67-5.955,5.963c0,3.295,2.664,5.965,5.955,5.965c1.248,0,2.402-0.385,3.361-1.043l4.105,4.115L407.5,565.918z
	 M398.455,562.394c-2.166,0-3.926-1.764-3.926-3.932c0-2.166,1.76-3.93,3.926-3.93c2.164,0,3.924,1.764,3.924,3.93
	C402.379,560.631,400.619,562.394,398.455,562.394z"/>
<path fill="#2A8A5E" d="M407.5,725.918l-4.111-4.115c0.645-0.953,1.02-2.102,1.02-3.34c0-3.293-2.664-5.963-5.953-5.963
	c-3.291,0-5.955,2.67-5.955,5.963c0,3.295,2.664,5.965,5.955,5.965c1.248,0,2.402-0.385,3.361-1.043l4.105,4.115L407.5,725.918z
	 M398.455,722.394c-2.166,0-3.926-1.764-3.926-3.932c0-2.166,1.76-3.93,3.926-3.93c2.164,0,3.924,1.764,3.924,3.93
	C402.379,720.631,400.619,722.394,398.455,722.394z"/>
</svg>
