<?xml version="1.0" encoding="utf-8"?>
<!-- Generator: Adobe Illustrator 18.0.0, SVG Export Plug-In . SVG Version: 6.00 Build 0)  -->
<!DOCTYPE svg PUBLIC "-//W3C//DTD SVG 1.1//EN" "http://www.w3.org/Graphics/SVG/1.1/DTD/svg11.dtd">
<svg version="1.1" xmlns="http://www.w3.org/2000/svg" xmlns:xlink="http://www.w3.org/1999/xlink" x="0px" y="0px" width="960px"
	 height="960px" viewBox="-445.496 772.489 960 960" enable-background="new -445.496 772.489 960 960" xml:space="preserve">
<g id="Art">
	<path fill-rule="evenodd" clip-rule="evenodd" fill="#01BC9D" d="M-362.384,857.121c-1.409,1.004-3.131,1.596-4.994,1.596
		c-4.756,0-8.613-3.858-8.613-8.614c0-4.758,3.857-8.614,8.613-8.614c4.758,0,8.614,3.855,8.614,8.614
		c0,2.379-0.964,4.533-2.521,6.09l6.076,6.078c0.279,0.279,0.273,0.725-0.007,1.005c-0.282,0.281-0.731,0.284-1.006,0.008
		L-362.384,857.121L-362.384,857.121L-362.384,857.121z M-367.377,857.703c4.198,0,7.6-3.402,7.6-7.6c0-4.198-3.402-7.6-7.6-7.6
		c-4.197,0-7.6,3.402-7.6,7.6C-374.977,854.301-371.574,857.703-367.377,857.703L-367.377,857.703L-367.377,857.703z
		 M-367.377,857.703"/>
	<path fill-rule="evenodd" clip-rule="evenodd" fill="#00A384" d="M-202.383,857.121c-1.409,1.004-3.132,1.596-4.994,1.596
		c-4.756,0-8.613-3.858-8.613-8.614c0-4.758,3.857-8.614,8.613-8.614c4.758,0,8.613,3.855,8.613,8.614
		c0,2.379-0.964,4.533-2.521,6.09l6.076,6.078c0.279,0.279,0.273,0.725-0.008,1.005c-0.281,0.281-0.73,0.284-1.006,0.008
		L-202.383,857.121L-202.383,857.121L-202.383,857.121z M-207.378,857.703c4.198,0,7.601-3.402,7.601-7.6
		c0-4.198-3.402-7.6-7.601-7.6c-4.197,0-7.601,3.402-7.601,7.6C-214.978,854.301-211.575,857.703-207.378,857.703L-207.378,857.703
		L-207.378,857.703z M-207.378,857.703"/>
	<g>
		<g>
			<path fill="#262425" d="M-256.689,1654.5c-0.017-1.207-0.033-2.372-0.049-3.394c-0.027-1.116-0.051-2.077-0.068-2.776
				c-0.057-1.487-0.189-1.473-0.189-1.473h-0.024c0.01-0.009,0.024-0.017,0.024-0.026c0-0.049-0.256-0.09-0.713-0.125
				c-0.228-0.013-0.506-0.029-0.829-0.049c-0.365-0.015-0.547-0.029-1.326-0.041c-0.024,1.421-0.057,3.282-0.094,5.195
				c-0.009,1.952-0.02,3.954-0.029,5.605c0.937,0.002,1.752,0.002,2.422,0.004c0,0,2.213-0.005,5.453-0.015
				c-0.002-0.897-0.006-1.862-0.012-2.941C-253.59,1654.475-255.178,1654.487-256.689,1654.5z"/>
			<path fill="#262425" d="M-241.802,1650.037c-0.007-1.185-0.017-2.352-0.024-3.466c-1.121,0.009-2.196,0.018-3.17,0.027
				c0.027,1.743,0.053,3.22,0.068,4.29c0.058,2.115,0.058,2.115,0.058,2.115s0.055,0.376-0.182,0.945
				c-0.122,0.278-0.358,0.558-0.757,0.662c-0.383,0.103-0.929,0.118-1.373-0.067c-0.445-0.179-0.695-0.656-0.717-1.267
				c-0.023-0.6,0.01-1.319,0.01-2.016c0.012-1.521,0.024-3.141,0.037-4.749c-1.121-0.003-2.239-0.007-3.324-0.013
				c-0.004,1.381-0.008,2.706-0.01,3.905c0.017,1.107-0.049,2.04,0.042,2.906c0,0-0.004,0.187,0.056,0.524
				c0.091,0.334,0.152,0.839,0.469,1.41c0.271,0.58,0.807,1.204,1.564,1.646c0.761,0.476,1.742,0.595,2.74,0.608
				c0.995-0.01,2.139-0.289,3.025-1.048c0.899-0.753,1.366-1.941,1.457-3.084c0.055-0.585,0.047-1.136,0.041-1.684
				C-241.794,1651.134-241.798,1650.583-241.802,1650.037z"/>
			<path fill="#262425" d="M-231.993,1648.639c1.454-1.695,1.354-1.782,1.354-1.782h-0.035c0.012-0.009,0.035-0.017,0.035-0.026
				c0-0.045-0.342-0.084-0.955-0.117c-0.309-0.013-0.684-0.03-1.116-0.049c-0.468-0.011-1.001-0.025-1.587-0.039
				c-0.425,0.524-0.896,1.107-1.404,1.733c-0.24,0.299-0.487,0.608-0.742,0.924c-0.174,0.221-0.123,0.149-0.17,0.205l-0.066,0.072
				l0.01-0.154c0.004-0.238,0.006-0.482,0.008-0.726c0.006-0.711,0.01-1.434,0.015-2.159c-1.105-0.004-2.218-0.009-3.311-0.015
				c-0.008,3.329-0.014,6.494-0.02,8.589c0,0,0.002,0.514,0.002,2.323c0.658,0,1.61-0.002,3.355-0.003
				c-0.002-0.88-0.004-1.94-0.008-3.392c0.098-0.109,0.195-0.222,0.326-0.367c0.743,1.125,1.582,2.396,2.462,3.729
				c1.349-0.008,2.733-0.014,4.118-0.019c-1.637-2.161-3.262-4.306-4.592-6.061
				C-233.373,1650.223-232.586,1649.317-231.993,1648.639z"/>
			<path fill="#262425" d="M-221.266,1654.553c-1.344,0.006-2.854,0.009-4.493,0.015c-0.004-0.394-0.006-0.795-0.01-1.215
				c1.276-0.008,2.583-0.015,3.868-0.021c-0.006-0.935-0.012-1.86-0.016-2.747c-1.398,0.013-2.736,0.025-3.928,0.037
				c-0.008-0.5-0.017-0.969-0.023-1.391c0.809-0.017,1.502-0.033,2.067-0.044c1.983-0.053,2.178-0.188,2.178-0.188v-0.028
				c0.01,0.015,0.017,0.028,0.026,0.028c0.033,0,0.064-0.194,0.093-0.56c0.011-0.183,0.024-0.406,0.04-0.672
				c0.009-0.321,0.021-0.69,0.035-1.104c-0.893-0.021-2.027-0.045-3.314-0.075c-1.308-0.014-2.773-0.03-4.303-0.05
				c-0.018,3.688-0.033,7.754-0.049,10.881c1.105,0,2.1,0,2.934,0.002c0,0,1.862-0.004,4.898-0.007
				C-221.262,1656.606-221.264,1655.729-221.266,1654.553z"/>
		</g>
		<g>
			<path fill="#262425" d="M-185.795,1652.76c-0.263-0.207-1.081-0.844-2.499-1.215c-0.342-0.082-0.703-0.166-0.985-0.363
				c-0.245-0.15-0.175-0.482,0.121-0.62c0.734-0.323,1.756-0.199,2.64,0.233l0.597,0.318c0.184,0.063,0.541,0.418,0.444,0.002
				c0.002-0.407,0.006-0.816,0.008-1.229l0.006-0.816l0.003-0.513v-0.197c-0.019-0.055-0.106-0.067-0.156-0.103l-0.3-0.153
				c-1.038-0.514-2.231-0.691-3.332-0.568c-1.108,0.125-2.168,0.591-2.811,1.44c-0.624,0.871-0.648,1.837-0.567,2.555
				c0,0,0.005,0.322,0.221,0.873c0.113,0.268,0.27,0.589,0.57,0.904c0.322,0.325,0.686,0.536,1.138,0.753
				c0.431,0.204,0.963,0.36,1.471,0.481c0.244,0.066,0.551,0.131,0.763,0.202c0.215,0.073,0.455,0.226,0.474,0.307
				c0.022,0.03,0.026,0.118,0.002,0.183c-0.021,0.059-0.062,0.115-0.145,0.173c-0.189,0.111-0.452,0.195-0.726,0.216
				c-0.566,0.028-1.199-0.051-1.768-0.279c-0.299-0.126-0.543-0.229-0.861-0.451l-0.784-0.566l-0.191-0.139
				c-0.015-0.01-0.035-0.032-0.045-0.03v0.06l0.002,0.124v0.485c0.006,0.836,0.01,1.676,0.013,2.511
				c-0.029,0.097,0.079,0.115,0.138,0.161l0.193,0.12c0.079,0.046,0.152,0.096,0.231,0.139c0.161,0.076,0.317,0.17,0.483,0.232
				c0.328,0.138,0.665,0.251,1.004,0.323c0.682,0.159,1.356,0.203,2.015,0.179c1.338-0.044,2.571-0.694,3.205-1.655
				c0.31-0.484,0.429-1.025,0.433-1.497c0.009-0.469-0.058-0.885-0.16-1.244C-185.177,1653.378-185.543,1652.973-185.795,1652.76z"
				/>
			<path fill="#262425" d="M-177.312,1647.73c-0.432,0.012-0.721,0.017-0.982,0.022c-1.336,0.046-1.643,0.183-1.652,0.179
				c-0.1-0.039-0.712,1.296-1.536,3.228c-0.402,0.97-0.867,2.085-1.355,3.249c-0.539,1.327-1.101,2.711-1.641,4.042
				c1.264,0.004,2.484,0.007,3.601,0.011c0.305-0.939,0.575-1.777,0.79-2.436c0,0,1.062-0.002,2.796-0.006
				c0.22,0.679,0.476,1.458,0.793,2.431c1.095-0.004,2.281-0.008,3.571-0.014c-0.796-1.965-1.654-4.086-2.44-6.025
				C-176.131,1650.575-176.824,1648.909-177.312,1647.73z M-178.686,1651.555c0.064,0.151,0.152,0.364,0.259,0.619
				c0.109,0.26,0.238,0.56,0.371,0.877c0.069,0.161,0.141,0.323,0.211,0.489l0.041,0.062l-0.039,0.011l-0.028,0.006l-0.14,0.008
				c-0.219,0.009-0.431,0.021-0.628,0.029c-0.395,0.022-0.732,0.05-0.967,0.082c-0.076,0.009-0.141,0.021-0.195,0.031
				c0.14-0.188,0.32-0.515,0.52-0.931c0.159-0.329,0.325-0.701,0.484-1.071l0.061-0.14c0.021-0.052,0.042-0.097,0.036-0.081
				l0.008-0.004c0.004,0,0.005,0.002,0.005,0.006v0.007H-178.686z"/>
			<path fill="#262425" d="M-155.393,1647.73c-0.431,0.012-0.72,0.017-0.981,0.022c-1.337,0.046-1.644,0.183-1.652,0.179
				c-0.101-0.039-0.713,1.296-1.536,3.228c-0.403,0.97-0.867,2.085-1.355,3.249c-0.539,1.327-1.102,2.711-1.642,4.042
				c1.264,0.004,2.484,0.007,3.601,0.011c0.305-0.939,0.576-1.777,0.79-2.436c0,0,1.063-0.002,2.796-0.006
				c0.221,0.679,0.476,1.458,0.794,2.431c1.095-0.004,2.28-0.008,3.57-0.014c-0.795-1.965-1.654-4.086-2.44-6.025
				C-154.21,1650.575-154.903,1648.909-155.393,1647.73z M-156.765,1651.555c0.064,0.151,0.152,0.364,0.259,0.619
				c0.109,0.26,0.237,0.56,0.371,0.877c0.069,0.161,0.141,0.323,0.21,0.489l0.042,0.062l-0.04,0.011l-0.027,0.006l-0.14,0.008
				c-0.219,0.009-0.431,0.021-0.628,0.029c-0.395,0.022-0.733,0.05-0.967,0.082c-0.076,0.009-0.141,0.021-0.195,0.031
				c0.14-0.188,0.319-0.515,0.519-0.931c0.16-0.329,0.325-0.701,0.485-1.071l0.06-0.14c0.021-0.052,0.042-0.097,0.037-0.081
				l0.007-0.004c0.004,0,0.006,0.002,0.006,0.006v0.007H-156.765z"/>
			<path fill="#262425" d="M-165.163,1654.912c-0.085-0.125-0.167-0.243-0.246-0.359c-0.018-0.05-0.139-0.126-0.071-0.158
				c0.061-0.029,0.12-0.059,0.177-0.085c0.062-0.031,0.181-0.116,0.258-0.167c0.179-0.107,0.3-0.238,0.409-0.342
				c0.216-0.207,0.298-0.39,0.35-0.461c0.066-0.132,0.35-0.363,0.57-1.062c0.098-0.35,0.185-0.78,0.152-1.282
				c-0.023-0.25-0.004-0.522-0.109-0.794c-0.041-0.137-0.083-0.279-0.126-0.424c-0.062-0.136-0.148-0.266-0.228-0.403
				c-0.656-1.138-2.154-1.688-3.582-1.736c-0.716-0.037-1.41-0.021-2.126-0.033c-0.827-0.006-1.656-0.009-2.471-0.015
				c-0.006,2.546-0.012,4.909-0.016,6.51c0,0,0.002,1.658,0.008,4.357c0.946-0.001,2.008-0.005,3.326-0.007
				c-0.004-1.045-0.01-2.18-0.015-3.392c0.182-0.004,0.366-0.006,0.557-0.008c0.635,1.116,1.285,2.258,1.906,3.349
				c1.256-0.01,2.479-0.021,3.597-0.03c-0.622-0.931-1.199-1.795-1.712-2.562C-164.772,1655.486-164.975,1655.188-165.163,1654.912z
				 M-167.521,1652.473c-0.176,0.004-0.505-0.035-0.791-0.045c-0.149-0.007-0.304-0.015-0.459-0.021l-0.103-0.005l-0.009-0.004
				l-0.012-0.006l0.008-0.016l0.002-0.006l0.002-0.116c0.002-0.156,0.003-0.309,0.005-0.453c0.002-0.29,0.004-0.549,0.006-0.751
				c0,0-0.002-0.093-0.002-0.261c-0.002-0.085-0.002-0.188-0.004-0.309c0-0.081-0.002-0.025-0.003-0.048l0.005-0.004l0.004-0.002
				l0.13-0.002c0.179-0.004,0.368-0.006,0.562-0.009c0.185,0,0.425-0.019,0.577-0.006c0.162-0.006,0.303,0.052,0.44,0.119
				c0.594,0.296,0.606,1.097,0.476,1.411C-166.767,1652.188-167.116,1652.476-167.521,1652.473z"/>
		</g>
		<g>
			<path fill="#FEC900" d="M-209.627,1656.925c2.283-0.116,4.447-1.724,4.365-4.284c0.023-2.696-1.797-4.307-4.382-4.282
				c-2.651,0.017-4.263,1.344-4.06,4.16C-213.713,1654.728-212.459,1656.87-209.627,1656.925z"/>
			<path fill="#1BD6B7" d="M-203.486,1647.957c-2.618-0.335-4.725,1.972-4.781,4.347c0.469,2.765,2.096,4.274,4.627,4.446
				c2.467,0.088,4.343-1.9,4.576-4.013C-199.071,1650.076-200.943,1648.34-203.486,1647.957z"/>
		</g>
	</g>
	<g>
		<path fill="#FEC900" d="M-56.537,867.99c7.793-0.402,15.178-5.938,14.894-14.758c0.08-9.284-6.133-14.833-14.949-14.755
			c-9.047,0.06-14.541,4.633-13.846,14.336C-70.475,860.421-66.197,867.798-56.537,867.99z"/>
		<path fill="#1BD6B7" d="M-35.588,837.101c-8.932-1.151-16.113,6.789-16.309,14.967c0,9.267,7.146,14.723,15.785,15.318
			c8.414,0.298,15.615-6.051,15.615-13.823C-20.522,844.397-26.912,838.414-35.588,837.101z"/>
	</g>
	<g>
		<path fill="#01BC9D" d="M-47.206,1008.169l-2.34,4.381h1.5v5.399h-4.74v-6.3l4.38-4.62L-47.206,1008.169z M-38.206,1008.169
			l-2.34,4.381h1.5v5.399h-4.74v-6.3l4.38-4.62L-38.206,1008.169z"/>
	</g>
	<g>
		<path fill="#01BC9D" d="M-43.786,1176.81l2.34-4.381h-1.5v-5.399h4.74v6.3l-4.38,4.62L-43.786,1176.81z M-52.786,1176.81
			l2.34-4.381h-1.5v-5.399h4.74v6.3l-4.38,4.62L-52.786,1176.81z"/>
	</g>
	<path fill="#01BC9D" d="M-42.671,1337.327c0.232-0.215,0.232-0.568,0-0.784l-3.955-3.662c-0.232-0.216-0.232-0.568,0-0.783
		l3.955-3.662c0.232-0.216,0.232-0.569,0-0.784l0,0c-0.232-0.216-0.614-0.216-0.848,0l-4.803,4.446
		c-0.232,0.215-0.233,0.567,0,0.783l4.803,4.446C-43.285,1337.543-42.903,1337.543-42.671,1337.327L-42.671,1337.327z"/>
	<path fill="#01BC9D" d="M-48.321,1647.662c-0.232,0.215-0.232,0.568,0,0.784l3.955,3.662c0.232,0.216,0.232,0.568,0,0.783
		l-3.955,3.662c-0.232,0.216-0.232,0.569,0,0.784l0,0c0.232,0.216,0.614,0.216,0.848,0l4.803-4.446c0.232-0.215,0.233-0.567,0-0.783
		l-4.803-4.446C-47.707,1647.446-48.089,1647.446-48.321,1647.662L-48.321,1647.662z"/>
	<path fill="#00A384" d="M117.329,1337.327c0.232-0.215,0.232-0.568,0-0.784l-3.955-3.662c-0.232-0.216-0.232-0.568,0-0.783
		l3.955-3.662c0.232-0.216,0.232-0.569,0-0.784l0,0c-0.232-0.216-0.614-0.216-0.848,0l-4.803,4.446
		c-0.232,0.215-0.233,0.567,0,0.783l4.803,4.446C116.714,1337.543,117.096,1337.543,117.329,1337.327L117.329,1337.327z"/>
	<path fill="#00A384" d="M111.678,1647.662c-0.232,0.215-0.232,0.568,0,0.784l3.955,3.662c0.232,0.216,0.232,0.568,0,0.783
		l-3.955,3.662c-0.232,0.216-0.232,0.569,0,0.784l0,0c0.233,0.216,0.614,0.216,0.848,0l4.803-4.446c0.232-0.215,0.233-0.567,0-0.783
		l-4.803-4.446C112.292,1647.446,111.911,1647.446,111.678,1647.662L111.678,1647.662z"/>
	<g>
		<path fill="#01BC9D" d="M114.503,1019.989l-0.313-0.25c-0.787-0.629-7.687-6.608-7.687-10.05c0-2.592,2.107-4.7,4.699-4.7
			c1.246,0,2.439,0.529,3.301,1.44c0.859-0.911,2.055-1.44,3.299-1.44c2.592,0,4.701,2.108,4.701,4.7c0,3.441-6.9,9.421-7.688,10.05
			L114.503,1019.989z M111.203,1005.989c-2.039,0-3.699,1.66-3.699,3.7c0,2.391,4.787,7.191,7,9.016c2.213-1.824,7-6.626,7-9.016
			c0-2.04-1.66-3.7-3.701-3.7c-1.15,0-2.205,0.553-2.893,1.516l-0.406,0.57l-0.408-0.57
			C113.408,1006.542,112.353,1005.989,111.203,1005.989z"/>
	</g>
	<path fill="#01BC9D" d="M-56.496,1492.545l10.42-8.045v4.889l0.486,0.025c1.973,0.105,3.705,0.491,5.152,1.151
		c1.43,0.651,2.58,1.531,3.422,2.618c0.855,1.106,1.512,2.355,1.947,3.715c0.248,0.766,0.438,1.594,0.572,2.474
		c-0.273-0.338-0.574-0.657-0.9-0.958c-0.891-0.818-1.912-1.476-3.035-1.953c-1.102-0.466-2.256-0.827-3.434-1.073
		c-1.176-0.245-2.416-0.384-3.688-0.412l-0.523-0.012v5.536L-56.496,1492.545z"/>
	<path fill="#00A384" d="M103.503,1492.545l10.42-8.045v4.889l0.486,0.025c1.973,0.105,3.705,0.491,5.152,1.151
		c1.43,0.651,2.58,1.531,3.422,2.618c0.855,1.106,1.512,2.355,1.947,3.715c0.248,0.766,0.438,1.594,0.572,2.474
		c-0.273-0.338-0.574-0.657-0.9-0.958c-0.891-0.818-1.912-1.476-3.035-1.953c-1.102-0.466-2.256-0.827-3.434-1.073
		c-1.176-0.245-2.416-0.384-3.688-0.412l-0.523-0.012v5.536L103.503,1492.545z"/>
	<g>
		<circle opacity="0.3" fill="#333333" cx="274.503" cy="852.49" r="25"/>
		<path fill="#FAFAFA" d="M270.328,837.971c-0.646,0.648-0.646,1.707,0,2.356l10.988,10.986c0.647,0.648,0.647,1.707,0,2.354
			l-10.988,10.986c-0.646,0.647-0.646,1.708,0,2.354l0,0c0.648,0.648,1.707,0.648,2.355,0l13.342-13.341
			c0.647-0.646,0.647-1.706,0-2.354l-13.342-13.342C272.035,837.323,270.976,837.323,270.328,837.971L270.328,837.971z"/>
	</g>
	<g>
		<circle opacity="0.3" fill="#333333" cx="274.503" cy="1012.489" r="25"/>
		<path fill="#FAFAFA" d="M278.685,1027.008c0.646-0.647,0.646-1.707,0-2.355l-10.988-10.986c-0.646-0.648-0.646-1.707,0-2.354
			l10.988-10.986c0.646-0.646,0.646-1.707,0-2.353l0,0c-0.648-0.648-1.707-0.648-2.355,0l-13.34,13.34
			c-0.648,0.647-0.648,1.707,0,2.354l13.34,13.342C276.978,1027.654,278.037,1027.654,278.685,1027.008L278.685,1027.008z"/>
	</g>
	<g>
		<path fill="#01BC9D" d="M274.251,1194.49c-0.431,0.001-0.868-0.093-1.282-0.289c-1.498-0.709-2.137-2.498-1.428-3.995
			l6.971-14.717h-12.759c-1.017,0-1.964-0.514-2.518-1.367c-0.553-0.854-0.636-1.93-0.221-2.857l8.5-18.999
			c0.677-1.513,2.452-2.19,3.964-1.514c1.512,0.677,2.189,2.451,1.513,3.964l-6.608,14.773h12.87c1.028,0,1.984,0.527,2.535,1.396
			c0.55,0.869,0.616,1.959,0.176,2.889l-9,19C276.452,1193.856,275.374,1194.49,274.251,1194.49z"/>
	</g>
	<path id="_x31_00_x25__-_Ratina_1_" fill-rule="evenodd" clip-rule="evenodd" fill="#666666" d="M117.01,1171.407h-3.545
		l1.377-3.693c0.188-0.453-0.028-0.971-0.48-1.157c-0.453-0.187-0.971,0.029-1.157,0.481l-2.028,4.914
		c-0.097,0.233-0.082,0.482,0.014,0.697c0.128,0.33,0.445,0.565,0.821,0.565h3.78l-2.253,3.971
		c-0.194,0.464-0.006,1.012,0.419,1.222c0.425,0.21,0.925,0.004,1.116-0.46c0,0,2.822-5.127,2.822-5.653
		C117.896,1171.804,117.499,1171.407,117.01,1171.407z"/>
	<path fill="#00A384" d="M274.504,1328.489c-2.209,0-4,1.791-4,4c0,2.209,1.791,4,4,4s4-1.791,4-4
		C278.504,1330.28,276.713,1328.489,274.504,1328.489z M274.504,1334.489c-1.106,0-2-0.894-2-2c0-1.103,0.894-2,2-2
		c1.103,0,2,0.897,2,2C276.504,1333.595,275.607,1334.489,274.504,1334.489z"/>
	<circle opacity="0.3" fill="#333333" cx="274.503" cy="1492.5" r="25"/>
	<path fill="#FAFAFA" d="M278.692,1498.137l4.719-8.176c0.965-1.67,1.031-2.573,0.182-4.044c-0.848-1.469-2.441-1.417-4.369-1.417
		h-9.439c-1.929,0-3.521-0.052-4.37,1.417c-0.849,1.471-0.782,2.807,0.183,4.479l4.72,7.958c0.964,1.67,2.49,2.521,4.188,2.521
		C276.2,1500.875,277.727,1499.807,278.692,1498.137z M272.972,1496.611l-4.721-7.315c-0.843-1.461-0.152-1.796,1.533-1.796h9.439
		c1.686,0,2.377,0.333,1.533,1.792l-4.721,7.742C275.192,1498.495,273.814,1498.072,272.972,1496.611z"/>
	<polygon fill="#EA483E" points="274.504,1654.658 270.192,1659 268,1656.81 272.336,1652.505 268.02,1648.188 270.196,1646 
		274.497,1650.329 278.811,1646.013 281,1648.19 276.663,1652.497 281.006,1656.81 278.815,1659 	"/>
	<path fill="#01BC9D" d="M426.473,853.431l2.115-2.115l3.598,3.424l8.236-8.736l2.113,2.115l-10.34,10.857L426.473,853.431z"/>
	<path fill="#333333" d="M437.965,1013.666c-0.652-0.648-0.652-1.707,0-2.354l11.05-10.983c0.652-0.646,0.652-1.707,0-2.354
		c-0.652-0.648-1.717-0.648-2.367,0l-12.144,12.069l-12.143-12.069c-0.652-0.647-1.717-0.647-2.369,0
		c-0.65,0.647-0.65,1.707,0,2.354l11.052,10.983c0.65,0.648,0.65,1.707,0,2.354l-11.052,10.983c-0.65,0.647-0.65,1.707,0,2.354
		c0.652,0.647,1.717,0.647,2.369,0l12.144-12.069l12.143,12.07c0.65,0.646,1.715,0.646,2.367,0c0.652-0.648,0.652-1.707,0-2.355
		L437.965,1013.666z"/>
	<g>
		<g>
			<path fill="#262425" d="M-426.065,1655.102c-0.017-1.257-0.035-2.469-0.051-3.533c-0.029-1.161-0.054-2.161-0.071-2.89
				c-0.059-1.548-0.196-1.532-0.196-1.532h-0.025c0.01-0.01,0.025-0.018,0.025-0.027c0-0.051-0.267-0.094-0.742-0.13
				c-0.236-0.014-0.526-0.031-0.862-0.051c-0.381-0.016-0.57-0.031-1.381-0.043c-0.025,1.479-0.06,3.416-0.097,5.407
				c-0.01,2.031-0.021,4.115-0.031,5.834c0.975,0.002,1.823,0.002,2.52,0.004c0,0,2.304-0.006,5.675-0.016
				c-0.002-0.933-0.006-1.938-0.012-3.06C-422.839,1655.077-424.492,1655.088-426.065,1655.102z"/>
			<path fill="#262425" d="M-410.571,1650.458c-0.008-1.234-0.018-2.448-0.025-3.607c-1.167,0.009-2.286,0.019-3.3,0.028
				c0.029,1.814,0.055,3.351,0.072,4.465c0.06,2.201,0.06,2.201,0.06,2.201s0.057,0.392-0.189,0.984
				c-0.127,0.289-0.373,0.58-0.787,0.689c-0.398,0.106-0.967,0.122-1.43-0.07c-0.464-0.187-0.724-0.684-0.745-1.318
				c-0.025-0.625,0.01-1.373,0.01-2.098c0.012-1.583,0.025-3.269,0.039-4.942c-1.168-0.004-2.331-0.008-3.461-0.014
				c-0.004,1.438-0.008,2.816-0.01,4.065c0.018,1.152-0.051,2.123,0.044,3.024c0,0-0.004,0.194,0.059,0.546
				c0.094,0.348,0.157,0.873,0.487,1.468c0.282,0.604,0.839,1.253,1.628,1.713c0.792,0.495,1.813,0.619,2.853,0.633
				c1.035-0.01,2.226-0.301,3.148-1.091c0.936-0.783,1.422-2.021,1.517-3.209c0.057-0.609,0.049-1.183,0.043-1.753
				C-410.563,1651.598-410.567,1651.025-410.571,1650.458z"/>
			<path fill="#262425" d="M-400.363,1649.001c1.513-1.764,1.409-1.854,1.409-1.854h-0.036c0.013-0.01,0.036-0.018,0.036-0.027
				c0-0.047-0.355-0.088-0.994-0.122c-0.32-0.014-0.711-0.031-1.161-0.051c-0.487-0.012-1.041-0.025-1.651-0.041
				c-0.442,0.546-0.934,1.153-1.462,1.805c-0.249,0.31-0.507,0.633-0.771,0.961c-0.182,0.229-0.128,0.155-0.177,0.214l-0.069,0.075
				l0.01-0.161c0.004-0.248,0.006-0.501,0.008-0.755c0.006-0.74,0.01-1.492,0.016-2.247c-1.15-0.004-2.308-0.01-3.447-0.016
				c-0.008,3.465-0.014,6.759-0.02,8.939c0,0,0.002,0.534,0.002,2.418c0.685,0,1.676-0.002,3.492-0.004
				c-0.002-0.915-0.004-2.02-0.008-3.529c0.101-0.114,0.203-0.231,0.34-0.382c0.772,1.171,1.647,2.493,2.561,3.88
				c1.404-0.008,2.845-0.014,4.286-0.02c-1.703-2.249-3.395-4.48-4.779-6.307C-401.798,1650.65-400.979,1649.708-400.363,1649.001z"
				/>
			<path fill="#262425" d="M-389.198,1655.158c-1.398,0.006-2.97,0.01-4.677,0.016c-0.004-0.41-0.006-0.827-0.01-1.265
				c1.328-0.008,2.688-0.016,4.025-0.022c-0.006-0.974-0.012-1.937-0.017-2.859c-1.455,0.014-2.848,0.027-4.087,0.039
				c-0.008-0.521-0.018-1.008-0.025-1.447c0.842-0.019,1.564-0.034,2.152-0.046c2.064-0.055,2.267-0.196,2.267-0.196v-0.029
				c0.01,0.016,0.018,0.029,0.027,0.029c0.034,0,0.067-0.202,0.097-0.583c0.012-0.191,0.025-0.423,0.041-0.699
				c0.01-0.334,0.023-0.719,0.037-1.15c-0.929-0.021-2.109-0.047-3.449-0.078c-1.361-0.015-2.887-0.032-4.479-0.052
				c-0.017,3.837-0.035,8.069-0.051,11.324c1.149,0,2.184,0,3.053,0.002c0,0,1.938-0.004,5.099-0.008
				C-389.194,1657.295-389.196,1656.381-389.198,1655.158z"/>
		</g>
		<path fill="#262425" d="M-337.838,1652.25c-0.274-0.217-1.129-0.882-2.61-1.27c-0.357-0.086-0.734-0.173-1.029-0.379
			c-0.257-0.157-0.183-0.505,0.126-0.648c0.768-0.338,1.835-0.208,2.758,0.244l0.623,0.332c0.192,0.066,0.565,0.438,0.465,0.002
			c0.002-0.425,0.006-0.853,0.008-1.283l0.006-0.853l0.004-0.536v-0.206c-0.02-0.057-0.111-0.07-0.164-0.106l-0.312-0.16
			c-1.085-0.537-2.332-0.722-3.482-0.594c-1.158,0.13-2.265,0.617-2.936,1.505c-0.651,0.909-0.676,1.919-0.593,2.669
			c0,0,0.006,0.336,0.232,0.912c0.118,0.28,0.281,0.614,0.596,0.944c0.336,0.34,0.717,0.56,1.188,0.786
			c0.449,0.214,1.006,0.377,1.536,0.503c0.255,0.068,0.575,0.137,0.797,0.212c0.225,0.076,0.476,0.235,0.495,0.32
			c0.023,0.031,0.027,0.123,0.002,0.19c-0.021,0.062-0.064,0.12-0.151,0.181c-0.196,0.116-0.473,0.204-0.758,0.226
			c-0.592,0.029-1.253-0.053-1.847-0.292c-0.312-0.132-0.567-0.238-0.9-0.472l-0.819-0.59l-0.2-0.146
			c-0.016-0.01-0.037-0.033-0.047-0.031v0.063l0.002,0.129v0.507c0.006,0.874,0.01,1.751,0.014,2.623
			c-0.031,0.102,0.082,0.121,0.143,0.169l0.202,0.125c0.082,0.048,0.159,0.101,0.241,0.146c0.169,0.079,0.332,0.177,0.505,0.242
			c0.344,0.145,0.695,0.263,1.049,0.338c0.713,0.166,1.416,0.212,2.105,0.187c1.397-0.046,2.686-0.726,3.348-1.729
			c0.324-0.507,0.448-1.071,0.452-1.564c0.01-0.49-0.06-0.925-0.167-1.3C-337.192,1652.895-337.575,1652.472-337.838,1652.25z"/>
		<path fill="#262425" d="M-328.977,1646.895c-0.45,0.012-0.752,0.018-1.025,0.023c-1.396,0.048-1.717,0.19-1.727,0.187
			c-0.104-0.041-0.744,1.354-1.604,3.371c-0.421,1.014-0.906,2.179-1.415,3.395c-0.563,1.387-1.15,2.832-1.715,4.223
			c1.32,0.004,2.596,0.008,3.762,0.012c0.318-0.981,0.602-1.857,0.825-2.545c0,0,1.11-0.002,2.921-0.006
			c0.23,0.709,0.497,1.523,0.829,2.539c1.144-0.004,2.383-0.008,3.73-0.014c-0.831-2.053-1.729-4.269-2.55-6.295
			C-327.742,1649.867-328.466,1648.126-328.977,1646.895z M-330.411,1650.89c0.066,0.157,0.159,0.38,0.271,0.646
			c0.114,0.272,0.248,0.584,0.388,0.916c0.072,0.168,0.147,0.338,0.22,0.512l0.043,0.063l-0.041,0.012l-0.029,0.006l-0.146,0.008
			c-0.228,0.01-0.45,0.022-0.656,0.031c-0.412,0.023-0.766,0.052-1.01,0.085c-0.08,0.01-0.148,0.021-0.204,0.033
			c0.145-0.196,0.334-0.538,0.542-0.973c0.167-0.344,0.34-0.732,0.507-1.119l0.062-0.146c0.022-0.055,0.044-0.101,0.038-0.085
			l0.008-0.004c0.004,0,0.006,0.002,0.006,0.006v0.008H-330.411z"/>
		<path fill="#262425" d="M-306.078,1646.895c-0.45,0.012-0.752,0.018-1.025,0.023c-1.397,0.048-1.717,0.19-1.727,0.187
			c-0.104-0.041-0.744,1.354-1.604,3.371c-0.421,1.014-0.906,2.179-1.415,3.395c-0.564,1.387-1.15,2.832-1.715,4.223
			c1.32,0.004,2.596,0.008,3.762,0.012c0.318-0.981,0.602-1.857,0.825-2.545c0,0,1.11-0.002,2.921-0.006
			c0.23,0.709,0.497,1.523,0.829,2.539c1.144-0.004,2.383-0.008,3.731-0.014c-0.831-2.053-1.729-4.269-2.55-6.295
			C-304.842,1649.867-305.567,1648.126-306.078,1646.895z M-307.511,1650.89c0.066,0.157,0.159,0.38,0.271,0.646
			c0.114,0.272,0.248,0.584,0.388,0.916c0.072,0.168,0.146,0.338,0.22,0.512l0.043,0.063l-0.041,0.012l-0.029,0.006l-0.145,0.008
			c-0.229,0.01-0.45,0.022-0.656,0.031c-0.412,0.023-0.766,0.052-1.01,0.085c-0.08,0.01-0.147,0.021-0.204,0.033
			c0.146-0.196,0.334-0.538,0.542-0.973c0.167-0.344,0.34-0.732,0.507-1.119l0.062-0.146c0.022-0.055,0.044-0.101,0.038-0.085
			l0.008-0.004c0.004,0,0.006,0.002,0.006,0.006v0.008H-307.511z"/>
		<path fill="#262425" d="M-316.284,1654.473c-0.089-0.13-0.175-0.254-0.258-0.375c-0.018-0.052-0.145-0.132-0.074-0.165
			c0.064-0.031,0.126-0.061,0.185-0.089c0.064-0.033,0.188-0.122,0.27-0.175c0.185-0.111,0.312-0.249,0.427-0.357
			c0.226-0.216,0.311-0.406,0.365-0.481c0.069-0.138,0.365-0.379,0.596-1.109c0.102-0.365,0.192-0.816,0.159-1.34
			c-0.024-0.261-0.004-0.546-0.114-0.829c-0.043-0.143-0.087-0.292-0.132-0.443c-0.064-0.142-0.155-0.277-0.237-0.421
			c-0.685-1.189-2.25-1.764-3.741-1.815c-0.748-0.038-1.474-0.022-2.222-0.034c-0.864-0.006-1.73-0.01-2.581-0.016
			c-0.006,2.66-0.012,5.129-0.016,6.801c0,0,0.002,1.732,0.008,4.553c0.988-0.002,2.098-0.006,3.475-0.008
			c-0.004-1.092-0.01-2.276-0.016-3.543c0.19-0.004,0.383-0.006,0.582-0.008c0.663,1.166,1.343,2.358,1.991,3.498
			c1.312-0.01,2.59-0.021,3.757-0.031c-0.65-0.973-1.253-1.876-1.789-2.678C-315.876,1655.073-316.088,1654.762-316.284,1654.473z
			 M-318.747,1651.925c-0.184,0.004-0.527-0.037-0.827-0.047c-0.155-0.008-0.316-0.016-0.479-0.021l-0.107-0.006l-0.01-0.004
			l-0.012-0.006l0.008-0.017l0.002-0.006l0.002-0.121c0.002-0.163,0.004-0.322,0.006-0.474c0.002-0.303,0.004-0.573,0.006-0.784
			c0,0-0.002-0.098-0.002-0.272c-0.002-0.089-0.002-0.196-0.004-0.322c0-0.085-0.002-0.027-0.004-0.051l0.006-0.004l0.004-0.002
			l0.136-0.002c0.186-0.004,0.385-0.006,0.588-0.01c0.192,0,0.443-0.019,0.602-0.006c0.169-0.006,0.316,0.055,0.46,0.125
			c0.62,0.309,0.634,1.146,0.497,1.474C-317.96,1651.628-318.325,1651.929-318.747,1651.925z"/>
		<g>
			<g>
				<g opacity="0.15">
					<path fill="#F4F4F4" d="M-358.8,1626.853c-0.509-0.021-4.814,0.086-8.858,0.031c-5.148-0.07-7.836-0.07-9.232,0.002
						c-0.73,0.004-1.697,0.189-1.751,1.008c0.059,0.308,0.436,4.76,0.722,5.615c1.455-0.398,5.693-1.799,10.179-1.797
						c4.379,0.051,9.447,1.436,9.796,1.484c0.028-1.107,0.227-4.867,0.314-5.307C-357.657,1627.202-357.979,1626.845-358.8,1626.853
						z"/>
				</g>
				<g>
					<path fill="#262425" d="M-377.92,1633.853c-0.144,0-0.277-0.092-0.325-0.234c-0.203-0.609-0.431-2.738-0.628-4.686
						c-0.053-0.52-0.09-0.893-0.104-0.976c-0.006-0.027-0.008-0.057-0.006-0.086c0.055-0.836,0.817-1.32,2.091-1.326
						c1.41-0.074,4.102-0.072,9.239-0.002c2.687,0.037,5.483,0.002,7.208-0.021c0.89-0.01,1.486-0.016,1.659-0.01h0.001
						c0.963,0,1.463,0.459,1.495,1.367c-0.083,0.467-0.282,4.129-0.312,5.328c-0.003,0.098-0.047,0.189-0.122,0.252
						c-0.073,0.064-0.167,0.092-0.27,0.078c-0.057-0.008-0.234-0.049-0.51-0.115c-1.379-0.328-5.577-1.324-9.241-1.367
						c-3.915,0-7.663,1.086-9.465,1.609c-0.241,0.07-0.449,0.129-0.619,0.176C-377.86,1633.849-377.89,1633.853-377.92,1633.853z
						 M-378.297,1627.884c0.02,0.146,0.057,0.506,0.105,0.98c0.121,1.203,0.335,3.309,0.518,4.219
						c0.086-0.023,0.177-0.051,0.273-0.078c1.831-0.531,5.643-1.637,9.654-1.637c3.75,0.045,8.003,1.055,9.4,1.387
						c0.025,0.006,0.049,0.012,0.072,0.018c0.053-1.389,0.22-4.516,0.306-4.949c-0.022-0.381-0.155-0.629-0.809-0.629l-0.247-0.002
						c-0.283,0-0.774,0.006-1.413,0.014c-1.73,0.021-4.537,0.055-7.227,0.021c-5.113-0.07-7.788-0.074-9.21,0
						C-377.292,1627.231-378.226,1627.3-378.297,1627.884z"/>
				</g>
			</g>
			<g>
				<g opacity="0.1">
					<g>
						<path fill="#F4F4F4" d="M-355.968,1630.144c-0.17,0.227,0.221,4.82-0.137,5.102c-0.299,0.203-0.618-0.057-1.436-0.332
							c-2.022-0.57-5.777-1.695-10.096-1.73c-4.37,0.021-8.098,1.184-10.137,1.699c-0.802,0.277-1.339,0.402-1.579,0.4
							c-0.29-0.01-0.591-0.193-0.596-0.393c-0.011-0.033,0.216-4.41,0.032-4.689c-0.114-0.156-2.1-0.107-2.146,0.607
							c0.04,1.156,0.062,2.82,0.066,7.053c0.003,4.23,0.099,9.611-0.159,15.627c0.195,5.52,0.323,11.094,0.047,15.566
							c-0.023,4.074,0.094,6.842,0.061,7.018c0.007,0.574,0.893,1.721,1.972,1.719c0.609,0.018,6.242,0.281,12.154,0.193
							c6.563,0.115,12.538,0.418,12.439,0.289c1.035-0.09,0.789-0.721,0.921-2.434c0.111-1.547-0.036-2.543,0.012-6.484
							c-0.058-4.678,0.171-10.215,0.031-15.934c-0.085-5.643-0.072-11.301-0.071-15.541c0.002-4.24,0.206-7.432,0.117-7.619
							C-354.689,1629.605-355.825,1629.855-355.968,1630.144z"/>
					</g>
				</g>
				<g>
					<path fill="#262425" d="M-355.919,1678.648c-0.003,0-0.006,0-0.009,0c-0.659,0-2.015-0.045-3.73-0.1
						c-2.192-0.07-5.195-0.168-8.268-0.221c-5.176,0.072-10.283-0.123-11.758-0.18l-0.401-0.016c-1.232,0-2.294-1.264-2.304-2.057
						c0.011-0.131,0.001-0.617-0.01-1.18c-0.025-1.221-0.066-3.266-0.052-5.844c0.281-4.562,0.145-10.17-0.046-15.553
						c0.206-4.852,0.185-9.186,0.168-13.012c-0.005-0.918-0.009-1.795-0.01-2.627c-0.004-4.412-0.027-5.965-0.065-7.041
						c0.062-1.006,1.814-1.035,2.014-1.035c0.493,0,0.657,0.086,0.751,0.215c0.13,0.199,0.204,0.623,0.049,4.436
						c-0.009,0.229-0.016,0.389-0.017,0.438l0.001,0.008c0.007-0.01,0.131,0.055,0.266,0.061c0.165,0,0.642-0.1,1.454-0.381
						c0.295-0.076,0.591-0.156,0.914-0.24c2.188-0.582,5.494-1.461,9.333-1.479c4.158,0.033,7.741,1.049,9.882,1.656l0.309,0.088
						c0.26,0.086,0.46,0.166,0.629,0.234c0.208,0.084,0.388,0.156,0.478,0.156c0.094-0.219,0.044-1.922,0.014-2.939
						c-0.051-1.695-0.041-1.93,0.084-2.098c0.126-0.268,0.638-0.434,1.061-0.434c0.513,0,0.899,0.242,1.035,0.648
						c0.055,0.109,0.056,0.293,0.001,2.133c-0.042,1.406-0.1,3.332-0.101,5.594l-0.001,1.334c-0.002,4.07-0.005,9.135,0.072,14.201
						c0.08,3.285,0.039,6.469,0,9.547c-0.029,2.262-0.056,4.398-0.031,6.389c-0.023,1.898-0.001,3.131,0.016,4.029
						c0.019,1.004,0.03,1.666-0.028,2.484c-0.027,0.35-0.038,0.652-0.048,0.916c-0.035,0.982-0.062,1.699-1.104,1.826
						C-355.489,1678.646-355.661,1678.648-355.919,1678.648z M-367.925,1677.642c3.088,0.053,6.094,0.15,8.289,0.221
						c1.71,0.057,3.061,0.1,3.708,0.1h0.001c0.025,0,0.05,0,0.072,0l0.345-0.029c0.482-0.043,0.521-0.072,0.56-1.178
						c0.01-0.27,0.022-0.582,0.049-0.941c0.057-0.787,0.045-1.436,0.027-2.42c-0.017-0.904-0.039-2.143-0.017-4.043
						c-0.025-1.99,0.003-4.131,0.032-6.396c0.039-3.072,0.079-6.25-0.001-9.525c-0.076-5.076-0.073-10.143-0.071-14.215v-1.334
						c0.001-2.273,0.061-4.283,0.102-5.613c0.028-0.953,0.053-1.773,0.029-1.916c-0.046-0.131-0.232-0.162-0.381-0.162
						c-0.226,0-0.41,0.074-0.478,0.119c-0.027,0.234-0.004,1.047,0.017,1.709c0.079,2.684,0.037,3.271-0.252,3.498
						c-0.356,0.248-0.677,0.143-1.18-0.061c-0.159-0.062-0.348-0.139-0.576-0.217l-0.293-0.082
						c-2.108-0.598-5.636-1.598-9.696-1.629c-3.747,0.018-7.002,0.881-9.156,1.453c-0.325,0.088-0.624,0.166-0.894,0.234
						c-0.524,0.184-1.267,0.412-1.66,0.412c-0.452-0.018-0.931-0.301-0.941-0.729h0.002c-0.002-0.068,0.004-0.199,0.016-0.492
						c0.088-2.156,0.11-3.475,0.067-3.93c-0.048-0.004-0.108-0.006-0.184-0.006c-0.768,0-1.322,0.232-1.33,0.359
						c0.038,1.049,0.062,2.609,0.066,7.031c0,0.83,0.004,1.707,0.009,2.623c0.019,3.834,0.039,8.178-0.169,13.018
						c0.191,5.375,0.329,11.002,0.047,15.574c-0.015,2.551,0.027,4.588,0.052,5.807c0.02,0.979,0.022,1.16,0.005,1.252
						c0.01,0.322,0.735,1.312,1.631,1.312l0.421,0.016C-378.186,1677.521-373.151,1677.72-367.925,1677.642z"/>
				</g>
			</g>
			<g>
				<path fill="#262425" d="M-367.698,1667.985L-367.698,1667.985l-0.177-0.004c-2.926-0.199-4.744-1.939-5.271-5.035
					c0.059-2.652,2.359-5.443,5.489-5.039c3.048,0.457,5.018,2.594,5.025,5.445
					C-362.883,1665.649-364.846,1667.985-367.698,1667.985z M-368.241,1658.556c-2.463,0-4.173,2.244-4.224,4.342
					c0.462,2.682,2.062,4.227,4.625,4.401l0.142,0.002c2.468,0,4.167-2.025,4.384-3.984c-0.009-2.494-1.708-4.32-4.435-4.729
					C-367.911,1658.565-368.077,1658.556-368.241,1658.556z"/>
			</g>
			<g>
				<path fill="#262425" d="M-367.698,1652.985L-367.698,1652.985l-0.177-0.004c-2.926-0.199-4.744-1.939-5.271-5.035
					c0.059-2.652,2.359-5.443,5.489-5.039c3.048,0.457,5.018,2.594,5.025,5.445
					C-362.883,1650.649-364.846,1652.985-367.698,1652.985z M-368.241,1643.556c-2.463,0-4.173,2.244-4.224,4.342
					c0.462,2.682,2.062,4.227,4.625,4.401l0.142,0.002c2.468,0,4.167-2.025,4.384-3.984c-0.009-2.494-1.708-4.32-4.435-4.729
					C-367.911,1643.565-368.077,1643.556-368.241,1643.556z"/>
			</g>
			<path fill="#FEC900" d="M-368.575,1651.513c2.44-0.125,4.753-1.842,4.664-4.578c0.025-2.879-1.92-4.6-4.681-4.576
				c-2.833,0.02-4.554,1.438-4.336,4.447C-372.939,1649.165-371.599,1651.452-368.575,1651.513z"/>
			<path fill="#1BD6B7" d="M-367.014,1658.933c-2.797-0.357-5.046,2.105-5.107,4.641c0.501,2.953,2.238,4.566,4.943,4.752
				c2.635,0.092,4.64-2.029,4.89-4.287C-362.296,1661.194-364.297,1659.339-367.014,1658.933z"/>
			<g>
				<path fill="#262425" d="M-366.368,1675.425h-0.001c-0.304,0-0.612-0.008-0.923-0.021c-5.461-0.178-11.94-1.152-12.104-2.141
					c-0.071-0.219-0.001-0.59,0.115-1.203c0.18-0.943,0.45-2.367,0.304-4.219c-0.183-2.557-0.21-5.369-0.242-8.627
					c-0.011-1.166-0.022-2.373-0.043-3.625c-0.039-2.479-0.021-4.756-0.004-6.764c0.017-1.98,0.032-3.85-0.012-5.549
					c-0.024-1.008-0.059-1.875-0.087-2.605c-0.083-2.154-0.099-2.852,0.125-3.191c0.484-0.834,5.89-2.139,11.615-2.139
					c5.981,0.055,10.531,1.658,10.927,2.479l0.033,0.129c0.001,0.02,0.124,2.074,0.115,5.385c-0.003,0.945-0.029,1.988-0.059,3.107
					c-0.074,2.877-0.158,6.139,0.115,9.543c0.203,2.557,0.002,4.672-0.193,6.717c-0.152,1.594-0.296,3.1-0.262,4.799
					c0.07,1.422,0.156,2.514,0.22,3.328c0.124,1.576,0.161,2.051-0.107,2.307C-357.305,1673.782-361.56,1675.425-366.368,1675.425z
					 M-378.736,1673.062c0.611,0.416,5.113,1.451,11.47,1.658c0.305,0.014,0.604,0.02,0.897,0.02c4.909,0,8.706-1.664,9.023-2.057
					c0.066-0.152,0.006-0.916-0.064-1.803c-0.064-0.818-0.15-1.918-0.222-3.357c-0.035-1.748,0.117-3.344,0.265-4.887
					c0.192-2.016,0.391-4.1,0.191-6.598c-0.275-3.439-0.19-6.721-0.116-9.615c0.029-1.113,0.056-2.152,0.058-3.092
					c0.008-2.887-0.084-4.807-0.108-5.246c-0.453-0.451-4.293-2.004-10.252-2.059c-6.156,0-10.686,1.371-11.07,1.824
					c-0.114,0.215-0.068,1.41-0.015,2.793c0.028,0.734,0.061,1.605,0.088,2.615c0.043,1.711,0.027,3.586,0.011,5.572
					c-0.017,2.004-0.035,4.277,0.005,6.746c0.02,1.254,0.031,2.463,0.043,3.631c0.031,3.244,0.059,6.047,0.24,8.582
					c0.153,1.939-0.128,3.418-0.314,4.396C-378.672,1672.529-378.744,1672.909-378.736,1673.062z M-367.823,1672.029
					c-5.323-0.32-9.477-4.561-9.688-9.863c-0.184-1.803,0.675-3.393,1.054-3.992c0.142-0.258,0.382-0.498,0.635-0.752
					c0.601-0.602,1.28-1.283,1.251-2.725c-0.075-0.902-0.346-1.27-0.72-1.779c-0.21-0.285-0.448-0.609-0.682-1.072
					c-0.568-1.096-0.811-3.256-0.954-4.547c-0.03-0.262-0.056-0.49-0.079-0.666c-0.089-0.676,0.046-3.051,1.782-5.039
					c1.61-1.844,4.074-2.785,7.321-2.797h0.031c4.876,0,8.913,4.018,8.999,8.957c-0.024,1.41-0.499,2.346-0.958,3.248l-0.232,0.42
					c-0.494,0.816-1.005,1.66-0.951,3.277c-0.106,1.207,0.822,2.643,1.501,3.691c0.737,1.078,1.055,2.26,0.994,3.711
					c0.183,2.488-0.671,4.926-2.404,6.826C-362.701,1670.874-365.152,1671.976-367.823,1672.029z M-367.871,1639.14l-0.029,0.342
					c-3.041,0.01-5.332,0.873-6.808,2.562c-1.597,1.828-1.683,4.012-1.618,4.498c0.023,0.18,0.05,0.412,0.079,0.68
					c0.14,1.244,0.372,3.326,0.884,4.312c0.21,0.414,0.421,0.701,0.624,0.979c0.391,0.531,0.759,1.033,0.852,2.148
					c0.036,1.754-0.822,2.615-1.449,3.244c-0.229,0.229-0.426,0.428-0.532,0.617c-0.35,0.555-1.124,1.982-0.959,3.594
					c0.198,4.973,4.075,8.93,9.018,9.227c2.454-0.047,4.73-1.07,6.381-2.879c1.605-1.76,2.396-4.016,2.227-6.354
					c0.055-1.352-0.217-2.371-0.88-3.342c-0.738-1.139-1.742-2.689-1.614-4.09c-0.061-1.777,0.527-2.752,1.048-3.611l0.208-0.377
					c0.443-0.871,0.862-1.695,0.883-2.938c-0.079-4.557-3.809-8.271-8.314-8.271V1639.14z"/>
			</g>
			<path fill="none" stroke="#262425" stroke-width="0.6848" stroke-miterlimit="10" d="M-351.151,1659.765
				c-0.162,0.182-1.86,0.188-2.188-0.008c-0.328-0.195-0.16-7.906,0.12-8.246c0.279-0.338,1.882-0.23,2.044,0.037
				C-351.013,1651.815-350.99,1659.583-351.151,1659.765z"/>
			<path fill="none" stroke="#262425" stroke-width="0.6848" stroke-miterlimit="10" d="M-351.09,1652.603
				c-1.121-0.061-1.806-0.061-3.38,0.182"/>
			<path fill="none" stroke="#262425" stroke-width="0.6848" stroke-miterlimit="10" d="M-351.042,1654.226
				c-0.485-0.312-1.854-0.312-2.427,0.057"/>
			
				<line fill="none" stroke="#262425" stroke-width="0.6848" stroke-miterlimit="10" x1="-351.042" y1="1655.839" x2="-353.519" y2="1655.601"/>
			<path fill="none" stroke="#262425" stroke-width="0.6848" stroke-miterlimit="10" d="M-351.092,1656.872
				c-0.435,0.465-1.804,0.465-2.263,0.299"/>
			<path fill="none" stroke="#262425" stroke-width="0.6848" stroke-miterlimit="10" d="M-351.09,1658.479
				c-0.437,0.227-2.926,0.033-3.382,0"/>
		</g>
	</g>
	<circle fill="#01BC9D" cx="114.503" cy="852.49" r="2"/>
	<linearGradient id="SVGID_1_" gradientUnits="userSpaceOnUse" x1="434.5044" y1="1167.4893" x2="434.5044" y2="1177.4893">
		<stop  offset="0" style="stop-color:#00A384"/>
		<stop  offset="1" style="stop-color:#01BC9D"/>
	</linearGradient>
	<circle fill="url(#SVGID_1_)" cx="434.504" cy="1172.489" r="5"/>
	<rect x="513.504" y="1652" opacity="0.25" fill="#EB212E" enable-background="new    " width="1" height="1"/>
	<g>
		<path fill="#FFFFFF" d="M434.504,1337.989c-3.032,0-5.5-2.468-5.5-5.5s2.468-5.5,5.5-5.5s5.5,2.468,5.5,5.5
			S437.536,1337.989,434.504,1337.989z"/>
		<path fill="#E2E2E1" d="M434.504,1327.489c2.761,0,5,2.239,5,5c0,2.761-2.239,5-5,5s-5-2.239-5-5
			C429.504,1329.728,431.743,1327.489,434.504,1327.489 M434.504,1326.489c-3.308,0-6,2.692-6,6c0,3.308,2.692,6,6,6s6-2.692,6-6
			C440.504,1329.181,437.813,1326.489,434.504,1326.489L434.504,1326.489z"/>
	</g>
	<linearGradient id="SVGID_2_" gradientUnits="userSpaceOnUse" x1="434.5044" y1="1487.5" x2="434.5044" y2="1497.5">
		<stop  offset="0" style="stop-color:#CBC9C9"/>
		<stop  offset="1" style="stop-color:#EEEEEE"/>
	</linearGradient>
	<circle fill="url(#SVGID_2_)" cx="434.504" cy="1492.5" r="5"/>
	<g>
		<rect x="424.504" y="1643.5" fill="#333333" width="20" height="4"/>
		<rect x="424.504" y="1650.5" fill="#333333" width="20" height="4"/>
		<rect x="424.504" y="1657.5" fill="#333333" width="20" height="4"/>
	</g>
	<g>
		<circle fill="#33A9DE" cx="-205.497" cy="1492.5" r="16"/>
		<g>
			<path fill="#FFFFFF" d="M-196.354,1486.829c-0.673,0.299-1.396,0.501-2.155,0.591c0.775-0.464,1.371-1.199,1.65-2.075
				c-0.724,0.431-1.527,0.743-2.382,0.911c-0.685-0.731-1.661-1.186-2.739-1.186c-2.072,0-3.752,1.681-3.752,3.751
				c0,0.295,0.034,0.58,0.097,0.856c-3.117-0.156-5.881-1.65-7.732-3.92c-0.323,0.554-0.508,1.198-0.508,1.885
				c0,1.301,0.663,2.451,1.668,3.124c-0.614-0.019-1.193-0.19-1.698-0.469v0.047c0,1.817,1.292,3.334,3.009,3.679
				c-0.315,0.085-0.647,0.132-0.989,0.132c-0.241,0-0.478-0.022-0.705-0.067c0.477,1.49,1.862,2.574,3.504,2.605
				c-1.284,1.008-2.902,1.606-4.66,1.606c-0.302,0-0.6-0.017-0.894-0.052c1.661,1.064,3.632,1.685,5.751,1.685
				c6.9,0,10.673-5.716,10.673-10.673c0-0.161-0.004-0.325-0.01-0.487C-197.493,1488.243-196.858,1487.582-196.354,1486.829z"/>
		</g>
	</g>
	<g>
		<path fill="#58595B" d="M-365.497,1478.5c7.72,0,14,6.28,14,14s-6.28,14-14,14c-7.72,0-14-6.28-14-14
			S-373.216,1478.5-365.497,1478.5 M-365.497,1476.5c-8.837,0-16,7.164-16,16s7.163,16,16,16c8.837,0,16-7.164,16-16
			S-356.66,1476.5-365.497,1476.5L-365.497,1476.5z"/>
		<g>
			<path fill="#58595B" d="M-356.354,1486.829c-0.673,0.299-1.396,0.501-2.155,0.591c0.775-0.464,1.371-1.199,1.65-2.075
				c-0.724,0.431-1.527,0.743-2.382,0.911c-0.685-0.731-1.661-1.186-2.739-1.186c-2.072,0-3.752,1.681-3.752,3.751
				c0,0.295,0.034,0.58,0.097,0.856c-3.117-0.156-5.881-1.65-7.732-3.92c-0.323,0.554-0.508,1.198-0.508,1.885
				c0,1.301,0.663,2.451,1.668,3.124c-0.614-0.019-1.193-0.19-1.698-0.469v0.047c0,1.817,1.292,3.334,3.009,3.679
				c-0.315,0.085-0.647,0.132-0.989,0.132c-0.241,0-0.478-0.022-0.705-0.067c0.477,1.49,1.862,2.574,3.504,2.605
				c-1.283,1.008-2.902,1.606-4.66,1.606c-0.302,0-0.6-0.017-0.894-0.052c1.661,1.064,3.632,1.685,5.751,1.685
				c6.9,0,10.673-5.716,10.673-10.673c0-0.161-0.004-0.325-0.01-0.487C-357.493,1488.243-356.858,1487.582-356.354,1486.829z"/>
		</g>
	</g>
	<g>
		<circle fill="#C8242E" cx="-205.497" cy="1172.489" r="16"/>
		<g>
			<path fill="#FFFFFF" d="M-205.497,1163.346c-5.049,0-9.143,4.093-9.143,9.143c0,3.744,2.251,6.961,5.473,8.374
				c-0.025-0.639-0.004-1.405,0.159-2.099c0.176-0.743,1.176-4.983,1.176-4.983s-0.292-0.583-0.292-1.446
				c0-1.353,0.786-2.365,1.765-2.365c0.83,0,1.233,0.624,1.233,1.371c0,0.836-0.533,2.086-0.808,3.244
				c-0.228,0.97,0.487,1.761,1.441,1.761c1.734,0,2.901-2.224,2.901-4.861c0-2.003-1.35-3.503-3.804-3.503
				c-2.774,0-4.502,2.067-4.502,4.377c0,0.797,0.236,1.359,0.603,1.794c0.17,0.2,0.193,0.279,0.131,0.509
				c-0.042,0.169-0.144,0.574-0.185,0.734c-0.061,0.233-0.248,0.316-0.458,0.23c-1.278-0.521-1.873-1.92-1.873-3.492
				c0-2.597,2.19-5.712,6.536-5.712c3.49,0,5.789,2.525,5.789,5.238c0,3.586-1.996,6.265-4.935,6.265
				c-0.988,0-1.915-0.533-2.233-1.139c0,0-0.532,2.106-0.643,2.513c-0.194,0.704-0.574,1.409-0.921,1.958
				c0.821,0.242,1.691,0.375,2.591,0.375c5.049,0,9.143-4.093,9.143-9.143C-196.354,1167.439-200.447,1163.346-205.497,1163.346z"/>
		</g>
	</g>
	<g>
		<path fill="#58595B" d="M-365.496,1158.489c7.719,0,14,6.28,14,14c0,7.72-6.28,14-14,14c-7.72,0-14-6.28-14-14
			C-379.497,1164.77-373.216,1158.489-365.496,1158.489 M-365.496,1156.489c-8.837,0-16,7.164-16,16s7.163,16,16,16
			c8.837,0,16-7.164,16-16S-356.66,1156.489-365.496,1156.489L-365.496,1156.489z"/>
		<g>
			<path fill="#58595B" d="M-365.496,1163.346c-5.049,0-9.143,4.093-9.143,9.143c0,3.744,2.251,6.96,5.473,8.374
				c-0.025-0.639-0.004-1.405,0.159-2.099c0.176-0.743,1.176-4.983,1.176-4.983s-0.292-0.583-0.292-1.446
				c0-1.353,0.786-2.365,1.765-2.365c0.83,0,1.233,0.624,1.233,1.371c0,0.836-0.534,2.086-0.808,3.244
				c-0.228,0.97,0.487,1.761,1.441,1.761c1.734,0,2.901-2.224,2.901-4.861c0-2.003-1.35-3.503-3.804-3.503
				c-2.774,0-4.502,2.067-4.502,4.377c0,0.797,0.236,1.359,0.603,1.794c0.17,0.2,0.193,0.279,0.131,0.509
				c-0.042,0.169-0.144,0.574-0.185,0.734c-0.061,0.233-0.248,0.315-0.458,0.229c-1.278-0.521-1.873-1.92-1.873-3.492
				c0-2.597,2.19-5.712,6.536-5.712c3.49,0,5.789,2.525,5.789,5.238c0,3.586-1.996,6.265-4.935,6.265
				c-0.988,0-1.915-0.533-2.233-1.139c0,0-0.532,2.106-0.643,2.513c-0.194,0.704-0.574,1.409-0.921,1.958
				c0.821,0.242,1.691,0.375,2.591,0.375c5.049,0,9.143-4.093,9.143-9.143C-356.353,1167.439-360.447,1163.346-365.496,1163.346z"/>
		</g>
	</g>
</g>
<g id="Align">
	<g>
		<circle fill="#3D5B97" cx="-205.497" cy="1332.489" r="16"/>
		<g>
			<path fill="#FFFFFF" d="M-201.281,1333.291l0.42-3.25h-3.22v-2.075c0-0.942,0.263-1.583,1.612-1.583l1.72-0.001v-2.907
				c-0.298-0.04-1.318-0.128-2.507-0.128c-2.482,0-4.18,1.515-4.18,4.298v2.397h-2.808v3.25h2.808v8.341h3.356v-8.341H-201.281z"/>
		</g>
	</g>
	<g>
		<path fill="#58595B" d="M-365.497,1318.489c7.72,0,14,6.28,14,14s-6.28,14-14,14c-7.72,0-14-6.28-14-14
			S-373.216,1318.489-365.497,1318.489 M-365.497,1316.489c-8.837,0-16,7.164-16,16s7.163,16,16,16c8.836,0,16-7.164,16-16
			S-356.66,1316.489-365.497,1316.489L-365.497,1316.489z"/>
		<g>
			<path fill="#58595B" d="M-361.281,1333.291l0.42-3.25h-3.22v-2.076c0-0.942,0.263-1.583,1.612-1.583l1.72-0.001v-2.907
				c-0.298-0.04-1.318-0.128-2.507-0.128c-2.482,0-4.18,1.515-4.18,4.298v2.397h-2.808v3.25h2.808v8.341h3.356v-8.341H-361.281z"/>
		</g>
	</g>
	<g>
		<circle fill="#346798" cx="-205.497" cy="1012.489" r="16"/>
		<g>
			<path fill="#FFFFFF" d="M-212.186,1003.49h13.379c1.271,0,2.31,1.04,2.31,2.311v13.378c0,1.271-1.039,2.309-2.31,2.309h-13.379
				c-1.271,0-2.311-1.038-2.311-2.309v-13.378C-214.497,1004.53-213.457,1003.49-212.186,1003.49z M-201.384,1005.49
				c-0.446,0-0.811,0.365-0.811,0.811v1.939c0,0.447,0.364,0.811,0.811,0.811h2.034c0.446,0,0.81-0.364,0.81-0.811v-1.939
				c0-0.445-0.365-0.811-0.81-0.811H-201.384z M-198.532,1011.102h-1.583c0.15,0.49,0.231,1.008,0.231,1.545
				c0,2.992-2.505,5.42-5.596,5.42c-3.089,0-5.595-2.428-5.595-5.42c0-0.538,0.082-1.055,0.231-1.545h-1.653v7.603
				c0,0.393,0.322,0.714,0.715,0.714h12.534c0.394,0,0.715-0.321,0.715-0.714V1011.102z M-205.48,1008.949
				c-1.996,0-3.615,1.567-3.615,3.503c0,1.933,1.619,3.503,3.615,3.503c1.997,0,3.616-1.57,3.616-3.503
				C-201.865,1010.516-203.484,1008.949-205.48,1008.949z"/>
		</g>
	</g>
	<g>
		<path fill="#58595B" d="M-365.497,998.489c7.72,0,14,6.28,14,14s-6.28,14-14,14c-7.72,0-14-6.28-14-14
			S-373.216,998.489-365.497,998.489 M-365.497,996.489c-8.837,0-16,7.164-16,16c0,8.836,7.163,16,16,16c8.837,0,16-7.164,16-16
			C-349.497,1003.653-356.66,996.489-365.497,996.489L-365.497,996.489z"/>
		<g>
			<path fill="#58595B" d="M-372.185,1003.49h13.379c1.271,0,2.31,1.04,2.31,2.311v13.378c0,1.271-1.039,2.309-2.31,2.309h-13.379
				c-1.271,0-2.311-1.038-2.311-2.309v-13.378C-374.497,1004.53-373.457,1003.49-372.185,1003.49z M-361.384,1005.49
				c-0.446,0-0.811,0.365-0.811,0.811v1.939c0,0.447,0.364,0.811,0.811,0.811h2.034c0.446,0,0.81-0.364,0.81-0.811v-1.939
				c0-0.445-0.365-0.811-0.81-0.811H-361.384z M-358.532,1011.102h-1.583c0.15,0.49,0.231,1.008,0.231,1.545
				c0,2.992-2.505,5.42-5.596,5.42c-3.089,0-5.595-2.428-5.595-5.42c0-0.538,0.082-1.055,0.231-1.545h-1.653v7.603
				c0,0.393,0.322,0.714,0.715,0.714h12.534c0.394,0,0.715-0.321,0.715-0.714V1011.102z M-365.48,1008.949
				c-1.996,0-3.615,1.567-3.615,3.503c0,1.933,1.619,3.503,3.615,3.503c1.997,0,3.616-1.57,3.616-3.503
				C-361.864,1010.516-363.483,1008.949-365.48,1008.949z"/>
		</g>
	</g>
	<rect x="513.504" y="1731.489" opacity="0.25" fill="#EB212E" enable-background="new    " width="1" height="1"/>
	<rect x="-445.496" y="772.489" opacity="0.25" fill="#EB212E" enable-background="new    " width="1" height="1"/>
</g>
<g id="Guides">
</g>
</svg>
