<?xml version="1.0" encoding="utf-8"?>
<!-- Generator: Adobe Illustrator 16.0.0, SVG Export Plug-In . SVG Version: 6.00 Build 0)  -->
<!DOCTYPE svg PUBLIC "-//W3C//DTD SVG 1.1//EN" "http://www.w3.org/Graphics/SVG/1.1/DTD/svg11.dtd">
<svg version="1.1" xmlns="http://www.w3.org/2000/svg" xmlns:xlink="http://www.w3.org/1999/xlink" x="0px" y="0px"
	 width="799.999px" height="960px" viewBox="-445.496 772.489 799.999 960" enable-background="new -445.496 772.489 799.999 960"
	 xml:space="preserve">
<g id="Layer_1">
	<rect x="-445.496" y="772.489" opacity="0.25" fill="#EB212E" enable-background="new    " width="1" height="1"/>
	<rect x="353.503" y="1731.489" opacity="0.25" fill="#EB212E" enable-background="new    " width="1" height="1"/>
	
	<g id="icon-bubble">
		<path fill="#C09533" d="M-201.851,845.937c-3.617-2.02-8.184-0.724-10.198,2.896c-1.553,2.789-1.129,6.139,0.799,8.455
			l-0.749,2.708l2.448-1.207c0.134,0.086,0.264,0.175,0.404,0.254c3.619,2.02,8.184,0.724,10.199-2.896
			C-196.934,852.528-198.233,847.957-201.851,845.937z M-199.736,855.68c-1.77,3.164-5.78,4.297-8.959,2.53
			c-3.178-1.766-4.32-5.762-2.549-8.927c1.769-3.164,5.78-4.297,8.957-2.53C-199.107,848.519-197.966,852.516-199.736,855.68z"/>
		<g>
			<rect x="-209.003" y="851.986" fill="#C09533" width="7.012" height="1"/>
			<rect x="-209.003" y="849.986" fill="#C09533" width="7.012" height="1"/>
			
				<rect x="-209.003" y="853.989" transform="matrix(-1 8.355696e-04 -8.355696e-04 -1 -410.2801 1709.1499)" fill="#C09533" width="7.012" height="1"/>
		</g>
	</g>
	<g id="icon-quote">
		<path fill="#6FCECE" d="M-206.349,1019.446c0.514,0.783,0.781,1.59,0.799,2.419s-0.176,1.601-0.586,2.312
			c-0.408,0.712-0.955,1.293-1.643,1.743c-0.768,0.504-1.709,0.767-2.828,0.788s-2.285-0.306-3.5-0.98
			c-1.213-0.676-2.287-1.724-3.219-3.145c-1.639-2.498-2.264-5.114-1.871-7.847c0.391-2.732,1.863-5.195,4.422-7.387l1.479,2.254
			c-1.572,1.521-2.619,3.114-3.141,4.775c-0.521,1.662-0.314,3.203,0.617,4.624c0.525,0.8,1.072,1.013,1.645,0.638
			c0.791-0.752,1.406-1.273,1.848-1.562c0.572-0.375,1.238-0.586,2.004-0.632c0.764-0.046,1.5,0.097,2.207,0.427
			S-206.819,1018.728-206.349,1019.446z M-192.485,1010.35c0.516,0.784,0.781,1.591,0.801,2.419
			c0.018,0.829-0.178,1.601-0.586,2.312c-0.41,0.713-0.957,1.293-1.643,1.743c-1.24,0.814-2.799,0.995-4.672,0.543
			c-1.875-0.453-3.508-1.74-4.9-3.863c-1.639-2.498-2.264-5.114-1.871-7.847c0.391-2.732,1.863-5.195,4.422-7.387l1.479,2.254
			c-1.572,1.521-2.619,3.113-3.141,4.775c-0.521,1.661-0.314,3.203,0.617,4.624c0.525,0.8,1.072,1.013,1.645,0.638
			c0.131-0.086,0.232-0.171,0.307-0.254c0.074-0.084,0.275-0.274,0.605-0.572c0.33-0.299,0.641-0.544,0.936-0.737
			c0.93-0.61,1.99-0.803,3.178-0.578C-194.122,1008.645-193.181,1009.288-192.485,1010.35z"/>
	</g>
	<g id="icon-separator">
		<rect x="-208.496" y="1282.5" fill="#6FCECE" width="3" height="100"/>
	</g>
	<g id="icon-quote-circled">
		<circle fill="#6FCECE" cx="-365.497" cy="1332.489" r="24"/>
		<g>
			<path fill="#FFFFFF" d="M-366.348,1339.446c0.514,0.783,0.781,1.59,0.799,2.42c0.018,0.828-0.176,1.6-0.586,2.311
				c-0.408,0.713-0.955,1.293-1.643,1.744c-0.768,0.504-1.709,0.766-2.828,0.787s-2.285-0.305-3.5-0.98
				c-1.213-0.676-2.287-1.723-3.219-3.145c-1.639-2.498-2.264-5.113-1.871-7.846c0.391-2.732,1.863-5.195,4.422-7.387l1.479,2.254
				c-1.572,1.521-2.619,3.113-3.141,4.775s-0.314,3.203,0.617,4.623c0.525,0.801,1.072,1.014,1.645,0.639
				c0.791-0.752,1.406-1.273,1.848-1.562c0.572-0.375,1.238-0.586,2.004-0.633c0.764-0.045,1.5,0.098,2.207,0.428
				S-366.819,1338.728-366.348,1339.446z M-352.485,1330.351c0.516,0.783,0.781,1.59,0.801,2.418
				c0.018,0.83-0.178,1.602-0.586,2.312c-0.41,0.713-0.957,1.293-1.643,1.742c-1.24,0.814-2.799,0.996-4.672,0.543
				c-1.875-0.453-3.508-1.74-4.9-3.863c-1.639-2.498-2.264-5.113-1.871-7.846c0.391-2.732,1.863-5.195,4.422-7.387l1.479,2.254
				c-1.572,1.521-2.619,3.113-3.141,4.775c-0.521,1.66-0.314,3.203,0.617,4.623c0.525,0.801,1.072,1.014,1.645,0.639
				c0.131-0.086,0.232-0.172,0.307-0.254c0.074-0.084,0.275-0.275,0.605-0.572c0.33-0.299,0.641-0.545,0.936-0.738
				c0.93-0.609,1.99-0.803,3.178-0.578C-354.122,1328.646-353.18,1329.288-352.485,1330.351z"/>
		</g>
	</g>
	<g id="icon-twitter-color">
		<circle fill="#33A9DE" cx="-205.497" cy="1492.5" r="16.8"/>
		<g>
			<path fill="#FFFFFF" d="M-195.897,1486.545c-0.706,0.313-1.466,0.525-2.263,0.619c0.814-0.486,1.439-1.258,1.732-2.179
				c-0.76,0.452-1.603,0.78-2.5,0.958c-0.719-0.768-1.744-1.245-2.876-1.245c-2.176,0-3.94,1.764-3.94,3.938
				c0,0.31,0.035,0.609,0.102,0.898c-3.271-0.164-6.174-1.732-8.118-4.116c-0.339,0.582-0.534,1.259-0.534,1.98
				c0,1.366,0.697,2.573,1.752,3.279c-0.645-0.02-1.252-0.199-1.783-0.493v0.049c0,1.909,1.357,3.501,3.16,3.863
				c-0.33,0.09-0.68,0.139-1.039,0.139c-0.252,0-0.501-0.024-0.74-0.071c0.501,1.565,1.955,2.703,3.68,2.736
				c-1.348,1.057-3.047,1.686-4.893,1.686c-0.317,0-0.631-0.019-0.939-0.056c1.744,1.118,3.814,1.77,6.039,1.77
				c7.246,0,11.207-6.001,11.207-11.207c0-0.169-0.004-0.34-0.01-0.511C-197.094,1488.029-196.426,1487.335-195.897,1486.545z"/>
		</g>
	</g>
	<g id="icon-twitter-stroke">
		<path fill="#FFFFFF" d="M-195.896,1646.546c-0.707,0.312-1.466,0.525-2.263,0.619c0.813-0.486,1.438-1.258,1.732-2.18
			c-0.76,0.453-1.603,0.781-2.501,0.959c-0.719-0.768-1.743-1.246-2.875-1.246c-2.176,0-3.94,1.764-3.94,3.939
			c0,0.309,0.035,0.609,0.102,0.898c-3.272-0.164-6.175-1.732-8.118-4.117c-0.34,0.582-0.534,1.26-0.534,1.98
			c0,1.367,0.696,2.574,1.752,3.279c-0.645-0.02-1.253-0.199-1.783-0.492v0.049c0,1.908,1.357,3.5,3.159,3.863
			c-0.33,0.09-0.679,0.139-1.038,0.139c-0.253,0-0.501-0.025-0.74-0.072c0.501,1.566,1.955,2.703,3.68,2.736
			c-1.348,1.057-3.047,1.686-4.894,1.686c-0.316,0-0.63-0.018-0.938-0.055c1.743,1.117,3.813,1.77,6.039,1.77
			c7.245,0,11.207-6.002,11.207-11.207c0-0.17-0.004-0.34-0.011-0.512C-197.093,1648.03-196.426,1647.335-195.896,1646.546z"/>
		<path fill="#FFFFFF" d="M-205.497,1635.7c-9.278,0-16.8,7.521-16.8,16.801c0,9.277,7.521,16.799,16.8,16.799
			s16.8-7.521,16.8-16.799C-188.697,1643.222-196.219,1635.7-205.497,1635.7z M-205.497,1668.001c-8.561,0-15.5-6.941-15.5-15.5
			c0-8.562,6.939-15.5,15.5-15.5s15.5,6.938,15.5,15.5C-189.997,1661.06-196.937,1668.001-205.497,1668.001z"/>
	</g>
	<g id="icon-facebook-color">
		<circle fill="#3D5B97" cx="-45.496" cy="852.49" r="16.8"/>
		<g>
			<path fill="#FFFFFF" d="M-41.069,853.332l0.439-3.412h-3.379v-2.18c0-0.988,0.275-1.662,1.691-1.662l1.807-0.001v-3.053
				c-0.312-0.042-1.385-0.135-2.633-0.135c-2.605,0-4.389,1.591-4.389,4.513v2.518h-2.949v3.412h2.949v8.758h3.523v-8.758H-41.069z"
				/>
		</g>
	</g>
	<g id="icon-facebook-stroke">
		<path fill="#FFFFFF" d="M-45.496,995.689c-9.278,0-16.8,7.521-16.8,16.8s7.521,16.8,16.8,16.8c9.277,0,16.8-7.521,16.8-16.8
			S-36.219,995.689-45.496,995.689z M-45.496,1027.989c-8.56,0-15.499-6.94-15.499-15.5c0-8.561,6.939-15.5,15.499-15.5
			c8.561,0,15.499,6.939,15.499,15.5C-29.997,1021.049-36.936,1027.989-45.496,1027.989z"/>
		<path fill="#FFFFFF" d="M-41.07,1013.331l0.439-3.412h-3.379v-2.18c0-0.988,0.275-1.662,1.691-1.662l1.807-0.001v-3.053
			c-0.312-0.042-1.385-0.135-2.633-0.135c-2.605,0-4.389,1.592-4.389,4.513v2.518h-2.949v3.412h2.949v8.758h3.523v-8.758H-41.07z"/>
	</g>
	<g id="icon-pinterest-color">
		<circle fill="#C8242E" cx="-205.497" cy="1172.49" r="16.8"/>
		<g>
			<path fill="#FFFFFF" d="M-205.496,1162.889c-5.303,0-9.602,4.299-9.602,9.602c0,3.93,2.365,7.309,5.748,8.791
				c-0.027-0.67-0.006-1.475,0.166-2.203c0.186-0.781,1.234-5.232,1.234-5.232s-0.305-0.611-0.305-1.518
				c0-1.422,0.824-2.484,1.852-2.484c0.873,0,1.295,0.654,1.295,1.439c0,0.879-0.561,2.191-0.848,3.406
				c-0.24,1.02,0.512,1.85,1.514,1.85c1.818,0,3.045-2.334,3.045-5.104c0-2.104-1.418-3.678-3.994-3.678
				c-2.912,0-4.729,2.17-4.729,4.596c0,0.838,0.248,1.428,0.635,1.883c0.178,0.211,0.203,0.295,0.137,0.535
				c-0.045,0.178-0.15,0.602-0.195,0.77c-0.064,0.246-0.26,0.332-0.48,0.242c-1.342-0.547-1.965-2.018-1.965-3.668
				c0-2.727,2.299-5.996,6.861-5.996c3.664,0,6.078,2.65,6.078,5.5c0,3.766-2.096,6.578-5.182,6.578
				c-1.037,0-2.012-0.561-2.344-1.195c0,0-0.559,2.211-0.676,2.639c-0.203,0.738-0.604,1.479-0.967,2.055
				c0.863,0.254,1.775,0.395,2.721,0.395c5.301,0,9.6-4.299,9.6-9.6C-195.896,1167.188-200.195,1162.889-205.496,1162.889z"/>
		</g>
	</g>
	<g id="icon-pinterest-stroke">
		<path fill="#FFFFFF" d="M-45.497,1155.689c-9.278,0-16.8,7.521-16.8,16.8c0,9.279,7.521,16.8,16.8,16.8
			c9.277,0,16.8-7.521,16.8-16.8C-28.697,1163.211-36.22,1155.689-45.497,1155.689z M-45.497,1187.989
			c-8.56,0-15.499-6.939-15.499-15.5s6.939-15.5,15.499-15.5c8.561,0,15.499,6.939,15.499,15.5S-36.937,1187.989-45.497,1187.989z"
			/>
		<path fill="#FFFFFF" d="M-45.496,1162.89c-5.302,0-9.6,4.298-9.6,9.6c0,3.932,2.363,7.309,5.745,8.793
			c-0.027-0.671-0.004-1.476,0.167-2.204c0.185-0.78,1.235-5.232,1.235-5.232s-0.307-0.611-0.307-1.519
			c0-1.421,0.825-2.483,1.854-2.483c0.871,0,1.293,0.654,1.293,1.439c0,0.879-0.56,2.191-0.848,3.407
			c-0.24,1.019,0.512,1.849,1.514,1.849c1.82,0,3.045-2.335,3.045-5.104c0-2.104-1.416-3.678-3.994-3.678
			c-2.912,0-4.727,2.17-4.727,4.596c0,0.837,0.247,1.427,0.633,1.884c0.178,0.21,0.203,0.293,0.137,0.534
			c-0.043,0.178-0.15,0.603-0.193,0.771c-0.064,0.245-0.261,0.331-0.48,0.241c-1.341-0.547-1.966-2.017-1.966-3.667
			c0-2.728,2.298-5.997,6.86-5.997c3.665,0,6.079,2.651,6.079,5.499c0,3.766-2.096,6.579-5.182,6.579
			c-1.037,0-2.011-0.561-2.345-1.196c0,0-0.558,2.212-0.675,2.639c-0.204,0.739-0.603,1.479-0.968,2.056
			c0.863,0.255,1.776,0.395,2.722,0.395c5.302,0,9.599-4.298,9.599-9.601C-35.897,1167.188-40.194,1162.89-45.496,1162.89z"/>
	</g>
	<g id="icon-youtube-color">
		<circle fill="#CB3532" cx="-45.497" cy="1332.489" r="16.8"/>
		<g>
			<path fill="#FFFFFF" d="M-47.159,1322.889h-1.087l-0.732,2.819l-0.763-2.819h-1.133c0.228,0.665,0.464,1.334,0.69,2
				c0.344,1.001,0.559,1.755,0.656,2.271v2.907h1.075v-2.907L-47.159,1322.889z M-44.285,1328.335v-1.874
				c0-0.571-0.1-0.989-0.303-1.26c-0.268-0.365-0.645-0.549-1.13-0.549c-0.483,0-0.86,0.184-1.13,0.549
				c-0.205,0.271-0.303,0.688-0.303,1.26v1.874c0,0.568,0.098,0.989,0.303,1.258c0.27,0.365,0.646,0.548,1.13,0.548
				c0.485,0,0.862-0.183,1.13-0.548C-44.385,1329.324-44.285,1328.903-44.285,1328.335z M-45.256,1328.517
				c0,0.496-0.15,0.743-0.462,0.743c-0.313,0-0.464-0.247-0.464-0.743v-2.25c0-0.495,0.15-0.741,0.464-0.741
				c0.312,0,0.462,0.246,0.462,0.741V1328.517z M-40.702,1330.066v-5.349h-0.97v4.088c-0.215,0.304-0.418,0.454-0.611,0.454
				c-0.131,0-0.207-0.077-0.228-0.228c-0.013-0.031-0.013-0.149-0.013-0.377v-3.938h-0.967v4.229c0,0.377,0.034,0.634,0.088,0.795
				c0.096,0.271,0.311,0.398,0.623,0.398c0.354,0,0.722-0.216,1.107-0.658v0.584H-40.702z"/>
			<g>
				<path fill="#FFFFFF" d="M-40.182,1335.497c-0.32,0-0.48,0.246-0.48,0.734v0.49h0.959v-0.49
					C-39.703,1335.743-39.865,1335.497-40.182,1335.497z"/>
				<path fill="#FFFFFF" d="M-37.838,1332.806c-0.193-0.843-0.884-1.466-1.715-1.559c-1.967-0.22-3.959-0.221-5.942-0.22
					c-1.983-0.001-3.976,0-5.942,0.22c-0.832,0.093-1.522,0.716-1.717,1.559c-0.275,1.204-0.278,2.514-0.278,3.752
					c0,1.237,0,2.551,0.276,3.752c0.193,0.844,0.884,1.466,1.715,1.56c1.969,0.22,3.959,0.221,5.942,0.22
					c1.983,0.001,3.976,0,5.942-0.22c0.832-0.094,1.522-0.716,1.717-1.56c0.277-1.201,0.277-2.515,0.277-3.752
					C-37.562,1335.319-37.562,1334.01-37.838,1332.806z M-48.906,1333.888h-1.148v6.104h-1.066v-6.104h-1.129v-1h3.344V1333.888z
					 M-46.008,1339.992h-0.96v-0.577c-0.38,0.437-0.743,0.65-1.097,0.65c-0.309,0-0.521-0.126-0.617-0.395
					c-0.053-0.161-0.086-0.413-0.086-0.787v-4.186h0.959v3.897c0,0.224,0,0.342,0.01,0.373c0.023,0.148,0.096,0.224,0.225,0.224
					c0.191,0,0.395-0.148,0.606-0.448v-4.046h0.96V1339.992z M-42.365,1338.403c0,0.49-0.032,0.843-0.096,1.066
					c-0.129,0.395-0.385,0.596-0.768,0.596c-0.341,0-0.67-0.19-0.99-0.587v0.514h-0.959v-7.104h0.959v2.32
					c0.311-0.381,0.638-0.574,0.99-0.574c0.383,0,0.639,0.201,0.768,0.598c0.063,0.213,0.096,0.563,0.096,1.063V1338.403z
					 M-38.744,1337.521h-1.918v0.938c0,0.49,0.16,0.734,0.488,0.734c0.236,0,0.375-0.129,0.43-0.385
					c0.008-0.053,0.02-0.264,0.02-0.649h0.98v0.14c0,0.309-0.013,0.521-0.021,0.618c-0.033,0.212-0.107,0.405-0.223,0.575
					c-0.268,0.384-0.66,0.574-1.16,0.574c-0.503,0-0.885-0.182-1.162-0.543c-0.203-0.265-0.307-0.683-0.307-1.244v-1.854
					c0-0.565,0.092-0.979,0.295-1.247c0.277-0.363,0.66-0.543,1.148-0.543c0.482,0,0.863,0.18,1.132,0.543
					c0.202,0.268,0.298,0.682,0.298,1.247V1337.521z"/>
				<path fill="#FFFFFF" d="M-43.74,1335.497c-0.158,0-0.318,0.076-0.479,0.233v3.227c0.16,0.16,0.32,0.235,0.479,0.235
					c0.275,0,0.417-0.235,0.417-0.713v-2.26C-43.323,1335.743-43.465,1335.497-43.74,1335.497z"/>
			</g>
		</g>
	</g>
	<g id="icon-youtube-stroke">
		<g>
			<path fill="#FFFFFF" d="M-47.159,1482.901h-1.087l-0.732,2.818l-0.763-2.818h-1.133c0.228,0.664,0.464,1.334,0.69,1.998
				c0.344,1.002,0.559,1.756,0.656,2.271v2.908h1.075v-2.908L-47.159,1482.901z M-44.285,1488.347v-1.875
				c0-0.57-0.1-0.988-0.303-1.26c-0.268-0.365-0.645-0.547-1.13-0.547c-0.483,0-0.86,0.182-1.13,0.547
				c-0.205,0.271-0.303,0.689-0.303,1.26v1.875c0,0.568,0.098,0.99,0.303,1.258c0.27,0.365,0.646,0.547,1.13,0.547
				c0.485,0,0.862-0.182,1.13-0.547C-44.385,1489.337-44.285,1488.915-44.285,1488.347z M-45.256,1488.528
				c0,0.496-0.15,0.742-0.462,0.742c-0.313,0-0.464-0.246-0.464-0.742v-2.25c0-0.494,0.15-0.74,0.464-0.74
				c0.312,0,0.462,0.246,0.462,0.74V1488.528z M-40.702,1490.079v-5.35h-0.97v4.088c-0.215,0.305-0.418,0.453-0.611,0.453
				c-0.131,0-0.207-0.076-0.228-0.227c-0.013-0.031-0.013-0.148-0.013-0.377v-3.938h-0.967v4.229c0,0.379,0.034,0.635,0.088,0.797
				c0.096,0.27,0.311,0.396,0.623,0.396c0.354,0,0.722-0.215,1.107-0.656v0.584H-40.702z"/>
			<g>
				<path fill="#FFFFFF" d="M-40.182,1495.509c-0.32,0-0.48,0.246-0.48,0.734v0.49h0.959v-0.49
					C-39.703,1495.755-39.865,1495.509-40.182,1495.509z"/>
				<path fill="#FFFFFF" d="M-37.838,1492.817c-0.193-0.844-0.884-1.465-1.715-1.559c-1.967-0.221-3.959-0.221-5.942-0.221
					s-3.976,0-5.942,0.221c-0.832,0.094-1.522,0.715-1.717,1.559c-0.275,1.203-0.278,2.514-0.278,3.752s0,2.551,0.276,3.752
					c0.193,0.844,0.884,1.467,1.715,1.561c1.969,0.219,3.959,0.221,5.942,0.219c1.983,0.002,3.976,0,5.942-0.219
					c0.832-0.094,1.522-0.717,1.717-1.561c0.277-1.201,0.277-2.514,0.277-3.752S-37.562,1494.021-37.838,1492.817z
					 M-48.906,1493.899h-1.148v6.104h-1.066v-6.104h-1.129v-1h3.344V1493.899z M-46.008,1500.003h-0.96v-0.576
					c-0.38,0.436-0.743,0.65-1.097,0.65c-0.309,0-0.521-0.125-0.617-0.395c-0.053-0.16-0.086-0.412-0.086-0.787v-4.186h0.959v3.896
					c0,0.225,0,0.342,0.01,0.373c0.023,0.148,0.096,0.225,0.225,0.225c0.191,0,0.395-0.148,0.606-0.447v-4.047h0.96V1500.003z
					 M-42.365,1498.415c0,0.49-0.032,0.842-0.096,1.066c-0.129,0.395-0.385,0.596-0.768,0.596c-0.341,0-0.67-0.189-0.99-0.586v0.512
					h-0.959v-7.104h0.959v2.32c0.311-0.381,0.638-0.574,0.99-0.574c0.383,0,0.639,0.201,0.768,0.598
					c0.063,0.213,0.096,0.562,0.096,1.064V1498.415z M-38.744,1497.532h-1.918v0.938c0,0.49,0.16,0.734,0.488,0.734
					c0.236,0,0.375-0.129,0.43-0.385c0.008-0.053,0.02-0.264,0.02-0.648h0.98v0.139c0,0.309-0.013,0.521-0.021,0.619
					c-0.033,0.211-0.107,0.404-0.223,0.574c-0.268,0.385-0.66,0.574-1.16,0.574c-0.503,0-0.885-0.182-1.162-0.543
					c-0.203-0.264-0.307-0.684-0.307-1.244v-1.854c0-0.566,0.092-0.98,0.295-1.248c0.277-0.363,0.66-0.543,1.148-0.543
					c0.482,0,0.863,0.18,1.132,0.543c0.202,0.268,0.298,0.682,0.298,1.248V1497.532z"/>
				<path fill="#FFFFFF" d="M-43.74,1495.509c-0.158,0-0.318,0.076-0.479,0.234v3.227c0.16,0.158,0.32,0.234,0.479,0.234
					c0.275,0,0.417-0.234,0.417-0.713v-2.26C-43.323,1495.755-43.465,1495.509-43.74,1495.509z"/>
			</g>
		</g>
		<path fill="#FFFFFF" d="M-45.498,1475.7c-9.278,0-16.799,7.521-16.799,16.801s7.521,16.799,16.799,16.799
			c9.279,0,16.801-7.52,16.801-16.799S-36.219,1475.7-45.498,1475.7z M-45.498,1508.001c-8.561,0-15.5-6.939-15.5-15.5
			s6.939-15.5,15.5-15.5s15.5,6.939,15.5,15.5S-36.938,1508.001-45.498,1508.001z"/>
	</g>
	<g id="icon-instagram-color">
		<circle fill="#346798" cx="-45.496" cy="1652.5" r="16.8"/>
		<g>
			<path fill="#FFFFFF" d="M-52.631,1642.9h14.272c1.355,0,2.463,1.108,2.463,2.465v14.271c0,1.355-1.107,2.464-2.463,2.464h-14.272
				c-1.356,0-2.466-1.108-2.466-2.464v-14.271C-55.097,1644.009-53.987,1642.9-52.631,1642.9z M-41.108,1645.033
				c-0.477,0-0.865,0.39-0.865,0.865v2.068c0,0.476,0.389,0.864,0.865,0.864h2.17c0.476,0,0.865-0.389,0.865-0.864v-2.068
				c0-0.476-0.39-0.865-0.865-0.865H-41.108z M-38.065,1651.02h-1.689c0.16,0.523,0.246,1.075,0.246,1.648
				c0,3.193-2.673,5.783-5.969,5.783c-3.297,0-5.969-2.59-5.969-5.783c0-0.573,0.088-1.125,0.246-1.648h-1.762v8.112
				c0,0.419,0.343,0.762,0.762,0.762h13.371c0.421,0,0.764-0.343,0.764-0.762V1651.02z M-45.478,1648.723
				c-2.129,0-3.856,1.673-3.856,3.737c0,2.062,1.728,3.736,3.856,3.736s3.857-1.674,3.857-3.736
				C-41.62,1650.396-43.349,1648.723-45.478,1648.723z"/>
		</g>
	</g>
	<g id="icon-instagram-stroke">
		<path fill="#FFFFFF" d="M114.503,835.689c-9.278,0-16.8,7.521-16.8,16.8s7.521,16.8,16.8,16.8s16.8-7.521,16.8-16.8
			S123.781,835.689,114.503,835.689z M114.503,867.989c-8.561,0-15.5-6.94-15.5-15.5c0-8.561,6.939-15.5,15.5-15.5
			s15.5,6.939,15.5,15.5C130.003,861.049,123.063,867.989,114.503,867.989z"/>
		<path fill="#FFFFFF" d="M107.368,842.889h14.272c1.355,0,2.463,1.109,2.463,2.465v14.272c0,1.355-1.107,2.464-2.463,2.464h-14.272
			c-1.356,0-2.466-1.108-2.466-2.464v-14.272C104.902,843.998,106.012,842.889,107.368,842.889z M118.891,845.021
			c-0.477,0-0.865,0.391-0.865,0.866v2.067c0,0.477,0.389,0.865,0.865,0.865h2.17c0.476,0,0.865-0.389,0.865-0.865v-2.067
			c0-0.476-0.39-0.866-0.865-0.866H118.891z M121.934,851.009h-1.689c0.16,0.523,0.246,1.075,0.246,1.648
			c0,3.192-2.673,5.782-5.969,5.782c-3.297,0-5.969-2.59-5.969-5.782c0-0.573,0.088-1.125,0.246-1.648h-1.762v8.112
			c0,0.419,0.343,0.762,0.762,0.762h13.371c0.421,0,0.764-0.343,0.764-0.762V851.009z M114.521,848.712
			c-2.129,0-3.856,1.673-3.856,3.737c0,2.062,1.728,3.736,3.856,3.736s3.857-1.674,3.857-3.736
			C118.379,850.385,116.65,848.712,114.521,848.712z"/>
	</g>
	<g id="icon-flickr-color">
		<circle fill="#EAEAEA" cx="114.503" cy="1012.489" r="16.8"/>
		<g>
			<g>
				<circle fill="#3967AE" cx="109.306" cy="1012.489" r="4.402"/>
				<circle fill="#EA2783" cx="119.701" cy="1012.489" r="4.402"/>
			</g>
		</g>
	</g>
	<g id="icon-flickr-stroke">
		<path fill="#FFFFFF" d="M114.503,1155.688c-9.278,0-16.8,7.523-16.8,16.801c0,9.279,7.521,16.801,16.8,16.801
			s16.801-7.521,16.801-16.801C131.304,1163.212,123.781,1155.688,114.503,1155.688z M114.503,1187.989
			c-8.561,0-15.5-6.939-15.5-15.5s6.939-15.5,15.5-15.5s15.5,6.939,15.5,15.5S123.063,1187.989,114.503,1187.989z"/>
		<g>
			<circle fill="#FFFFFF" cx="109.307" cy="1172.489" r="4.402"/>
			<circle fill="#FFFFFF" cx="119.701" cy="1172.489" r="4.402"/>
		</g>
	</g>
	<g id="icon-scribe-2">
		<path d="M-404.54,1012.31c1.104,0,2.238,0.583,2.391,2.054l4.598-1.227c-0.398-3.433-3.25-4.659-7.081-4.659
			c-3.279,0-6.559,1.349-6.559,5.548c0,2.973,1.471,4.69,6.069,6.1c2.146,0.644,2.759,1.104,2.759,2.146s-0.919,1.502-2.115,1.502
			c-1.625,0-2.912-1.165-3.25-2.79l-4.168,1.993c1.042,3.218,3.525,4.322,7.05,4.322c3.985,0,7.265-1.41,7.265-5.457
			c0-3.494-1.809-4.812-5.916-6.069c-1.993-0.552-2.82-1.042-2.82-2.084C-406.318,1012.678-405.49,1012.31-404.54,1012.31z"/>
		<path d="M-362.699,1021.659c-0.429-1.563-1.288-2.237-2.943-2.513v-0.092c2.361-0.276,3.894-1.748,3.894-4.537
			c0-4.261-2.698-5.641-6.713-5.641h-7.387v18.055h4.598v-6.039h1.594c1.257,0,1.808,0.214,2.146,1.563l0.645,2.544
			c0.184,0.767,0.429,1.502,1.011,1.932h5.119c-0.612-0.644-0.827-1.227-1.042-1.962L-362.699,1021.659z M-368.799,1017.062h-2.452
			v-4.292h2.483c1.501,0,2.33,0.767,2.33,2.176C-366.438,1016.541-367.327,1017.062-368.799,1017.062z"/>
		<rect x="-357.671" y="1008.877" width="4.598" height="18.055"/>
		<path d="M-338.176,1017.736v-0.123c1.962-0.521,3.219-1.962,3.219-4.2c0-2.82-1.931-4.537-5.579-4.537h-7.939v18.055h7.877
			c4.413,0,6.406-1.962,6.406-4.905C-334.191,1019.881-335.479,1018.134-338.176,1017.736z M-343.877,1012.77h2.207
			c1.38,0,2.146,0.459,2.146,1.809c0,1.257-0.798,1.716-2.054,1.716h-2.3V1012.77z M-340.997,1023.039h-2.881v-3.433h2.881
			c1.35,0,2.146,0.552,2.146,1.686C-338.85,1022.671-339.647,1023.039-340.997,1023.039z"/>
		<polygon points="-318.066,1012.862 -318.066,1008.877 -330.512,1008.877 -330.512,1026.932 -318.066,1026.932 -318.066,1022.947 
			-325.914,1022.947 -325.914,1019.698 -319.018,1019.698 -319.018,1015.866 -325.914,1015.866 -325.914,1012.862 		"/>
		<path d="M-386.148,1023.223c-2.821,0-4.231-1.931-4.231-5.242c0-2.568,0.912-4.346,2.468-5.052
			c-0.294-0.244-0.613-0.473-0.973-0.682c-1.202-0.696-2.483-1.13-3.846-1.302c-0.118,0.123-0.241,0.24-0.351,0.371l0.585,7.162
			h-2.58c0.232,5.619,3.586,8.82,8.376,8.82c4.168,0,6.283-1.41,7.938-4.261l-4.015-2.299
			C-383.42,1022.395-384.708,1023.223-386.148,1023.223z"/>
		<path d="M-381.302,1012.248c-0.812,0.471-1.641,1.032-2.382,1.675c0.248,0.402,0.442,0.875,0.601,1.422l4.475-2.176
			c-0.281-0.622-0.621-1.178-1.001-1.688C-380.188,1011.689-380.757,1011.931-381.302,1012.248z"/>
		<path d="M-385.496,1008.479l-6.684-2.676c-0.896,1.192-1.44,2.512-1.632,3.96c0.423-0.056,0.796-0.083,1.116-0.083
			c1.503,0,2.893,0.37,4.169,1.109c1.276,0.74,2.286,1.734,3.03,2.982c0.744-1.248,1.753-2.242,3.03-2.982
			c1.275-0.74,2.666-1.109,4.169-1.109c0.328,0,0.7,0.027,1.116,0.083c-0.191-1.448-0.736-2.768-1.632-3.96L-385.496,1008.479z"/>
		<path d="M-393.896,1016.878l-0.552-13.175l8.952,3.576l12-4.8l-12-4.8l-12,4.8l1.776,0.708l-0.576,13.691H-393.896z
			 M-386.342,1001.453c0.236-0.116,0.518-0.174,0.846-0.174s0.61,0.058,0.846,0.174c0.236,0.115,0.354,0.258,0.354,0.425
			c0,0.168-0.118,0.311-0.354,0.426c-0.236,0.116-0.518,0.174-0.846,0.174s-0.61-0.058-0.846-0.174
			c-0.236-0.116-0.354-0.258-0.354-0.426C-386.696,1001.711-386.579,1001.568-386.342,1001.453z"/>
	</g>
	<g id="icon-scribe-1">
		<path d="M-405.906,848.064c1.058,0,2.146,0.56,2.292,1.97l4.408-1.176c-0.382-3.291-3.115-4.467-6.789-4.467
			c-3.144,0-6.288,1.293-6.288,5.319c0,2.85,1.41,4.496,5.818,5.848c2.057,0.617,2.645,1.058,2.645,2.057s-0.881,1.44-2.027,1.44
			c-1.558,0-2.792-1.117-3.115-2.675l-3.996,1.911c0.999,3.085,3.379,4.143,6.758,4.143c3.82,0,6.965-1.352,6.965-5.23
			c0-3.35-1.734-4.613-5.671-5.818c-1.91-0.529-2.704-0.999-2.704-1.999C-407.61,848.418-406.816,848.064-405.906,848.064z"/>
		<path d="M-388.391,848.329c1.851,0,2.585,1.029,3.055,2.646l4.291-2.087c-1.263-2.791-3.526-4.467-7.229-4.467
			c-5.437,0-8.581,3.203-8.581,8.963s3.291,9.051,8.052,9.051c3.996,0,6.024-1.352,7.611-4.085l-3.85-2.203
			c-0.617,1.586-1.852,2.38-3.232,2.38c-2.704,0-4.056-1.852-4.056-5.025C-392.33,850.269-390.83,848.329-388.391,848.329z"/>
		<path d="M-365.792,857.027c-0.412-1.499-1.234-2.145-2.821-2.409v-0.088c2.263-0.265,3.732-1.676,3.732-4.35
			c0-4.084-2.586-5.407-6.436-5.407h-7.082v17.309h4.408v-5.789h1.528c1.206,0,1.734,0.206,2.057,1.499l0.618,2.438
			c0.176,0.735,0.411,1.44,0.969,1.852h4.907c-0.587-0.617-0.793-1.176-0.999-1.881L-365.792,857.027z M-371.641,852.62h-2.351
			v-4.114h2.38c1.439,0,2.233,0.734,2.233,2.086C-369.377,852.12-370.229,852.62-371.641,852.62z"/>
		<path d="M-338.283,853.267v-0.118c1.881-0.499,3.086-1.881,3.086-4.025c0-2.704-1.851-4.35-5.349-4.35h-7.61v17.309h7.552
			c4.231,0,6.142-1.881,6.142-4.702C-334.462,855.323-335.696,853.647-338.283,853.267z M-343.748,848.506h2.115
			c1.323,0,2.058,0.44,2.058,1.733c0,1.205-0.765,1.646-1.969,1.646h-2.204V848.506z M-340.986,858.35h-2.762v-3.291h2.762
			c1.293,0,2.058,0.529,2.058,1.616C-338.929,857.998-339.693,858.35-340.986,858.35z"/>
		<polygon points="-318.004,848.594 -318.004,844.773 -329.935,844.773 -329.935,862.082 -318.004,862.082 -318.004,858.262 
			-325.527,858.262 -325.527,855.147 -318.916,855.147 -318.916,851.474 -325.527,851.474 -325.527,848.594 		"/>
		<path d="M-354.794,860.628c-1.052,0.118-2.101,0.12-3.146,0.007c-1.047-0.113-1.721-0.32-2.022-0.622
			c-0.095-0.095-0.142-0.208-0.142-0.339v4.497c0,0.113,0.053,0.221,0.156,0.324c0.291,0.292,0.961,0.495,2.008,0.608
			c1.046,0.114,2.093,0.114,3.14,0.001c1.046-0.113,1.716-0.316,2.008-0.608c0.104-0.104,0.155-0.213,0.155-0.325v-4.497
			c0,0.132-0.047,0.245-0.141,0.339C-353.071,860.306-353.742,860.51-354.794,860.628z"/>
		<path d="M-356.372,842.604c-0.498,0.001-0.971-0.127-1.413-0.381l-2.319,3.987l3.733,1.67l3.733-1.67l-2.319-3.987
			C-355.399,842.477-355.872,842.604-356.372,842.604z"/>
		<path d="M-356.81,859.206v-10.182l-3.295-0.665v9.814c0,0.113,0.052,0.222,0.156,0.325
			C-359.544,858.904-358.497,859.142-356.81,859.206z"/>
		<path d="M-355.282,841.642l-1.089-1.852l-1.089,1.853c0.35,0.197,0.717,0.297,1.104,0.296
			C-355.97,841.938-355.612,841.841-355.282,841.642z"/>
		<path d="M-356.103,859.206c0.613-0.009,1.261-0.067,1.945-0.177c0.683-0.107,1.143-0.28,1.378-0.516
			c0.095-0.095,0.142-0.208,0.142-0.339v-9.815l-3.465,0.75V859.206z"/>
	</g>
</g>
<g id="Align">
	<g>
		<path fill="#231F20" d="M-318.585,1172.138l-9.103-9.104c-0.193-0.193-0.508-0.192-0.704,0.003
			c-0.195,0.196-0.197,0.511-0.003,0.705l8.342,8.342h-61.812c-0.019-0.032-0.034-0.067-0.062-0.095l-8.774-8.774
			c-0.187-0.187-0.496-0.18-0.691,0.016c-0.195,0.196-0.203,0.505-0.016,0.692l8.162,8.161h-5.619
			c-0.019-0.032-0.034-0.067-0.062-0.095l-8.774-8.774c-0.187-0.187-0.496-0.18-0.691,0.016c-0.195,0.196-0.203,0.505-0.016,0.692
			l8.162,8.161h-5.619c-0.019-0.032-0.034-0.067-0.062-0.095l-8.774-8.774c-0.187-0.187-0.496-0.18-0.691,0.016
			c-0.195,0.196-0.203,0.505-0.016,0.692l8.162,8.161h-5.619c-0.019-0.032-0.034-0.067-0.062-0.095l-8.774-8.774
			c-0.187-0.187-0.496-0.18-0.691,0.016c-0.195,0.196-0.203,0.505-0.016,0.692l8.162,8.161h-1.606c-0.273,0-0.494,0.224-0.494,0.5
			s0.221,0.5,0.494,0.5h1.606l-8.162,8.162c-0.187,0.187-0.179,0.495,0.016,0.691c0.195,0.195,0.504,0.202,0.691,0.017l8.774-8.775
			c0.028-0.027,0.042-0.062,0.062-0.095h5.619l-8.162,8.161c-0.187,0.188-0.179,0.496,0.016,0.692
			c0.195,0.195,0.504,0.202,0.691,0.016l8.774-8.774c0.028-0.027,0.042-0.062,0.062-0.095h5.619l-8.162,8.162
			c-0.187,0.187-0.179,0.495,0.016,0.691c0.195,0.195,0.504,0.202,0.691,0.017l8.774-8.775c0.028-0.027,0.042-0.062,0.062-0.095
			h5.619l-8.162,8.162c-0.187,0.187-0.179,0.495,0.016,0.691c0.195,0.195,0.504,0.202,0.691,0.017l8.774-8.775
			c0.028-0.027,0.042-0.062,0.062-0.095h61.619l-8.149,8.148c-0.193,0.194-0.192,0.509,0.003,0.705
			c0.195,0.195,0.51,0.196,0.704,0.003l9.103-9.103c0.077-0.077,0.114-0.174,0.129-0.274
			C-318.432,1172.412-318.469,1172.254-318.585,1172.138z"/>
	</g>
</g>
<g id="Guides">
</g>
</svg>
