<?xml version="1.0" encoding="UTF-8"?>
<svg width="14px" height="14px" viewBox="0 0 14 14" version="1.1" xmlns="http://www.w3.org/2000/svg" xmlns:xlink="http://www.w3.org/1999/xlink">
    <!-- Generator: Sketch 41.2 (35397) - http://www.bohemiancoding.com/sketch -->
    <title>Shape</title>
    <desc>Created with Sketch.</desc>
    <defs></defs>
    <g id="Page-1" stroke="none" stroke-width="1" fill="none" fill-rule="evenodd">
        <g id="sprite" transform="translate(-68.000000, -1340.000000)" fill="#A4B2B0">
            <g id="Page-1">
                <g id="sprite">
                    <path d="M75,1340 C71.1340067,1340 68,1343.13401 68,1347 C68,1350.86599 71.1340067,1354 75,1354 C78.8659932,1354 81.9999999,1350.86599 81.9999999,1347 C82.0002939,1345.14339 81.2628905,1343.36275 79.9500721,1342.04993 C78.6372537,1340.73711 76.8566055,1339.99971 75,1340 L75,1340 Z M79.6040166,1345.66242 L75.470575,1349.74458 C75.3614775,1349.85452 75.2130077,1349.91635 75.0581291,1349.91635 C74.9032506,1349.91635 74.7547807,1349.85452 74.6456833,1349.74458 L70.613625,1345.66242 C70.4662723,1345.51507 70.4087189,1345.30031 70.4626447,1345.09903 C70.5165706,1344.89775 70.6737829,1344.74052 70.8750614,1344.68658 C71.0763399,1344.63264 71.2911056,1344.69018 71.4384583,1344.83753 L75.0581,1348.50728 L78.7791249,1344.83753 C79.0069641,1344.61004 79.3760341,1344.61018 79.6036968,1344.83784 C79.8313595,1345.06551 79.8315027,1345.43458 79.6040166,1345.66242 L79.6040166,1345.66242 Z" id="Shape"></path>
                </g>
            </g>
        </g>
    </g>
</svg>