<?xml version="1.0" encoding="UTF-8" standalone="no"?>
<svg width="960px" height="1354px" viewBox="0 0 960 1354" version="1.1" xmlns="http://www.w3.org/2000/svg" xmlns:xlink="http://www.w3.org/1999/xlink">
    <!-- Generator: Sketch 40.3 (33839) - http://www.bohemiancoding.com/sketch -->
    <title>sprite</title>
    <desc>Created with Sketch.</desc>
    <defs></defs>
    <g id="Page-1" stroke="none" stroke-width="1" fill="none" fill-rule="evenodd">
        <g id="sprite">
            <rect id="Rectangle-path" fill="#EB212E" x="0" y="-4e-05" width="1" height="1"></rect>
            <rect id="Rectangle-path" fill="#000000" x="959" y="1119.0097" width="1" height="1"></rect>
            <path d="M239.999,376.0107 C226.744166,376.0107 215.999,386.755866 215.999,400.0107 C215.999,413.265534 226.744166,424.0107 239.999,424.0107 C253.253834,424.0107 263.999,413.265534 263.999,400.0107 C263.999175,393.645451 261.470667,387.540855 256.969756,383.039944 C252.468845,378.539033 246.364249,376.010525 239.999,376.0107 L239.999,376.0107 Z M239.999,422.0107 C227.848736,422.0107 217.999,412.160964 217.999,400.0107 C217.999,387.860436 227.848736,378.0107 239.999,378.0107 C252.149264,378.0107 261.999,387.860436 261.999,400.0107 C261.999048,405.845477 259.681213,411.441291 255.555402,415.567102 C251.429591,419.692913 245.833777,422.010748 239.999,422.0107 L239.999,422.0107 Z" id="Shape" fill="#DE7854"></path>
            <path d="M234.999,400.0107 C234.998859,400.27596 235.104171,400.530395 235.291738,400.717962 C235.479305,400.905529 235.73374,401.010841 235.999,401.0107 L243.999,401.0107 C244.551285,401.0107 244.999,400.562985 244.999,400.0107 C244.999,399.458415 244.551285,399.0107 243.999,399.0107 L235.999,399.0107 C235.73374,399.010559 235.479305,399.115871 235.291738,399.303438 C235.104171,399.491005 234.998859,399.74544 234.999,400.0107 L234.999,400.0107 L234.999,400.0107 Z" id="Shape" fill="#DE7854"></path>
            <path d="M237.999,404.0107 L232.999,404.0107 C230.789861,404.0107 228.999,402.219839 228.999,400.0107 C228.999,397.801561 230.789861,396.0107 232.999,396.0107 L237.999,396.0107 C238.010357,395.476866 237.803293,394.961533 237.42573,394.58397 C237.048167,394.206407 236.532834,393.999343 235.999,394.0107 L232.999,394.0107 C229.685292,394.0107 226.999,396.696992 226.999,400.0107 C226.999,403.324408 229.685292,406.0107 232.999,406.0107 L235.999,406.0107 C236.532794,406.021923 237.048049,405.814815 237.425582,405.437282 C237.803115,405.059749 238.010223,404.544494 237.999,404.0107 L237.999,404.0107 Z" id="Shape" fill="#DE7854"></path>
            <path d="M246.999,394.0107 L243.999,394.0107 C243.465127,393.999208 242.949715,394.20623 242.572122,394.583822 C242.19453,394.961415 241.987508,395.476827 241.999,396.0107 L246.999,396.0107 C249.208139,396.0107 250.999,397.801561 250.999,400.0107 C250.999,402.219839 249.208139,404.0107 246.999,404.0107 L241.999,404.0107 C241.987643,404.544534 242.194707,405.059867 242.57227,405.43743 C242.949833,405.814993 243.465166,406.022057 243.999,406.0107 C245.999,406.0097 246.999,406.0097 246.999,406.0107 C250.312708,406.0107 252.999,403.324408 252.999,400.0107 C252.999,396.696992 250.312708,394.0107 246.999,394.0107 L246.999,394.0107 Z" id="Shape" fill="#DE7854"></path>
            <path d="M720,376.0107 C706.745166,376.0107 696,386.755866 696,400.0107 C696,413.265534 706.745166,424.0107 720,424.0107 C733.254834,424.0107 744,413.265534 744,400.0107 C744.000196,393.645444 741.471695,387.540836 736.97078,383.03992 C732.469864,378.539005 726.365256,376.010504 720,376.0107 L720,376.0107 Z M720,422.0107 C707.849736,422.0107 698,412.160964 698,400.0107 C698,387.860436 707.849736,378.0107 720,378.0107 C732.150264,378.0107 742,387.860436 742,400.0107 C742.000048,405.845477 739.682213,411.441291 735.556402,415.567102 C731.430591,419.692913 725.834777,422.010748 720,422.0107 L720,422.0107 Z" id="Shape" fill="#A4B2B0"></path>
            <path d="M729,392.0107 C728.999614,392.562825 728.552125,393.010314 728,393.0107 L719,393.0107 C718.73474,393.010843 718.480302,392.905533 718.292735,392.717965 C718.105167,392.530398 717.999857,392.27596 718,392.0107 L718,392.0107 C717.999857,391.74544 718.105167,391.491002 718.292735,391.303435 C718.480302,391.115867 718.73474,391.010557 719,391.0107 L728,391.0107 C728.552125,391.011086 728.999614,391.458575 729,392.0107 L729,392.0107 L729,392.0107 Z" id="Shape" fill="#A4B2B0"></path>
            <path d="M728.707,391.3037 C728.894603,391.491157 729.00001,391.745492 729.00001,392.0107 C729.00001,392.275908 728.894603,392.530243 728.707,392.7177 L718.80658,402.6171 C718.619128,402.804713 718.364791,402.910127 718.09958,402.910127 C717.834369,402.910127 717.580032,402.804713 717.39258,402.6171 L717.39258,402.6171 C717.205021,402.429619 717.099644,402.175293 717.099644,401.9101 C717.099644,401.644907 717.205021,401.390581 717.39258,401.2031 L727.293,391.3037 C727.480452,391.116087 727.734789,391.010673 728,391.010673 C728.265211,391.010673 728.519548,391.116087 728.707,391.3037 L728.707,391.3037 L728.707,391.3037 Z" id="Shape" fill="#A4B2B0"></path>
            <path d="M728,391.0107 C728.552125,391.011086 728.999614,391.458575 729,392.0107 L729,401.0107 C728.999614,401.562825 728.552125,402.010314 728,402.0107 L728,402.0107 C727.73474,402.010843 727.480302,401.905533 727.292735,401.717965 C727.105167,401.530398 726.999857,401.27596 727,401.0107 L727,392.0107 C726.999857,391.74544 727.105167,391.491002 727.292735,391.303435 C727.480302,391.115867 727.73474,391.010557 728,391.0107 L728,391.0107 L728,391.0107 Z" id="Shape" fill="#A4B2B0"></path>
            <path d="M726.09958,402.9101 C726.111305,402.376508 725.904635,401.861267 725.527427,401.48368 C725.150218,401.106094 724.635184,400.898909 724.10158,400.9101 L724.10158,404.9111 C724.10048,405.462928 723.653408,405.91 723.10158,405.9111 L715.09958,405.9111 C714.547731,405.910049 714.100631,405.462949 714.09958,404.9111 L714.09958,396.9091 C714.10068,396.357272 714.547752,395.9102 715.09958,395.9091 L719.09958,395.9091 C719.110855,395.375381 718.903731,394.860196 718.526156,394.48281 C718.148581,394.105424 717.633293,393.898558 717.09958,393.9101 C715.09958,393.9101 715.09958,393.9091 715.09958,393.9091 C713.442918,393.909564 712.100044,395.252438 712.09958,396.9091 L712.09958,404.9111 C712.100044,406.567762 713.442918,407.910636 715.09958,407.9111 L723.10158,407.9111 C724.758242,407.910636 726.101116,406.567762 726.10158,404.9111 C726.10158,404.9111 726.09958,404.9101 726.09958,402.9101 L726.09958,402.9101 Z" id="Shape" fill="#A4B2B0"></path>
            <path d="M80.5854,242.4248 C80.3969892,242.237752 80.2910258,241.983241 80.2910258,241.71775 C80.2910258,241.452259 80.3969892,241.197748 80.5854,241.0107 L80.9995,241.0107 C81.1008933,240.829783 81.2921081,240.717751 81.4995,240.717751 C81.7068919,240.717751 81.8981067,240.829783 81.9995,241.0107 L89.7046,248.3037 C89.8930568,248.490703 89.9990539,248.745208 89.9990539,249.0107 C89.9990539,249.276192 89.8930568,249.530697 89.7046,249.7177 L89.7046,249.7177 C89.5171281,249.905314 89.2627761,250.010727 88.99755,250.010727 C88.7323239,250.010727 88.4779719,249.905314 88.2905,249.7177 L80.5854,242.4248 Z" id="Shape" fill="#DE7854"></path>
            <path d="M79.9995,216.0107 C66.744666,216.0107 55.9995,226.755866 55.9995,240.0107 C55.9995,253.265534 66.744666,264.0107 79.9995,264.0107 C93.254334,264.0107 103.9995,253.265534 103.9995,240.0107 C103.999675,233.645451 101.471167,227.540855 96.9702561,223.039944 C92.469345,218.539033 86.3647494,216.010525 79.9995,216.0107 L79.9995,216.0107 Z M79.9995,262.0107 C67.8492355,262.0107 57.9995,252.160964 57.9995,240.0107 C57.9995,227.860436 67.8492355,218.0107 79.9995,218.0107 C92.1497645,218.0107 101.9995,227.860436 101.9995,240.0107 C101.999545,245.845477 99.6817091,251.441289 95.555899,255.567099 C91.4300889,259.692909 85.8342766,262.010745 79.9995,262.0107 L79.9995,262.0107 Z" id="Shape" fill="#DE7854"></path>
            <path d="M76.9995,230.0107 C73.1335068,230.0107 69.9995,233.144707 69.9995,237.0107 C69.9995,240.876693 73.1335068,244.0107 76.9995,244.0107 C80.8654932,244.0107 83.9995,240.876693 83.9995,237.0107 C83.9997388,235.154111 83.2623175,233.373495 81.9495111,232.060689 C80.6367047,230.747882 78.8560886,230.010461 76.9995,230.0107 L76.9995,230.0107 Z M76.9995,242.0107 C74.9771888,242.0107 73.1540073,240.792489 72.3801023,238.924117 C71.6061973,237.055745 72.0339761,234.905156 73.4639661,233.475166 C74.8939561,232.045176 77.0445452,231.617397 78.9129172,232.391302 C80.7812891,233.165207 81.9995,234.988389 81.9995,237.0107 C81.9995928,238.336811 81.4728384,239.608634 80.5351364,240.546336 C79.5974344,241.484038 78.3256109,242.010793 76.9995,242.0107 L76.9995,242.0107 Z" id="Shape" fill="#DE7854"></path>
            <path d="M240.585,242.4248 C240.396542,242.237777 240.290546,241.983257 240.290546,241.71775 C240.290546,241.452243 240.396542,241.197723 240.585,241.0107 L240.999,241.0107 C241.100393,240.829783 241.291608,240.717751 241.499,240.717751 C241.706392,240.717751 241.897607,240.829783 241.999,241.0107 L249.70409,248.3037 C249.892547,248.490703 249.998544,248.745208 249.998544,249.0107 C249.998544,249.276192 249.892547,249.530697 249.70409,249.7177 L249.70409,249.7177 C249.516619,249.905311 249.262269,250.010722 248.997045,250.010722 C248.731821,250.010722 248.477471,249.905311 248.29,249.7177 L240.585,242.4248 Z" id="Shape" fill="#FFFFFF"></path>
            <path d="M239.999,216.0107 C226.744166,216.0107 215.999,226.755866 215.999,240.0107 C215.999,253.265534 226.744166,264.0107 239.999,264.0107 C253.253834,264.0107 263.999,253.265534 263.999,240.0107 C263.999175,233.645451 261.470667,227.540855 256.969756,223.039944 C252.468845,218.539033 246.364249,216.010525 239.999,216.0107 L239.999,216.0107 Z M239.999,262.0107 C227.848736,262.0107 217.999,252.160964 217.999,240.0107 C217.999,227.860436 227.848736,218.0107 239.999,218.0107 C252.149264,218.0107 261.999,227.860436 261.999,240.0107 C261.999048,245.845477 259.681213,251.441291 255.555402,255.567102 C251.429591,259.692913 245.833777,262.010748 239.999,262.0107 L239.999,262.0107 Z" id="Shape" fill="#FFFFFF"></path>
            <path d="M236.999,230.0107 C233.133007,230.0107 229.999,233.144707 229.999,237.0107 C229.999,240.876693 233.133007,244.0107 236.999,244.0107 C240.864993,244.0107 243.999,240.876693 243.999,237.0107 C243.999241,235.154111 243.261821,233.373493 241.949014,232.060686 C240.636207,230.747879 238.855589,230.010459 236.999,230.0107 L236.999,230.0107 Z M236.999,242.0107 C234.237576,242.0107 231.999,239.772124 231.999,237.0107 C231.999,234.249276 234.237576,232.0107 236.999,232.0107 C239.760424,232.0107 241.999,234.249276 241.999,237.0107 C241.999095,238.336812 241.472342,239.608637 240.534639,240.546339 C239.596937,241.484042 238.325112,242.010795 236.999,242.0107 L236.999,242.0107 Z" id="Shape" fill="#FFFFFF"></path>
            <path d="M556.80659,570.5058 C556.61935,570.693812 556.364934,570.799501 556.09959,570.799501 C555.834246,570.799501 555.57983,570.693812 555.39259,570.5058 L555.39259,570.5058 C555.205028,570.31832 555.09965,570.063994 555.09965,569.7988 C555.09965,569.533606 555.205028,569.27928 555.39259,569.0918 L565.291,559.1933 C565.478494,559.00573 565.732835,558.900348 565.998045,558.900348 C566.263255,558.900348 566.517596,559.00573 566.70509,559.1933 L566.70509,559.1933 C566.893545,559.380324 566.99954,559.634844 566.99954,559.90035 C566.99954,560.165856 566.893545,560.420376 566.70509,560.6074 L556.80659,570.5058 Z" id="Shape" fill="#5AADAA"></path>
            <path d="M555.39259,550.707 C555.205027,550.519501 555.09965,550.265159 555.09965,549.99995 C555.09965,549.734741 555.205027,549.480399 555.39259,549.2929 L555.39259,549.2929 C555.580067,549.105333 555.834394,548.999952 556.09959,548.999952 C556.364786,548.999952 556.619113,549.105333 556.80659,549.2929 L566.70509,559.1933 C566.893545,559.380324 566.99954,559.634844 566.99954,559.90035 C566.99954,560.165856 566.893545,560.420376 566.70509,560.6074 L566.70509,560.6074 C566.517596,560.79497 566.263255,560.900352 565.998045,560.900352 C565.732835,560.900352 565.478494,560.79497 565.291,560.6074 L555.39259,550.707 Z" id="Shape" fill="#5AADAA"></path>
            <path d="M560,536 C546.745166,536 536,546.745166 536,560 C536,573.254834 546.745166,584 560,584 C573.254834,584 584,573.254834 584,560 C584.000194,553.634745 581.471692,547.530138 576.970777,543.029223 C572.469862,538.528308 566.365255,535.999806 560,536 L560,536 Z M560,582 C547.849736,582 538,572.150264 538,560 C538,547.849736 547.849736,538 560,538 C572.150264,538 582,547.849736 582,560 C582.000032,565.834773 579.682192,571.430577 575.556384,575.556384 C571.430577,579.682192 565.834773,582.000032 560,582 L560,582 Z" id="Shape" fill="#5AADAA"></path>
            <path d="M403.19139,549.4941 C403.37865,549.306087 403.633081,549.200399 403.89844,549.200399 C404.163799,549.200399 404.41823,549.306087 404.60549,549.4941 L404.60549,549.4941 C404.793058,549.681597 404.898438,549.935939 404.898438,550.20115 C404.898438,550.466361 404.793058,550.720703 404.60549,550.9082 L394.707,560.8066 C394.519523,560.994167 394.265196,561.099548 394,561.099548 C393.734804,561.099548 393.480477,560.994167 393.293,560.8066 L393.293,560.8066 C393.105383,560.619129 392.999969,560.364777 392.999969,560.09955 C392.999969,559.834323 393.105383,559.579971 393.293,559.3925 L403.19139,549.4941 Z" id="Shape" fill="#5AADAA"></path>
            <path d="M404.60549,569.2929 C404.793483,569.480171 404.899157,569.734598 404.899157,569.99995 C404.899157,570.265302 404.793483,570.519729 404.60549,570.707 L404.60549,570.707 C404.417993,570.894568 404.163651,570.999948 403.89844,570.999948 C403.633229,570.999948 403.378887,570.894568 403.19139,570.707 L393.293,560.8066 C393.105383,560.619129 392.999969,560.364777 392.999969,560.09955 C392.999969,559.834323 393.105383,559.579971 393.293,559.3925 L393.293,559.3925 C393.480477,559.204933 393.734804,559.099552 394,559.099552 C394.265196,559.099552 394.519523,559.204933 394.707,559.3925 L404.60549,569.2929 Z" id="Shape" fill="#5AADAA"></path>
            <path d="M400,584 C413.254834,584 424,573.254834 424,560 C424,546.745166 413.254834,536 400,536 C386.745166,536 376,546.745166 376,560 C376.000348,573.25469 386.74531,583.999652 400,584 L400,584 Z M400,538 C412.150264,538 422,547.849736 422,560 C422,572.150264 412.150264,582 400,582 C387.849736,582 378,572.150264 378,560 C377.999955,554.165223 380.317791,548.569411 384.443601,544.443601 C388.569411,540.317791 394.165223,537.999955 400,538 L400,538 Z" id="Shape" fill="#5AADAA"></path>
            <path d="M235.75589,730.6171 C235.56863,730.805113 235.314199,730.910801 235.04884,730.910801 C234.783481,730.910801 234.52905,730.805113 234.34179,730.6171 L234.34179,730.6171 C234.154223,730.429623 234.048842,730.175296 234.048842,729.9101 C234.048842,729.644904 234.154223,729.390577 234.34179,729.2031 L244.24019,719.3046 C244.427687,719.117032 244.682029,719.011652 244.94724,719.011652 C245.212451,719.011652 245.466793,719.117032 245.65429,719.3046 L245.65429,719.3046 C245.842745,719.491624 245.94874,719.746144 245.94874,720.01165 C245.94874,720.277156 245.842745,720.531676 245.65429,720.7187 L235.75589,730.6171 Z" id="Shape" fill="#5AADAA"></path>
            <path d="M234.34179,710.8183 C234.154223,710.630823 234.048842,710.376496 234.048842,710.1113 C234.048842,709.846104 234.154223,709.591777 234.34179,709.4043 L234.34179,709.4043 C234.529262,709.216686 234.783614,709.111273 235.04884,709.111273 C235.314066,709.111273 235.568418,709.216686 235.75589,709.4043 L245.65429,719.3046 C245.842745,719.491624 245.94874,719.746144 245.94874,720.01165 C245.94874,720.277156 245.842745,720.531676 245.65429,720.7187 L245.65429,720.7187 C245.466793,720.906268 245.212451,721.011648 244.94724,721.011648 C244.682029,721.011648 244.427687,720.906268 244.24019,720.7187 L234.34179,710.8183 Z" id="Shape" fill="#5AADAA"></path>
            <path d="M84.2412,709.4043 C84.4286732,709.216688 84.6830247,709.111277 84.94825,709.111277 C85.2134753,709.111277 85.4678268,709.216688 85.6553,709.4043 L85.6553,709.4043 C85.8428666,709.591777 85.948248,709.846104 85.948248,710.1113 C85.948248,710.376496 85.8428666,710.630823 85.6553,710.8183 L75.7568,720.7168 C75.569323,720.904367 75.3149959,721.009748 75.0498,721.009748 C74.7846041,721.009748 74.530277,720.904367 74.3428,720.7168 L74.3428,720.7168 C74.155188,720.529327 74.0497771,720.274975 74.0497771,720.00975 C74.0497771,719.744525 74.155188,719.490173 74.3428,719.3027 L84.2412,709.4043 Z" id="Shape" fill="#5AADAA"></path>
            <path d="M85.6553,729.2031 C85.8433117,729.39034 85.9490007,729.644756 85.9490007,729.9101 C85.9490007,730.175444 85.8433117,730.42986 85.6553,730.6171 L85.6553,730.6171 C85.4678268,730.804712 85.2134753,730.910123 84.94825,730.910123 C84.6830247,730.910123 84.4286732,730.804712 84.2412,730.6171 L74.3428,720.7168 C74.155188,720.529327 74.0497771,720.274975 74.0497771,720.00975 C74.0497771,719.744525 74.155188,719.490173 74.3428,719.3027 L74.3428,719.3027 C74.530277,719.115133 74.7846041,719.009752 75.0498,719.009752 C75.3149959,719.009752 75.569323,719.115133 75.7568,719.3027 L85.6553,729.2031 Z" id="Shape" fill="#5AADAA"></path>
            <path d="M79.9995,536 C66.744666,536 55.9995,546.745166 55.9995,560 C55.9995,573.254834 66.744666,584 79.9995,584 C93.254334,584 103.9995,573.254834 103.9995,560 C103.998837,546.745441 93.2540595,536.000663 79.9995,536 L79.9995,536 Z M79.9995,582 C67.8492355,582 57.9995,572.150264 57.9995,560 C57.9995,547.849736 67.8492355,538 79.9995,538 C92.1497645,538 101.9995,547.849736 101.9995,560 C101.999529,565.834772 99.6816881,571.430575 95.5558814,575.556381 C91.4300748,579.682188 85.8342717,582.000029 79.9995,582 L79.9995,582 Z" id="Shape" fill="#5AADAA"></path>
            <path d="M79.9995,584 C93.254334,584 103.9995,573.254834 103.9995,560 C103.9995,546.745166 93.254334,536 79.9995,536 C66.744666,536 55.9995,546.745166 55.9995,560 C55.9991552,566.365301 58.5276086,572.469996 63.0285565,576.970944 C67.5295043,581.471891 73.6341985,584.000345 79.9995,584 L79.9995,584 Z M79.9995,538 C92.1497645,538 101.9995,547.849736 101.9995,560 C101.9995,572.150264 92.1497645,582 79.9995,582 C67.8492355,582 57.9995,572.150264 57.9995,560 C57.9994523,554.165223 60.3172874,548.569409 64.4430981,544.443598 C68.5689088,540.317787 74.1647226,537.999952 79.9995,538 L79.9995,538 Z" id="Shape" fill="#5AADAA"></path>
            <path d="M77.9077,570.705 C77.7206969,570.893457 77.4661922,570.999454 77.2007,570.999454 C76.9352078,570.999454 76.6807031,570.893457 76.4937,570.705 L76.4937,570.705 C76.3060868,570.517548 76.2006732,570.263211 76.2006732,569.998 C76.2006732,569.732789 76.3060868,569.478452 76.4937,569.291 L92.2925,553.4921 C92.479977,553.304533 92.7343041,553.199152 92.9995,553.199152 C93.2646959,553.199152 93.519023,553.304533 93.7065,553.4921 L93.7065,553.4921 C93.894112,553.679573 93.9995229,553.933925 93.9995229,554.19915 C93.9995229,554.464375 93.894112,554.718727 93.7065,554.9062 L77.9077,570.705 Z" id="Shape" fill="#5AADAA"></path>
            <path d="M79.9995,536 C66.744666,536 55.9995,546.745166 55.9995,560 C55.9995,573.254834 66.744666,584 79.9995,584 C93.254334,584 103.9995,573.254834 103.9995,560 C103.998837,546.745441 93.2540595,536.000663 79.9995,536 L79.9995,536 Z M79.9995,582 C67.8492355,582 57.9995,572.150264 57.9995,560 C57.9995,547.849736 67.8492355,538 79.9995,538 C92.1497645,538 101.9995,547.849736 101.9995,560 C101.999529,565.834772 99.6816881,571.430575 95.5558814,575.556381 C91.4300748,579.682188 85.8342717,582.000029 79.9995,582 L79.9995,582 Z" id="Shape" fill="#5AADAA"></path>
            <path d="M77.8081,569.2929 C77.9956678,569.480397 78.1010483,569.734739 78.1010483,569.99995 C78.1010483,570.265161 77.9956678,570.519503 77.8081,570.707 L77.8081,570.707 C77.6206034,570.894568 77.3662606,570.999948 77.10105,570.999948 C76.8358394,570.999948 76.5814966,570.894568 76.394,570.707 L66.4956,560.8066 C66.3071446,560.619576 66.2011503,560.365056 66.2011503,560.09955 C66.2011503,559.834044 66.3071446,559.579524 66.4956,559.3925 L66.4956,559.3925 C66.6830966,559.204932 66.9374394,559.099552 67.20265,559.099552 C67.4678606,559.099552 67.7222034,559.204932 67.9097,559.3925 L77.8081,569.2929 Z" id="Shape" fill="#5AADAA"></path>
            <path d="M79.9995,584 C93.254334,584 103.9995,573.254834 103.9995,560 C103.9995,546.745166 93.254334,536 79.9995,536 C66.744666,536 55.9995,546.745166 55.9995,560 C55.9991552,566.365301 58.5276086,572.469996 63.0285565,576.970944 C67.5295043,581.471891 73.6341985,584.000345 79.9995,584 L79.9995,584 Z M79.9995,538 C92.1497645,538 101.9995,547.849736 101.9995,560 C101.9995,572.150264 92.1497645,582 79.9995,582 C67.8492355,582 57.9995,572.150264 57.9995,560 C57.9994523,554.165223 60.3172874,548.569409 64.4430981,544.443598 C68.5689088,540.317787 74.1647226,537.999952 79.9995,538 L79.9995,538 Z" id="Shape" fill="#5AADAA"></path>
            <path d="M880,216.0107 C866.745166,216.0107 856,226.755866 856,240.0107 C856,253.265534 866.745166,264.0107 880,264.0107 C893.254834,264.0107 904,253.265534 904,240.0107 C903.999702,226.75599 893.25471,216.010998 880,216.0107 L880,216.0107 Z M880,262.0107 C867.849736,262.0107 858,252.160964 858,240.0107 C858,227.860436 867.849736,218.0107 880,218.0107 C892.150264,218.0107 902,227.860436 902,240.0107 C902.00005,245.845478 899.682216,251.441294 895.556405,255.567105 C891.430594,259.692916 885.834778,262.01075 880,262.0107 L880,262.0107 Z" id="Shape" fill="#DE7854"></path>
            <path d="M880,230.6621 C880.192407,230.653249 880.383743,230.695333 880.55468,230.7841 L889.22658,236.5654 C889.656172,236.933402 889.932147,237.449121 890,238.0107 L890,247.0107 L870,247.0107 L870,238.0107 C870.067836,237.449125 870.343798,236.933405 870.77338,236.5654 L879.44528,230.7832 C879.616628,230.695613 879.807739,230.653892 880,230.6621 L880,230.6621 Z M880,228.6621 C879.412675,228.650633 878.834627,228.809724 878.33588,229.1201 L869.66408,234.9013 C868.678943,235.64247 868.070222,236.779889 868,238.0107 L868,247.0107 C868.003502,248.113816 868.896884,249.007198 870,249.0107 L890,249.0107 C891.103109,249.007181 891.996481,248.113809 892,247.0107 L892,238.0107 C891.93065,236.779634 891.321727,235.641866 890.33588,234.9013 L881.66408,229.1201 C881.165348,228.809723 880.587312,228.650632 880,228.6621 L880,228.6621 L880,228.6621 Z" id="Shape" fill="#DE7854"></path>
            <path d="M880,244.0107 C879.84474,244.010605 879.69162,243.974491 879.55268,243.9052 L871.55268,239.9052 C871.058661,239.658163 870.858443,239.057419 871.10548,238.5634 C871.352517,238.069381 871.953261,237.869163 872.44728,238.1162 L880,241.8916 L887.55268,238.1162 C888.046699,237.869163 888.647443,238.069381 888.89448,238.5634 C889.141517,239.057419 888.941299,239.658163 888.44728,239.9052 L880.44728,243.9052 C880.308431,243.974703 880.155273,244.010828 880,244.0107 L880,244.0107 Z" id="Shape" fill="#DE7854"></path>
            <path d="M560,216.0107 C546.745166,216.0107 536,226.755866 536,240.0107 C536,253.265534 546.745166,264.0107 560,264.0107 C573.254834,264.0107 584,253.265534 584,240.0107 C583.999696,226.755992 573.254708,216.011004 560,216.0107 L560,216.0107 Z M560,262.0107 C547.849736,262.0107 538,252.160964 538,240.0107 C538,227.860436 547.849736,218.0107 560,218.0107 C572.150264,218.0107 582,227.860436 582,240.0107 C582.000048,245.845477 579.682213,251.441291 575.556402,255.567102 C571.430591,259.692913 565.834777,262.010748 560,262.0107 L560,262.0107 Z" id="Shape" fill="#A4B2B0"></path>
            <path d="M560,230.6621 C560.192411,230.653249 560.38375,230.695332 560.55469,230.7841 L569.22659,236.5654 C569.656183,236.9334 569.932156,237.449121 570,238.0107 L570,247.0107 L550,247.0107 L550,238.0107 C550.067839,237.449123 550.343804,236.933403 550.77339,236.5654 L559.44529,230.7832 C559.616635,230.695614 559.807742,230.653893 560,230.6621 L560,230.6621 Z M560,228.6621 C559.412678,228.650633 558.834633,228.809724 558.33589,229.1201 L549.66409,234.9013 C548.678948,235.642467 548.070224,236.779887 548,238.0107 L548,247.0107 C548.003508,248.113813 548.896887,249.007192 550,249.0107 L570,249.0107 C571.103109,249.007181 571.996481,248.113809 572,247.0107 L572,238.0107 C571.930649,236.779637 571.321731,235.64187 570.33589,234.9013 L561.66409,229.1201 C561.165355,228.809723 560.587315,228.650632 560,228.6621 L560,228.6621 L560,228.6621 Z" id="Shape" fill="#A4B2B0"></path>
            <path d="M560,244.0107 C559.844744,244.010604 559.691627,243.97449 559.55269,243.9052 L551.55269,239.9052 C551.058671,239.658163 550.858453,239.057419 551.10549,238.5634 C551.352527,238.069381 551.953271,237.869163 552.44729,238.1162 L560,241.8916 L567.55269,238.1162 C568.046709,237.869163 568.647453,238.069381 568.89449,238.5634 C569.141527,239.057419 568.941309,239.658163 568.44729,239.9052 L560.44729,243.9052 C560.308438,243.974704 560.155276,244.01083 560,244.0107 L560,244.0107 Z" id="Shape" fill="#A4B2B0"></path>
            <path d="M720,536 C706.745166,536 696,546.745166 696,560 C696,573.254834 706.745166,584 720,584 C733.254834,584 744,573.254834 744,560 C744.000027,553.634796 741.471471,547.530287 736.970592,543.029408 C732.469713,538.528529 726.365204,535.999973 720,536 L720,536 Z M720,582 C707.849736,582 698,572.150264 698,560 C698,547.849736 707.849736,538 720,538 C732.150264,538 742,547.849736 742,560 C742.000032,565.834773 739.682192,571.430577 735.556384,575.556384 C731.430577,579.682192 725.834773,582.000032 720,582 L720,582 Z" id="Shape" fill="#A4B2B0"></path>
            <path d="M724.40428,555.8164 L724.17188,555.7128 C723.768929,555.533952 723.347869,555.399072 722.916,555.3105 C722.412034,555.214239 721.899729,555.168446 721.38668,555.1738 C720.395821,555.154952 719.412753,555.352228 718.50588,555.7519 C717.717456,556.104512 717.007046,556.610428 716.416,557.2402 C715.865987,557.834432 715.436207,558.529519 715.15038,559.2871 C714.873569,560.005185 714.729301,560.767524 714.72458,561.5371 C714.721118,562.021697 714.786237,562.504347 714.918,562.9707 C715.038236,563.402471 715.244114,563.805638 715.52338,564.1562 C715.798426,564.496811 716.148789,564.76892 716.54688,564.9511 C716.996227,565.149334 717.483559,565.246684 717.97458,565.2363 C718.657197,565.239403 719.330507,565.077944 719.93748,564.7656 C720.433903,564.499512 720.874776,564.140819 721.23628,563.7089 C721.377275,564.112152 721.63076,564.466615 721.96678,564.7304 C722.481208,565.099167 723.103801,565.286103 723.73628,565.2617 C724.466008,565.265501 725.185555,565.090466 725.832,564.7519 C726.47976,564.41021 727.048668,563.936483 727.502,563.3613 C727.988845,562.740421 728.361774,562.038157 728.60348,561.2871 C728.873134,560.451207 729.007007,559.577483 729,558.6992 C729.006944,557.832434 728.891224,556.969045 728.65628,556.1347 C728.440904,555.375199 728.117965,554.650422 727.69728,553.9824 C727.289454,553.343245 726.792969,552.765213 726.22268,552.2656 C725.654382,551.771968 725.025643,551.352574 724.35158,551.0175 C723.668019,550.679615 722.946823,550.423932 722.20308,550.2558 C720.557375,549.879743 718.844066,549.917986 717.21678,550.3671 C716.380519,550.606066 715.578875,550.952738 714.832,551.3984 C714.094389,551.839751 713.418587,552.377004 712.82228,552.9961 C710.957786,554.924192 709.918674,557.503369 709.92578,560.1855 C709.902334,561.679308 710.175156,563.162952 710.72848,564.5507 C711.230358,565.785847 711.987053,566.90128 712.94918,567.8242 C713.910286,568.724463 715.044672,569.419555 716.28318,569.8671 C717.606731,570.345509 719.004761,570.58493 720.41208,570.5742 C721.7489,570.590965 723.0811,570.413994 724.36718,570.0488 C725.47557,569.724099 726.528965,569.23492 727.49218,568.5976 L727.68948,568.4648 L727.28908,567.4082 C727.195807,567.120083 726.927837,566.924618 726.625,566.9238 C726.449985,566.929732 726.279862,566.983062 726.13278,567.0781 C725.366112,567.524093 724.543904,567.866889 723.68748,568.0976 C722.619057,568.380048 721.517098,568.515429 720.41208,568.5 C719.308288,568.507772 718.211237,568.32746 717.168,567.9668 C715.174717,567.284901 713.581069,565.762655 712.80858,563.8027 C712.356719,562.651379 712.137005,561.422064 712.16208,560.1855 C712.151753,559.077829 712.356717,557.978701 712.76558,556.9492 C713.145593,555.995575 713.705967,555.124194 714.416,554.3828 C715.114193,553.661306 715.947781,553.084542 716.86908,552.6855 C718.709377,551.946779 720.750628,551.877659 722.63668,552.4902 C723.442259,552.746425 724.185384,553.168211 724.81838,553.7285 C725.447211,554.301839 725.942004,555.006677 726.26758,555.7929 C726.639826,556.715698 726.82121,557.70436 726.80078,558.6992 C726.806711,559.340853 726.727896,559.98048 726.56638,560.6015 C726.434928,561.112662 726.224748,561.60026 725.94338,562.0468 C725.717233,562.405071 725.417677,562.711308 725.06448,562.9453 C724.626557,563.223614 724.094963,563.313733 723.58978,563.1953 C723.470112,563.166368 723.359007,563.10948 723.26558,563.0293 C723.16438,562.934633 723.087952,562.816582 723.043,562.6855 C722.973637,562.480649 722.941853,562.264952 722.94918,562.0488 C722.967089,561.549991 723.043786,561.055036 723.17768,560.5742 L724.40428,555.8164 Z M718.41208,563.1621 C718.03318,563.191691 717.664095,563.032351 717.42578,562.7363 C717.174353,562.365224 717.050903,561.922228 717.07418,561.4746 C717.075767,560.934005 717.177069,560.398342 717.373,559.8945 C717.565155,559.391607 717.844869,558.926726 718.19918,558.5214 C718.551704,558.123702 718.977395,557.797482 719.45308,557.5605 C719.945244,557.316962 720.48799,557.193165 721.03708,557.1992 C721.268369,557.198367 721.499422,557.21404 721.72848,557.2461 L720.85938,560.623 C720.751434,561.06775 720.58735,561.496962 720.37108,561.9003 C720.214017,562.190168 720.007822,562.450568 719.76168,562.6699 C719.569607,562.839092 719.345894,562.968521 719.10348,563.0507 C718.879932,563.122413 718.646839,563.15997 718.41208,563.1621 L718.41208,563.1621 Z" id="Shape" fill="#A4B2B0"></path>
            <path d="M880,376.0107 C866.745166,376.0107 856,386.755866 856,400.0107 C856,413.265534 866.745166,424.0107 880,424.0107 C893.254834,424.0107 904,413.265534 904,400.0107 C904.000196,393.645444 901.471695,387.540836 896.97078,383.03992 C892.469864,378.539005 886.365256,376.010504 880,376.0107 L880,376.0107 Z M880,422.0107 C867.849736,422.0107 858,412.160964 858,400.0107 C858,387.860436 867.849736,378.0107 880,378.0107 C892.150264,378.0107 902,387.860436 902,400.0107 C902.00005,405.845478 899.682216,411.441294 895.556405,415.567105 C891.430594,419.692916 885.834778,422.01075 880,422.0107 L880,422.0107 Z" id="Shape" fill="#A4B2B0"></path>
            <path d="M879.998,388.7627 C880.087775,388.758494 880.176792,388.780898 880.25388,388.8271 L889.18158,396.2666 C889.640581,396.740669 889.927948,397.354563 889.998,398.0107 L889.998,408.0107 L885,408.0107 L885,402.0107 C884.997493,399.8026 883.2081,398.013207 881,398.0107 L879,398.0107 C876.791896,398.013196 875.002496,399.802596 875,402.0107 L875,408.0107 L869.998,408.0107 L869.998,398.0107 C870.068074,397.354557 870.355461,396.740664 870.81448,396.2666 L879.74218,388.8271 C879.819496,388.781503 879.908311,388.759144 879.998,388.7627 L879.998,388.7627 Z M879.998,386.7627 C879.440454,386.755088 878.897661,386.941886 878.46288,387.291 L869.53518,394.7304 C868.619234,395.584903 868.068554,396.760038 867.998,398.0107 L867.998,408.0107 C868.001502,409.113816 868.894884,410.007198 869.998,410.0107 L875,410.0107 C876.103109,410.007181 876.996481,409.113809 877,408.0107 L877,402.0107 C877.003502,400.907584 877.896884,400.014202 879,400.0107 L881,400.0107 C882.103109,400.014219 882.996481,400.907591 883,402.0107 L883,408.0107 C883.003502,409.113816 883.896884,410.007198 885,410.0107 L889.998,410.0107 C891.101122,410.007214 891.994514,409.113822 891.998,408.0107 L891.998,398.0107 C891.927323,396.760501 891.377511,395.585644 890.46288,394.7304 L881.53518,387.291 C881.099627,386.941838 880.556178,386.755064 879.998,386.7627 L879.998,386.7627 L879.998,386.7627 Z" id="Shape" fill="#A4B2B0"></path>
            <path d="M875.998,391.0107 L875.998,390.0058 C875.992756,388.906498 875.103179,388.016484 874.00388,388.0107 L871.99408,388.0107 C870.892995,388.01677 870.002806,388.909602 870,390.0107 L870,395.0107 L870,395.0107 L872,393.6777 L872,390.0107 L874,390.0107 L874,392.3447 L875.998,391.0107 Z" id="Shape" fill="#A4B2B0"></path>
            <path d="M400,1064.0107 C413.254834,1064.0107 424,1053.26553 424,1040.0107 C424,1026.75587 413.254834,1016.0107 400,1016.0107 C386.745166,1016.0107 376,1026.75587 376,1040.0107 C375.999809,1046.37595 378.528312,1052.48056 383.029226,1056.98147 C387.530141,1061.48239 393.634746,1064.01089 400,1064.0107 L400,1064.0107 Z M400,1018.0107 C412.150264,1018.0107 422,1027.86044 422,1040.0107 C422,1052.16096 412.150264,1062.0107 400,1062.0107 C387.849736,1062.0107 378,1052.16096 378,1040.0107 C377.999955,1034.17592 380.317791,1028.58011 384.443601,1024.4543 C388.569411,1020.32849 394.165223,1018.01065 400,1018.0107 L400,1018.0107 Z" id="Shape" fill="#A4B2B0"></path>
            <path d="M400.29689,1025.9951 C397.379501,1025.99508 394.581594,1027.15399 392.518689,1029.2169 C390.455784,1031.2798 389.296866,1034.07771 389.29689,1036.9951 C389.29689,1044.9951 399.29689,1054.9951 400.29689,1054.9951 C401.29689,1054.9951 411.29689,1044.9951 411.29689,1036.9951 C411.297238,1034.07761 410.138424,1031.27952 408.075448,1029.21654 C406.012473,1027.15357 403.214378,1025.99475 400.29689,1025.9951 L400.29689,1025.9951 Z M400.29689,1041.9951 C397.535466,1041.9951 395.29689,1039.75652 395.29689,1036.9951 C395.29689,1034.23368 397.535466,1031.9951 400.29689,1031.9951 C403.058314,1031.9951 405.29689,1034.23368 405.29689,1036.9951 C405.29673,1039.75646 403.058247,1041.99494 400.29689,1041.9951 L400.29689,1041.9951 Z" id="Shape" fill="#A4B2B0"></path>
            <path d="M880,536 C866.745166,536 856,546.745166 856,560 C856,573.254834 866.745166,584 880,584 C893.254834,584 904,573.254834 904,560 C903.999702,546.74529 893.25471,536.000298 880,536 L880,536 Z M880,582 C867.849736,582 858,572.150264 858,560 C858,547.849736 867.849736,538 880,538 C892.150264,538 902,547.849736 902,560 C902.000032,565.834773 899.682192,571.430577 895.556384,575.556384 C891.430577,579.682192 885.834773,582.000032 880,582 L880,582 Z" id="Shape" fill="#A4B2B0"></path>
            <path d="M890,554.0107 L870,554.0107 C869.472784,554.006249 868.965494,554.211906 868.590214,554.582232 C868.214934,554.952559 868.002555,555.457071 868,555.9843 L868,567 C868.002648,568.105213 868.894817,569.002155 870,569.0107 L890,569.0107 C891.105178,569.002144 891.997341,568.105208 892,567 L892,555.9843 C891.997437,555.457074 891.785055,554.952566 891.409777,554.582241 C891.034499,554.211917 890.527214,554.006257 890,554.0107 L890,554.0107 Z M888.37108,567.0107 L870,567.0107 L870,556.0107 L890,556.0107 L890,567.0107 L888.37108,567.0107 L888.37108,567.0107 Z" id="Shape" fill="#A4B2B0"></path>
            <path d="M883,560.0107 C882.998238,560.562253 882.551553,561.008938 882,561.0107 L874,561.0107 C873.448735,561.008247 873.002453,560.561965 873,560.0107 L873,560.0107 C873.001746,559.45914 873.44844,559.012446 874,559.0107 L882,559.0107 C882.551847,559.011757 882.998943,559.458853 883,560.0107 L883,560.0107 L883,560.0107 Z" id="Shape" fill="#A4B2B0"></path>
            <path d="M880,564.0107 C879.998238,564.562253 879.551553,565.008938 879,565.0107 L874,565.0107 C873.448735,565.008247 873.002453,564.561965 873,564.0107 L873,564.0107 C873.001746,563.45914 873.44844,563.012446 874,563.0107 L879,563.0107 C879.551847,563.011757 879.998943,563.458853 880,564.0107 L880,564.0107 L880,564.0107 Z" id="Shape" fill="#A4B2B0"></path>
            <path d="M888,560.9843 C888.000338,561.541076 887.556595,561.996533 887,562.0107 L886,562.0107 C885.443708,561.995838 885.000365,561.54079 885,560.9843 L885,558.9843 C885.001913,558.722077 885.108736,558.471537 885.296624,558.288609 C885.484512,558.105682 885.73782,558.005598 886,558.0107 L887,558.0107 C887.262275,558.005268 887.515773,558.105244 887.703734,558.288242 C887.891694,558.47124 887.998415,558.721974 888,558.9843 L888,560.9843 L888,560.9843 Z" id="Shape" fill="#A4B2B0"></path>
            <rect id="Rectangle-path" fill="#A4B2B0" x="79" y="1036.0107" width="2" height="4"></rect>
            <rect id="Rectangle-path" fill="#A4B2B0" transform="translate(78.098136, 1039.475596) rotate(-72.025260) translate(-78.098136, -1039.475596) " x="77.0979762" y="1037.47581" width="2.00032" height="3.99957"></rect>
            <rect id="Rectangle-path" fill="#A4B2B0" transform="translate(78.825219, 1041.711775) rotate(-54.012630) translate(-78.825219, -1041.711775) " x="76.8250044" y="1040.71126" width="4.00043" height="2.00104"></rect>
            <rect id="Rectangle-path" fill="#A4B2B0" transform="translate(81.176206, 1041.711903) rotate(-35.987370) translate(-81.176206, -1041.711903) " x="80.1760906" y="1039.71195" width="2.00023" height="3.9999"></rect>
            <rect id="Rectangle-path" fill="#A4B2B0" transform="translate(81.902399, 1039.475529) rotate(-17.974740) translate(-81.902399, -1039.475529) " x="79.9021389" y="1038.47552" width="4.00052" height="2.00002"></rect>
            <path d="M79.9995,376.0107 C66.744666,376.0107 55.9995,386.755866 55.9995,400.0107 C55.9995,413.265534 66.744666,424.0107 79.9995,424.0107 C93.254334,424.0107 103.9995,413.265534 103.9995,400.0107 C103.998837,386.756141 93.2540595,376.011363 79.9995,376.0107 L79.9995,376.0107 Z M79.9995,422.0107 C67.8492355,422.0107 57.9995,412.160964 57.9995,400.0107 C57.9995,387.860436 67.8492355,378.0107 79.9995,378.0107 C92.1497645,378.0107 101.9995,387.860436 101.9995,400.0107 C101.999545,405.845477 99.6817091,411.441289 95.555899,415.567099 C91.4300889,419.692909 85.8342766,422.010745 79.9995,422.0107 L79.9995,422.0107 Z" id="Shape" fill="#5AADAA"></path>
            <path d="M85.9995,409.3603 C82.5545881,409.356789 79.7628112,406.565012 79.7593,403.1201 C79.7573,403.0595 79.6069,394.2197 87.9624,390.7412 C88.3798987,390.566704 88.8623226,390.682503 89.1551239,391.027498 C89.4479251,391.372493 89.4837518,391.867326 89.2437,392.2509 C88.4172524,393.756631 87.8182917,395.376427 87.4663,397.0576 C90.5383116,397.799857 92.5699772,400.722086 92.1958243,403.860272 C91.8216714,406.998458 89.1599114,409.361109 85.9995,409.3603 L85.9995,409.3603 Z M86.1206,394.1865 C83.4641883,396.388942 81.900761,399.640654 81.8394,403.0908 C81.8197653,405.37141 83.6399663,407.242657 85.920247,407.286091 C88.2005277,407.329526 90.0906688,405.528952 90.157898,403.249249 C90.2251271,400.969546 88.4443775,399.060717 86.1655,398.9697 C85.8599116,398.957979 85.5749721,398.812348 85.3864684,398.571541 C85.1979647,398.330734 85.1250069,398.019164 85.187,397.7197 C85.4295857,396.524897 85.7413098,395.34518 86.1206,394.1865 L86.1206,394.1865 Z" id="Shape" fill="#5AADAA"></path>
            <path d="M71.9995,409.3603 C68.5548824,409.356079 65.7635206,406.564718 65.7593,403.1201 C65.7573,403.0595 65.6069,394.2197 73.9624,390.7412 C74.3798987,390.566704 74.8623226,390.682503 75.1551239,391.027498 C75.4479251,391.372493 75.4837518,391.867326 75.2437,392.2509 C74.4172524,393.756631 73.8182917,395.376427 73.4663,397.0576 C76.5383116,397.799857 78.5699772,400.722086 78.1958243,403.860272 C77.8216714,406.998458 75.1599114,409.361109 71.9995,409.3603 L71.9995,409.3603 Z M72.1206,394.1865 C69.4641883,396.388942 67.900761,399.640654 67.8394,403.0908 C67.8197653,405.37141 69.6399663,407.242657 71.920247,407.286091 C74.2005277,407.329526 76.0906688,405.528952 76.157898,403.249249 C76.2251271,400.969546 74.4443775,399.060717 72.1655,398.9697 C71.8599116,398.957979 71.5749721,398.812348 71.3864684,398.571541 C71.1979647,398.330734 71.1250069,398.019164 71.187,397.7197 C71.4305302,396.525118 71.74224,395.345455 72.1206,394.1865 L72.1206,394.1865 Z" id="Shape" fill="#5AADAA"></path>
            <path d="M250.60639,549.4921 C250.418913,549.304533 250.164586,549.199152 249.89939,549.199152 C249.634194,549.199152 249.379867,549.304533 249.19239,549.4921 L240.10059,558.5859 L230.80759,549.2929 C230.554985,549.040313 230.186816,548.941676 229.841767,549.034145 C229.496718,549.126614 229.227211,549.39614 229.134767,549.741195 C229.042322,550.08625 229.140985,550.454413 229.39359,550.707 L238.585,559.8984 L229.39359,569.0918 C229.140404,569.344267 229.041304,569.712717 229.133681,570.058128 C229.226058,570.403539 229.495851,570.673332 229.841262,570.765709 C230.186673,570.858086 230.555123,570.758986 230.80759,570.5058 L239.89939,561.4121 L249.19239,570.705 C249.444857,570.958186 249.813307,571.057286 250.158718,570.964909 C250.504129,570.872532 250.773922,570.602739 250.866299,570.257328 C250.958676,569.911917 250.859576,569.543467 250.60639,569.291 L241.415,560.0996 L250.60639,550.9062 C250.794002,550.718727 250.899413,550.464375 250.899413,550.19915 C250.899413,549.933925 250.794002,549.679573 250.60639,549.4921 L250.60639,549.4921 Z M239.999,536 C226.744166,536 215.999,546.745166 215.999,560 C215.999,573.254834 226.744166,584 239.999,584 C253.253834,584 263.999,573.254834 263.999,560 C263.999024,553.634797 261.470467,547.530289 256.969589,543.029411 C252.468711,538.528533 246.364203,535.999976 239.999,536 L239.999,536 Z M239.999,582 C227.848736,582 217.999,572.150264 217.999,560 C217.999,547.849736 227.848736,538 239.999,538 C252.149264,538 261.999,547.849736 261.999,560 C261.999029,565.834772 259.681188,571.430575 255.555381,575.556381 C251.429575,579.682188 245.833772,582.000029 239.999,582 L239.999,582 Z" id="Shape" fill="#5AADAA"></path>
            <path d="M560,376.0107 C546.745166,376.0107 536,386.755866 536,400.0107 C536,413.265534 546.745166,424.0107 560,424.0107 C573.254834,424.0107 584,413.265534 584,400.0107 C584.000194,393.645445 581.471692,387.540838 576.970777,383.039923 C572.469862,378.539008 566.365255,376.010506 560,376.0107 L560,376.0107 Z M560,422.0107 C547.849736,422.0107 538,412.160964 538,400.0107 C538,387.860436 547.849736,378.0107 560,378.0107 C572.150264,378.0107 582,387.860436 582,400.0107 C582.000048,405.845477 579.682213,411.441291 575.556402,415.567102 C571.430591,419.692913 565.834777,422.010748 560,422.0107 L560,422.0107 Z" id="Shape" fill="#A4B2B0"></path>
            <path d="M555.16209,404.6777 C555.802507,404.677389 556.322349,405.195485 556.32419,405.8359 C556.325939,406.143484 556.203651,406.438793 555.984961,406.655093 C555.766271,406.871393 555.469636,406.990428 555.16209,406.9853 C554.747895,406.988287 554.363878,406.769029 554.155913,406.410815 C553.947948,406.052601 553.947948,405.610399 554.155913,405.252185 C554.363878,404.893971 554.747895,404.674713 555.16209,404.6777 L555.16209,404.6777 Z M555.16209,402.6777 C553.421947,402.682276 552.014335,404.095413 552.016576,405.835561 C552.018817,407.575708 553.430065,408.985216 555.170213,408.985309 C556.910362,408.985403 558.321762,407.576047 558.32419,405.8359 C558.320213,404.091802 556.906191,402.679525 555.16209,402.6777 L555.16209,402.6777 L555.16209,402.6777 Z" id="Shape" fill="#A4B2B0"></path>
            <path d="M565.207,410.0107 C564.94174,410.010843 564.687302,409.905533 564.499735,409.717965 C564.312167,409.530398 564.206857,409.27596 564.207,409.0107 C564.198898,402.272627 558.738075,396.812653 552,396.8056 C551.447715,396.8056 551,396.357885 551,395.8056 C551,395.253315 551.447715,394.8056 552,394.8056 C559.842039,394.814113 566.197438,401.168662 566.207,409.0107 C566.206619,409.562827 565.759127,410.010319 565.207,410.0107 L565.207,410.0107 Z" id="Shape" fill="#A4B2B0"></path>
            <path d="M571.998,410.0107 C571.73274,410.010843 571.478302,409.905533 571.290735,409.717965 C571.103167,409.530398 570.997857,409.27596 570.998,409.0107 C570.988637,398.524992 562.493492,390.025467 552.00779,390.0107 C551.455505,390.0107 551.00779,389.562985 551.00779,389.0107 C551.00779,388.458415 551.455505,388.0107 552.00779,388.0107 C563.597753,388.026213 572.987892,397.420731 572.998,409.0107 C572.997619,409.562827 572.550127,410.010319 571.998,410.0107 L571.998,410.0107 Z" id="Shape" fill="#A4B2B0"></path>
            <path d="M400.16409,411.0117 C400.799004,411.017618 401.309723,411.5356 401.306676,412.170534 C401.30363,412.805467 400.787964,413.318524 400.153023,413.31835 C399.518082,413.318175 399.002698,412.804836 399,412.1699 C399.001842,411.528707 399.522896,411.01029 400.16409,411.0117 L400.16409,411.0117 Z M400.16409,409.0117 C398.424354,409.016552 397.017244,410.429485 397.019577,412.169226 C397.02191,413.908967 398.432805,415.318122 400.172547,415.318308 C401.912289,415.318494 403.323485,413.90964 403.32619,412.1699 C403.321276,410.426192 401.907803,409.014462 400.16409,409.0117 L400.16409,409.0117 L400.16409,409.0117 Z" id="Shape" fill="#A4B2B0"></path>
            <path d="M400,376.0117 C386.745979,376.012252 376.001816,386.757012 376.002,400.011033 C376.002184,413.265055 386.746645,424.009516 400.000667,424.0097 C413.254688,424.009884 423.999448,413.265721 424,400.0117 C424.000024,393.646497 421.471467,387.541989 416.970589,383.041111 C412.469711,378.540233 406.365203,376.011676 400,376.0117 L400,376.0117 Z M400,422.0097 C387.850288,422.009148 378.001448,412.159412 378.002,400.0097 C378.002552,387.859988 387.852288,378.011148 400.002,378.0117 C412.151712,378.012252 422.000552,387.861988 422,400.0117 C421.999971,405.84627 419.682047,411.441833 415.556196,415.56731 C411.430344,419.692786 405.83457,422.010201 400,422.0097 L400,422.0097 Z" id="Shape" fill="#A4B2B0"></path>
            <path d="M408,393 C407.99864,390.213998 406.345297,387.694028 403.790181,386.583536 C401.235066,385.473043 398.264668,385.983464 396.226817,387.883192 C394.188965,389.782921 393.471664,392.710253 394.40039,395.3369 C394.519895,395.673587 394.809943,395.920944 395.161275,395.985792 C395.512608,396.050641 395.871849,395.923131 396.103676,395.651292 C396.335503,395.379454 396.404695,395.004587 396.28519,394.6679 C395.621458,392.791322 396.133915,390.699795 397.589972,389.342598 C399.04603,387.985401 401.16837,387.621024 402.993728,388.414847 C404.819086,389.208669 405.999808,391.009501 406,393 C405.897864,393.88021 405.604547,394.727453 405.14059,395.4824 C404.345551,396.723518 403.200252,397.700938 401.84959,398.291 C401.279372,398.537491 400.75351,398.875963 400.293,399.2929 C399.44345,400.340322 398.986148,401.651431 399,403 L399,407 C399,407.552285 399.447715,408 400,408 C400.552285,408 401,407.552285 401,407 L401,403.0019 C400.990959,402.181978 401.238123,401.379688 401.707,400.707 C402.020676,400.449116 402.369985,400.237932 402.74409,400.08 C404.421817,399.329374 405.842953,398.103791 406.832,396.5546 C406.83979,396.5429 406.84079,396.5293 406.84769,396.5175 C406.85839,396.5 406.873,396.4882 406.88279,396.4697 C407.57001,395.439242 407.95685,394.237842 408,393 L408,393 Z" id="Shape" fill="#A4B2B0"></path>
            <path d="M720,216.0107 C706.745166,216.0107 696,226.755866 696,240.0107 C696,253.265534 706.745166,264.0107 720,264.0107 C733.254834,264.0107 744,253.265534 744,240.0107 C743.999702,226.75599 733.25471,216.010998 720,216.0107 L720,216.0107 Z M732,247.0107 C731.996481,248.113809 731.103109,249.007181 730,249.0107 L710,249.0107 C708.896887,249.007192 708.003508,248.113813 708,247.0107 L708,238.0107 C708.070222,236.779889 708.678943,235.64247 709.66408,234.9013 L718.33588,229.1201 C719.361245,228.509434 720.638715,228.509434 721.66408,229.1201 L730.33588,234.9013 C731.321726,235.641867 731.930648,236.779635 732,238.0107 L732,247.0107 L732,247.0107 Z" id="Shape" fill="#DE7854"></path>
            <path d="M729.22658,236.5654 L720.55468,230.7841 C720.383743,230.695334 720.192407,230.65325 720,230.6621 C719.807739,230.653892 719.616628,230.695613 719.44528,230.7832 L710.77338,236.5654 C710.343798,236.933405 710.067836,237.449125 710,238.0107 L710,247.0107 L730,247.0107 L730,238.0107 C729.932148,237.449121 729.656173,236.933402 729.22658,236.5654 L729.22658,236.5654 Z M728.44728,239.9052 L720.44728,243.9052 C720.165668,244.045864 719.834292,244.045864 719.55268,243.9052 L711.55268,239.9052 C711.058661,239.658163 710.858443,239.057419 711.10548,238.5634 C711.352517,238.069381 711.953261,237.869163 712.44728,238.1162 L720,241.8916 L727.55268,238.1162 C728.046699,237.869163 728.647443,238.069381 728.89448,238.5634 C729.141517,239.057419 728.941299,239.658163 728.44728,239.9052 L728.44728,239.9052 Z" id="Shape" fill="#DE7854"></path>
            <path d="M400,56 C386.745166,56 376,66.745166 376,80 C376,93.254834 386.745166,104 400,104 C413.254834,104 424,93.254834 424,80 C423.999696,66.7452918 413.254708,56.0003037 400,56 L400,56 Z M400,102 C387.849736,102 378,92.1502645 378,80 C378,67.8497355 387.849736,58 400,58 C412.150264,58 422,67.8497355 422,80 C422.000032,85.8347725 419.682192,91.4305771 415.556384,95.5563843 C411.430577,99.6821916 405.834773,102.000032 400,102 L400,102 Z" id="Shape" fill="#A4B2B0"></path>
            <path d="M404.98049,70 L404.98049,73.4472 L403.25779,73.4472 C401.96479,73.4472 401.88089,73.9296 401.88089,74.8261 L401.877,76.5527 L405,76.5527 L404.63669,80 L401.877,80 L401.877,90 L397.74219,90 L397.74219,80 L395.67189,80 L395.67189,76.5527 L397.74219,76.5527 L397.74219,74.4824 C397.74219,71.6718 398.90819,70 402.22269,70 L404.98049,70 L404.98049,70 Z M404.98049,68 L402.22269,68 C398.043,68 395.74219,70.3017 395.74219,74.4824 L395.74219,74.5527 L395.67189,74.5527 C394.567341,74.5527497 393.67194,75.4481511 393.67189,76.5527 L393.67189,80 C393.67194,81.1045489 394.567341,81.9999503 395.67189,82 L395.74219,82 L395.74219,90 C395.74224,91.1045489 396.637641,91.9999503 397.74219,92 L401.877,92 C402.981254,91.9992389 403.876239,91.1042541 403.877,90 L403.877,82 L404.63669,82 C405.66048,81.9996357 406.519067,81.2269852 406.627,80.2089 L406.99019,76.7627 C407.049359,76.1986187 406.866188,75.6359485 406.48629,75.2148 C406.414093,75.1338947 406.335035,75.0593838 406.25,74.9921 C406.712342,74.6123381 406.980359,74.0455138 406.98049,73.4472 L406.98049,70 C406.980446,68.8954488 406.085041,68.0000442 404.98049,68 L404.98049,68 L404.98049,68 Z" id="Shape" fill="#A4B2B0"></path>
            <path d="M720,58 C732.150264,58 742,67.8497355 742,80 C742,92.1502645 732.150264,102 720,102 C707.849736,102 698,92.1502645 698,80 C698.013695,67.8554125 707.855413,58.0136947 720,58 L720,58 Z M718.90428,74.7128 C716.953798,74.179293 715.218279,73.0507231 713.93948,71.4843 C713.560073,71.0185608 712.991298,70.7481824 712.39058,70.748 C712.33588,70.748 712.28318,70.75 712.22848,70.7548 C711.572504,70.8073876 710.984484,71.1796033 710.65628,71.75 C709.800227,73.2339536 709.604021,75.0083666 710.11518,76.6435 C710.028287,76.7811549 709.958156,76.9287012 709.90628,77.083 C709.833642,77.3038462 709.797337,77.5350195 709.79878,77.7675 C709.800118,79.2108457 710.313673,80.606872 711.248,81.707 C711.227315,81.9650028 711.257861,82.2245492 711.33788,82.4707 C711.5671,83.1924989 711.930194,83.8646779 712.40818,84.4521 C712.26558,84.4619 712.123,84.4668 711.97848,84.4668 C711.7285,84.4658309 711.478773,84.4508072 711.23048,84.4218 C711.153345,84.4124382 711.075701,84.4078961 710.998,84.4082 C710.110687,84.409481 709.330253,84.995117 709.081009,85.8467057 C708.831765,86.6982944 709.173281,87.612304 709.91988,88.0918 C714.064421,90.7476021 719.316853,90.9697999 723.670886,88.6735196 C728.024919,86.3772393 730.807975,81.9171928 730.957,76.997 C731.605358,76.4170984 732.178213,75.75796 732.66208,75.0351 C733.156924,74.2942126 733.102801,73.3155057 732.52928,72.6337 C732.498,72.5966 732.46678,72.5615 732.43358,72.5283 C732.520925,71.7742965 732.173786,71.0358561 731.537456,70.6220509 C730.901126,70.2082458 730.085354,70.1904454 729.43158,70.5761 C729.082267,70.7822667 728.71407,70.9546152 728.332,71.0908 C726.67114,69.9373429 724.546946,69.6809706 722.659349,70.4061591 C720.771753,71.1313477 719.36562,72.7440228 718.90428,74.7128 L718.90428,74.7128 Z M720,56 C706.745166,56 696,66.745166 696,80 C696,93.254834 706.745166,104 720,104 C733.254834,104 744,93.254834 744,80 C743.999702,66.7452895 733.25471,56.0002982 720,56 L720,56 L720,56 Z M720.84958,77.0371 C720.567754,75.8171355 720.857178,74.5352327 721.635827,73.5546995 C722.414476,72.5741664 723.597487,72.0018675 724.84958,72 C725.982405,71.9980095 727.065258,72.4662125 727.83978,73.2929 C728.759384,73.1130297 729.641333,72.7767901 730.44728,72.2988 C730.141405,73.2494258 729.499885,74.0561695 728.64258,74.5683 C729.45642,74.4725441 730.251165,74.254593 731,73.9218 C730.448918,74.7457615 729.755844,75.4652732 728.95308,76.0468 C728.96288,76.2226 728.96478,76.4003 728.96478,76.5781 C728.966359,80.8444453 726.639599,84.7715937 722.896922,86.8195387 C719.154246,88.8674838 714.592291,88.7097532 711,86.4082 C711.32476,86.4465513 711.651464,86.4661172 711.97848,86.4668 C713.826467,86.4709407 715.621822,85.8515844 717.07418,84.7089 C715.319352,84.6767512 713.779199,83.5322475 713.24218,81.8613 C713.497155,81.9095065 713.756088,81.9337123 714.01558,81.9336 C714.379878,81.9345655 714.74261,81.8859185 715.09378,81.789 C713.178697,81.4029138 711.80072,79.7211124 711.79878,77.7675 C711.797825,77.7497281 711.799818,77.7319207 711.80468,77.7148 C712.37443,78.0321247 713.012195,78.2076353 713.66408,78.2265 C711.859782,77.0229386 711.302137,74.6239909 712.39058,72.748 C714.474628,75.3123297 717.549342,76.8713503 720.84958,77.0371 L720.84958,77.0371 L720.84958,77.0371 Z" id="Shape" fill="#A4B2B0"></path>
            <path d="M560,56 C546.745166,56 536,66.745166 536,80 C536,93.254834 546.745166,104 560,104 C573.254834,104 584,93.254834 584,80 C583.999696,66.7452918 573.254708,56.0003037 560,56 L560,56 Z M564.63669,80 L561.877,80 L561.877,90 L557.74219,90 L557.74219,80 L555.67189,80 L555.67189,76.5527 L557.74219,76.5527 L557.74219,74.4824 C557.74219,71.6718 558.90819,70 562.22269,70 L564.98049,70 L564.98049,73.4472 L563.25779,73.4472 C561.96479,73.4472 561.88089,73.9296 561.88089,74.8261 L561.877,76.5527 L565,76.5527 L564.63669,80 Z" id="Shape" fill="#DE7854"></path>
            <path d="M880,56 C866.745166,56 856,66.745166 856,80 C856,93.254834 866.745166,104 880,104 C893.254834,104 904,93.254834 904,80 C903.999702,66.7452895 893.25471,56.0002982 880,56 L880,56 Z M888.95308,76.0468 C888.96288,76.2226 888.96478,76.4003 888.96478,76.5781 C888.966359,80.8444453 886.639599,84.7715937 882.896922,86.8195387 C879.154246,88.8674838 874.592291,88.7097532 871,86.4082 C871.32476,86.4465516 871.651464,86.4661175 871.97848,86.4668 C873.826467,86.4709407 875.621822,85.8515844 877.07418,84.7089 C875.319352,84.6767512 873.779199,83.5322475 873.24218,81.8613 C873.497156,81.9095062 873.756088,81.9337121 874.01558,81.9336 C874.379878,81.9345657 874.74261,81.8859188 875.09378,81.789 C873.178697,81.4029138 871.80072,79.7211124 871.79878,77.7675 C871.797825,77.7497281 871.799818,77.7319207 871.80468,77.7148 C872.37443,78.0321247 873.012195,78.2076353 873.66408,78.2265 C871.859782,77.0229386 871.302137,74.6239909 872.39058,72.748 C874.474629,75.3123286 877.549342,76.871349 880.84958,77.0371 C880.567754,75.8171355 880.857178,74.5352327 881.635827,73.5546995 C882.414476,72.5741664 883.597487,72.0018675 884.84958,72 C885.982405,71.9980095 887.065258,72.4662125 887.83978,73.2929 C888.759384,73.1130297 889.641333,72.7767901 890.44728,72.2988 C890.141405,73.2494258 889.499885,74.0561695 888.64258,74.5683 C889.45642,74.4725432 890.251164,74.2545922 891,73.9218 C890.448917,74.7457604 889.755843,75.4652719 888.95308,76.0468 L888.95308,76.0468 Z" id="Shape" fill="#DE7854"></path>
            <path d="M79.9995,68 C73.372083,68 67.9995,73.372583 67.9995,80 C67.9995,86.627417 73.372083,92 79.9995,92 C86.626917,92 91.9995,86.627417 91.9995,80 C92.0000041,76.8172476 90.7358838,73.7647078 88.485338,71.514162 C86.2347922,69.2636162 83.1822524,67.9994959 79.9995,68 L79.9995,68 Z M87.8921,77.707 L80.8062,84.705 C80.6191758,84.8934554 80.3646561,84.9994497 80.09915,84.9994497 C79.8336439,84.9994497 79.5791242,84.8934554 79.3921,84.705 L72.48,77.707 C72.2273954,77.4544132 72.1287325,77.0862505 72.2211767,76.741195 C72.313621,76.3961396 72.5831279,76.1266137 72.9281767,76.034145 C73.2732256,75.9416764 73.6413954,76.0403132 73.894,76.2929 L80.0991,82.5839 L86.478,76.2929 C86.8685815,75.9029239 87.5012729,75.9031692 87.8915519,76.2934481 C88.2818308,76.6837271 88.2820761,77.3164185 87.8921,77.707 L87.8921,77.707 Z" id="Shape" fill="#A4B2B0"></path>
            <path d="M75,1340 C71.1340067,1340 68,1343.13401 68,1347 C68,1350.86599 71.1340067,1354 75,1354 C78.8659932,1354 81.9999999,1350.86599 81.9999999,1347 C82.0002939,1345.14339 81.2628905,1343.36275 79.9500721,1342.04993 C78.6372537,1340.73711 76.8566055,1339.99971 75,1340 L75,1340 Z M79.6040166,1345.66242 L75.470575,1349.74458 C75.3614775,1349.85452 75.2130077,1349.91635 75.0581291,1349.91635 C74.9032506,1349.91635 74.7547807,1349.85452 74.6456833,1349.74458 L70.613625,1345.66242 C70.4662723,1345.51507 70.4087189,1345.30031 70.4626447,1345.09903 C70.5165706,1344.89775 70.6737829,1344.74052 70.8750614,1344.68658 C71.0763399,1344.63264 71.2911056,1344.69018 71.4384583,1344.83753 L75.0581,1348.50728 L78.7791249,1344.83753 C79.0069641,1344.61004 79.3760341,1344.61018 79.6036968,1344.83784 C79.8313595,1345.06551 79.8315027,1345.43458 79.6040166,1345.66242 L79.6040166,1345.66242 Z" id="Shape" fill="#A4B2B0"></path>
            <path d="M239.999,68 C233.371583,68 227.999,73.372583 227.999,80 C227.999,86.627417 233.371583,92 239.999,92 C246.626417,92 251.999,86.627417 251.999,80 C251.998674,73.372718 246.626282,68.0003258 239.999,68 L239.999,68 Z M247.59859,83.707 C247.411113,83.8945666 247.156786,83.999948 246.89159,83.999948 C246.626394,83.999948 246.372067,83.8945666 246.18459,83.707 L239.89749,77.414 L233.18459,83.707 C232.932051,83.9599313 232.56371,84.0588321 232.218443,83.9664138 C231.873176,83.8739955 231.603495,83.6043138 231.511076,83.259047 C231.418658,82.9137802 231.517559,82.5454392 231.77049,82.2929 L239.19039,75.2929 C239.377887,75.1053322 239.632229,74.9999517 239.89744,74.9999517 C240.162651,74.9999517 240.416993,75.1053322 240.60449,75.2929 L247.59859,82.2929 C247.786202,82.4803732 247.891613,82.7347247 247.891613,82.99995 C247.891613,83.2651753 247.786202,83.5195268 247.59859,83.707 L247.59859,83.707 Z" id="Shape" fill="#DE7854"></path>
            <path d="M400,707.0127 C407.178597,707.0127 412.998,712.832103 412.998,720.0107 C412.998,727.189297 407.178597,733.0087 400,733.0087 C392.821403,733.0087 387.002,727.189297 387.002,720.0107 C387.010134,712.835475 392.824775,707.020834 400,707.0127 L400,707.0127 Z M400,705.0127 C391.716833,705.0127 385.002,711.727533 385.002,720.0107 C385.002,728.293867 391.716833,735.0087 400,735.0087 C408.283167,735.0087 414.998,728.293867 414.998,720.0107 C414.998,716.032983 413.417858,712.218183 410.605188,709.405512 C407.792517,706.592842 403.977717,705.0127 400,705.0127 L400,705.0127 L400,705.0127 Z" id="Shape" fill="#5AADAA"></path>
            <path d="M80.8022,881.0009 C80.6052014,881.040924 80.4123414,881.09914 80.2261,881.1748 C78.708461,881.830983 77.4586025,882.983036 76.6812,884.4423 C78.1340831,885.578247 80.076064,885.869557 81.7983,885.2099 C81.6948889,884.33892 81.5310946,883.476177 81.3081,882.6279 C81.1616,882.0673 80.9929667,881.524967 80.8022,881.0009 L80.8022,881.0009 Z" id="Shape" fill="#FFFFFF"></path>
            <path d="M79.6421,878.415 C79.0745866,877.36672 78.3632648,876.402953 77.5288,875.5517 C76.1717735,876.244348 75.1774049,877.486244 74.7983,878.9619 C75.0698,878.9775 75.3394,878.9873 75.6167,878.9873 C76.9792578,878.994277 78.3354781,878.80146 79.6421,878.415 L79.6421,878.415 Z" id="Shape" fill="#FFFFFF"></path>
            <path d="M79.9917,880.2685 C80.145186,880.208363 80.303263,880.160675 80.4644,880.1259 C80.3511,879.8505 80.2319333,879.582933 80.1069,879.3232 C78.6328077,879.780221 77.0994777,880.0178 75.5562,880.0283 C75.2456,880.0322 74.9409,880.0263 74.6401,880.0127 C74.6362,880.0966 74.6323,880.1806 74.6323,880.2666 C74.6327159,881.55289 75.1029464,882.794735 75.9546,883.7587 C76.854706,882.162229 78.2818869,880.928386 79.9917,880.2685 L79.9917,880.2685 Z" id="Shape" fill="#FFFFFF"></path>
            <path d="M83.3022,876.1923 C82.0037892,875.106379 80.260286,874.715622 78.6226,875.1435 C79.444025,876.005736 80.1426372,876.977117 80.6987,878.0302 C81.7052563,877.642459 82.5998343,877.010946 83.3022,876.1923 L83.3022,876.1923 Z" id="Shape" fill="#FFFFFF"></path>
            <path d="M69.9995,870.0107 L69.9995,890.0107 L89.9995,890.0107 L89.9995,870.0107 L69.9995,870.0107 L69.9995,870.0107 Z M79.9253,886.6162 C76.4187733,886.615096 73.5769639,883.771794 73.5777001,880.265267 C73.5784364,876.75874 76.4214396,873.916632 79.9279665,873.917 C83.4344933,873.917368 86.2768998,876.760073 86.2769,880.2666 C86.2759999,883.773795 83.4324955,886.616404 79.9253,886.6162 L79.9253,886.6162 Z" id="Shape" fill="#FFFFFF"></path>
            <path d="M81.9116,880.8505 C82.0483,881.2587 82.1792,881.6748 82.2925,882.1045 C82.5171242,882.961745 82.6815911,883.833633 82.7847,884.7138 C84.1249274,883.853003 85.0054038,882.433623 85.1812,880.8505 C84.0927311,880.772439 83.0000689,880.772439 81.9116,880.8505 L81.9116,880.8505 Z" id="Shape" fill="#FFFFFF"></path>
            <path d="M81.1538,878.9306 C81.3081,879.2627 81.4507,879.6064 81.5874,879.958 C82.7894035,879.860422 83.9967148,879.846054 85.2007,879.915 C85.1262574,878.783036 84.6893336,877.70512 83.9546,876.8408 C83.2341881,877.784994 82.264041,878.508864 81.1538,878.9306 L81.1538,878.9306 Z" id="Shape" fill="#FFFFFF"></path>
            <path d="M240.44239,878.8955 L240.44239,878.872 C240.437859,878.880258 240.432641,878.888119 240.42679,878.8955 L240.44239,878.8955 L240.44239,878.8955 Z" id="Shape" fill="#FFFFFF"></path>
            <path d="M229.999,870.0107 L229.999,890.0107 L249.999,890.0107 L249.999,870.0107 L229.999,870.0107 L229.999,870.0107 Z M236.81929,884.8994 L234.48339,884.8994 L234.48339,877.8759 L236.81929,877.8759 L236.81929,884.8994 L236.81929,884.8994 Z M235.65139,876.9189 L235.63569,876.9189 C234.902111,876.914574 234.310323,876.317527 234.312486,875.583938 C234.314649,874.85035 234.909948,874.256803 235.64354,874.256803 C236.377132,874.256803 236.972431,874.85035 236.974594,875.583938 C236.976757,876.317527 236.384969,876.914574 235.65139,876.9189 L235.65139,876.9189 Z M245.23539,884.8994 L242.89939,884.8994 L242.89939,881.1416 C242.89939,880.1982 242.56349,879.5537 241.71969,879.5537 C241.179597,879.557066 240.699431,879.898271 240.51859,880.4072 C240.458574,880.591051 240.432747,880.784342 240.44239,880.9775 L240.44239,884.8994 L238.11039,884.8994 C238.11039,884.8994 238.13959,878.5361 238.11039,877.8759 L240.44239,877.8759 L240.44239,878.872 C240.87343,878.123387 241.684784,877.676343 242.54789,877.7119 C244.083,877.7119 245.23539,878.7158 245.23539,880.872 L245.23539,884.8994 L245.23539,884.8994 Z" id="Shape" fill="#FFFFFF"></path>
            <path d="M550,870.0107 L550,890.0107 L570,890.0107 L570,870.0107 L550,870.0107 L550,870.0107 Z M556.67769,883.1064 C555.475395,883.107573 554.390853,882.384178 553.930035,881.2737 C553.469217,880.163223 553.72293,878.884488 554.572809,878.034064 C555.422688,877.183641 556.70126,876.92911 557.812033,877.389218 C558.922805,877.849325 559.646894,878.933405 559.64649,880.1357 C559.646792,880.923342 559.334167,881.678839 558.777398,882.235964 C558.220629,882.79309 557.465332,883.106198 556.67769,883.1064 L556.67769,883.1064 Z M563.23239,883.1064 C562.030268,883.106804 560.946308,882.382921 560.486089,881.272382 C560.02587,880.161843 560.280052,878.88342 561.130081,878.033391 C561.98011,877.183362 563.258533,876.92918 564.369072,877.389399 C565.479611,877.849618 566.203494,878.933578 566.20309,880.1357 C566.204074,880.92388 565.891406,881.68006 565.334078,882.237388 C564.77675,882.794716 564.02057,883.107384 563.23239,883.1064 L563.23239,883.1064 Z" id="Shape" fill="#FFFFFF"></path>
            <path d="M550,710.0107 L550,730.0107 L570,730.0107 L570,710.0107 L550,710.0107 L550,710.0107 Z M562.48629,720.1865 L560.76169,720.1865 L560.76169,726.4365 L558.17579,726.4365 L558.17579,720.1865 L556.88279,720.1865 L556.88279,718.0322 L558.17579,718.0322 L558.17579,716.7392 C558.17579,714.9814 558.90629,713.9384 560.97659,713.9384 L562.70119,713.9384 L562.70119,716.0908 L561.625,716.0908 C560.81639,716.0908 560.76369,716.3916 560.76369,716.9541 L560.76169,718.0322 L562.71289,718.0322 L562.48629,720.1865 Z" id="Shape" fill="#FFFFFF"></path>
            <path d="M870,710.0107 L870,730.0107 L890,730.0107 L890,710.0107 L870,710.0107 L870,710.0107 Z M880.60938,723.6689 C879.846346,723.689698 879.124872,723.321957 878.69338,722.6923 C878.69338,722.6923 878.23628,724.5009 878.14058,724.8505 C877.82064,725.783067 877.340849,726.652843 876.72268,727.4209 C876.696956,727.454022 876.654254,727.469063 876.613451,727.459374 C876.572647,727.449685 876.541266,727.417051 876.53318,727.3759 C876.374085,726.386759 876.382672,725.37789 876.55858,724.3916 C876.707,723.7529 877.57028,720.1103 877.57028,720.1103 C877.398742,719.718918 877.312856,719.295387 877.31838,718.8681 C877.181804,717.890152 877.857641,716.98441 878.834,716.8369 C879.13766,716.832358 879.428476,716.959234 879.631695,717.184916 C879.834914,717.410598 879.930717,717.713075 879.89448,718.0146 C879.741694,718.961572 879.509099,719.893928 879.19918,720.8017 C879.104158,721.17503 879.191998,721.571302 879.435878,721.869509 C879.679758,722.167716 880.050718,722.332447 880.43548,722.3134 C881.92378,722.3134 882.92768,720.4033 882.92768,718.1396 C882.952811,717.288085 882.607503,716.467505 881.981095,715.890165 C881.354687,715.312824 880.508724,715.035448 879.66208,715.1298 C878.642822,715.088984 877.651547,715.468658 876.920349,716.179927 C876.189152,716.891196 875.782238,717.871603 875.79488,718.8916 C875.771858,719.450519 875.955396,719.998355 876.31048,720.4306 C876.439714,720.536057 876.485581,720.713171 876.42378,720.8681 C876.38868,721.0127 876.30078,721.3603 876.26558,721.499 C876.250893,721.58481 876.196052,721.65842 876.118031,721.697045 C876.040011,721.735669 875.948223,721.734649 875.87108,721.6943 C874.770057,721.120037 874.131871,719.931182 874.26168,718.6962 C874.26168,716.4638 876.14448,713.79 879.877,713.79 C881.136009,713.713745 882.372677,714.147742 883.307921,714.994051 C884.243165,715.840359 884.798168,717.027656 884.84768,718.288 C884.84768,721.3681 883.13668,723.6689 880.60938,723.6689 L880.60938,723.6689 Z" id="Shape" fill="#FFFFFF"></path>
            <path d="M710,710.0107 L710,730.0107 L730,730.0107 L730,710.0107 L710,710.0107 L710,710.0107 Z M726.09378,717.083 C726.10158,717.2177 726.10548,717.3505 726.10548,717.4892 C726.105936,720.754762 724.324727,723.760421 721.460036,725.328043 C718.595345,726.895666 715.103605,726.775482 712.35348,725.0146 C712.601856,725.042801 712.851609,725.057157 713.10158,725.0576 C714.515847,725.061057 715.889982,724.58763 717.002,723.7138 C715.658607,723.687622 714.480094,722.811215 714.06838,721.5322 C714.263508,721.56907 714.4616,721.588016 714.66018,721.5888 C714.939942,721.588798 715.218446,721.551366 715.48828,721.4775 C714.022564,721.181933 712.96803,719.894619 712.96678,718.3994 C712.966446,718.385703 712.967114,718.372 712.96878,718.3584 C713.40487,718.601925 713.893306,718.736573 714.39258,718.7509 C713.012584,717.829837 712.585929,715.994911 713.418,714.5595 C715.014183,716.520741 717.367113,717.7132 719.89258,717.8408 C719.838916,717.604978 719.812046,717.363851 719.81248,717.122 C719.81284,715.83395 720.599915,714.6768 721.797761,714.20326 C722.995606,713.729721 724.361165,714.03588 725.24218,714.9755 C725.946177,714.837505 726.621317,714.579876 727.23828,714.2138 C727.005207,714.941083 726.514959,715.558435 725.85938,715.9502 C726.481436,715.876812 727.089041,715.710914 727.66208,715.458 C727.239301,716.087968 726.708342,716.638123 726.09378,717.083 L726.09378,717.083 Z" id="Shape" fill="#FFFFFF"></path>
            <path d="M870,870.0107 L870,890.0107 L890,890.0107 L890,870.0107 L870,870.0107 L870,870.0107 Z M883,873.0107 C882.999854,872.745439 883.105164,872.491 883.292732,872.303432 C883.4803,872.115864 883.734739,872.010554 884,872.0107 L886,872.0107 C886.265259,872.010562 886.519693,872.115874 886.707259,872.303441 C886.894826,872.491007 887.000138,872.745441 887,873.0107 L887,875.0107 C886.999614,875.562825 886.552125,876.010314 886,876.0107 L884,876.0107 C883.447868,876.01033 883.00037,875.562832 883,875.0107 L883,873.0107 L883,873.0107 Z M880.002,878.0107 C881.658593,878.011804 883.000736,879.355439 883,881.012032 C882.999264,882.668626 881.655928,884.011067 879.999334,884.010699 C878.34274,884.010331 877,882.667294 877,881.0107 C877.000095,880.214733 877.316471,879.451424 877.879492,878.888778 C878.442513,878.326132 879.206033,878.010265 880.002,878.0107 L880.002,878.0107 Z M888,886.0107 C887.999945,887.115247 887.104547,888.010645 886,888.0107 L874,888.0107 C872.895741,888.00995 872.00075,887.114959 872,886.0107 L872,879.0107 L874.34958,879.0107 C873.463722,881.49794 874.308158,884.271957 876.42962,885.843742 C878.551081,887.415526 881.450779,887.415526 883.57224,885.843742 C885.693702,884.271957 886.538138,881.49794 885.65228,879.0107 L888,879.0107 L888,886.0107 L888,886.0107 Z" id="Shape" fill="#FFFFFF"></path>
            <path d="M719.66988,877.6601 C719.745901,877.663526 719.819779,877.634392 719.873,877.58 C719.929068,877.522366 719.95756,877.443354 719.95118,877.3632 L719.95118,875.5078 C719.954053,875.438506 719.925291,875.371659 719.873,875.3261 C719.815989,875.279142 719.74368,875.254828 719.66988,875.2578 C719.600385,875.255822 719.532718,875.280224 719.48048,875.3261 C719.43273,875.374211 719.407245,875.440079 719.41018,875.5078 L719.41018,877.3632 C719.404113,877.442186 719.428557,877.520492 719.47848,877.582 C719.52733,877.635432 719.597593,877.664103 719.66988,877.6601 L719.66988,877.6601 Z" id="Shape" fill="#FFFFFF"></path>
            <path d="M710.01368,870.0253 L710.01368,889.9961 L729.98438,889.9961 L729.98438,870.0253 L710.01368,870.0253 L710.01368,870.0253 Z M721.13478,874.7539 L721.76948,874.7539 L721.76948,877.3671 C721.764653,877.428291 721.778272,877.489524 721.80858,877.5429 C721.84088,877.58112 721.88959,877.601474 721.93948,877.5976 C722.003366,877.589295 722.063951,877.564364 722.11518,877.5253 C722.189033,877.474173 722.254855,877.412327 722.31048,877.3418 L722.31048,874.7539 L722.94528,874.7539 L722.94528,878.164 L722.31048,878.164 L722.31048,877.7871 C722.208945,877.913088 722.085997,878.020194 721.94728,878.1035 C721.835398,878.172055 721.70736,878.209766 721.57618,878.2128 C721.447183,878.220357 721.323068,878.162379 721.24608,878.0586 C721.162143,877.922338 721.123205,877.763121 721.13478,877.6035 L721.13478,874.7539 L721.13478,874.7539 Z M719.70118,874.6679 C719.940531,874.658936 720.17322,874.747787 720.34568,874.914 C720.514424,875.082049 720.605708,875.312687 720.59768,875.5507 L720.59768,877.3125 C720.611331,877.565421 720.522636,877.813197 720.35158,878 C720.168959,878.173139 719.923165,878.263544 719.67188,878.25 C719.423488,878.261529 719.181727,878.16791 719.00588,877.9921 C718.832655,877.804816 718.742492,877.555461 718.75588,877.3007 L718.75588,875.5332 C718.743648,875.294432 718.838095,875.062564 719.01368,874.9003 C719.204533,874.737481 719.450682,874.654274 719.70118,874.6679 L719.70118,874.6679 Z M717.11128,873.541 L717.57618,875.3867 L717.62108,875.3867 L718.06248,873.541 L718.791,873.541 L717.95508,876.2441 L717.95508,878.164 L717.24408,878.164 L717.24408,876.332 L716.39258,873.541 L717.11128,873.541 L717.11128,873.541 Z M725.17768,884.5136 C725.173152,885.341935 724.498217,886.009887 723.66988,886.0058 C722.47848,886.0566 721.262347,886.080033 720.02148,886.0761 C718.78318,886.0781 717.56448,886.0566 716.375,886.0058 C715.546949,886.00918 714.872422,885.341642 714.86718,884.5136 C714.81638,883.8613 714.792947,883.208967 714.79688,882.5566 C714.793,881.9062 714.81638,881.2519 714.86718,880.5996 C714.872582,879.771929 715.547323,879.105028 716.375,879.1093 C717.50588,879.0625 718.659507,879.039067 719.83588,879.039 L720.20508,879.039 C721.38278,879.039 722.537713,879.062433 723.66988,879.1093 C724.067474,879.106909 724.449726,879.262595 724.732509,879.542096 C725.015291,879.821597 725.17543,880.202005 725.17768,880.5996 C725.22658,881.2519 725.25,881.9062 725.248,882.5566 C725.25,883.2089 725.22656,883.861233 725.17768,884.5136 L725.17768,884.5136 Z" id="Shape" fill="#FFFFFF"></path>
            <path d="M717.79688,880.1796 L715.60348,880.1796 L715.60348,880.8515 L716.34378,880.8515 L716.34378,884.8027 L717.05658,884.8027 L717.05658,880.8515 L717.79688,880.8515 L717.79688,880.1796 L717.79688,880.1796 Z M718.96288,883.9824 C718.907355,884.051802 718.842236,884.112949 718.76948,884.164 C718.718363,884.204569 718.656701,884.229658 718.59178,884.2363 C718.542529,884.239784 718.494594,884.219442 718.46288,884.1816 C718.43284,884.128121 718.419239,884.06697 718.42378,884.0058 L718.42378,881.3925 L717.78908,881.3925 L717.78908,884.2421 C717.777803,884.402328 717.816704,884.562092 717.90038,884.6992 C717.978182,884.80283 718.103082,884.860126 718.23238,884.8515 C718.362106,884.848683 718.488783,884.811632 718.59958,884.7441 C718.737839,884.660125 718.860712,884.553115 718.96288,884.4277 L718.96288,884.8027 L719.59768,884.8027 L719.59768,881.3925 L718.96288,881.3925 L718.96288,883.9824 L718.96288,883.9824 Z M721.42188,881.3476 C721.318764,881.349124 721.217807,881.377378 721.12888,881.4296 C721.024822,881.49211 720.932858,881.572828 720.85738,881.6679 L720.85738,880.1796 L720.21678,880.1796 L720.21678,884.8027 L720.85738,884.8027 L720.85738,884.541 C720.931685,884.634343 721.023213,884.712558 721.127,884.7714 C721.230675,884.822724 721.345224,884.848216 721.46088,884.8457 C721.627589,884.854843 721.788425,884.782789 721.89258,884.6523 C722.001103,884.487771 722.053194,884.292419 722.041,884.0957 L722.041,882.2031 C722.054835,881.979407 721.998887,881.756937 721.88088,881.5664 C721.774693,881.420579 721.602026,881.33827 721.42188,881.3476 L721.42188,881.3476 Z M721.38668,884.0019 C721.39404,884.084477 721.374886,884.16725 721.332,884.2382 C721.290098,884.289085 721.225857,884.316117 721.16018,884.3105 C721.10714,884.310536 721.054869,884.297811 721.00778,884.2734 C720.951456,884.24139 720.900669,884.200498 720.85738,884.1523 L720.85738,882.0273 C720.895814,881.987219 720.939916,881.952988 720.98828,881.9257 C721.029155,881.903681 721.074663,881.891652 721.12108,881.8906 C721.198229,881.885835 721.272763,881.919435 721.32028,881.9804 C721.369219,882.05855 721.39244,882.150071 721.38668,882.2421 L721.38668,884.0019 L721.38668,884.0019 Z M724.38478,883.1757 L724.38478,882.3086 C724.401557,882.040059 724.318025,881.774854 724.15038,881.5644 C723.975035,881.385381 723.7306,881.291314 723.48048,881.3066 C723.219704,881.297522 722.967212,881.398948 722.78518,881.5859 C722.603395,881.781612 722.507092,882.041694 722.51758,882.3086 L722.51758,883.8398 C722.501429,884.118801 722.588293,884.39402 722.76168,884.6132 C722.931656,884.803648 723.17862,884.907043 723.43358,884.8945 C723.698566,884.914101 723.958914,884.817104 724.14648,884.6289 C724.320852,884.404432 724.405762,884.123263 724.38478,883.8398 L724.38478,883.5839 L723.73238,883.5839 L723.73238,883.8203 C723.744873,883.953689 723.723371,884.088069 723.66988,884.2109 C723.614582,884.273778 723.532565,884.306444 723.44918,884.2988 C723.364023,884.306274 723.2816,884.266559 723.23438,884.1953 C723.181987,884.077622 723.159816,883.948721 723.16988,883.8203 L723.16988,883.1757 L724.38478,883.1757 L724.38478,883.1757 Z M723.16988,882.3027 C723.161193,882.195938 723.185039,882.089047 723.23828,881.9961 C723.290191,881.930567 723.371894,881.895971 723.45508,881.9043 C723.536062,881.895893 723.615483,881.930777 723.66408,881.9961 C723.718168,882.088714 723.742042,882.195885 723.73238,882.3027 L723.73238,882.6484 L723.16988,882.6484 L723.16988,882.3027 L723.16988,882.3027 Z" id="Shape" fill="#FFFFFF"></path>
            <path d="M396.50679,879.7607 C396.956317,879.238237 397.223086,878.583359 397.26659,877.8955 C397.26659,875.7978 396.04979,872.538 393.64549,872.538 C392.860352,872.547846 392.118292,872.898583 391.61229,873.499 C391.178018,874.12919 390.976407,874.890785 391.042,875.6533 C391.042,877.6025 392.06539,880.4892 394.56149,880.4892 C395.284432,880.536852 395.992985,880.271504 396.50679,879.7607 L396.50679,879.7607 Z" id="Shape" fill="#FFFFFF"></path>
            <path d="M393.73929,882.7295 C393.749152,882.333689 393.847924,881.945165 394.02829,881.5927 C393.708,881.622 393.38959,881.6513 393.10059,881.6513 C391.970832,881.652468 390.874788,881.266462 389.99509,880.5576 L389.99509,885.5849 C391.31929,884.6084 393.52439,884.7841 394.60839,884.7099 C394.087357,884.177516 393.778353,883.473397 393.73929,882.7295 L393.73929,882.7295 Z" id="Shape" fill="#FFFFFF"></path>
            <path d="M395.59469,885.5556 C395.373676,885.529918 395.151105,885.520126 394.92869,885.5263 C393.896315,885.545512 392.871072,885.701848 391.87989,885.9912 C391.153777,886.226269 390.503267,886.650267 389.99509,887.2197 L389.99509,890.0107 L399.29,890.0107 C399.36095,889.824101 399.397995,889.626328 399.39939,889.4267 C399.38379,887.9384 397.79979,887.1279 395.59469,885.5556 L395.59469,885.5556 Z" id="Shape" fill="#FFFFFF"></path>
            <path d="M409.99509,876.7763 L409.99509,876.7783 L406.20409,876.7783 L406.20409,880.4892 L404.626,880.4892 L404.626,876.7783 L400.94629,876.7783 L400.94629,876.7763 L400.93259,876.7763 L400.93259,875.2138 L404.626,875.2138 L404.626,871.5537 L406.20409,871.5537 L406.20409,875.2138 L410.00489,875.2138 L410.00489,870.0107 L389.99509,870.0107 L389.99509,873.3134 C390.04389,873.2666 390.09079,873.2197 390.13959,873.1787 C391.558128,872.064661 393.325352,871.488966 395.12789,871.5537 L401.26269,871.5537 L399.63379,872.8681 L397.85639,872.8681 C398.983538,873.759025 399.63826,875.118879 399.63179,876.5556 C399.63179,878.7099 398.49709,879.7334 397.27829,880.6923 C396.820308,881.033317 396.525728,881.550255 396.46579,882.1181 C396.500585,882.632559 396.781268,883.098688 397.21969,883.3701 L398.26459,884.1845 C399.54,885.2627 401.208,886.5107 401.208,888.5205 C401.224795,889.026624 401.149363,889.53158 400.98539,890.0107 L410.00489,890.0107 L410.00489,876.7763 L409.99509,876.7763 L409.99509,876.7763 Z" id="Shape" fill="#FFFFFF"></path>
            <path d="M404.65139,238.3344 C404.651638,234.84009 401.8192,232.007159 398.32489,232.0068 C394.83058,232.006441 391.997559,234.83879 391.99709,238.3331 C391.996621,241.82741 394.82888,244.66052 398.32319,244.6611 C401.817548,244.661039 404.650501,241.828757 404.65139,238.3344 L404.65139,238.3344 Z M398.32319,242.7143 C395.904206,242.713858 393.943559,240.752584 393.94389,238.3336 C393.944221,235.914616 395.905406,233.953879 398.32439,233.9541 C400.743374,233.954321 402.7042,235.915416 402.70409,238.3344 C402.703971,239.496158 402.242343,240.610285 401.420762,241.431679 C400.599181,242.253072 399.484948,242.714446 398.32319,242.7143 L398.32319,242.7143 Z M407.57129,245.6347 L403.67679,241.7407 L403.67679,243.6879 L401.72949,243.6879 L405.624,247.581 C405.971673,247.92885 406.478512,248.064795 406.953595,247.937626 C407.428678,247.810458 407.79983,247.439495 407.92724,246.964476 C408.05465,246.489458 407.918963,245.98255 407.57129,245.6347 L407.57129,245.6347 Z" id="Shape" fill="#FFFFFF"></path>
            <path d="M245.30859,1039.5107 C244.28129,1037.5107 239.14839,1037.5107 239.14839,1037.5107 L239.14839,1034.5107 L234.01369,1039.5107 L239.14839,1044.5107 L239.14839,1041.5107 C239.14839,1041.5107 242.22849,1041.5107 243.25589,1042.5107 C244.042476,1043.29887 244.421527,1044.40581 244.28319,1045.5107 C246.078496,1044.04922 246.516642,1041.48546 245.30859,1039.5107 L245.30859,1039.5107 Z" id="Shape" fill="#C5D6D3"></path>
            <path d="M560,1020.664 C552.100256,1020.67309 545.698528,1027.07486 545.68949,1034.9746 C545.68949,1044.6191 556.80859,1056.8027 560,1059.3574 C563.19139,1056.8027 574.31049,1044.6191 574.31049,1034.9746 C574.301452,1027.07486 567.899737,1020.6731 560,1020.664 L560,1020.664 Z" id="Shape" fill="#DE7854"></path>
            <circle id="Oval" fill="#FFFFFF" cx="559.99999" cy="1034.97435" r="5.41385"></circle>
            <path d="M711.50061,1047.50972 L728.49835,1047.50972 L728.49835,1044.51009 L711.50061,1044.51009 L711.50061,1047.50972 L711.50061,1047.50972 Z M711.50061,1041.51045 L728.49835,1041.51045 L728.49835,1038.51094 L711.50061,1038.51094 L711.50061,1041.51045 L711.50061,1041.51045 Z M711.50061,1032.51155 L711.50061,1035.51131 L728.49835,1035.51131 L728.49835,1032.51155 L711.50061,1032.51155 L711.50061,1032.51155 Z" id="Shape" fill="#FFFFFF"></path>
            <path d="M723.22613,1200.00956 L721.1563,1200.00956 L721.1563,1207.5107 L718.05275,1207.5107 L718.05275,1200.00956 L716.50091,1200.00956 L716.50091,1197.424 L718.05275,1197.424 L718.05275,1195.87216 C718.05275,1193.76248 718.92948,1192.51069 721.41422,1192.51069 L723.484,1192.51069 L723.484,1195.09396 L722.19238,1195.09396 C721.2219,1195.09396 721.15865,1195.45496 721.15865,1196.13008 L721.15625,1197.424 L723.49805,1197.424 L723.22613,1200.00956 Z" id="Shape" fill="#FFFFFF"></path>
            <path d="M887.3371,1036.24774 C887.3465,1036.41014 887.35121,1036.57025 887.35121,1036.73748 C887.351761,1040.67461 885.204241,1044.29839 881.750418,1046.1884 C878.296596,1048.0784 874.086772,1047.9335 870.77108,1045.81048 C871.070535,1045.84448 871.371651,1045.86179 871.67303,1045.86232 C873.378143,1045.86649 875.034871,1045.2957 876.37558,1044.24217 C874.755918,1044.2106 873.335045,1043.15396 872.83866,1041.61192 C873.073915,1041.65637 873.312744,1041.67921 873.55216,1041.68016 C873.889455,1041.68016 874.225234,1041.63503 874.55056,1041.54597 C872.783416,1041.18962 871.512015,1039.63756 871.51051,1037.83485 C871.510107,1037.81834 871.510912,1037.80182 871.51292,1037.78542 C872.038694,1038.07903 872.627579,1038.24137 873.22953,1038.25864 C871.56574,1037.14815 871.051345,1034.93588 872.05453,1033.20527 C873.978969,1035.56985 876.815785,1037.00754 879.86062,1037.16138 C879.795921,1036.87706 879.763526,1036.58635 879.76405,1036.29476 C879.764484,1034.74182 880.713423,1033.3467 882.157608,1032.77578 C883.601794,1032.20485 885.248183,1032.57397 886.31038,1033.70683 C887.159156,1033.54046 887.973139,1033.22984 888.71698,1032.78848 C888.435977,1033.66533 887.84491,1034.40965 887.05451,1034.88198 C887.804494,1034.7935 888.537053,1034.59349 889.22794,1034.28856 C888.71821,1035.04808 888.078054,1035.71138 887.3371,1036.24774 L887.3371,1036.24774 Z" id="Shape" fill="#FFFFFF"></path>
            <path d="M81.15666,1203.34927 C80.3195013,1203.37209 79.5279389,1202.96863 79.05453,1202.2778 C79.05453,1202.2778 78.55303,1204.26209 78.44803,1204.64565 C78.0970107,1205.66881 77.5706109,1206.62308 76.89239,1207.46575 C76.8641783,1207.50211 76.8173187,1207.51863 76.7725415,1207.508 C76.7277643,1207.49736 76.693333,1207.46154 76.68448,1207.41638 C76.5099316,1206.33115 76.5193533,1205.22428 76.71235,1204.14218 C76.87519,1203.44143 77.82235,1199.44498 77.82235,1199.44498 C77.6341489,1199.01558 77.5399199,1198.5509 77.54598,1198.08211 C77.54598,1196.80504 78.28732,1195.85359 79.20883,1195.85359 C79.5419902,1195.84861 79.8610574,1195.98781 80.0840184,1196.23541 C80.3069793,1196.48302 80.412089,1196.81488 80.37233,1197.1457 C80.2047032,1198.18466 79.9495139,1199.20759 79.60949,1200.20355 C79.505237,1200.61315 79.6016108,1201.04791 79.8691825,1201.37509 C80.1367542,1201.70227 80.5437505,1201.883 80.96589,1201.8621 C82.59877,1201.8621 83.70019,1199.76645 83.70019,1197.28284 C83.70019,1195.39499 82.42519,1193.98066 80.11736,1193.98066 C78.9990889,1193.93588 77.9115207,1194.35244 77.1092931,1195.1328 C76.3070654,1195.91316 75.8606217,1196.98881 75.87449,1198.10789 C75.8492331,1198.7211 76.0506008,1199.32216 76.44018,1199.79639 C76.5819601,1199.9121 76.6322832,1200.10641 76.56449,1200.27639 C76.52598,1200.43504 76.42954,1200.81639 76.39092,1200.96858 C76.3748077,1201.06273 76.3146392,1201.14349 76.2290396,1201.18586 C76.1434401,1201.22824 76.0427358,1201.22712 75.9581,1201.18285 C74.7501231,1200.5528 74.0499439,1199.24846 74.19236,1197.89351 C74.19236,1195.44425 76.25806,1192.51071 80.35317,1192.51071 C81.7344821,1192.42705 83.0912823,1192.90321 84.1173772,1193.83173 C85.1434721,1194.76025 85.7523884,1196.06288 85.80671,1197.44566 C85.80668,1200.825 83.92947,1203.34927 81.15666,1203.34927 L81.15666,1203.34927 Z" id="Shape" fill="#FFFFFF"></path>
            <rect id="Rectangle-path" fill="#FFFFFF" x="232.34837" y="1197.38678" width="3.36705" height="10.12392"></rect>
            <path d="M234.032,1196.00733 L234.00937,1196.00733 C232.951962,1196.00109 232.098935,1195.14049 232.102053,1194.08307 C232.105171,1193.02564 232.963258,1192.17008 234.020685,1192.17008 C235.078112,1192.17008 235.936199,1193.02564 235.939317,1194.08307 C235.942435,1195.14049 235.089408,1196.00109 234.032,1196.00733 L234.032,1196.00733 Z" id="Shape" fill="#FFFFFF"></path>
            <path d="M247.84667,1207.5107 L244.47948,1207.5107 L244.47948,1202.09408 C244.47948,1200.73423 243.9953,1199.80523 242.77902,1199.80523 C242.00051,1199.81008 241.308379,1200.3019 241.04771,1201.03549 C240.961205,1201.30048 240.923977,1201.57908 240.93787,1201.85749 L240.93787,1207.51065 L237.57644,1207.51065 C237.57644,1207.51065 237.61853,1198.33837 237.57644,1197.38673 L240.93787,1197.38673 L240.93787,1198.82254 C241.559186,1197.74346 242.728699,1197.09908 243.97281,1197.15033 C246.18556,1197.15033 247.84667,1198.59739 247.84667,1201.70541 L247.84667,1207.51064 L247.84667,1207.5107 Z" id="Shape" fill="#FFFFFF"></path>
            <path d="M404.86654,1199.6552 L395.13346,1199.6552 C393.586255,1199.65574 392.332276,1200.91013 392.33226,1202.45734 L392.33226,1204.70887 C392.332304,1206.25601 393.586316,1207.51031 395.13346,1207.5107 L404.86654,1207.5107 C406.413638,1207.5102 407.667585,1206.25597 407.66774,1204.70887 L407.66774,1202.45734 C407.667613,1200.91018 406.413699,1199.65585 404.86654,1199.6552 L404.86654,1199.6552 Z M397.17831,1201.40803 L396.27345,1201.40803 L396.27345,1205.90422 L395.39923,1205.90422 L395.39923,1201.408 L394.495,1201.408 L394.495,1200.64321 L397.17833,1200.64321 L397.17833,1201.408 L397.17831,1201.40803 Z M399.73438,1205.90421 L398.959,1205.90421 L398.959,1205.479 C398.831684,1205.62352 398.680174,1205.74478 398.51126,1205.83732 C398.373978,1205.91607 398.218947,1205.95868 398.0607,1205.96114 C397.905451,1205.97206 397.754462,1205.90745 397.65517,1205.78761 C397.553824,1205.63387 397.506021,1205.451 397.51917,1205.26733 L397.51917,1202.02276 L398.29459,1202.02276 L398.29459,1205.00031 C398.289301,1205.07001 398.306151,1205.13961 398.34274,1205.19917 C398.383172,1205.24375 398.442299,1205.26659 398.5022,1205.26077 C398.580158,1205.25334 398.654731,1205.22528 398.71825,1205.17948 C398.808689,1205.12255 398.889882,1205.05212 398.95901,1204.97062 L398.95901,1202.02246 L399.73443,1202.02246 L399.73443,1205.90425 L399.73438,1205.90421 Z M402.54965,1205.10284 C402.56448,1205.32834 402.499875,1205.55192 402.36705,1205.73475 C402.23504,1205.8859 402.040151,1205.96693 401.83989,1205.95393 C401.699855,1205.95694 401.560969,1205.92807 401.43373,1205.86951 C401.305598,1205.8066 401.192468,1205.71691 401.10199,1205.60651 L401.10199,1205.90386 L400.31719,1205.90386 L400.31719,1200.6432 L401.10199,1200.6432 L401.10199,1202.33756 C401.195828,1202.22883 401.308268,1202.13767 401.43405,1202.06835 C401.544088,1202.00861 401.667162,1201.97693 401.79237,1201.97611 C402.008636,1201.96283 402.217968,1202.05498 402.35424,1202.22343 C402.498096,1202.43681 402.566646,1202.69208 402.54903,1202.94882 L402.54903,1205.10282 L402.54965,1205.10282 L402.54965,1205.10284 Z M405.23954,1204.05696 L403.75561,1204.05696 L403.75561,1204.78829 C403.743678,1204.93409 403.769749,1205.08049 403.83128,1205.21321 C403.891736,1205.29667 403.99201,1205.34168 404.09455,1205.3314 C404.195296,1205.34243 404.295331,1205.30522 404.36438,1205.23103 C404.429849,1205.09321 404.456446,1204.94012 404.4413,1204.78829 L404.4413,1204.61163 L405.23955,1204.61163 L405.23955,1204.8108 C405.264311,1205.13759 405.159144,1205.46095 404.94689,1205.71066 C404.710844,1205.92674 404.395784,1206.03531 404.07673,1206.01051 C403.769777,1206.02711 403.470529,1205.9108 403.25535,1205.69127 C403.04495,1205.44792 402.937424,1205.13229 402.9555,1204.81111 L402.9555,1203.06767 C402.944592,1202.75892 403.064621,1202.45992 403.28599,1202.24441 C403.514831,1202.02888 403.820779,1201.9145 404.13489,1201.92705 C404.436886,1201.907 404.733593,1202.0136 404.95377,1202.22127 C405.157474,1202.45423 405.260274,1202.75858 405.23955,1203.06735 L405.23955,1204.05695 L405.23954,1204.05696 Z" id="Shape" fill="#FFFFFF"></path>
            <path d="M404.10207,1202.60554 C404.001227,1202.59536 403.901835,1202.63547 403.8363,1202.71279 C403.772547,1202.81693 403.744244,1202.93891 403.75563,1203.06048 L403.75563,1203.45288 L404.44131,1203.45288 L404.44131,1203.06048 C404.452126,1202.93879 404.423396,1202.81685 404.35939,1202.71279 C404.296753,1202.63652 404.200333,1202.59633 404.10207,1202.60554 L404.10207,1202.60554 Z" id="Shape" fill="#FFFFFF"></path>
            <path d="M401.42655,1202.59241 C401.369724,1202.59255 401.313646,1202.60537 401.2624,1202.62993 C401.202307,1202.65956 401.14807,1202.69981 401.10231,1202.74875 L401.10231,1205.16662 C401.155066,1205.22305 401.217287,1205.26983 401.28616,1205.30482 C401.34503,1205.33185 401.408983,1205.34602 401.47376,1205.3464 C401.552788,1205.35319 401.630401,1205.32238 401.68325,1205.26323 C401.734376,1205.18405 401.757798,1205.09015 401.74985,1204.99623 L401.74985,1202.99171 C401.757729,1202.88581 401.729035,1202.78041 401.66856,1202.69311 C401.607556,1202.62427 401.518381,1202.58716 401.42655,1202.59241 L401.42655,1202.59241 Z" id="Shape" fill="#FFFFFF"></path>
            <polygon id="Shape" fill="#FFFFFF" points="396.408 1198.307 397.391 1198.307 397.391 1195.903 398.536 1192.511 397.536 1192.511 396.928 1194.828 396.866 1194.828 396.227 1192.511 395.237 1192.511 396.408 1196.011"></polygon>
            <path d="M399.86758,1198.41484 C400.207916,1198.4344 400.542777,1198.32259 400.80309,1198.10248 C401.035151,1197.87819 401.158564,1197.56429 401.1414,1197.24201 L401.1414,1195.03331 C401.150519,1194.72864 401.024098,1194.43561 400.79621,1194.23319 C400.54956,1194.02133 400.231882,1193.91063 399.90698,1193.92334 C399.565921,1193.90537 399.229644,1194.0097 398.95865,1194.21756 C398.724346,1194.41207 398.594064,1194.70465 398.60627,1195.00893 L398.60627,1197.22513 C398.591026,1197.55012 398.716323,1197.86597 398.95021,1198.09213 C399.202112,1198.31539 399.531377,1198.43122 399.86758,1198.41484 L399.86758,1198.41484 Z M399.50551,1194.97642 C399.503103,1194.88993 399.539312,1194.80685 399.60431,1194.74973 C399.677891,1194.69038 399.770649,1194.66002 399.86508,1194.66437 C399.965551,1194.65935 400.064626,1194.68954 400.14523,1194.74973 C400.214338,1194.80438 400.253717,1194.88834 400.25154,1194.97642 L400.25154,1197.30612 C400.257046,1197.4071 400.21876,1197.50554 400.14648,1197.57627 C400.069133,1197.64451 399.968081,1197.67966 399.86508,1197.67413 C399.766392,1197.68093 399.669423,1197.64573 399.59808,1197.5772 C399.532418,1197.50259 399.499024,1197.40499 399.50522,1197.3058 L399.50522,1194.97641 L399.50553,1194.97641 L399.50551,1194.97642 Z" id="Shape" fill="#FFFFFF"></path>
            <path d="M402.45993,1198.3695 C402.637247,1198.36538 402.810931,1198.31839 402.96614,1198.23255 C403.155796,1198.12987 403.326052,1197.99484 403.46923,1197.83355 L403.46923,1198.30724 L404.34252,1198.30724 L404.34252,1194.03149 L403.46923,1194.03149 L403.46923,1197.277 C403.39145,1197.36635 403.300955,1197.44378 403.20065,1197.50681 C403.128488,1197.55758 403.044309,1197.5886 402.95646,1197.59681 C402.889617,1197.6035 402.823606,1197.57782 402.77886,1197.52771 C402.736506,1197.46318 402.716715,1197.38644 402.72258,1197.30947 L402.72258,1194.03147 L401.85058,1194.03147 L401.85058,1197.60497 C401.835733,1197.80723 401.889486,1198.00858 402.00316,1198.17653 C402.116133,1198.30974 402.285668,1198.38136 402.45993,1198.3695 L402.45993,1198.3695 Z" id="Shape" fill="#FFFFFF"></path>
            <path d="M555.69334,1198.93727 C555.68978,1199.78952 555.69334,1200.64173 555.69695,1201.49394 C557.1257,1201.54051 558.55795,1201.51894 559.98673,1201.54051 C559.35653,1204.70951 555.04528,1205.73715 552.76432,1203.66751 C551.654985,1202.72561 551.03272,1201.3314 551.072391,1199.87668 C551.112063,1198.42196 551.80939,1197.06374 552.96841,1196.1837 C554.739327,1194.96097 557.097529,1195.02323 558.80146,1196.3377 C559.468524,1195.71418 560.103152,1195.05685 560.70284,1194.36828 C559.311958,1193.16547 557.532146,1192.50775 555.69334,1192.51704 C552.087819,1192.52331 548.996556,1195.09327 548.331954,1198.63701 C547.667352,1202.18075 549.617352,1205.69616 552.97559,1207.00843 C556.008529,1208.21765 559.47554,1207.2967 561.50859,1204.74177 C562.635795,1203.03222 563.115769,1200.97645 562.86212,1198.9445 C560.47009,1198.92653 558.08174,1198.9301 555.69334,1198.93727 L555.69334,1198.93727 Z" id="Shape" fill="#FFFFFF"></path>
            <path d="M569.66549,1198.92653 C569.65832,1198.21394 569.65475,1197.49778 569.65119,1196.78523 L567.52063,1196.78523 C567.51346,1197.49782 567.50633,1198.21037 567.50271,1198.92653 C566.78655,1198.9301 566.072783,1198.93488 565.36141,1198.94088 L565.36141,1201.07144 C566.07396,1201.07861 566.79012,1201.08579 567.50271,1201.09292 C567.50988,1201.80551 567.50988,1202.51806 567.51706,1203.23066 L569.65119,1203.23066 C569.65475,1202.51807 569.65832,1201.80552 569.66549,1201.08936 C570.38165,1201.08218 571.09424,1201.07862 571.80679,1201.07145 L571.80679,1198.94089 C571.09424,1198.93371 570.37808,1198.93371 569.66549,1198.92653 L569.66549,1198.92653 Z" id="Shape" fill="#FFFFFF"></path>
        </g>
    </g>
</svg>