<svg id="Layer_4" data-name="Layer 4" xmlns="http://www.w3.org/2000/svg" width="960" height="1280.0107" viewBox="0 0 960 1280.0107"><defs><style>.cls-1{fill:#eb212e;}.cls-1,.cls-2{opacity:0.25;isolation:isolate;}.cls-2,.cls-7{fill:#c6d6d4;}.cls-3{fill:#de7854;}.cls-4{fill:#a4b2b0;}.cls-5,.cls-9{fill:#fff;}.cls-6{fill:#5aadaa;}.cls-8{fill:#c5d6d3;}.cls-9{fill-rule:evenodd;}</style></defs><title>Issue_Sprites_2.0</title><rect class="cls-1" y="-0.00004" width="1" height="1"/><rect class="cls-2" x="959" y="1119.0097" width="1" height="1"/><path class="cls-3" d="M239.999,376.0107a24,24,0,1,0,24,24A23.99934,23.99934,0,0,0,239.999,376.0107Zm0,46a22,22,0,1,1,22-22A21.99982,21.99982,0,0,1,239.999,422.0107Z"/><path class="cls-3" d="M234.999,400.0107a0.99947,0.99947,0,0,0,1,1h8a1,1,0,0,0,0-2h-8a0.99947,0.99947,0,0,0-1,1h0Z"/><path class="cls-3" d="M237.999,404.0107h-5a4,4,0,1,1,0-8h5a1.95878,1.95878,0,0,0-2-2h-3a6,6,0,1,0,0,12h3A1.95925,1.95925,0,0,0,237.999,404.0107Z"/><path class="cls-3" d="M246.999,394.0107h-3a1.95831,1.95831,0,0,0-2,2h5a4,4,0,0,1,0,8h-5a1.95878,1.95878,0,0,0,2,2q3-.0015,3,0A6,6,0,0,0,246.999,394.0107Z"/><path class="cls-4" d="M720,376.0107a24,24,0,1,0,24,24A23.99926,23.99926,0,0,0,720,376.0107Zm0,46a22,22,0,1,1,22-22A21.99982,21.99982,0,0,1,720,422.0107Z"/><path class="cls-4" d="M729,392.0107a1.0007,1.0007,0,0,1-1,1h-9a0.99946,0.99946,0,0,1-1-1h0a0.99946,0.99946,0,0,1,1-1h9a1.0007,1.0007,0,0,1,1,1h0Z"/><path class="cls-4" d="M728.707,391.3037a0.99946,0.99946,0,0,1,0,1.414l-9.90042,9.8994a0.99942,0.99942,0,0,1-1.414,0h0a0.99964,0.99964,0,0,1,0-1.414l9.90042-9.8994a0.99942,0.99942,0,0,1,1.414,0h0Z"/><path class="cls-4" d="M728,391.0107a1.0007,1.0007,0,0,1,1,1v9a1.0007,1.0007,0,0,1-1,1h0a0.99946,0.99946,0,0,1-1-1v-9a0.99946,0.99946,0,0,1,1-1h0Z"/><path class="cls-4" d="M726.09958,402.9101a1.95743,1.95743,0,0,0-1.998-2v4.001a1.002,1.002,0,0,1-1,1h-8.002a1.00191,1.00191,0,0,1-1-1v-8.002a1.002,1.002,0,0,1,1-1h4a1.9581,1.9581,0,0,0-2-1.999c-2,0-2-.001-2-0.001a3.00084,3.00084,0,0,0-3,3v8.002a3.00084,3.00084,0,0,0,3,3h8.002a3.00084,3.00084,0,0,0,3-3S726.09958,404.9101,726.09958,402.9101Z"/><path class="cls-3" d="M80.5854,242.4248a0.99631,0.99631,0,0,1,0-1.4141h0.4141a0.57317,0.57317,0,0,1,1,0l7.7051,7.293a0.996,0.996,0,0,1,0,1.414h0a0.99954,0.99954,0,0,1-1.4141,0Z"/><path class="cls-3" d="M79.9995,216.0107a24,24,0,1,0,24,24A23.99934,23.99934,0,0,0,79.9995,216.0107Zm0,46a22,22,0,1,1,22-22A21.99983,21.99983,0,0,1,79.9995,262.0107Z"/><path class="cls-3" d="M76.9995,230.0107a7,7,0,1,0,7,7A6.9991,6.9991,0,0,0,76.9995,230.0107Zm0,12a5,5,0,1,1,5-5A4.99965,4.99965,0,0,1,76.9995,242.0107Z"/><path class="cls-5" d="M240.585,242.4248a0.99612,0.99612,0,0,1,0-1.4141h0.414a0.57317,0.57317,0,0,1,1,0l7.70509,7.293a0.996,0.996,0,0,1,0,1.414h0a0.99954,0.99954,0,0,1-1.41409,0Z"/><path class="cls-5" d="M239.999,216.0107a24,24,0,1,0,24,24A23.99934,23.99934,0,0,0,239.999,216.0107Zm0,46a22,22,0,1,1,22-22A21.99982,21.99982,0,0,1,239.999,262.0107Z"/><path class="cls-5" d="M236.999,230.0107a7,7,0,1,0,7,7A6.99909,6.99909,0,0,0,236.999,230.0107Zm0,12a5,5,0,1,1,5-5A4.99964,4.99964,0,0,1,236.999,242.0107Z"/><path class="cls-6" d="M556.80659,570.5058a0.9978,0.9978,0,0,1-1.414,0h0a0.99963,0.99963,0,0,1,0-1.414l9.89841-9.8985a0.99971,0.99971,0,0,1,1.41409,0h0a0.99613,0.99613,0,0,1,0,1.4141Z"/><path class="cls-6" d="M555.39259,550.707a0.99975,0.99975,0,0,1,0-1.4141h0a0.99961,0.99961,0,0,1,1.414,0l9.8985,9.9004a0.99613,0.99613,0,0,1,0,1.4141h0a0.99971,0.99971,0,0,1-1.41409,0Z"/><path class="cls-6" d="M560,536a24,24,0,1,0,24,24A23.99927,23.99927,0,0,0,560,536Zm0,46a22,22,0,1,1,22-22A21.99988,21.99988,0,0,1,560,582Z"/><path class="cls-6" d="M403.19139,549.4941a0.99792,0.99792,0,0,1,1.4141,0h0a0.99973,0.99973,0,0,1,0,1.4141l-9.89849,9.8984a0.99961,0.99961,0,0,1-1.414,0h0a0.99953,0.99953,0,0,1,0-1.4141Z"/><path class="cls-6" d="M404.60549,569.2929a0.998,0.998,0,0,1,0,1.4141h0a0.99973,0.99973,0,0,1-1.4141,0l-9.89839-9.9004a0.99953,0.99953,0,0,1,0-1.4141h0a0.99961,0.99961,0,0,1,1.414,0Z"/><path class="cls-6" d="M400,584a24,24,0,1,0-24-24A24.00063,24.00063,0,0,0,400,584Zm0-46a22,22,0,1,1-22,22A21.99983,21.99983,0,0,1,400,538Z"/><path class="cls-6" d="M235.75589,730.6171a0.99792,0.99792,0,0,1-1.4141,0h0a0.99961,0.99961,0,0,1,0-1.414l9.8984-9.8985a0.99973,0.99973,0,0,1,1.4141,0h0a0.99613,0.99613,0,0,1,0,1.4141Z"/><path class="cls-6" d="M234.34179,710.8183a0.99961,0.99961,0,0,1,0-1.414h0a0.99954,0.99954,0,0,1,1.4141,0l9.8984,9.9003a0.99613,0.99613,0,0,1,0,1.4141h0a0.99973,0.99973,0,0,1-1.4141,0Z"/><path class="cls-6" d="M84.2412,709.4043a0.99955,0.99955,0,0,1,1.4141,0h0a0.99961,0.99961,0,0,1,0,1.414l-9.8985,9.8985a0.99961,0.99961,0,0,1-1.414,0h0a0.99955,0.99955,0,0,1,0-1.4141Z"/><path class="cls-6" d="M85.6553,729.2031a0.9978,0.9978,0,0,1,0,1.414h0a0.99955,0.99955,0,0,1-1.4141,0l-9.8984-9.9003a0.99955,0.99955,0,0,1,0-1.4141h0a0.99961,0.99961,0,0,1,1.414,0Z"/><path class="cls-6" d="M79.9995,536a24,24,0,1,0,24,24A24.0012,24.0012,0,0,0,79.9995,536Zm0,46a22,22,0,1,1,22-22A21.99989,21.99989,0,0,1,79.9995,582Z"/><path class="cls-6" d="M79.9995,584a24,24,0,1,0-24-24A23.9987,23.9987,0,0,0,79.9995,584Zm0-46a22,22,0,1,1-22,22A21.99982,21.99982,0,0,1,79.9995,538Z"/><path class="cls-6" d="M77.9077,570.705a0.996,0.996,0,0,1-1.414,0h0a0.99942,0.99942,0,0,1,0-1.414l15.7988-15.7989a0.99961,0.99961,0,0,1,1.414,0h0a0.99955,0.99955,0,0,1,0,1.4141Z"/><path class="cls-6" d="M79.9995,536a24,24,0,1,0,24,24A24.0012,24.0012,0,0,0,79.9995,536Zm0,46a22,22,0,1,1,22-22A21.99989,21.99989,0,0,1,79.9995,582Z"/><path class="cls-6" d="M77.8081,569.2929a0.99973,0.99973,0,0,1,0,1.4141h0a0.99973,0.99973,0,0,1-1.4141,0l-9.8984-9.9004a0.99613,0.99613,0,0,1,0-1.4141h0a0.99973,0.99973,0,0,1,1.4141,0Z"/><path class="cls-6" d="M79.9995,584a24,24,0,1,0-24-24A23.9987,23.9987,0,0,0,79.9995,584Zm0-46a22,22,0,1,1-22,22A21.99982,21.99982,0,0,1,79.9995,538Z"/><path class="cls-3" d="M880,216.0107a24,24,0,1,0,24,24A24.00054,24.00054,0,0,0,880,216.0107Zm0,46a22,22,0,1,1,22-22A21.99981,21.99981,0,0,1,880,262.0107Z"/><path class="cls-3" d="M880,230.6621a1.09445,1.09445,0,0,1,.55468.122l8.6719,5.7813A2.26006,2.26006,0,0,1,890,238.0107v9H870v-9a2.26,2.26,0,0,1,.77338-1.4453l8.6719-5.7822A1.11434,1.11434,0,0,1,880,230.6621m0-2a3.03739,3.03739,0,0,0-1.66412.458l-8.6718,5.7812A4.1898,4.1898,0,0,0,868,238.0107v9a2.00638,2.00638,0,0,0,2,2h20a2.00641,2.00641,0,0,0,2-2v-9a4.18326,4.18326,0,0,0-1.66412-3.1094l-8.6718-5.7812A3.03724,3.03724,0,0,0,880,228.6621h0Z"/><path class="cls-3" d="M880,244.0107a1.00368,1.00368,0,0,1-.44732-0.1055l-8-4a1.0001,1.0001,0,0,1,.8946-1.789L880,241.8916l7.55268-3.7754a1.0001,1.0001,0,0,1,.8946,1.789l-8,4A0.99741,0.99741,0,0,1,880,244.0107Z"/><path class="cls-4" d="M560,216.0107a24,24,0,1,0,24,24A24.00055,24.00055,0,0,0,560,216.0107Zm0,46a22,22,0,1,1,22-22A21.99982,21.99982,0,0,1,560,262.0107Z"/><path class="cls-4" d="M560,230.6621a1.09447,1.09447,0,0,1,.55469.122l8.6719,5.7813A2.26,2.26,0,0,1,570,238.0107v9H550v-9a2.26,2.26,0,0,1,.77339-1.4453l8.6719-5.7822A1.11433,1.11433,0,0,1,560,230.6621m0-2a3.03736,3.03736,0,0,0-1.66411.458l-8.6718,5.7812A4.18979,4.18979,0,0,0,548,238.0107v9a2.00639,2.00639,0,0,0,2,2h20a2.00641,2.00641,0,0,0,2-2v-9a4.18328,4.18328,0,0,0-1.66411-3.1094l-8.6718-5.7812A3.03727,3.03727,0,0,0,560,228.6621h0Z"/><path class="cls-4" d="M560,244.0107a1.00367,1.00367,0,0,1-.44731-0.1055l-8-4a1.0001,1.0001,0,0,1,.8946-1.789L560,241.8916l7.55269-3.7754a1.0001,1.0001,0,0,1,.8946,1.789l-8,4A0.99741,0.99741,0,0,1,560,244.0107Z"/><path class="cls-4" d="M720,536a24,24,0,1,0,24,24A23.9999,23.9999,0,0,0,720,536Zm0,46a22,22,0,1,1,22-22A21.99988,21.99988,0,0,1,720,582Z"/><path class="cls-4" d="M724.40428,555.8164l-0.2324-.1036a6.133,6.133,0,0,0-1.25588-.4023,7.72183,7.72183,0,0,0-1.52932-.1367,6.82161,6.82161,0,0,0-2.8808.5781,6.51246,6.51246,0,0,0-2.08988,1.4883,6.27357,6.27357,0,0,0-1.26562,2.0469,6.364,6.364,0,0,0-.4258,2.25,5.13762,5.13762,0,0,0,.19342,1.4336,3.34113,3.34113,0,0,0,.60538,1.1855,2.82827,2.82827,0,0,0,1.0235.7949,3.36112,3.36112,0,0,0,1.4277.2852,4.2477,4.2477,0,0,0,1.9629-.4707,4.41135,4.41135,0,0,0,1.2988-1.0567,2.23754,2.23754,0,0,0,.7305,1.0215,2.84865,2.84865,0,0,0,1.7695.5313,4.46692,4.46692,0,0,0,2.09572-.5098,5.238,5.238,0,0,0,1.67-1.3906,6.67591,6.67591,0,0,0,1.10148-2.0742A8.21578,8.21578,0,0,0,729,558.6992a9.18973,9.18973,0,0,0-.34372-2.5645,8.276,8.276,0,0,0-.959-2.1523,8.012,8.012,0,0,0-1.4746-1.7168,8.883,8.883,0,0,0-1.8711-1.2481,9.65082,9.65082,0,0,0-2.1485-.7617,10.2009,10.2009,0,0,0-4.9863.1113,10.03466,10.03466,0,0,0-2.38478,1.0313,9.719,9.719,0,0,0-2.00972,1.5977,10.30294,10.30294,0,0,0-2.8965,7.1894,11.30705,11.30705,0,0,0,.8027,4.3652,9.48244,9.48244,0,0,0,2.2207,3.2735,9.6981,9.6981,0,0,0,3.334,2.0429,11.87976,11.87976,0,0,0,4.1289.7071,13.84355,13.84355,0,0,0,3.9551-.5254,11.54534,11.54534,0,0,0,3.125-1.4512l0.1973-.1328-0.4004-1.0566a0.7,0.7,0,0,0-.66408-0.4844,0.96733,0.96733,0,0,0-.49222.1543,10.07457,10.07457,0,0,1-2.4453,1.0195,12.15175,12.15175,0,0,1-3.2754.4024,9.71925,9.71925,0,0,1-3.24408-.5332,7.18589,7.18589,0,0,1-4.35942-4.1641,9.38033,9.38033,0,0,1-.6465-3.6172,8.552,8.552,0,0,1,.6035-3.2363,7.983,7.983,0,0,1,1.65042-2.5664,7.63805,7.63805,0,0,1,2.45308-1.6973,8.46417,8.46417,0,0,1,5.7676-.1953,6.06546,6.06546,0,0,1,2.1817,1.2383,5.79294,5.79294,0,0,1,1.4492,2.0644,7.36463,7.36463,0,0,1,.5332,2.9063,7.28989,7.28989,0,0,1-.2344,1.9023,5.08832,5.08832,0,0,1-.623,1.4453,2.99624,2.99624,0,0,1-.8789.8985,1.92866,1.92866,0,0,1-1.4747.25,0.77884,0.77884,0,0,1-.3242-0.166,0.847,0.847,0,0,1-.22258-0.3438,1.79559,1.79559,0,0,1-.09382-0.6367,6.34577,6.34577,0,0,1,.2285-1.4746Zm-5.9922,7.3457a1.1511,1.1511,0,0,1-.9863-0.4258,2.05871,2.05871,0,0,1-.3516-1.2617,4.39529,4.39529,0,0,1,.29882-1.5801,4.55867,4.55867,0,0,1,.82618-1.3731,4.14635,4.14635,0,0,1,1.2539-.9609,3.48519,3.48519,0,0,1,1.584-.3613,4.86173,4.86173,0,0,1,.6914.0469l-0.8691,3.3769a5.39649,5.39649,0,0,1-.4883,1.2773,2.84832,2.84832,0,0,1-.6094.7696,1.93621,1.93621,0,0,1-.6582.3808A2.33274,2.33274,0,0,1,718.41208,563.1621Z"/><path class="cls-4" d="M880,376.0107a24,24,0,1,0,24,24A23.99926,23.99926,0,0,0,880,376.0107Zm0,46a22,22,0,1,1,22-22A21.99981,21.99981,0,0,1,880,422.0107Z"/><path class="cls-4" d="M879.998,388.7627a0.45621,0.45621,0,0,1,.25588.0644l8.9277,7.4395a2.95893,2.95893,0,0,1,.81642,1.7441v10H885v-6a4.00455,4.00455,0,0,0-4-4h-2a4.00453,4.00453,0,0,0-4,4v6h-5.002v-10a2.959,2.959,0,0,1,.81648-1.7441l8.9277-7.4395a0.46716,0.46716,0,0,1,.25582-0.0644m0-2a2.39954,2.39954,0,0,0-1.53512.5283l-8.9277,7.4394a4.86055,4.86055,0,0,0-1.53718,3.2803v10a2.00638,2.00638,0,0,0,2,2H875a2.00641,2.00641,0,0,0,2-2v-6a2.00638,2.00638,0,0,1,2-2h2a2.00641,2.00641,0,0,1,2,2v6a2.00638,2.00638,0,0,0,2,2h4.998a2.00635,2.00635,0,0,0,2-2v-10a4.86706,4.86706,0,0,0-1.53512-3.2803l-8.9277-7.4394a2.405,2.405,0,0,0-1.53718-.5283h0Z"/><path class="cls-4" d="M875.998,391.0107v-1.0049a2.00469,2.00469,0,0,0-1.99412-1.9951h-2.0098a2.00514,2.00514,0,0,0-1.99408,2v5h0l2-1.333v-3.667h2v2.334Z"/><path class="cls-4" d="M400,1064.0107a24,24,0,1,0-24-24A23.99928,23.99928,0,0,0,400,1064.0107Zm0-46a22,22,0,1,1-22,22A21.99983,21.99983,0,0,1,400,1018.0107Z"/><path class="cls-4" d="M400.29689,1025.9951a10.99991,10.99991,0,0,0-11,11c0,8,10,18,11,18s11-10,11-18A10.99869,10.99869,0,0,0,400.29689,1025.9951Zm0,16a5,5,0,1,1,5-5A5.00029,5.00029,0,0,1,400.29689,1041.9951Z"/><path class="cls-4" d="M880,536a24,24,0,1,0,24,24A24.00054,24.00054,0,0,0,880,536Zm0,46a22,22,0,1,1,22-22A21.99988,21.99988,0,0,1,880,582Z"/><path class="cls-4" d="M890,554.0107H870a1.98328,1.98328,0,0,0-2,1.9736V567a2.01559,2.01559,0,0,0,2,2.0107h20A2.01561,2.01561,0,0,0,892,567V555.9843A1.98331,1.98331,0,0,0,890,554.0107Zm-1.62892,13H870v-11h20v11h-1.62892Z"/><path class="cls-4" d="M883,560.0107a1.00321,1.00321,0,0,1-1,1h-8a1.00448,1.00448,0,0,1-1-1h0a1.00318,1.00318,0,0,1,1-1h8a1.00192,1.00192,0,0,1,1,1h0Z"/><path class="cls-4" d="M880,564.0107a1.00321,1.00321,0,0,1-1,1h-5a1.00448,1.00448,0,0,1-1-1h0a1.00318,1.00318,0,0,1,1-1h5a1.00192,1.00192,0,0,1,1,1h0Z"/><path class="cls-4" d="M888,560.9843a1.02611,1.02611,0,0,1-1,1.0264h-1a1.02744,1.02744,0,0,1-1-1.0264v-2a0.98094,0.98094,0,0,1,1-.9736h1a0.97973,0.97973,0,0,1,1,.9736v2Z"/><rect class="cls-4" x="79" y="1036.0107" width="2" height="4"/><rect class="cls-4" x="77.09799" y="1037.47576" width="2.00032" height="3.99957" transform="translate(-934.74428 792.98225) rotate(-72.02526)"/><rect class="cls-4" x="76.82496" y="1040.71133" width="4.00043" height="2.00104" transform="translate(-810.39054 493.37582) rotate(-54.01263)"/><rect class="cls-4" x="80.17616" y="1039.7119" width="2.00023" height="3.9999" transform="translate(-596.62437 246.5141) rotate(-35.98737)"/><rect class="cls-4" x="79.90209" y="1038.47554" width="4.00052" height="2.00002" transform="translate(-316.78225 76.00889) rotate(-17.97474)"/><path class="cls-6" d="M79.9995,376.0107a24,24,0,1,0,24,24A24.0012,24.0012,0,0,0,79.9995,376.0107Zm0,46a22,22,0,1,1,22-22A21.99983,21.99983,0,0,1,79.9995,422.0107Z"/><path class="cls-6" d="M85.9995,409.3603a6.24657,6.24657,0,0,1-6.2402-6.2402c-0.002-.0606-0.1524-8.9004,8.2031-12.3789a1.03891,1.03891,0,0,1,1.2813,1.5097,17.40123,17.40123,0,0,0-1.7774,4.8067A6.2386,6.2386,0,0,1,85.9995,409.3603Zm0.1211-15.1738a11.84023,11.84023,0,0,0-4.2812,8.9043,4.16023,4.16023,0,1,0,4.3261-4.1211,1.03995,1.03995,0,0,1-.9785-1.25A31.51036,31.51036,0,0,1,86.1206,394.1865Z"/><path class="cls-6" d="M71.9995,409.3603a6.24786,6.24786,0,0,1-6.2402-6.2402c-0.002-.0606-0.1524-8.9004,8.2031-12.3789a1.03891,1.03891,0,0,1,1.2813,1.5097,17.40123,17.40123,0,0,0-1.7774,4.8067A6.2386,6.2386,0,0,1,71.9995,409.3603Zm0.1211-15.1738a11.84023,11.84023,0,0,0-4.2812,8.9043,4.16023,4.16023,0,1,0,4.3261-4.1211,1.03995,1.03995,0,0,1-.9785-1.25A31.94775,31.94775,0,0,1,72.1206,394.1865Z"/><path class="cls-6" d="M250.60639,549.4921a0.99961,0.99961,0,0,0-1.414,0l-9.0918,9.0938-9.293-9.293a0.99988,0.99988,0,1,0-1.414,1.4141l9.19141,9.1914-9.19141,9.1934a0.99985,0.99985,0,1,0,1.414,1.414l9.0918-9.0937,9.293,9.2929a0.99985,0.99985,0,1,0,1.414-1.414l-9.19139-9.1914,9.19139-9.1934A0.99955,0.99955,0,0,0,250.60639,549.4921ZM239.999,536a24,24,0,1,0,24,24A23.99991,23.99991,0,0,0,239.999,536Zm0,46a22,22,0,1,1,22-22A21.99989,21.99989,0,0,1,239.999,582Z"/><path class="cls-4" d="M560,376.0107a24,24,0,1,0,24,24A23.99927,23.99927,0,0,0,560,376.0107Zm0,46a22,22,0,1,1,22-22A21.99982,21.99982,0,0,1,560,422.0107Z"/><path class="cls-4" d="M555.16209,404.6777a1.16154,1.16154,0,0,1,1.1621,1.1582,1.14306,1.14306,0,0,1-1.1621,1.1494,1.15383,1.15383,0,1,1,0-2.3076m0-2a3.15381,3.15381,0,1,0,3.1621,3.1582,3.16542,3.16542,0,0,0-3.1621-3.1582h0Z"/><path class="cls-4" d="M565.207,410.0107a0.99946,0.99946,0,0,1-1-1A12.2198,12.2198,0,0,0,552,396.8056a1,1,0,0,1,0-2,14.22245,14.22245,0,0,1,14.207,14.2051A1.00069,1.00069,0,0,1,565.207,410.0107Z"/><path class="cls-4" d="M571.998,410.0107a0.99946,0.99946,0,0,1-1-1,19.017,19.017,0,0,0-18.99021-19,1,1,0,0,1,0-2,21.01835,21.01835,0,0,1,20.99021,21A1.00069,1.00069,0,0,1,571.998,410.0107Z"/><path class="cls-4" d="M400.16409,411.0117A1.15335,1.15335,0,1,1,399,412.1699a1.16154,1.16154,0,0,1,1.16409-1.1582m0-2a3.15331,3.15331,0,1,0,3.1621,3.1582,3.16713,3.16713,0,0,0-3.1621-3.1582h0Z"/><path class="cls-4" d="M400,376.0117a23.999,23.999,0,1,0,24,24A23.99991,23.99991,0,0,0,400,376.0117Zm0,45.998a21.999,21.999,0,1,1,22-21.998A21.99811,21.99811,0,0,1,400,422.0097Z"/><path class="cls-4" d="M408,393a7,7,0,1,0-13.59961,2.3369,1,1,0,1,0,1.8848-.669A5.0005,5.0005,0,1,1,406,393a6.07951,6.07951,0,0,1-.85941,2.4824,7.4505,7.4505,0,0,1-3.291,2.8086,5.67319,5.67319,0,0,0-1.55659,1.0019A5.79051,5.79051,0,0,0,399,403v4a1,1,0,0,0,2,0v-3.9981a3.9374,3.9374,0,0,1,.707-2.2949,4.21337,4.21337,0,0,1,1.03709-.627,9.4088,9.4088,0,0,0,4.08791-3.5254c0.00779-.0117.00879-0.0253,0.01569-0.0371,0.0107-.0175.02531-0.0293,0.0351-0.0478A6.67249,6.67249,0,0,0,408,393Z"/><path class="cls-3" d="M720,216.0107a24,24,0,1,0,24,24A24.00054,24.00054,0,0,0,720,216.0107Zm12,31a2.00641,2.00641,0,0,1-2,2H710a2.00639,2.00639,0,0,1-2-2v-9a4.1898,4.1898,0,0,1,1.66408-3.1094l8.6718-5.7812a3.25218,3.25218,0,0,1,3.3282,0l8.6718,5.7812A4.18327,4.18327,0,0,1,732,238.0107v9Z"/><path class="cls-3" d="M729.22658,236.5654l-8.6719-5.7813A1.09446,1.09446,0,0,0,720,230.6621a1.11434,1.11434,0,0,0-.55472.1211l-8.6719,5.7822A2.26,2.26,0,0,0,710,238.0107v9h20v-9A2.26005,2.26005,0,0,0,729.22658,236.5654Zm-0.7793,3.3398-8,4a1.001,1.001,0,0,1-.8946,0l-8-4a1.0001,1.0001,0,0,1,.8946-1.789L720,241.8916l7.55268-3.7754A1.0001,1.0001,0,0,1,728.44728,239.9052Z"/><path class="cls-4" d="M400,56a24,24,0,1,0,24,24A24.00055,24.00055,0,0,0,400,56Zm0,46a22,22,0,1,1,22-22A21.99988,21.99988,0,0,1,400,102Z"/><path class="cls-4" d="M404.98049,70v3.4472h-1.7227c-1.293,0-1.3769.4824-1.3769,1.3789L401.877,76.5527H405L404.63669,80H401.877V90h-4.13481V80h-2.0703V76.5527h2.0703V74.4824c0-2.8106,1.166-4.4824,4.4805-4.4824h2.7578m0-2h-2.7578c-4.17969,0-6.4805,2.3017-6.4805,6.4824v0.0703h-0.0703a2.00009,2.00009,0,0,0-2,2V80a2.00009,2.00009,0,0,0,2,2h0.0703v8a2.00009,2.00009,0,0,0,2,2H401.877a2.00138,2.00138,0,0,0,2-2V82h0.75969a2.00218,2.00218,0,0,0,1.99031-1.7911l0.36319-3.4462a1.99954,1.99954,0,0,0-.5039-1.5479,1.881,1.881,0,0,0-.23629-0.2227,1.99981,1.99981,0,0,0,.73049-1.5449V70a2.00008,2.00008,0,0,0-2-2h0Z"/><path class="cls-4" d="M720,58a22,22,0,1,1-22,22,22.02485,22.02485,0,0,1,22-22m-1.09572,16.7128a9.71954,9.71954,0,0,1-4.9648-3.2285,1.99858,1.99858,0,0,0-1.5489-.7363c-0.0547,0-.1074.002-0.1621,0.0068a1.9981,1.9981,0,0,0-1.5722.9952,6.13174,6.13174,0,0,0-.5411,4.8935,2.04315,2.04315,0,0,0-.2089.4395,2.14814,2.14814,0,0,0-.1075.6845A6.09446,6.09446,0,0,0,711.248,81.707a1.96286,1.96286,0,0,0,.08988.7637,6.032,6.032,0,0,0,1.0703,1.9814c-0.1426.0098-.28518,0.0147-0.4297,0.0147a6.669,6.669,0,0,1-.748-0.045,1.86887,1.86887,0,0,0-.23248-0.0136,2.00042,2.00042,0,0,0-1.07812,3.6836A13.66872,13.66872,0,0,0,730.957,76.997a10.3749,10.3749,0,0,0,1.70508-1.9619,2.00261,2.00261,0,0,0-.1328-2.4014c-0.03128-.0371-0.0625-0.0722-0.0957-0.1054a1.99942,1.99942,0,0,0-3.002-1.9522,6.37317,6.37317,0,0,1-1.09958.5147,6.10584,6.10584,0,0,0-9.42772,3.622M720,56a24,24,0,1,0,24,24,24.00054,24.00054,0,0,0-24-24h0Zm0.84958,21.0371a4.11164,4.11164,0,0,1,4-5.0371,4.08769,4.08769,0,0,1,2.9902,1.2929,8.19572,8.19572,0,0,0,2.6075-.9941,4.11,4.11,0,0,1-1.8047,2.2695A8.14977,8.14977,0,0,0,731,73.9218a8.36942,8.36942,0,0,1-2.04692,2.125c0.0098,0.1758.0117,0.3535,0.0117,0.5313A11.66948,11.66948,0,0,1,711,86.4082a8.49461,8.49461,0,0,0,.97848.0586,8.2112,8.2112,0,0,0,5.0957-1.7579,4.104,4.104,0,0,1-3.832-2.8476,4.15349,4.15349,0,0,0,.7734.0723,4.01278,4.01278,0,0,0,1.0782-.1446,4.10657,4.10657,0,0,1-3.295-4.0215,0.16125,0.16125,0,0,1,.0059-0.0527,4.06293,4.06293,0,0,0,1.8594.5117,4.1076,4.1076,0,0,1-1.2735-5.4785,11.65352,11.65352,0,0,0,8.459,4.2891h0Z"/><path class="cls-3" d="M560,56a24,24,0,1,0,24,24A24.00055,24.00055,0,0,0,560,56Zm4.63669,24H561.877V90h-4.13481V80h-2.0703V76.5527h2.0703V74.4824c0-2.8106,1.166-4.4824,4.4805-4.4824h2.7578v3.4472h-1.7227c-1.293,0-1.3769.4824-1.3769,1.3789L561.877,76.5527H565Z"/><path class="cls-3" d="M880,56a24,24,0,1,0,24,24A24.00054,24.00054,0,0,0,880,56Zm8.95308,20.0468c0.0098,0.1758.0117,0.3535,0.0117,0.5313A11.66948,11.66948,0,0,1,871,86.4082a8.49449,8.49449,0,0,0,.97848.0586,8.2112,8.2112,0,0,0,5.0957-1.7579,4.104,4.104,0,0,1-3.832-2.8476,4.15353,4.15353,0,0,0,.7734.0723,4.01276,4.01276,0,0,0,1.0782-.1446,4.10657,4.10657,0,0,1-3.295-4.0215,0.16125,0.16125,0,0,1,.0059-0.0527,4.06293,4.06293,0,0,0,1.8594.5117,4.1076,4.1076,0,0,1-1.2735-5.4785,11.65353,11.65353,0,0,0,8.459,4.2891,4.11164,4.11164,0,0,1,4-5.0371,4.08769,4.08769,0,0,1,2.9902,1.2929,8.19572,8.19572,0,0,0,2.6075-.9941,4.11,4.11,0,0,1-1.8047,2.2695A8.14983,8.14983,0,0,0,891,73.9218,8.3695,8.3695,0,0,1,888.95308,76.0468Z"/><path class="cls-4" d="M79.9995,68a12,12,0,1,0,12,12A11.9981,11.9981,0,0,0,79.9995,68Zm7.8926,9.707-7.0859,6.998a0.99613,0.99613,0,0,1-1.4141,0L72.48,77.707a0.99988,0.99988,0,0,1,1.414-1.4141l6.2051,6.291,6.3789-6.291A0.99992,0.99992,0,0,1,87.8921,77.707Z"/><path class="cls-3" d="M239.999,68a12,12,0,1,0,12,12A12.00059,12.00059,0,0,0,239.999,68Zm7.59959,15.707a0.99961,0.99961,0,0,1-1.414,0l-6.2871-6.293-6.7129,6.293a0.99992,0.99992,0,1,1-1.4141-1.4141l7.4199-7a0.99973,0.99973,0,0,1,1.4141,0l6.9941,7A0.99955,0.99955,0,0,1,247.59859,83.707Z"/><path class="cls-6" d="M400,707.0127a12.998,12.998,0,1,1-12.998,12.998A13.01276,13.01276,0,0,1,400,707.0127m0-2a14.998,14.998,0,1,0,14.998,14.998A14.998,14.998,0,0,0,400,705.0127h0Z"/><path class="cls-7" d="M80.8022,881.0009a3.24973,3.24973,0,0,0-.5761.1739,7.29842,7.29842,0,0,0-3.5449,3.2675,5.25572,5.25572,0,0,0,5.1171.7676,18.93794,18.93794,0,0,0-.4902-2.582Q81.08835,881.787,80.8022,881.0009Z"/><path class="cls-7" d="M79.6421,878.415a12.78575,12.78575,0,0,0-2.1133-2.8633,5.313,5.313,0,0,0-2.7305,3.4102c0.2715,0.0156.5411,0.0254,0.8184,0.0254A13.941,13.941,0,0,0,79.6421,878.415Z"/><path class="cls-7" d="M79.9917,880.2685a3.07242,3.07242,0,0,1,.4727-0.1426q-0.16995-.4131-0.3575-0.8027a15.7286,15.7286,0,0,1-4.5507.7051c-0.3106.0039-.6153-0.002-0.9161-0.0156-0.0039.0839-.0078,0.1679-0.0078,0.2539a5.27685,5.27685,0,0,0,1.3223,3.4921A7.8999,7.8999,0,0,1,79.9917,880.2685Z"/><path class="cls-7" d="M83.3022,876.1923a5.23251,5.23251,0,0,0-4.6796-1.0488,12.95477,12.95477,0,0,1,2.0761,2.8867A6.51717,6.51717,0,0,0,83.3022,876.1923Z"/><path class="cls-7" d="M69.9995,870.0107v20h20v-20h-20Zm9.9258,16.6055a6.3496,6.3496,0,1,1,6.3516-6.3496A6.35123,6.35123,0,0,1,79.9253,886.6162Z"/><path class="cls-7" d="M81.9116,880.8505c0.1367,0.4082.2676,0.8243,0.3809,1.254a19.02907,19.02907,0,0,1,.4922,2.6093,5.2847,5.2847,0,0,0,2.3965-3.8633A22.8538,22.8538,0,0,0,81.9116,880.8505Z"/><path class="cls-7" d="M81.1538,878.9306c0.1543,0.3321.2969,0.6758,0.4336,1.0274a26.16733,26.16733,0,0,1,3.6133-.043,5.28161,5.28161,0,0,0-1.2461-3.0742A6.36673,6.36673,0,0,1,81.1538,878.9306Z"/><path class="cls-7" d="M240.44239,878.8955V878.872a0.1677,0.1677,0,0,1-.0156.0235h0.0156Z"/><path class="cls-7" d="M229.999,870.0107v20h20v-20h-20Zm6.82029,14.8887h-2.3359v-7.0235h2.3359v7.0235Zm-1.1679-7.9805h-0.0157A1.33106,1.33106,0,1,1,235.65139,876.9189Zm9.584,7.9805h-2.336v-3.7578c0-.9434-0.3359-1.5879-1.1797-1.5879a1.28316,1.28316,0,0,0-1.2011.8535,1.58336,1.58336,0,0,0-.0762.5703v3.9219h-2.332s0.0292-6.3633,0-7.0235h2.332v0.9961a2.31941,2.31941,0,0,1,2.1055-1.1601c1.53511,0,2.6875,1.0039,2.6875,3.1601v4.0274Z"/><path class="cls-7" d="M550,870.0107v20h20v-20H550Zm6.67769,13.0957a2.9717,2.9717,0,1,1,2.9688-2.9707A2.96956,2.96956,0,0,1,556.67769,883.1064Zm6.5547,0a2.9717,2.9717,0,1,1,2.9707-2.9707A2.967,2.967,0,0,1,563.23239,883.1064Z"/><path class="cls-7" d="M550,710.0107v20h20v-20H550Zm12.48629,10.1758h-1.7246v6.25h-2.5859v-6.25h-1.293v-2.1543h1.293v-1.293c0-1.7578.7305-2.8008,2.8008-2.8008h1.7246v2.1524H561.625c-0.80861,0-.86131.3008-0.86131,0.8633l-0.002,1.0781h1.9512Z"/><path class="cls-7" d="M870,710.0107v20h20v-20H870Zm10.60938,13.6582a2.24845,2.24845,0,0,1-1.916-.9766s-0.4571,1.8086-.5528,2.1582a8.49757,8.49757,0,0,1-1.4179,2.5704,0.107,0.107,0,0,1-.1895-0.045,8.9248,8.9248,0,0,1,.0254-2.9843c0.14842-.6387,1.0117-4.2813,1.0117-4.2813a2.99794,2.99794,0,0,1-.2519-1.2422,1.80216,1.80216,0,0,1,1.51562-2.0312,1.05226,1.05226,0,0,1,1.06048,1.1777,17.01389,17.01389,0,0,1-.6953,2.7871,1.21379,1.21379,0,0,0,1.2363,1.5117c1.4883,0,2.4922-1.9101,2.4922-4.1738a2.94113,2.94113,0,0,0-3.2656-3.0098,3.71869,3.71869,0,0,0-3.8672,3.7618,2.27689,2.27689,0,0,0,.5156,1.539,0.382,0.382,0,0,1,.1133.4375c-0.0351.1446-.123,0.4922-0.1582,0.6309a0.27223,0.27223,0,0,1-.3945.1953,3.02478,3.02478,0,0,1-1.6094-2.9981c0-2.2324,1.8828-4.9062,5.61532-4.9062a4.69071,4.69071,0,0,1,4.97068,4.498C884.84768,721.3681,883.13668,723.6689,880.60938,723.6689Z"/><path class="cls-7" d="M710,710.0107v20h20v-20H710Zm16.09378,7.0723c0.0078,0.1347.0117,0.2675,0.0117,0.4062a8.93435,8.93435,0,0,1-13.752,7.5254,6.737,6.737,0,0,0,.7481.043,6.28785,6.28785,0,0,0,3.90042-1.3438,3.14626,3.14626,0,0,1-2.93362-2.1816,3.25665,3.25665,0,0,0,.5918.0566,3.13647,3.13647,0,0,0,.8281-0.1113,3.14274,3.14274,0,0,1-2.5215-3.0781,0.28086,0.28086,0,0,1,.002-0.041,3.10281,3.10281,0,0,0,1.4238.3925,3.14372,3.14372,0,0,1-.97458-4.1914,8.92879,8.92879,0,0,0,6.47458,3.2813,3.21351,3.21351,0,0,1-.0801-0.7188,3.13948,3.13948,0,0,1,5.4297-2.1465,6.27843,6.27843,0,0,0,1.9961-.7617,3.1387,3.1387,0,0,1-1.3789,1.7364,6.28966,6.28966,0,0,0,1.8027-.4922A6.42843,6.42843,0,0,1,726.09378,717.083Z"/><path class="cls-7" d="M870,870.0107v20h20v-20H870Zm13,3a0.99945,0.99945,0,0,1,1-1h2a0.99948,0.99948,0,0,1,1,1v2a1.0007,1.0007,0,0,1-1,1h-2a1.00067,1.00067,0,0,1-1-1v-2Zm-2.998,5a3,3,0,1,1-3.002,3A3.00036,3.00036,0,0,1,880.002,878.0107Zm7.998,8a2.0001,2.0001,0,0,1-2,2H874a2.00136,2.00136,0,0,1-2-2v-7h2.34958a5.99909,5.99909,0,1,0,11.3027,0H888v7Z"/><path class="cls-7" d="M719.66988,877.6601a0.26734,0.26734,0,0,0,.20312-0.0801,0.27915,0.27915,0,0,0,.07818-0.2168v-1.8554a0.22844,0.22844,0,0,0-.07818-0.1817,0.30047,0.30047,0,0,0-.20312-0.0683,0.27516,0.27516,0,0,0-.1894.0683,0.243,0.243,0,0,0-.0703.1817v1.8554a0.30957,0.30957,0,0,0,.0683.2188A0.24126,0.24126,0,0,0,719.66988,877.6601Z"/><path class="cls-7" d="M710.01368,870.0253v19.9708h19.9707V870.0253h-19.9707Zm11.1211,4.7286h0.6347v2.6132a0.30712,0.30712,0,0,0,.0391.1758,0.15561,0.15561,0,0,0,.1309.0547,0.368,0.368,0,0,0,.1757-0.0723,0.90426,0.90426,0,0,0,.1953-0.1835v-2.5879h0.6348v3.4101h-0.6348v-0.3769a1.37691,1.37691,0,0,1-.3632.3164,0.74318,0.74318,0,0,1-.3711.1093,0.38312,0.38312,0,0,1-.3301-0.1542,0.76257,0.76257,0,0,1-.1113-0.4551v-2.8496Zm-1.4336-.086a0.88122,0.88122,0,0,1,.6445.2461,0.85777,0.85777,0,0,1,.252.6367v1.7618a0.94277,0.94277,0,0,1-.2461.6875,0.91624,0.91624,0,0,1-.6797.25,0.884,0.884,0,0,1-.666-0.2579,0.94519,0.94519,0,0,1-.25-0.6914v-1.7675a0.80565,0.80565,0,0,1,.2578-0.6329A0.97748,0.97748,0,0,1,719.70118,874.6679Zm-2.5899-1.1269,0.4649,1.8457h0.0449l0.4414-1.8457H718.791l-0.83592,2.7031v1.9199h-0.711v-1.832l-0.8515-2.791h0.7187Zm8.0664,10.9726a1.50042,1.50042,0,0,1-1.5078,1.4922q-1.7871.0762-3.6484,0.0703c-1.2383.002-2.457-.0195-3.64648-0.0703a1.50172,1.50172,0,0,1-1.50782-1.4922q-0.0762-.97845-0.0703-1.957c-0.00388-.6504.0195-1.3047,0.0703-1.957a1.50011,1.50011,0,0,1,1.50782-1.4903q1.69632-.0702,3.46088-0.0703h0.3692q1.76655,0,3.4648.0703a1.49881,1.49881,0,0,1,1.5078,1.4903c0.0489,0.6523.07232,1.3066,0.07032,1.957Q725.251,883.53505,725.17768,884.5136Z"/><path class="cls-7" d="M717.79688,880.1796h-2.1934v0.6719h0.7403v3.9512h0.7128v-3.9512h0.7403v-0.6719Zm1.166,3.8028a0.93671,0.93671,0,0,1-.1934.1816,0.34181,0.34181,0,0,1-.1777.0723,0.154,0.154,0,0,1-.1289-0.0547,0.31183,0.31183,0,0,1-.0391-0.1758v-2.6133h-0.6347v2.8496a0.77324,0.77324,0,0,0,.1113.4571,0.38325,0.38325,0,0,0,.332.1523,0.73625,0.73625,0,0,0,.3672-0.1074,1.41815,1.41815,0,0,0,.3633-0.3164v0.375h0.6348v-3.4102h-0.6348v2.5899Zm2.459-2.6348a0.596,0.596,0,0,0-.293.082,1.01215,1.01215,0,0,0-.2715.2383v-1.4883h-0.6406v4.6231h0.6406V884.541a0.93237,0.93237,0,0,0,.26962.2304,0.71739,0.71739,0,0,0,.33388.0743,0.51619,0.51619,0,0,0,.4317-0.1934,0.90877,0.90877,0,0,0,.14842-0.5566v-1.8926a1.08234,1.08234,0,0,0-.16012-0.6367,0.53366,0.53366,0,0,0-.459-0.2188m-0.0352,2.6543a0.38989,0.38989,0,0,1-.05468.2363,0.20045,0.20045,0,0,1-.17182.0723,0.33064,0.33064,0,0,1-.1524-0.0371,0.6019,0.6019,0,0,1-.1504-0.1211v-2.125a0.5682,0.5682,0,0,1,.1309-0.1016,0.29407,0.29407,0,0,1,.1328-0.0351,0.23425,0.23425,0,0,1,.1992.0898,0.44116,0.44116,0,0,1,.0664.2617v1.7598Zm2.9981-.8262v-0.8671a1.08576,1.08576,0,0,0-.2344-0.7442,0.86394,0.86394,0,0,0-.6699-0.2578,0.92551,0.92551,0,0,0-.6953.2793,1.004,1.004,0,0,0-.2676.7227v1.5312a1.14036,1.14036,0,0,0,.2441.7734,0.84494,0.84494,0,0,0,.6719.2813,0.91155,0.91155,0,0,0,.7129-0.2656,1.14813,1.14813,0,0,0,.2383-0.7891v-0.2559h-0.6524v0.2364a0.79306,0.79306,0,0,1-.0625.3906,0.26205,0.26205,0,0,1-.2207.0879,0.23322,0.23322,0,0,1-.2148-0.1035,0.77343,0.77343,0,0,1-.0645-0.375v-0.6446h1.2149Zm-1.2149-.873a0.53032,0.53032,0,0,1,.0684-0.3066,0.24539,0.24539,0,0,1,.2168-0.0918,0.23079,0.23079,0,0,1,.209.0918,0.51582,0.51582,0,0,1,.0683.3066v0.3457h-0.5625v-0.3457Z"/><path class="cls-7" d="M396.50679,879.7607a3.16622,3.16622,0,0,0,.7598-1.8652c0-2.0977-1.2168-5.3575-3.6211-5.3575a2.70326,2.70326,0,0,0-2.0332.961,3.2984,3.2984,0,0,0-.57029,2.1543c0,1.9492,1.02339,4.8359,3.51949,4.8359A2.52373,2.52373,0,0,0,396.50679,879.7607Z"/><path class="cls-7" d="M393.73929,882.7295a2.63981,2.63981,0,0,1,.289-1.1368c-0.32029.0293-.6387,0.0586-0.9277,0.0586a4.94129,4.94129,0,0,1-3.1055-1.0937v5.0273c1.3242-.9765,3.5293-0.8008,4.6133-0.875A3.06086,3.06086,0,0,1,393.73929,882.7295Z"/><path class="cls-7" d="M395.59469,885.5556a4.65166,4.65166,0,0,0-.666-0.0293,11.65339,11.65339,0,0,0-3.0488.4649,4.30222,4.30222,0,0,0-1.8848,1.2285v2.791H399.29a1.67615,1.67615,0,0,0,.10939-0.584C399.38379,887.9384,397.79979,887.1279,395.59469,885.5556Z"/><path class="cls-7" d="M409.99509,876.7763v0.002h-3.791v3.7109H404.626v-3.7109h-3.67971v-0.002h-0.0137v-1.5625H404.626v-3.6601h1.57809v3.6601h3.8008v-5.2031h-20.0098v3.3027c0.0488-.0468.0957-0.0937,0.1445-0.1347a7.63285,7.63285,0,0,1,4.9883-1.625h6.1348l-1.6289,1.3144h-1.7774a4.6735,4.6735,0,0,1,1.7754,3.6875c0,2.1543-1.1347,3.1778-2.3535,4.1367a2.04533,2.04533,0,0,0-.8125,1.4258,1.59943,1.59943,0,0,0,.7539,1.252l1.0449,0.8144c1.27541,1.0782,2.94341,2.3262,2.94341,4.336a4.17462,4.17462,0,0,1-.22261,1.4902h9.0195V876.7763h-0.0098Z"/><path class="cls-5" d="M404.65139,238.3344a6.32715,6.32715,0,1,0-6.3282,6.3267A6.32831,6.32831,0,0,0,404.65139,238.3344Zm-6.3282,4.3799a4.3801,4.3801,0,1,1,4.3809-4.3799A4.38035,4.38035,0,0,1,398.32319,242.7143Zm9.2481,2.9204-3.8945-3.894v1.9472h-1.9473l3.89451,3.8931A1.37659,1.37659,0,1,0,407.57129,245.6347Z"/><path class="cls-8" d="M245.30859,1039.5107c-1.0273-2-6.1602-2-6.1602-2v-3l-5.1347,5,5.1347,5v-3s3.0801,0,4.1075,1a3.61172,3.61172,0,0,1,1.0273,3A4.62475,4.62475,0,0,0,245.30859,1039.5107Z"/><path class="cls-3" d="M560,1020.664a14.327,14.327,0,0,0-14.31051,14.3106c0,9.6445,11.1191,21.8281,14.31051,24.3828,3.19139-2.5547,14.31049-14.7383,14.31049-24.3828A14.327,14.327,0,0,0,560,1020.664Z"/><circle class="cls-5" cx="559.99999" cy="1034.97435" r="5.41385"/><path class="cls-9" d="M711.50061,1047.50972h16.99774v-2.99963H711.50061v2.99963Zm0-5.99927h16.99774v-2.99951H711.50061v2.99951Zm0-8.9989v2.99976h16.99774v-2.99976H711.50061Z"/><path class="cls-5" d="M723.22613,1200.00956H721.1563v7.50114h-3.10355v-7.50114h-1.55184V1197.424h1.55184v-1.55184c0-2.10968.87673-3.36147,3.36147-3.36147H723.484v2.58327h-1.29162c-0.97048,0-1.03373.361-1.03373,1.03612l-0.0024,1.29392h2.3418Z"/><path class="cls-5" d="M887.3371,1036.24774c0.0094,0.1624.01411,0.32251,0.01411,0.48974a10.77171,10.77171,0,0,1-16.58013,9.073,8.12245,8.12245,0,0,0,.90195.05184,7.581,7.581,0,0,0,4.70255-1.62015,3.7933,3.7933,0,0,1-3.53692-2.63025,3.92642,3.92642,0,0,0,.7135.06824,3.78147,3.78147,0,0,0,.9984-0.13419,3.78905,3.78905,0,0,1-3.04005-3.71112,0.33862,0.33862,0,0,1,.00241-0.04943,3.7409,3.7409,0,0,0,1.71661.47322,3.79024,3.79024,0,0,1-1.175-5.05337,10.765,10.765,0,0,0,7.80609,3.95611,3.87437,3.87437,0,0,1-.09657-0.86662,3.78512,3.78512,0,0,1,6.54633-2.58793,7.56957,7.56957,0,0,0,2.4066-.91835,3.78418,3.78418,0,0,1-1.66247,2.0935,7.58316,7.58316,0,0,0,2.17343-.59342A7.75045,7.75045,0,0,1,887.3371,1036.24774Z"/><path class="cls-5" d="M81.15666,1203.34927a2.46687,2.46687,0,0,1-2.10213-1.07147s-0.5015,1.98429-.6065,2.36785a9.323,9.323,0,0,1-1.55564,2.8201,0.11737,0.11737,0,0,1-.20791-0.04937,9.79178,9.79178,0,0,1,.02787-3.2742c0.16284-.70075,1.11-4.6972,1.11-4.6972a3.28918,3.28918,0,0,1-.27637-1.36287c0-1.27707.74134-2.22852,1.66285-2.22852a1.15448,1.15448,0,0,1,1.1635,1.29211,18.66668,18.66668,0,0,1-.76284,3.05785,1.3317,1.3317,0,0,0,1.3564,1.65855c1.63288,0,2.7343-2.09565,2.7343-4.57926,0-1.88785-1.275-3.30218-3.58283-3.30218a4.07994,4.07994,0,0,0-4.24287,4.12723,2.49807,2.49807,0,0,0,.56569,1.6885,0.41914,0.41914,0,0,1,.12431.48c-0.03851.15865-.13495,0.54-0.17357,0.69219a0.29867,0.29867,0,0,1-.43282.21427,3.31862,3.31862,0,0,1-1.76574-3.28934c0-2.44926,2.0657-5.3828,6.16081-5.3828a5.14638,5.14638,0,0,1,5.45354,4.93495C85.80668,1200.825,83.92947,1203.34927,81.15666,1203.34927Z"/><rect class="cls-5" x="232.34837" y="1197.38678" width="3.36705" height="10.12392"/><path class="cls-5" d="M234.032,1196.00733h-0.02263A1.91864,1.91864,0,1,1,234.032,1196.00733Z"/><path class="cls-5" d="M247.84667,1207.5107h-3.36719v-5.41662c0-1.35985-.48418-2.28885-1.70046-2.28885a1.84958,1.84958,0,0,0-1.73131,1.23026,2.2823,2.2823,0,0,0-.10984.822v5.65316h-3.36143s0.04209-9.17228,0-10.12392h3.36143v1.43581a3.34328,3.34328,0,0,1,3.03494-1.67221c2.21275,0,3.87386,1.44706,3.87386,4.55508v5.80523Z"/><path class="cls-5" d="M404.86654,1199.6552h-9.73308a2.80217,2.80217,0,0,0-2.8012,2.80214v2.25153a2.80191,2.80191,0,0,0,2.8012,2.80183h9.73308a2.80211,2.80211,0,0,0,2.8012-2.80183v-2.25153A2.80237,2.80237,0,0,0,404.86654,1199.6552Zm-7.68823,1.75283h-0.90486v4.49619h-0.87422V1201.408H394.495v-0.76479h2.68333v0.76479Zm2.55607,4.49618H398.959V1205.479a1.65906,1.65906,0,0,1-.44774.35832,0.93472,0.93472,0,0,1-.45056.12382,0.48264,0.48264,0,0,1-.40553-0.17353,0.83674,0.83674,0,0,1-.136-0.52028v-3.24457h0.77542v2.97755a0.33194,0.33194,0,0,0,.04815.19886,0.19042,0.19042,0,0,0,.15946.0616,0.44089,0.44089,0,0,0,.21605-0.08129,1.04734,1.04734,0,0,0,.24076-0.20886v-2.94816h0.77542v3.88179Zm2.81527-.80137a0.96715,0.96715,0,0,1-.1826.63191,0.64447,0.64447,0,0,1-.52716.21918,0.92406,0.92406,0,0,1-.40616-0.08442,0.997,0.997,0,0,1-.33174-0.263v0.29735h-0.7848v-5.26066h0.7848v1.69436a1.21037,1.21037,0,0,1,.33206-0.26921,0.76137,0.76137,0,0,1,.35832-0.09224,0.6699,0.6699,0,0,1,.56187.24732,1.15607,1.15607,0,0,1,.19479.72539v2.154h0.00062Zm2.68989-1.04588h-1.48393v0.73133a0.84615,0.84615,0,0,0,.07567.42492,0.28942,0.28942,0,0,0,.26327.11819,0.32092,0.32092,0,0,0,.26983-0.10037,0.838,0.838,0,0,0,.07692-0.44274v-0.17666h0.79825v0.19917a1.24426,1.24426,0,0,1-.29266.89986,1.156,1.156,0,0,1-.87016.29985,1.06931,1.06931,0,0,1-.82138-0.31924,1.23926,1.23926,0,0,1-.29985-0.88016v-1.74344a1.095,1.095,0,0,1,.33049-0.82326,1.17,1.17,0,0,1,.8489-0.31736,1.08836,1.08836,0,0,1,.81888.29422,1.16665,1.16665,0,0,1,.28578.84608v0.9896Z"/><path class="cls-5" d="M404.10207,1202.60554a0.30787,0.30787,0,0,0-.26577.10725,0.565,0.565,0,0,0-.08067.34769v0.3924h0.68568v-0.3924a0.56772,0.56772,0,0,0-.08192-0.34769A0.29711,0.29711,0,0,0,404.10207,1202.60554Z"/><path class="cls-5" d="M401.42655,1202.59241a0.38207,0.38207,0,0,0-.16415.03752,0.55541,0.55541,0,0,0-.16009.11882v2.41787a0.66243,0.66243,0,0,0,.18385.1382,0.456,0.456,0,0,0,.1876.04158,0.252,0.252,0,0,0,.20949-0.08317,0.426,0.426,0,0,0,.0666-0.267v-2.00452a0.46391,0.46391,0,0,0-.08129-0.2986A0.30046,0.30046,0,0,0,401.42655,1202.59241Z"/><polygon class="cls-5" points="396.408 1198.307 397.391 1198.307 397.391 1195.903 398.536 1192.511 397.536 1192.511 396.928 1194.828 396.866 1194.828 396.227 1192.511 395.237 1192.511 396.408 1196.011 396.408 1198.307"/><path class="cls-5" d="M399.86758,1198.41484a1.33066,1.33066,0,0,0,.93551-0.31236,1.11428,1.11428,0,0,0,.33831-0.86047v-2.2087a1.029,1.029,0,0,0-.34519-0.80012,1.28749,1.28749,0,0,0-.88923-0.30985,1.43417,1.43417,0,0,0-.94833.29422,0.9776,0.9776,0,0,0-.35238.79137v2.2162a1.13225,1.13225,0,0,0,.34394.867A1.28853,1.28853,0,0,0,399.86758,1198.41484Zm-0.36207-3.43842a0.291,0.291,0,0,1,.0988-0.22669,0.387,0.387,0,0,1,.26077-0.08536,0.43222,0.43222,0,0,1,.28015.08536,0.28017,0.28017,0,0,1,.10631.22669v2.3297a0.35121,0.35121,0,0,1-.10506.27015,0.39347,0.39347,0,0,1-.2814.09786,0.35064,0.35064,0,0,1-.267-0.09693,0.37537,0.37537,0,0,1-.09286-0.2714v-2.32939h0.00031Z"/><path class="cls-5" d="M402.45993,1198.3695a1.09871,1.09871,0,0,0,.50621-0.13695,1.85145,1.85145,0,0,0,.50309-0.399v0.47369h0.87329v-4.27575h-0.87329v3.24551a1.20862,1.20862,0,0,1-.26858.22981,0.50619,0.50619,0,0,1-.24419.09,0.21007,0.21007,0,0,1-.1776-0.0691,0.34936,0.34936,0,0,1-.05628-0.21824v-3.278h-0.872v3.5735a0.9019,0.9019,0,0,0,.15258.57156A0.54994,0.54994,0,0,0,402.45993,1198.3695Z"/><path class="cls-5" d="M555.69334,1198.93727c-0.00356.85225,0,1.70446,0.00361,2.55667,1.42875,0.04657,2.861.025,4.28978,0.04657-0.6302,3.169-4.94145,4.19664-7.22241,2.127a4.80124,4.80124,0,0,1,.20409-7.48381,4.94753,4.94753,0,0,1,5.83305.154,26.68981,26.68981,0,0,0,1.90138-1.96942,7.59975,7.59975,0,0,0-5.0095-1.85124,7.503,7.503,0,0,0-2.71775,14.49139,7.40172,7.40172,0,0,0,8.533-2.26666,8.597,8.597,0,0,0,1.35353-5.79727C560.47009,1198.92653,558.08174,1198.9301,555.69334,1198.93727Z"/><path class="cls-5" d="M569.66549,1198.92653c-0.00717-.71259-0.01074-1.42875-0.0143-2.1413h-2.13056c-0.00717.71259-.0143,1.42514-0.01792,2.1413q-1.07424.00535-2.1413,0.01435v2.13056c0.71255,0.00717,1.42871.01435,2.1413,0.02148,0.00717,0.71259.00717,1.42514,0.01435,2.13774h2.13413c0.00356-.71259.00713-1.42514,0.0143-2.1413,0.71616-.00718,1.42875-0.01074,2.1413-0.01791v-2.13056C571.09424,1198.93371,570.37808,1198.93371,569.66549,1198.92653Z"/></svg>