<?xml version="1.0" encoding="UTF-8" standalone="no"?>
<svg width="25px" height="27px" viewBox="0 0 25 27" version="1.1" xmlns="http://www.w3.org/2000/svg" xmlns:xlink="http://www.w3.org/1999/xlink">
    <!-- Generator: Sketch 41.2 (35397) - http://www.bohemiancoding.com/sketch -->
    <title>Combined Shape</title>
    <desc>Created with Sketch.</desc>
    <defs></defs>
    <g id="Symbols" stroke="none" stroke-width="1" fill="none" fill-rule="evenodd">
        <g id="Reporting---Pro" transform="translate(-115.000000, -342.000000)" fill="#666666">
            <path d="M117.166667,368.00964 L115,368.00532 L115.0065,364.73832 C115.011917,362.35044 116.086583,360.12672 117.956417,358.63524 L118.732083,358.01532 L119.417833,358.7346 C119.521833,358.84044 122.106667,361.44 126.951333,361.44 L126.951333,363.6 C122.763167,363.6 119.953,361.91952 118.660583,360.927 C117.709417,361.96272 117.176417,363.31164 117.173167,364.74264 L117.166667,368.00964 Z M138.868217,358.20054 L129.118217,358.20054 C128.520217,358.20054 128.034883,358.68438 128.034883,359.28054 L128.034883,366.84054 C128.034883,367.4367 128.520217,367.92054 129.118217,367.92054 L138.868217,367.92054 C139.466217,367.92054 139.95155,367.4367 139.95155,366.84054 L139.95155,359.28054 C139.95155,358.68438 139.466217,358.20054 138.868217,358.20054 Z M122.618217,352.86804 L122.618217,347.6052 C122.618217,345.70548 124.108883,344.16 126.014467,344.16 L127.830133,344.16 C129.734633,344.16 131.284883,345.70548 131.284883,347.6052 L131.284883,349.02216 C131.9598,348.74028 132.689967,348.5664 133.45155,348.50808 L133.45155,347.6052 C133.45155,344.51532 130.92955,342 127.830133,342 L126.014467,342 C122.913967,342 120.45155,344.51532 120.45155,347.6052 L120.45155,352.86804 C120.45155,356.08212 122.822967,358.74324 125.920217,359.20332 C125.939717,358.39656 126.24305,357.66756 126.752217,357.11028 C124.447967,357.05412 122.618217,355.17708 122.618217,352.86804 Z" id="Combined-Shape"></path>
        </g>
    </g>
</svg>