<?xml version="1.0" encoding="UTF-8" standalone="no"?>
<svg width="320px" height="313px" viewBox="0 0 320 313" version="1.1" xmlns="http://www.w3.org/2000/svg" xmlns:xlink="http://www.w3.org/1999/xlink">
    <!-- Generator: Sketch 40.3 (33839) - http://www.bohemiancoding.com/sketch -->
    <title>Character</title>
    <desc>Created with Sketch.</desc>
    <defs>
        <rect id="path-1" x="0" y="0" width="320" height="313"></rect>
    </defs>
    <g id="Security-Plugin" stroke="none" stroke-width="1" fill="none" fill-rule="evenodd">
        <g id="Welcome-screen" transform="translate(-230.000000, -231.000000)">
            <g id="Get-Started" transform="translate(190.000000, 132.000000)">
                <g id="Character" transform="translate(40.000000, 99.000000)">
                    <mask id="mask-2" fill="white">
                        <use xlink:href="#path-1"></use>
                    </mask>
                    <g id="Mask"></g>
                    <g id="Defender" mask="url(#mask-2)">
                        <path d="M121.247654,380.25974 C121.247654,380.25974 152.117957,327.341299 150.098216,283.307359 C148.078476,239.272727 103.169732,245.329177 103.169732,245.329177 C103.169732,245.329177 84.9899913,271.184069 79.3345801,311.582338 C73.6784762,351.981299 85.0911169,371.157749 85.0911169,371.157749" id="Fill-1" fill="#8E572A"></path>
                        <path d="M193.924156,380.25974 C193.924156,380.25974 163.053853,327.341299 165.073593,283.307359 C167.093333,239.272727 212.002078,245.329177 212.002078,245.329177 C212.002078,245.329177 230.181818,271.184069 235.837229,311.582338 C241.493333,351.981299 230.080693,371.157749 230.080693,371.157749" id="Fill-3" fill="#8E572A"></path>
                        <path d="M103.773229,254.114563 C101.179983,254.059152 99.1152208,254.178978 97.8372987,254.288416 C97.7160866,254.514216 97.5921039,254.750407 97.4681212,254.983134 C102.587429,257.665732 125.340675,270.42071 141.674528,293.159411 C145.092017,298.816208 147.271758,302.871619 148.65981,305.773091 C149.423792,300.948156 149.935654,296.108675 150.117126,291.326684 C138.192623,281.437853 114.89981,264.262442 103.773229,254.114563" id="Fill-5" fill="#864A19"></path>
                        <path d="M217.785905,255.138494 C217.615515,254.815723 217.445126,254.492952 217.279584,254.18542 C209.054476,252.924121 168.871619,249.098667 165.179844,293.873732 C165.447896,298.217974 165.976381,302.599619 166.705039,306.963255 C170.65032,299.112173 180.068848,282.186805 196.644433,269.469922 C208.527377,260.352693 214.721662,256.647065 217.785905,255.138494" id="Fill-7" fill="#864A19"></path>
                        <path d="M229.860225,174.613333 C242.249489,164.130216 254.062476,153.271688 254.062476,153.271688 L254.062476,160.430823 C272.016416,136.928831 279.782996,110.428398 279.399965,108.131602 C278.945593,105.406061 272.247758,102.180433 264.107844,90.6472727 C233.222996,74.2967965 157.585939,57.8292641 157.585939,57.8292641 C157.585939,57.8292641 86.6415238,75.4299567 55.7566753,91.7804329 C43.0390996,94.505974 36.2262857,105.406061 35.7719134,108.131602 C35.3923463,110.409697 43.02871,136.488312 60.6654199,159.842078 L64.1992727,157.944935 L83.0107013,170.666667 L71.7857662,172.646234 C71.9312208,172.790996 72.0745974,172.937143 72.2207446,173.080519 C78.1255065,178.076537 81.3047273,178.530909 81.3047273,178.530909 C81.3047273,178.530909 90.5016104,189.886061 95.952,193.065281 C111.848797,195.79013 157.585939,194.763636 157.585939,194.763636 C157.585939,194.763636 203.323082,195.79013 219.219879,193.065281 C224.669576,189.886061 233.867152,178.530909 233.867152,178.530909 C233.867152,178.530909 234.219013,178.477576 234.892952,178.233074 C229.24239,178.792035 225.584554,178.230996 229.860225,174.613333" id="Fill-9" fill="#8E572A"></path>
                        <path d="M188.151827,78.7411255 L157.585593,71.6519481 L127.020052,78.7411255 L126.512346,84.3882251 C126.512346,84.3882251 137.176935,93.4001732 141.597368,96.1638095 C146.017801,98.9274459 150.147325,103.519654 150.147325,103.519654 L151.99529,104.908398 L157.585593,104.908398 L163.175896,104.908398 L165.023861,103.519654 C165.023861,103.519654 169.154078,98.9274459 173.574511,96.1638095 C177.994251,93.4001732 188.65884,84.3882251 188.65884,84.3882251 L188.151827,78.7411255 Z" id="Fill-11" fill="#864A19"></path>
                        <path d="M155.309922,48.4956537 C155.00239,43.4497662 153.786805,23.1782511 153.535377,14.2050909 C153.362216,8.01980952 154.063169,3.40058874 154.650528,0.687515152 C152.112,0.970112554 147.820398,1.56578355 141.351134,2.82292641 C129.720312,5.08301299 123.627152,17.6378182 123.627152,23.0362597 C123.627152,24.5496797 123.819013,29.5082944 124.107152,35.8868225 C123.283602,36.568381 122.211394,37.6350476 122.076329,38.6601558 C122.022996,39.0695065 122.047931,40.105697 122.124814,41.474355 C123.182476,42.8561732 124.17503,44.0731429 124.499186,44.2276017 C125.290182,44.6050909 130.389403,55.6187706 135.087584,59.7787706 C138.555636,62.850632 142.773818,64.9417143 145.070615,65.9488139 C145.152346,65.6329697 145.235463,65.3192035 145.319965,65.0061299 C147.37226,57.4175584 152.256069,51.1574719 155.309922,48.4956537" id="Fill-13" fill="#FF5B1C"></path>
                        <path d="M137.797818,86.1380433 C141.262407,86.8299913 142.505004,75.8454026 145.070545,65.9482597 C142.773749,64.9418528 138.555567,62.8507706 135.087515,59.7789091 C130.389333,55.6182165 125.290113,44.6052294 124.499117,44.2277403 C124.174961,44.0732814 123.182407,42.8563117 122.124745,41.4744935 C122.366476,45.7529351 123.123532,53.3047965 123.627082,55.3023723 C124.064139,57.0360519 124.791411,58.1144935 125.238857,58.6519827 C125.817905,69.3380433 126.385177,78.3714632 126.618597,78.8971775 C126.921974,79.5808139 138.293749,86.4324156 137.797818,86.1380433" id="Fill-15" fill="#EFBB00"></path>
                        <path d="M159.861818,48.4956537 C160.169351,43.4497662 161.384935,23.1782511 161.636364,14.2050909 C161.809524,8.01980952 161.108571,3.40058874 160.521212,0.687515152 C163.05974,0.970112554 167.351342,1.56578355 173.820606,2.82292641 C185.451429,5.08301299 191.544589,17.6378182 191.544589,23.0362597 C191.544589,24.5496797 191.352727,29.5082944 191.064589,35.8868225 C191.887446,36.568381 192.960346,37.6350476 193.095411,38.6601558 C193.148745,39.0695065 193.12381,40.105697 193.046926,41.474355 C191.989264,42.8561732 190.99671,44.0731429 190.672554,44.2276017 C189.881558,44.6050909 184.782338,55.6187706 180.084156,59.7787706 C176.616104,62.850632 172.397922,64.9417143 170.101126,65.9488139 C170.019394,65.6329697 169.936277,65.3192035 169.851775,65.0061299 C167.799481,57.4175584 162.915671,51.1574719 159.861818,48.4956537" id="Fill-17" fill="#FF5B1C"></path>
                        <path d="M160.521281,0.687792208 C158.495307,0.462683983 157.58587,0.437748918 157.58587,0.437748918 C157.58587,0.437748918 156.676433,0.462683983 154.650459,0.687792208 C154.0631,3.40017316 153.362147,8.01939394 153.535307,14.205368 C153.786736,23.1785281 155.00232,43.4500433 155.309853,48.4959307 C156.331498,47.6051948 157.148814,47.1168831 157.58587,47.1168831 C158.022926,47.1168831 158.840242,47.6051948 159.861887,48.4959307 C160.16942,43.4500433 161.385004,23.1785281 161.636433,14.205368 C161.809593,8.01939394 161.108641,3.40017316 160.521281,0.687792208" id="Fill-19" fill="#EFBB00"></path>
                        <path d="M145.320173,66.3648831 C147.371775,58.7763117 152.256277,52.5162251 155.31013,49.8544069 C156.331775,48.963671 157.148398,48.4760519 157.586147,48.4760519 C158.023203,48.4760519 158.840519,48.963671 159.862165,49.8544069 C162.916017,52.5162251 167.799827,58.7763117 169.851429,66.3648831 C169.935931,66.6779567 170.019048,66.9917229 170.100779,67.3075671 C172.265281,75.6545801 173.487792,84.7745801 175.896104,87.0111169 C176.225108,86.8171775 176.547879,86.6280866 176.878961,86.4320693 C177.04381,86.3344069 177.208658,86.2360519 177.374199,86.137697 C173.908918,86.829645 172.667013,75.8457489 170.100779,65.9486061 C170.019048,65.6334545 169.935931,65.3189957 169.851429,65.0059221 C167.799827,57.4173506 162.916017,51.1572641 159.862165,48.4954459 C158.840519,47.6054026 158.023203,47.1170909 157.586147,47.1170909 C157.148398,47.1170909 156.331775,47.6054026 155.31013,48.4954459 C152.256277,51.1572641 147.371775,57.4173506 145.320173,65.0059221 C145.235671,65.3189957 145.152554,65.6334545 145.070823,65.9486061 C142.505281,75.8457489 141.262684,86.829645 137.798095,86.137697 C137.962944,86.2360519 138.127792,86.3344069 138.292641,86.4320693 C138.623723,86.6280866 138.946494,86.8171775 139.275498,87.0111169 C141.684502,84.7745801 142.907013,75.6545801 145.070823,67.3075671 C145.152554,66.9917229 145.235671,66.6779567 145.320173,66.3648831" id="Fill-21" fill="#864A19"></path>
                        <path d="M141.727515,88.4526407 C141.788468,88.4879654 141.848727,88.52329 141.908987,88.5586147 C142.151411,88.6999134 142.390372,88.8391342 142.62587,88.9762771 C142.697212,89.0178355 142.768554,89.0593939 142.839896,89.1002597 C143.057385,89.227013 143.271411,89.3516883 143.483359,89.4742857 C143.560935,89.5186147 143.639203,89.564329 143.715394,89.608658 C144.266043,89.9272727 144.791758,90.2306494 145.284918,90.5139394 C145.341714,90.5464935 145.395048,90.5769697 145.451152,90.6088312 C145.64232,90.718961 145.829333,90.8256277 146.010113,90.9288312 C146.07245,90.9648485 146.133403,90.9994805 146.195048,91.0348052 C146.353662,91.1255411 146.506043,91.2121212 146.654961,91.2966234 C146.726303,91.3374892 146.798338,91.3790476 146.867602,91.4178355 C147.017905,91.5030303 147.159896,91.5840693 147.297732,91.661645 C147.344139,91.6879654 147.393316,91.715671 147.438338,91.7412987 C147.619117,91.8431169 147.789506,91.9393939 147.946736,92.0273593 C147.973056,92.0419048 147.995221,92.0543723 148.020848,92.0682251 C148.145524,92.1381818 148.261887,92.20329 148.369939,92.2628571 C148.415654,92.2877922 148.456519,92.3106494 148.499463,92.3341991 C148.578424,92.3778355 148.652537,92.4187013 148.719723,92.4554113 C148.759203,92.4768831 148.797299,92.4969697 148.831931,92.5163636 C148.894268,92.5496104 148.947602,92.5780087 148.996087,92.6036364 C149.021022,92.6167965 149.04942,92.6320346 149.070892,92.6431169 C149.133229,92.675671 149.185177,92.7012987 149.216346,92.7158442 C150.323879,93.2180087 157.586216,93.4694372 157.586216,93.4694372 C157.586216,93.4694372 164.847861,93.2180087 165.955394,92.7158442 C165.986563,92.7012987 166.038511,92.675671 166.100848,92.6431169 C166.12232,92.6320346 166.150719,92.6167965 166.175654,92.6036364 C166.224139,92.5780087 166.277472,92.5496104 166.33981,92.5163636 C166.374442,92.4969697 166.412537,92.4768831 166.452017,92.4554113 C166.519203,92.4187013 166.593316,92.3778355 166.672277,92.3341991 C166.715221,92.3106494 166.756087,92.2877922 166.801801,92.2628571 C166.909853,92.20329 167.026216,92.1381818 167.150892,92.0682251 C167.176519,92.0543723 167.198684,92.0419048 167.225004,92.0273593 C167.382234,91.9393939 167.552623,91.8431169 167.733403,91.7412987 C167.778424,91.715671 167.827602,91.6879654 167.874009,91.661645 C168.011844,91.5840693 168.153835,91.5030303 168.304139,91.4178355 C168.373403,91.3790476 168.445437,91.3374892 168.516779,91.2966234 C168.665697,91.2121212 168.818078,91.1255411 168.976693,91.0348052 C169.038338,90.9994805 169.09929,90.9648485 169.161628,90.9288312 C169.342407,90.8256277 169.52942,90.718961 169.720589,90.6088312 C169.776693,90.5769697 169.830026,90.5464935 169.886823,90.5139394 C170.379983,90.2306494 170.905697,89.9272727 171.456346,89.608658 C171.532537,89.564329 171.610805,89.5186147 171.688381,89.4742857 C171.900329,89.3516883 172.114355,89.227013 172.331844,89.1002597 C172.403186,89.0593939 172.474528,89.0178355 172.54587,88.9762771 C172.781368,88.8391342 173.020329,88.6999134 173.262753,88.5586147 C173.323013,88.52329 173.383273,88.4879654 173.444225,88.4526407 C173.764918,88.2649351 174.090459,88.0751515 174.418771,87.8819048 C174.902926,87.5986147 175.401628,87.3035498 175.896173,87.0112554 C173.487861,84.774026 172.264658,75.654026 170.100848,67.3077056 C170.019117,66.9918615 169.936,66.6774026 169.851498,66.3650216 C167.799896,58.7764502 162.915394,52.5163636 159.861541,49.8545455 C158.839896,48.9638095 158.023273,48.4761905 157.586216,48.4761905 C157.148468,48.4761905 156.331844,48.9638095 155.310199,49.8545455 C152.256346,52.5163636 147.371844,58.7764502 145.320242,66.3650216 C145.23574,66.6774026 145.152623,66.9918615 145.070892,67.3077056 C142.907082,75.654026 141.683879,84.774026 139.275567,87.0112554 C139.770113,87.3035498 140.268814,87.5986147 140.75297,87.8819048 C141.081281,88.0751515 141.406823,88.2649351 141.727515,88.4526407" id="Fill-23" fill="#8E572A"></path>
                        <path d="M177.373922,86.1380433 C173.909333,86.8299913 172.666736,75.8454026 170.101195,65.9482597 C172.397991,64.9418528 176.616173,62.8507706 180.084225,59.7789091 C184.782407,55.6182165 189.881628,44.6052294 190.672623,44.2277403 C190.996779,44.0732814 191.989333,42.8563117 193.046996,41.4744935 C192.805264,45.7529351 192.048208,53.3047965 191.544658,55.3023723 C191.107602,57.0360519 190.380329,58.1144935 189.932883,58.6519827 C189.353835,69.3380433 188.786563,78.3714632 188.553143,78.8971775 C188.249766,79.5808139 176.877991,86.4324156 177.373922,86.1380433" id="Fill-25" fill="#EFBB00"></path>
                        <path d="M157.58587,49.5486753 C155.703273,49.4440866 151.528035,54.4248658 152.153489,56.7479827 C153.046996,57.2840866 157.962667,58.5349957 159.659636,58.5349957 C161.356606,58.5349957 165.019983,57.175342 164.751931,55.9784589 C164.483879,54.7822684 159.890978,49.6761212 157.58587,49.5486753" id="Fill-27" fill="#864A19"></path>
                        <path d="M147.691844,69.703619 C147.373229,70.7432727 148.222407,67.1969524 148.57981,65.9488139 C148.937212,64.6999827 154.854442,62.9129697 159.624658,62.9129697 C164.394874,62.9129697 167.343446,61.4244848 168.415654,63.8217143 C169.487861,66.2189437 169.577212,67.1124502 169.577212,67.1124502 C169.577212,67.1124502 167.616346,65.5041385 167.479896,65.0573853 C167.343446,64.610632 166.53929,65.5837922 160.820848,66.0797229 C155.102407,66.5763463 150.634874,65.4944416 150.188121,66.0797229 C149.741368,66.665697 147.965437,68.8101126 147.691844,69.703619" id="Fill-29" fill="#864A19"></path>
                        <path d="M158.599411,71.0438095 C160.195255,69.4354978 160.997333,67.4697835 163.723567,67.8271861 C166.449801,68.1845887 168.236814,72.6521212 166.807203,72.3840693 C165.377593,72.1160173 163.303827,70.9544589 162.956121,70.9544589 C162.607723,70.9544589 158.599411,71.0438095 158.599411,71.0438095" id="Fill-31" fill="#864A19"></path>
                        <path d="M131.934615,39.9932814 C131.494788,39.1136277 144.256,39.0125022 145.639203,39.0125022 C147.022407,39.0125022 151.211498,38.1757922 151.340329,39.5659221 C151.468468,40.9553593 148.188121,46.8358788 146.484918,47.2632381 C144.781714,47.69129 135.032104,46.1944935 131.934615,39.9932814" id="Fill-33" fill="#231F1F"></path>
                        <path d="M183.311931,40.1640866 C183.751065,39.2844329 171.484398,38.7005368 170.101195,38.7005368 C168.717991,38.7005368 164.023273,38.1138701 163.895134,39.504 C163.766303,40.8934372 167.047342,46.7739567 168.749853,47.201316 C170.453056,47.629368 180.214442,46.3652987 183.311931,40.1640866" id="Fill-35" fill="#231F1F"></path>
                        <path d="M216.331983,172.871342 L228.915186,175.497143 C229.172848,175.224935 229.483844,174.931948 229.859948,174.613333 C242.249212,164.130216 254.062199,153.271688 254.062199,153.271688 L254.062199,160.430823 C259.280554,153.600693 263.631723,146.519827 267.178736,139.851082 L258.651636,122.895931 C258.651636,122.895931 233.870338,123.163983 228.670684,126.954113 C223.47103,130.74355 229.819775,138.049524 229.395186,141.76 C228.163671,152.52987 224.099948,156.421126 224.099948,156.421126 C224.099948,156.421126 226.488173,157.844502 226.589991,162.222684 C226.692502,166.600866 222.765922,168.030476 216.331983,172.871342" id="Fill-37" fill="#864A19"></path>
                        <path d="M94.0360866,156.963463 C91.4255238,154.073074 87.8023203,136.768139 87.8023203,136.768139 C87.2308918,127.714632 89.376,127.254719 87.7531429,125.756537 C86.1302857,124.258355 78.7633593,129.37697 78.7633593,129.37697 L64.5974719,158.214372 L83.010632,170.666667 L71.785697,172.646234 C71.9311515,172.790996 72.0745281,172.937143 72.2206753,173.080519 C74.7010216,175.179221 76.6930563,176.46961 78.1780779,177.268225 C82.833316,177.672035 106.444745,179.472208 101.487515,173.951169 C95.9934892,167.833074 93.4265628,161.089524 94.0360866,156.963463" id="Fill-39" fill="#864A19"></path>
                        <path d="M81.3045887,178.531048 C81.3045887,178.531048 93.0074459,181.171394 102.687792,181.866805 C112.368139,182.562909 126.120519,167.378147 157.585801,167.378147 L157.585801,169.529489 C157.585801,169.529489 132.424935,174.907152 110.533333,185.473385 C108.318961,186.73884 85.2928139,183.420398 81.3045887,178.531048" id="Fill-41" fill="#864A19"></path>
                        <path d="M89.9072554,182.246649 C89.9072554,182.246649 91.8688139,189.016519 95.3486407,189.965437 C92.4381645,191.483706 84.2525368,186.486303 83.010632,179.20942 C89.8670823,181.170978 89.9072554,182.246649 89.9072554,182.246649" id="Fill-43" fill="#864A19"></path>
                        <path d="M150.724087,104.419325 C151.242182,104.782268 135.031619,97.2061645 87.4485887,95.1808831 C80.2347359,95.5604502 84.5374199,92.7767273 89.2203636,91.6373333 C93.9026147,90.498632 117.69413,83.2854719 120.604606,81.7665108 C123.515775,80.2482424 127.438892,79.6151688 124.401662,83.1587186 C121.364433,86.7022684 103.90019,92.1436537 101.369281,93.0295411 C98.8383723,93.9154286 139.334303,96.4463377 150.724087,104.419325" id="Fill-45" fill="#864A19"></path>
                        <path d="M69.9843463,154.53368 C83.0108398,155.54632 131.99439,157.697662 153.254996,151.623203 C147.180537,155.419567 137.436468,158.330043 114.024519,158.330043 C90.6118788,158.330043 71.629368,157.064589 69.9843463,154.53368" id="Fill-47" fill="#864A19"></path>
                        <path d="M233.867221,178.531048 C233.867221,178.531048 222.164364,181.171394 212.484017,181.866805 C202.803671,182.562909 189.05129,167.378147 157.586009,167.378147 L157.586009,169.529489 C157.586009,169.529489 182.746874,174.907152 204.638476,185.473385 C206.852848,186.73884 229.878996,183.420398 233.867221,178.531048" id="Fill-49" fill="#864A19"></path>
                        <path d="M225.264485,182.246649 C225.264485,182.246649 223.302926,189.016519 219.8231,189.965437 C222.733576,191.483706 230.919203,186.486303 232.161108,179.20942 C225.304658,181.170978 225.264485,182.246649 225.264485,182.246649" id="Fill-51" fill="#864A19"></path>
                        <path d="M164.447723,104.419325 C163.929628,104.782268 180.14019,97.2061645 227.723221,95.1808831 C234.937074,95.5604502 230.63439,92.7767273 225.951446,91.6373333 C221.269195,90.498632 197.47768,83.2854719 194.567203,81.7665108 C191.656035,80.2482424 187.732918,79.6151688 190.770147,83.1587186 C193.807377,86.7022684 211.271619,92.1436537 213.802528,93.0295411 C216.333437,93.9154286 175.837506,96.4463377 164.447723,104.419325" id="Fill-53" fill="#864A19"></path>
                        <path d="M245.187394,154.53368 C232.1609,155.54632 183.177351,157.697662 161.916745,151.623203 C167.991203,155.419567 177.735273,158.330043 201.147221,158.330043 C224.559861,158.330043 243.542372,157.064589 245.187394,154.53368" id="Fill-55" fill="#864A19"></path>
                        <path d="M158.120104,103.280416 C158.120104,99.863619 157.586078,98.8509784 157.586078,98.8509784 C157.586078,98.8509784 157.051359,99.863619 157.051359,103.280416 C157.051359,106.697212 155.406338,143.017212 155.279584,144.536173 C155.153524,146.054442 156.475082,146.940329 157.586078,146.940329 C158.697074,146.940329 160.018632,146.054442 159.891879,144.536173 C159.765126,143.017212 158.120104,106.697212 158.120104,103.280416" id="Fill-57" fill="#864A19"></path>
                        <path d="M214.67761,238.029991 L157.586009,238.029991 L100.494407,238.029991 L96.4064416,254.38116 C127.29129,263.46445 149.226528,298.629126 149.226528,298.629126 C149.226528,298.629126 152.724364,301.616485 157.586009,301.616485 C162.447654,301.616485 165.945489,298.629126 165.945489,298.629126 C165.945489,298.629126 187.880727,263.46445 218.765576,254.38116 L214.67761,238.029991 Z" id="Fill-59" fill="#231F1F"></path>
                        <path d="M221.028641,191.614615 L219.219463,193.065004 C219.219463,193.065004 206.171498,194.276433 157.585524,194.276433 C109.000242,194.276433 95.9522771,193.065004 95.9522771,193.065004 L94.1430996,191.614615 C94.1430996,191.614615 91.0920173,192.987429 91.9398095,198.412883 C92.6137489,202.730805 96.1060433,204.185351 96.1060433,204.185351 C96.1060433,204.185351 97.5557403,225.146736 97.3534892,226.862407 C95.2340087,227.871584 94.2241385,237.56232 100.493922,238.029853 C119.481974,238.800762 157.585524,239.379117 157.585524,239.379117 C157.585524,239.379117 195.689766,238.800762 214.677818,238.029853 C220.947602,237.56232 219.937732,227.871584 217.818251,226.862407 C217.616,225.146736 219.065697,204.185351 219.065697,204.185351 C219.065697,204.185351 222.557991,202.730805 223.231931,198.412883 C224.07903,192.987429 221.028641,191.614615 221.028641,191.614615" id="Fill-61" fill="#EFBB00"></path>
                        <path d="M223.232,198.413229 C224.0791,192.987775 221.02871,191.614961 221.02871,191.614961 L219.219532,193.065351 C219.219532,193.065351 206.171567,194.276087 157.585593,194.276087 C109.000312,194.276087 95.9523463,193.065351 95.9523463,193.065351 L94.1431688,191.614961 C94.1431688,191.614961 91.0920866,192.987775 91.9398788,198.413229 C92.6138182,202.730459 96.1061126,204.185004 96.1061126,204.185004 C96.1061126,204.185004 96.5133853,210.073835 96.8659394,215.864312 C104.135203,214.028121 108.557022,212.552104 108.557022,212.552104 C108.557022,212.552104 121.233732,214.561455 124.688623,214.274701 C128.142823,213.987255 133.882736,215.70916 143.067152,215.70916 C152.250874,215.70916 156.428883,211.117645 156.428883,211.117645 C156.428883,211.117645 161.824554,210.748468 161.916675,207.632277 C161.965853,205.956087 162.170182,204.478684 162.424381,203.156433 C162.143861,206.269853 164.074251,205.135307 165.627152,206.558684 C167.18213,207.984139 168.206545,212.003532 175.825593,212.926823 C183.444641,213.850805 191.294338,209.694961 194.29555,209.463619 C197.297455,209.23297 209.302996,210.618251 211.723775,210.618251 C212.345766,210.618251 214.808104,211.274874 218.530355,212.268121 C218.810874,207.867082 219.065766,204.185004 219.065766,204.185004 C219.065766,204.185004 222.558061,202.730459 223.232,198.413229" id="Fill-63" fill="#EF8F00"></path>
                        <polygon id="Fill-65" fill="#864A19" points="160.561593 164.130424 171.186701 164.130424 171.186701 194.242286 161.916398 194.242286 159.900121 178.321939"></polygon>
                        <path d="M13.7965714,202.250667 C13.486961,202.058113 13.213368,201.881489 12.9730216,201.722182 C13.2126753,201.881489 13.486961,202.058113 13.7965714,202.250667" id="Fill-67" fill="#8E572A"></path>
                        <path d="M14.2269091,202.513524 C14.1112381,202.443567 13.9990303,202.375688 13.891671,202.309887 C13.9990303,202.376381 14.1112381,202.443567 14.2269091,202.513524" id="Fill-69" fill="#8E572A"></path>
                        <path d="M12.8455065,201.638095 C12.7803983,201.595152 12.7180606,201.5529 12.6584935,201.512727 C12.7187532,201.553593 12.7797056,201.594459 12.8455065,201.638095" id="Fill-71" fill="#8E572A"></path>
                        <path d="M163.204987,174.593385 C163.338667,170.550442 159.083082,169.880658 159.153732,167.378147 C159.225074,164.875636 162.842043,166.365506 162.558753,162.605853 C162.274771,158.846892 157.144381,154.226978 153.255203,154.976416 C152.415723,154.094684 151.989749,151.044294 151.067844,150.193732 C150.145939,149.342476 146.315636,149.200485 144.400485,149.980398 C142.485333,150.761004 141.634078,152.179532 138.513039,152.959446 C135.392,153.740052 133.902823,153.66871 132.05832,156.080485 C130.214511,158.49226 124.894338,171.259706 118.36897,171.614338 C111.843602,171.96897 109.9991,171.614338 97.5156364,170.692433 C85.0314805,169.769835 74.3211775,168.036156 71.5547706,167.378147 C68.7890563,166.720139 66.5192727,165.37226 66.5192727,165.37226 C66.5192727,165.37226 53.8349437,169.136069 45.0210909,181.203255 C39.3040346,189.031481 37.7539048,201.36187 37.3687965,209.062649 C24.7100952,207.90871 17.7137316,204.593039 14.2955498,202.554597 C19.0262857,205.381264 30.6224762,210.666113 54.6716537,209.237887 C83.657974,207.515983 108.557022,199.192519 108.557022,199.192519 C108.557022,199.192519 121.233732,201.20187 124.688623,200.915117 C128.142823,200.627671 133.882736,202.349576 143.067152,202.349576 C152.250874,202.349576 156.428883,197.758061 156.428883,197.758061 C156.428883,197.758061 161.824554,197.388883 161.916675,194.272693 C162.008797,191.157195 162.629403,188.70871 163.126026,186.722216 C163.622649,184.736416 161.636156,184.594424 161.140225,180.764121 C160.643602,176.933818 163.071307,178.636329 163.204987,174.593385" id="Fill-73" fill="#FF5B1C"></path>
                        <path d="M12.5361732,201.430719 C12.4108052,201.346216 12.2951342,201.267948 12.1960866,201.201455 C12.2951342,201.267948 12.4114978,201.346909 12.5361732,201.430719" id="Fill-75" fill="#8E572A"></path>
                        <path d="M41.0892468,153.271688 C41.0892468,153.271688 50.5805022,159.237403 53.6994632,160.051255 C56.8177316,160.865108 66.5188571,165.372121 66.5188571,165.372121 C66.5188571,165.372121 73.9668225,164.450216 80.7761732,155.655065 C87.5855238,146.859913 92.5503723,136.929524 92.5503723,136.929524 C92.5503723,136.929524 93.117645,139.979221 95.0327965,144.022165 C96.9479481,148.065801 104.324571,154.976277 104.324571,154.976277 L110.354009,117.423377 L55.7566061,91.7804329 C55.7566061,91.7804329 33.7853506,92.2715152 25.481974,122.895931 C-1.20893506,141.263377 7.62916017,149.630476 4.51227706,157.944935 C4.09669264,159.05316 -1.58019048,179.561558 0.429160173,190.237922 C2.15106494,201.201732 9.61288312,199.479827 12.1957403,201.201732 C10.8277749,153.404675 41.0892468,153.271688 41.0892468,153.271688" id="Fill-77" fill="#8E572A"></path>
                        <path d="M14.2958961,202.554597 C14.273039,202.540745 14.2494892,202.526892 14.226632,202.513732 C14.2494892,202.526892 14.273039,202.540745 14.2958961,202.554597" id="Fill-79" fill="#FFAB00"></path>
                        <path d="M13.8914632,202.309541 C13.8589091,202.289455 13.8277403,202.270061 13.7965714,202.250667 C13.8284329,202.270061 13.8589091,202.289455 13.8914632,202.309541" id="Fill-81" fill="#FFAB00"></path>
                        <path d="M12.6585628,201.513004 C12.6170043,201.485299 12.5754459,201.4569 12.5359654,201.43058 C12.5761385,201.457593 12.615619,201.483913 12.6585628,201.513004" id="Fill-83" fill="#FFAB00"></path>
                        <path d="M12.9728139,201.722251 C12.9305628,201.693853 12.8862338,201.664762 12.845368,201.637749 C12.8862338,201.665455 12.9298701,201.693853 12.9728139,201.722251" id="Fill-85" fill="#FFAB00"></path>
                        <path d="M45.021368,181.203532 C53.8345281,169.135654 66.5188571,165.372537 66.5188571,165.372537 C66.5188571,165.372537 56.8177316,160.864831 53.6994632,160.050978 C50.5805022,159.237818 41.0892468,153.271411 41.0892468,153.271411 C41.0892468,153.271411 10.8277749,153.404398 12.1957403,201.202147 C12.2954805,201.267948 12.4111515,201.346216 12.5365195,201.430719 C12.5753074,201.457039 12.6168658,201.484745 12.6584242,201.513143 C12.7179913,201.553316 12.7810216,201.594874 12.8454372,201.637818 C12.886303,201.664831 12.930632,201.693922 12.9728831,201.72232 C13.2132294,201.880935 13.4868225,202.058251 13.7964329,202.250805 C13.8282944,202.270199 13.8594632,202.289593 13.8913247,202.30968 C13.9993766,202.376173 14.1108918,202.444052 14.2272554,202.513316 C14.2494199,202.527169 14.2729697,202.541022 14.2958268,202.554874 C17.7140087,204.593316 24.7103723,207.908987 37.3690736,209.062926 C37.7534892,201.362147 39.3043117,189.031758 45.021368,181.203532" id="Fill-87" fill="#FFAB00"></path>
                        <path d="M275.684641,196.494476 C275.272519,195.154216 276.17226,189.158026 274.52239,182.971359 C270.192,167.505385 251.280139,163.2311 251.280139,163.2311 C246.809835,165.498113 243.365333,166.379152 238.312519,166.768416 C233.259013,167.156987 219.39581,168.711273 210.067325,168.258286 C200.73884,167.804606 199.24897,164.695342 197.888623,161.06729 C196.528277,157.439238 193.159273,151.932745 190.762736,150.629195 C188.365506,149.325645 181.174511,146.491359 178.712866,144.677333 C176.251221,142.863307 171.522563,147.657766 168.866286,150.629195 C166.404641,149.84374 162.734338,151.848242 160.768623,154.9769 C158.802216,158.104866 163.208104,162.427636 163.208104,162.427636 C163.208104,162.427636 160.768623,164.95439 160.573991,167.999238 C160.380052,171.043394 163.553732,171.885645 163.683948,173.894303 C163.813472,175.902268 161.22161,176.809628 161.074078,179.786597 C160.926545,182.76426 164.007411,183.481835 163.942996,184.72374 C163.877887,185.965645 162.712173,186.656208 162.424727,189.785558 C162.137974,192.914216 164.072519,191.77413 165.626805,193.198892 C167.181784,194.624346 168.206199,198.64374 175.825247,199.567723 C183.444294,200.491013 191.294684,196.335169 194.295896,196.104519 C197.297108,195.873177 209.303342,197.258459 211.724121,197.258459 C214.144208,197.258459 244.396675,207.186771 268.6391,208.34071 C270.304208,208.420364 271.870961,208.45361 273.362909,208.452918 C275.013472,206.432485 276.096762,197.834043 275.684641,196.494476" id="Fill-89" fill="#FF5B1C"></path>
                        <path d="M275.684641,196.494476 C275.272519,195.154216 276.17226,189.158026 274.52239,182.971359 C270.192,167.505385 251.280139,163.2311 251.280139,163.2311 C246.809835,165.498113 243.365333,166.379152 238.312519,166.768416 C233.259013,167.156987 219.39581,168.711273 210.067325,168.258286 C200.73884,167.804606 199.24897,164.695342 197.888623,161.06729 C196.528277,157.439238 193.159273,151.932745 190.762736,150.629195 C188.365506,149.325645 181.174511,146.491359 178.712866,144.677333 C176.251221,142.863307 171.522563,147.657766 168.866286,150.629195 C166.404641,149.84374 162.734338,151.848242 160.768623,154.9769 C158.802216,158.104866 163.208104,162.427636 163.208104,162.427636 C163.208104,162.427636 160.768623,164.95439 160.573991,167.999238 C160.380052,171.043394 163.553732,171.885645 163.683948,173.894303 C163.813472,175.902268 161.22161,176.809628 161.074078,179.786597 C160.926545,182.76426 164.007411,183.481835 163.942996,184.72374 C163.877887,185.965645 162.712173,186.656208 162.424727,189.785558 C162.137974,192.914216 164.072519,191.77413 165.626805,193.198892 C167.181784,194.624346 168.206199,198.64374 175.825247,199.567723 C183.444294,200.491013 191.294684,196.335169 194.295896,196.104519 C197.297108,195.873177 209.303342,197.258459 211.724121,197.258459 C214.144208,197.258459 244.396675,207.186771 268.6391,208.34071 C270.304208,208.420364 271.870961,208.45361 273.362909,208.452918 C275.013472,206.432485 276.096762,197.834043 275.684641,196.494476" id="Fill-91" fill="#FF5B1C"></path>
                        <path d="M15.021368,216.333576 C14.9929697,216.317645 14.9645714,216.301714 14.9368658,216.285784 C14.9645714,216.301714 14.9929697,216.317645 15.021368,216.333576" id="Fill-93" fill="#FF5B1C"></path>
                        <path d="M14.9367273,216.285853 C14.711619,216.158407 14.4962078,216.033732 14.2960346,215.913905 C14.4955152,216.033732 14.7123117,216.158407 14.9367273,216.285853" id="Fill-95" fill="#FF5B1C"></path>
                        <path d="M15.7887446,216.751238 C15.758961,216.735307 15.7291775,216.720069 15.7000866,216.704139 C15.7291775,216.720069 15.758961,216.735307 15.7887446,216.751238" id="Fill-97" fill="#F26522"></path>
                        <path d="M15.6999481,216.704208 C15.4630649,216.578147 15.2351861,216.454165 15.0211602,216.333645 C15.2344935,216.453472 15.4637576,216.578147 15.6999481,216.704208" id="Fill-99" fill="#F26522"></path>
                        <path d="M317.124087,165.397333 C313.083913,149.630753 312.558199,141.785212 310.100017,136.075775 C304.423827,122.895515 289.649108,117.70071 286.417247,111.48703 C280.183481,96.0175931 264.107983,90.6475498 264.107983,90.6475498 C250.720623,85.8517056 203.200623,130.295688 203.551792,130.555429 C203.903654,130.814476 217.970494,150.313697 217.970494,150.313697 C217.970494,150.313697 221.857593,146.16755 223.671619,141.308675 C225.485645,136.450494 225.991965,131.267463 225.991965,131.267463 C225.991965,131.267463 226.00374,130.944 229.178113,136.644433 C232.352485,142.345558 241.627636,160.704693 251.280277,163.230753 C251.280277,163.230753 259.532398,160.263481 259.842009,160.160277 C260.150926,160.057074 264.172398,158.820017 265.861749,157.891879 C267.5511,156.96374 275.720104,152.633351 275.720104,152.633351 C275.720104,152.633351 286.672139,149.903654 298.815515,172.429714 C305.612398,185.037853 302.708848,198.290147 301.606165,202.205645 C303.772745,201.402182 305.915775,200.761489 308.350407,200.491359 C318.740017,199.336727 319.664,191.48703 319.894649,190.238199 C320.125299,188.989368 317.958719,168.65413 317.124087,165.397333" id="Fill-101" fill="#8E572A"></path>
                        <path d="M298.815792,172.429853 C286.672416,149.903792 275.720381,152.633489 275.720381,152.633489 C275.720381,152.633489 267.551377,156.963879 265.862026,157.892017 C264.172675,158.820156 260.151203,160.057212 259.842286,160.160416 C259.532675,160.263619 251.279861,163.230892 251.279861,163.230892 C251.279861,163.230892 270.192416,167.50587 274.522805,182.971152 C276.171983,189.157818 275.272242,195.154009 275.684364,196.494268 C276.097177,197.833835 275.013887,206.43297 273.363325,208.45271 C288.505143,208.447169 295.162805,204.596779 301.606442,202.205784 C302.708433,198.290286 305.612675,185.037299 298.815792,172.429853" id="Fill-103" fill="#FFAB00"></path>
                        <path d="M141.444779,156.755117 C139.522701,156.663688 140.254823,157.945074 140.254823,157.945074 C140.254823,157.945074 147.211013,156.480831 148.492398,156.846545 C149.440623,157.117368 152.698113,155.445333 154.796814,154.941784 C154.2711,154.87529 153.753004,154.880831 153.254996,154.976416 C153.254996,154.976416 143.366857,156.846545 141.444779,156.755117" id="Fill-105" fill="#C53805"></path>
                        <path d="M158.618043,181.924087 C160.939082,182.656208 161.796571,183.206165 161.916398,183.434736 C161.593628,182.79058 161.294407,181.956641 161.139948,180.764606 C160.643325,176.934303 163.07103,178.636121 163.20471,174.593177 C163.339082,170.550234 160.480554,169.926165 160.551896,167.424346 C160.622545,164.921835 163.491463,166.18729 163.208173,162.427636 C163.062026,160.488935 160.973714,158.505212 159.08419,156.963394 C159.716571,158.63058 160.921766,162.333437 159.900121,164.076814 C158.559861,166.365299 158.469126,166.822442 158.743411,167.829541 C159.017004,168.835948 161.787567,171.380017 162.404017,172.222268 C163.019775,173.065212 162.576485,177.479411 161.392069,178.282874 C160.206961,179.08703 156.297004,181.191965 158.618043,181.924087" id="Fill-107" fill="#C53805"></path>
                        <path d="M161.916675,194.27297 C162.008797,191.156779 162.629403,188.708294 163.126026,186.722494 C163.46819,185.354528 162.632173,184.860675 161.916675,183.435221 C162.036502,183.663792 161.030788,186.043013 161.030788,189.062926 C161.030788,192.064831 162.242216,194.234874 161.24897,195.887515 C161.636848,195.453229 161.897281,194.926823 161.916675,194.27297" id="Fill-109" fill="#DF3805"></path>
                        <path d="M192.331844,195.561074 C189.311238,195.743931 181.989333,197.57458 178.511584,196.842459 C175.033835,196.110338 171.647515,192.632589 171.647515,192.632589 C171.647515,192.632589 166.705524,192.540468 166.247688,192.35761 C165.789853,192.174753 162.639723,189.886268 163.208381,188.788433 C163.776346,187.689905 165.257905,186.763844 164.599896,185.743584 C163.94258,184.724017 163.463273,182.290078 163.208381,181.008693 C162.952797,179.727307 163.502061,178.629472 163.776346,177.164537 C164.051325,175.700294 165.057732,173.503931 164.142753,172.313974 C163.227082,171.124017 160.93929,168.561939 161.030719,167.463411 C161.122147,166.364883 165.698424,162.612848 165.698424,162.612848 C165.698424,162.612848 162.346736,160.092329 160.273662,156.942199 C160.387948,159.653887 163.208381,162.427913 163.208381,162.427913 C163.208381,162.427913 160.768208,164.953974 160.574268,167.998823 C160.379636,171.043671 163.554009,171.885922 163.683532,173.893887 C163.75626,175.023584 162.968727,175.80419 162.239377,176.8009 C162.027429,177.485922 161.743446,178.043498 161.39297,178.282459 C161.221195,178.722978 161.102753,179.216139 161.074355,179.786874 C160.92613,182.764537 164.007688,183.482113 163.94258,184.724017 C163.878165,185.965922 162.711758,186.656485 162.425004,189.785143 C162.137558,192.914494 164.072104,191.773714 165.627082,193.199169 C167.182061,194.624623 168.206476,198.644017 175.825524,199.567307 C183.444571,200.49129 191.294268,196.335446 194.296173,196.104104 C194.551758,196.08471 194.877299,196.077784 195.252017,196.079861 C194.637645,195.753628 193.703273,195.477957 192.331844,195.561074" id="Fill-111" fill="#C53805"></path>
                        <path d="M102.851879,227.128658 C105.669541,227.460433 133.709714,227.957056 162.11768,228.12329 C190.525645,228.288831 214.225732,227.625974 214.225732,227.625974 C214.225732,227.625974 200.138805,227.128658 156.384693,226.134026 C112.63058,225.140087 102.851879,227.128658 102.851879,227.128658" id="Fill-113" fill="#EFD300"></path>
                        <path d="M101.194528,203.92568 C101.194528,203.92568 142.367861,205.74871 159.899983,204.920312 C177.432797,204.091221 213.563013,203.92568 213.563013,203.92568 C213.563013,203.92568 193.245091,203.760139 160.561455,203.92568 C127.877818,204.091221 101.194528,203.92568 101.194528,203.92568" id="Fill-115" fill="#EF7D00"></path>
                        <path d="M65.0130563,91.7806407 C60.5704589,91.7847965 59.9948745,92.7745801 64.5974719,94.482632 C69.2000693,96.1899913 80.2747013,109.248346 92.0655238,111.011117 C103.856346,112.77458 78.1905455,98.5428918 87.217039,94.5373506 C100.440242,88.6692987 74.5444848,93.93129 73.277645,93.655619 C72.0101126,93.3806407 67.0514978,91.7785628 65.0130563,91.7806407" id="Fill-117" fill="#864A19"></path>
                        <path d="M229.458978,103.048312 C232.331359,104.557576 235.436468,102.557229 242.642701,97.6436364 C249.848935,92.7307359 255.662961,91.6661472 249.685472,89.9463203 C243.70729,88.2264935 240.577939,95.3198268 227.812571,92.1828571 C215.046511,89.0451948 217.585039,91.9937662 217.585039,91.9937662 C217.585039,91.9937662 233.307983,96.497316 231.097074,99.2817316 C228.885472,102.065455 224.62781,100.509784 229.458978,103.048312" id="Fill-119" fill="#864A19"></path>
                    </g>
                </g>
            </g>
        </g>
    </g>
</svg>